<svg xmlns="http://www.w3.org/2000/svg" xmlns:xlink="http://www.w3.org/1999/xlink" width="500" zoomAndPan="magnify" viewBox="0 0 375 374.999991" height="500" preserveAspectRatio="xMidYMid meet" version="1.0"><defs><clipPath id="14fc3cf700"><path d="M 31 1 L 344.4375 1 L 344.4375 374 L 31 374 Z M 31 1 " clip-rule="nonzero"/></clipPath><clipPath id="53e7cb557d"><path d="M 97.730469 267.175781 L 129.230469 267.175781 L 129.230469 298.675781 L 97.730469 298.675781 Z M 97.730469 267.175781 " clip-rule="nonzero"/></clipPath></defs><g clip-path="url(#14fc3cf700)"><path fill="#f4f4f5" d="M 334.480469 1.121094 L 40.960938 1.121094 C 35.453125 1.121094 31.050781 5.578125 31.050781 11.011719 L 31.050781 363.917969 C 31.050781 369.421875 35.453125 373.878906 40.960938 373.878906 L 334.480469 373.878906 C 339.917969 373.878906 344.390625 369.421875 344.390625 363.917969 L 344.390625 11.011719 C 344.390625 5.578125 339.917969 1.121094 334.480469 1.121094 " fill-opacity="1" fill-rule="nonzero"/></g><path fill="#000000" d="M 217.171875 309.023438 C 217.171875 308.558594 217.515625 308.214844 217.980469 308.214844 L 248.035156 308.214844 C 248.5 308.214844 248.894531 308.558594 248.894531 309.023438 L 248.894531 339.078125 C 248.894531 339.542969 248.5 339.9375 248.035156 339.9375 L 217.980469 339.9375 C 217.515625 339.9375 217.171875 339.542969 217.171875 339.078125 L 217.171875 309.023438 " fill-opacity="1" fill-rule="nonzero"/><path fill="#000000" d="M 238.125 150.253906 C 238.125 150.71875 237.78125 151.117188 237.335938 151.117188 L 207.28125 151.117188 C 206.816406 151.117188 206.402344 150.71875 206.402344 150.253906 L 206.402344 120.203125 C 206.402344 119.738281 206.816406 119.394531 207.28125 119.394531 L 237.335938 119.394531 C 237.78125 119.394531 238.125 119.738281 238.125 120.203125 L 238.125 150.253906 " fill-opacity="1" fill-rule="nonzero"/><path fill="#000000" d="M 206.402344 179.105469 C 206.402344 178.65625 206.816406 178.261719 207.28125 178.261719 L 237.335938 178.261719 C 237.78125 178.261719 238.125 178.65625 238.125 179.105469 L 238.125 209.175781 C 238.125 209.625 237.78125 209.96875 237.335938 209.96875 L 207.28125 209.96875 C 206.816406 209.96875 206.402344 209.625 206.402344 209.175781 L 206.402344 179.105469 " fill-opacity="1" fill-rule="nonzero"/><path fill="#ff6e40" d="M 206.402344 237.972656 C 206.402344 237.507812 206.816406 237.164062 207.28125 237.164062 L 237.335938 237.164062 C 237.78125 237.164062 238.125 237.507812 238.125 237.972656 L 238.125 268.078125 C 238.125 268.492188 237.78125 268.886719 237.335938 268.886719 L 207.28125 268.886719 C 206.816406 268.886719 206.402344 268.492188 206.402344 268.078125 L 206.402344 237.972656 " fill-opacity="1" fill-rule="nonzero"/><path fill="#000000" d="M 316.570312 34.546875 L 316.570312 81.5625 C 316.570312 82.527344 315.761719 83.335938 314.78125 83.335938 L 60.65625 83.335938 C 59.675781 83.335938 58.816406 82.527344 58.816406 81.5625 L 58.816406 34.546875 C 58.816406 33.515625 59.675781 32.722656 60.65625 32.722656 L 314.78125 32.722656 C 315.761719 32.722656 316.570312 33.515625 316.570312 34.546875 " fill-opacity="1" fill-rule="nonzero"/><path fill="#000000" d="M 167.421875 150.253906 C 167.421875 150.71875 167.023438 151.117188 166.558594 151.117188 L 136.507812 151.117188 C 136.058594 151.117188 135.714844 150.71875 135.714844 150.253906 L 135.714844 120.203125 C 135.714844 119.738281 136.058594 119.394531 136.507812 119.394531 L 166.558594 119.394531 C 167.023438 119.394531 167.421875 119.738281 167.421875 120.203125 L 167.421875 150.253906 " fill-opacity="1" fill-rule="nonzero"/><path fill="#ff6e40" d="M 135.714844 179.105469 C 135.714844 178.65625 136.058594 178.261719 136.507812 178.261719 L 166.558594 178.261719 C 167.023438 178.261719 167.421875 178.65625 167.421875 179.105469 L 167.421875 209.175781 C 167.421875 209.625 167.023438 209.96875 166.558594 209.96875 L 136.507812 209.96875 C 136.058594 209.96875 135.714844 209.625 135.714844 209.175781 L 135.714844 179.105469 " fill-opacity="1" fill-rule="nonzero"/><path fill="#000000" d="M 135.714844 237.972656 C 135.714844 237.507812 136.058594 237.164062 136.507812 237.164062 L 166.558594 237.164062 C 167.023438 237.164062 167.421875 237.507812 167.421875 237.972656 L 167.421875 268.078125 C 167.421875 268.492188 167.023438 268.886719 166.558594 268.886719 L 136.507812 268.886719 C 136.058594 268.886719 135.714844 268.492188 135.714844 268.078125 L 135.714844 237.972656 " fill-opacity="1" fill-rule="nonzero"/><path fill="#000000" d="M 64.941406 179.105469 C 64.941406 178.65625 65.285156 178.261719 65.75 178.261719 L 95.804688 178.261719 C 96.25 178.261719 96.664062 178.65625 96.664062 179.105469 L 96.664062 209.175781 C 96.664062 209.625 96.25 209.96875 95.804688 209.96875 L 65.75 209.96875 C 65.285156 209.96875 64.941406 209.625 64.941406 209.175781 L 64.941406 179.105469 " fill-opacity="1" fill-rule="nonzero"/><path fill="#000000" d="M 64.941406 237.972656 C 64.941406 237.507812 65.285156 237.164062 65.75 237.164062 L 95.804688 237.164062 C 96.25 237.164062 96.664062 237.507812 96.664062 237.972656 L 96.664062 268.078125 C 96.664062 268.492188 96.25 268.886719 95.804688 268.886719 L 65.75 268.886719 C 65.285156 268.886719 64.941406 268.492188 64.941406 268.078125 L 64.941406 237.972656 " fill-opacity="1" fill-rule="nonzero"/><path fill="#ff6e40" d="M 96.664062 150.253906 C 96.664062 150.71875 96.25 151.117188 95.804688 151.117188 L 65.75 151.117188 C 65.285156 151.117188 64.941406 150.71875 64.941406 150.253906 L 64.941406 120.203125 C 64.941406 119.738281 65.285156 119.394531 65.75 119.394531 L 95.804688 119.394531 C 96.25 119.394531 96.664062 119.738281 96.664062 120.203125 L 96.664062 150.253906 " fill-opacity="1" fill-rule="nonzero"/><path fill="#000000" d="M 64.941406 309.539062 C 64.941406 308.78125 65.527344 308.214844 66.265625 308.214844 L 185.914062 308.214844 C 186.671875 308.214844 187.238281 308.78125 187.238281 309.539062 L 187.238281 341.761719 C 187.238281 342.519531 186.671875 343.085938 185.914062 343.085938 L 66.265625 343.085938 C 65.527344 343.085938 64.941406 342.519531 64.941406 341.761719 L 64.941406 309.539062 " fill-opacity="1" fill-rule="nonzero"/><path fill="#ff6e40" d="M 278.777344 309.023438 C 278.777344 308.558594 279.121094 308.214844 279.585938 308.214844 L 309.691406 308.214844 C 310.085938 308.214844 310.5 308.558594 310.5 309.023438 L 310.5 339.078125 C 310.5 339.542969 310.15625 339.9375 309.691406 339.9375 L 279.585938 339.9375 C 279.121094 339.9375 278.777344 339.542969 278.777344 339.078125 L 278.777344 309.023438 " fill-opacity="1" fill-rule="nonzero"/><path fill="#000000" d="M 310.5 267.511719 C 310.5 268.492188 309.691406 269.230469 308.726562 269.230469 L 277.347656 269.230469 C 276.386719 269.230469 275.628906 268.492188 275.628906 267.511719 L 275.628906 121.183594 C 275.628906 120.203125 276.386719 119.394531 277.347656 119.394531 L 308.726562 119.394531 C 309.691406 119.394531 310.5 120.203125 310.5 121.183594 L 310.5 267.511719 " fill-opacity="1" fill-rule="nonzero"/><path fill="#ff6e40" d="M 301.742188 58.71875 C 300.933594 58.148438 299.953125 57.683594 298.871094 57.390625 C 297.785156 57.046875 296.632812 56.824219 295.496094 56.773438 L 303.980469 46.984375 L 303.980469 45.660156 L 288.222656 45.660156 L 288.222656 47.433594 L 301.449219 47.433594 L 292.746094 57.390625 L 293.261719 58.476562 L 294.585938 58.476562 C 295.722656 58.476562 296.753906 58.597656 297.734375 58.820312 C 298.699219 59.0625 299.507812 59.386719 300.195312 59.851562 C 300.933594 60.367188 301.449219 60.953125 301.847656 61.625 C 302.257812 62.3125 302.429688 63.050781 302.429688 63.980469 C 302.429688 64.839844 302.257812 65.582031 301.964844 66.269531 C 301.621094 66.957031 301.175781 67.523438 300.589844 67.988281 C 300.023438 68.503906 299.386719 68.902344 298.59375 69.195312 C 297.855469 69.417969 297.046875 69.589844 296.238281 69.589844 C 294.585938 69.589844 293.089844 69.246094 291.832031 68.558594 C 290.527344 67.816406 289.375 66.835938 288.394531 65.53125 L 286.964844 66.734375 C 287.996094 68.109375 289.253906 69.195312 290.800781 69.984375 C 292.351562 70.84375 294.121094 71.242188 296.1875 71.242188 C 297.269531 71.242188 298.300781 71.085938 299.28125 70.726562 C 300.316406 70.382812 301.175781 69.933594 301.914062 69.246094 C 302.65625 68.625 303.273438 67.816406 303.738281 66.957031 C 304.132812 66.046875 304.375 65.011719 304.375 63.929688 C 304.375 62.777344 304.132812 61.746094 303.6875 60.882812 C 303.171875 60.023438 302.535156 59.335938 301.742188 58.71875 " fill-opacity="1" fill-rule="nonzero"/><path fill="#ff6e40" d="M 276.144531 62.089844 C 277.226562 61.058594 278.207031 60.144531 279 59.335938 C 279.808594 58.476562 280.445312 57.683594 280.960938 56.929688 C 281.460938 56.1875 281.875 55.449219 282.097656 54.65625 C 282.320312 53.898438 282.441406 53.089844 282.441406 52.230469 C 282.441406 51.269531 282.269531 50.355469 281.875 49.496094 C 281.460938 48.636719 280.960938 47.894531 280.324219 47.261719 C 279.636719 46.640625 278.84375 46.175781 277.96875 45.832031 C 277.054688 45.488281 276.023438 45.316406 274.941406 45.316406 C 273.855469 45.316406 272.894531 45.417969 272.03125 45.710938 C 271.171875 45.933594 270.363281 46.277344 269.675781 46.796875 C 268.9375 47.261719 268.300781 47.828125 267.730469 48.464844 C 267.148438 49.152344 266.578125 49.890625 266.011719 50.753906 L 267.386719 51.664062 C 268.472656 50.183594 269.574219 48.980469 270.707031 48.171875 C 271.792969 47.378906 273.167969 46.984375 274.769531 46.984375 C 275.507812 46.984375 276.265625 47.15625 276.953125 47.378906 C 277.625 47.605469 278.261719 48 278.777344 48.464844 C 279.292969 48.910156 279.707031 49.496094 279.980469 50.183594 C 280.324219 50.820312 280.496094 51.5625 280.496094 52.351562 C 280.496094 53.039062 280.375 53.675781 280.222656 54.3125 C 279.980469 54.933594 279.707031 55.570312 279.242188 56.257812 C 278.84375 56.929688 278.261719 57.632812 277.519531 58.425781 C 276.78125 59.164062 275.921875 60.023438 274.886719 60.953125 L 265.496094 69.417969 L 265.496094 70.84375 L 282.664062 70.84375 L 282.664062 69.023438 L 268.472656 69.023438 L 276.144531 62.089844 " fill-opacity="1" fill-rule="nonzero"/><path fill="#ff6e40" d="M 252.78125 47.605469 L 253.296875 49.101562 L 258.167969 47.433594 L 258.167969 70.84375 L 260.058594 70.84375 L 260.058594 45.488281 L 258.578125 45.488281 L 252.78125 47.605469 " fill-opacity="1" fill-rule="nonzero"/><g clip-path="url(#53e7cb557d)"><path fill="#ffffff" d="M 129.230469 282.925781 C 129.230469 283.960938 129.128906 284.984375 128.925781 286 C 128.726562 287.015625 128.425781 288 128.03125 288.953125 C 127.636719 289.910156 127.148438 290.816406 126.574219 291.675781 C 126 292.539062 125.347656 293.332031 124.617188 294.0625 C 123.886719 294.796875 123.089844 295.449219 122.230469 296.023438 C 121.371094 296.597656 120.460938 297.082031 119.507812 297.476562 C 118.550781 297.875 117.566406 298.171875 116.550781 298.375 C 115.539062 298.578125 114.515625 298.675781 113.480469 298.675781 C 112.445312 298.675781 111.421875 298.578125 110.40625 298.375 C 109.394531 298.171875 108.40625 297.875 107.453125 297.476562 C 106.496094 297.082031 105.589844 296.597656 104.730469 296.023438 C 103.871094 295.449219 103.074219 294.796875 102.34375 294.0625 C 101.613281 293.332031 100.957031 292.539062 100.382812 291.675781 C 99.808594 290.816406 99.324219 289.910156 98.929688 288.953125 C 98.53125 288 98.234375 287.015625 98.03125 286 C 97.832031 284.984375 97.730469 283.960938 97.730469 282.925781 C 97.730469 281.894531 97.832031 280.867188 98.03125 279.855469 C 98.234375 278.839844 98.53125 277.855469 98.929688 276.898438 C 99.324219 275.945312 99.808594 275.035156 100.382812 274.175781 C 100.957031 273.316406 101.613281 272.523438 102.34375 271.789062 C 103.074219 271.058594 103.871094 270.40625 104.730469 269.832031 C 105.589844 269.257812 106.496094 268.773438 107.453125 268.375 C 108.40625 267.980469 109.394531 267.679688 110.40625 267.480469 C 111.421875 267.277344 112.445312 267.175781 113.480469 267.175781 C 114.515625 267.175781 115.539062 267.277344 116.550781 267.480469 C 117.566406 267.679688 118.550781 267.980469 119.507812 268.375 C 120.460938 268.773438 121.371094 269.257812 122.230469 269.832031 C 123.089844 270.40625 123.886719 271.058594 124.617188 271.789062 C 125.347656 272.523438 126 273.316406 126.574219 274.175781 C 127.148438 275.035156 127.636719 275.945312 128.03125 276.898438 C 128.425781 277.855469 128.726562 278.839844 128.925781 279.855469 C 129.128906 280.867188 129.230469 281.894531 129.230469 282.925781 Z M 129.230469 282.925781 " fill-opacity="1" fill-rule="nonzero"/></g></svg>