<svg xmlns="http://www.w3.org/2000/svg" xmlns:xlink="http://www.w3.org/1999/xlink" width="500" zoomAndPan="magnify" viewBox="0 0 375 374.999991" height="500" preserveAspectRatio="xMidYMid meet" version="1.0"><defs><clipPath id="83d934d768"><path d="M 39 39.191406 L 335 39.191406 L 335 338 L 39 338 Z M 39 39.191406 " clip-rule="nonzero"/></clipPath><clipPath id="bfaf6a5505"><path d="M 37.5 42 L 335 42 L 335 336 L 37.5 336 Z M 37.5 42 " clip-rule="nonzero"/></clipPath></defs><path fill="#ff6e40" d="M 373.550781 207.710938 C 374.480469 200.085938 374.980469 192.324219 374.980469 184.429688 C 374.980469 176.535156 374.480469 168.773438 373.550781 161.148438 L 345.527344 152.886719 C 343.070312 140.316406 339.125 128.3125 333.917969 117.003906 L 351.695312 93.917969 C 344.132812 80.21875 334.914062 67.550781 324.265625 56.242188 L 296.804688 65.992188 L 296.773438 65.992188 C 287.550781 57.46875 277.335938 50.007812 266.324219 43.839844 L 267.121094 14.683594 C 253.191406 8.117188 238.332031 3.242188 222.8125 0.289062 L 206.328125 24.335938 C 200.160156 23.605469 193.859375 23.242188 187.488281 23.242188 C 181.089844 23.242188 174.820312 23.605469 168.617188 24.335938 L 152.132812 0.289062 C 136.613281 3.242188 121.753906 8.117188 107.824219 14.683594 L 108.621094 43.835938 C 97.609375 50.007812 87.394531 57.46875 78.171875 65.992188 L 78.140625 65.992188 L 50.710938 56.242188 C 40.066406 67.550781 30.84375 80.222656 23.25 93.917969 L 41.027344 117.003906 C 35.820312 128.3125 31.871094 140.316406 29.417969 152.886719 L 1.425781 161.148438 C 0.496094 168.773438 0 176.535156 0 184.429688 C 0 192.324219 0.496094 200.085938 1.425781 207.710938 L 29.417969 215.972656 C 31.871094 228.542969 35.820312 240.546875 41.027344 251.855469 L 23.25 274.941406 C 30.84375 288.640625 40.066406 301.308594 50.710938 312.617188 L 78.171875 302.867188 C 87.394531 311.390625 97.609375 318.820312 108.621094 324.988281 L 107.824219 354.175781 C 121.753906 360.742188 136.609375 365.617188 152.132812 368.566406 L 168.648438 344.488281 C 174.816406 345.21875 181.121094 345.582031 187.488281 345.582031 C 193.855469 345.582031 200.15625 345.21875 206.328125 344.488281 L 222.8125 368.570312 C 238.332031 365.617188 253.191406 360.742188 267.121094 354.175781 L 266.324219 325.023438 C 277.335938 318.820312 287.550781 311.390625 296.773438 302.867188 L 324.265625 312.617188 C 334.914062 301.308594 344.132812 288.640625 351.695312 274.941406 L 333.917969 251.859375 C 339.125 240.546875 343.070312 228.542969 345.527344 215.972656 Z M 187.523438 295.4375 C 126.195312 295.4375 76.480469 245.71875 76.480469 184.398438 C 76.480469 123.136719 126.199219 73.421875 187.523438 73.421875 C 248.78125 73.421875 298.496094 123.140625 298.496094 184.398438 C 298.496094 245.722656 248.78125 295.4375 187.523438 295.4375 Z M 187.523438 295.4375 " fill-opacity="1" fill-rule="nonzero"/><g clip-path="url(#83d934d768)"><path fill="#ffffff" d="M 301.402344 283.582031 L 314.011719 283.582031 L 313.144531 275.753906 C 308.796875 266.1875 288.792969 260.972656 288.792969 260.972656 C 295.75 257.492188 319.230469 266.1875 319.230469 266.1875 C 319.230469 266.1875 319.230469 266.1875 322.707031 273.148438 C 326.1875 280.101562 326.1875 293.148438 326.1875 293.148438 L 328.796875 290.871094 L 328.796875 307.929688 L 315.753906 287.058594 Z M 255.75 272.734375 L 207.050781 220.453125 L 250.53125 257.492188 C 250.53125 257.492188 256.621094 262.710938 259.230469 260.101562 C 261.835938 257.492188 261.835938 257.492188 261.835938 257.492188 L 276.621094 258.363281 C 276.621094 258.363281 257.488281 268.9375 255.75 278.871094 C 254.011719 288.796875 255.75 272.734375 255.75 272.734375 Z M 207.050781 193.140625 C 207.050781 193.140625 242.707031 227.058594 255.75 242.710938 C 255.75 242.710938 214.878906 205.316406 207.050781 193.140625 Z M 123.570312 117.488281 C 118.351562 112.269531 114.875 118.355469 114.875 118.355469 L 99.222656 117.488281 C 105.308594 115.75 119.222656 99.355469 119.222656 99.355469 L 119.222656 105.3125 L 121.832031 103.574219 L 169.660156 154.011719 C 169.660156 154.011719 128.789062 122.707031 123.570312 117.488281 Z M 54.28125 109.984375 C 54.28125 109.984375 54.28125 109.984375 51.261719 102.738281 C 48.242188 95.492188 48.269531 81.914062 48.269531 81.914062 L 45.992188 84.277344 L 45.996094 81.226562 L 46.023438 66.523438 L 57.363281 88.269531 L 69.871094 91.914062 L 58.871094 91.894531 L 59.613281 100.039062 C 63.386719 110.003906 80.824219 115.46875 80.824219 115.46875 C 74.75 119.078125 54.28125 109.984375 54.28125 109.984375 Z M 42.996094 64.707031 C 42.996094 64.707031 41.417969 93.667969 52.003906 111.792969 C 52.003906 111.792969 38.375 98.1875 42.996094 64.707031 Z M 332.273438 309.671875 C 332.273438 309.671875 334.015625 281.84375 321.839844 264.449219 C 321.839844 264.449219 337.492188 277.492188 332.273438 309.671875 Z M 295.75 334.886719 L 282.707031 314.015625 C 282.707031 314.015625 280.097656 310.539062 281.839844 302.710938 C 283.578125 294.886719 295.75 289.667969 299.230469 287.929688 C 302.707031 286.191406 313.144531 288.796875 313.144531 288.796875 C 313.144531 288.796875 327.058594 310.539062 329.664062 314.886719 C 332.273438 319.234375 333.144531 312.277344 333.144531 312.277344 C 335.753906 296.625 334.882812 281.84375 328.796875 268.796875 C 322.707031 255.753906 290.535156 254.882812 280.097656 252.273438 C 269.664062 249.667969 260.96875 238.363281 260.96875 238.363281 C 260.96875 238.363281 159.222656 135.75 141.832031 118.355469 C 124.441406 100.964844 127.917969 99.226562 126.179688 87.921875 C 124.441406 76.617188 120.960938 67.921875 120.960938 67.921875 C 113.136719 45.308594 79.222656 39.222656 79.222656 39.222656 C 77.480469 39.222656 80.089844 42.703125 80.089844 42.703125 L 94.003906 65.3125 C 94.003906 65.3125 94.003906 67.921875 94.003906 72.269531 C 94.003906 76.617188 85.308594 84.441406 76.613281 87.050781 C 67.914062 89.660156 60.960938 86.183594 60.960938 86.183594 C 60.960938 86.183594 48.785156 66.183594 46.175781 61.832031 C 43.566406 57.484375 40.960938 62.703125 40.960938 62.703125 C 37.480469 75.746094 40.089844 90.53125 44.4375 103.574219 C 48.785156 116.617188 72.265625 120.964844 84.4375 121.835938 C 96.613281 122.707031 106.179688 130.53125 106.179688 130.53125 C 106.179688 130.53125 231.402344 255.753906 236.621094 260.972656 C 241.835938 266.1875 246.183594 273.148438 247.054688 284.453125 C 247.925781 295.757812 254.011719 311.410156 254.011719 311.410156 C 259.230469 327.929688 287.054688 336.625 292.273438 337.496094 C 297.492188 338.367188 295.75 334.886719 295.75 334.886719 " fill-opacity="1" fill-rule="nonzero"/></g><g clip-path="url(#bfaf6a5505)"><path fill="#ffffff" d="M 280.5 75.085938 L 280.5 62.546875 L 272.71875 63.410156 C 263.207031 67.734375 258.019531 87.621094 258.019531 87.621094 C 254.5625 80.707031 263.207031 57.359375 263.207031 57.359375 C 263.207031 57.359375 263.207031 57.359375 270.125 53.902344 C 277.042969 50.441406 290.011719 50.441406 290.011719 50.441406 L 287.75 47.847656 L 304.710938 47.847656 L 283.960938 60.816406 Z M 269.714844 120.480469 L 217.730469 168.902344 L 254.5625 125.667969 C 254.5625 125.667969 259.75 119.613281 257.15625 117.019531 C 254.5625 114.429688 254.5625 114.429688 254.5625 114.429688 L 255.425781 99.726562 C 255.425781 99.726562 265.941406 118.75 275.816406 120.480469 C 285.691406 122.210938 269.714844 120.480469 269.714844 120.480469 Z M 190.574219 168.902344 C 190.574219 168.902344 224.296875 133.449219 239.863281 120.480469 C 239.863281 120.480469 202.679688 161.121094 190.574219 168.902344 Z M 115.347656 251.910156 C 110.160156 257.097656 116.214844 260.558594 116.214844 260.558594 L 115.347656 276.121094 C 113.621094 270.070312 97.316406 256.234375 97.316406 256.234375 L 103.242188 256.234375 L 101.515625 253.640625 L 151.664062 206.082031 C 151.664062 206.082031 120.539062 246.722656 115.347656 251.910156 Z M 107.890625 320.804688 C 107.890625 320.804688 107.890625 320.804688 100.683594 323.808594 C 93.476562 326.8125 79.976562 326.785156 79.976562 326.785156 L 82.328125 329.050781 L 79.292969 329.046875 L 64.675781 329.015625 L 86.296875 317.746094 L 89.921875 305.304688 L 89.898438 316.246094 L 98 315.507812 C 107.90625 311.753906 113.34375 294.414062 113.34375 294.414062 C 116.929688 300.457031 107.890625 320.804688 107.890625 320.804688 Z M 62.867188 332.03125 C 62.867188 332.03125 91.664062 333.597656 109.6875 323.074219 C 109.6875 323.074219 96.15625 336.625 62.867188 332.03125 Z M 306.441406 44.390625 C 306.441406 44.390625 278.773438 42.660156 261.480469 54.765625 C 261.480469 54.765625 274.449219 39.203125 306.441406 44.390625 Z M 331.515625 80.707031 L 310.765625 93.675781 C 310.765625 93.675781 307.308594 96.269531 299.523438 94.539062 C 291.742188 92.8125 286.554688 80.707031 284.824219 77.246094 C 283.09375 73.789062 285.691406 63.410156 285.691406 63.410156 C 285.691406 63.410156 307.308594 49.578125 311.628906 46.984375 C 315.953125 44.390625 309.035156 43.523438 309.035156 43.523438 C 293.472656 40.929688 278.773438 41.796875 265.800781 47.847656 C 252.832031 53.902344 251.96875 85.894531 249.371094 96.269531 C 246.777344 106.644531 235.539062 115.292969 235.539062 115.292969 C 235.539062 115.292969 133.507812 216.460938 116.214844 233.753906 C 98.921875 251.046875 97.191406 247.589844 85.949219 249.316406 C 74.707031 251.046875 66.0625 254.503906 66.0625 254.503906 C 43.582031 262.289062 37.527344 296.007812 37.527344 296.007812 C 37.527344 297.738281 40.988281 295.144531 40.988281 295.144531 L 63.46875 281.308594 C 63.46875 281.308594 66.0625 281.308594 70.386719 281.308594 C 74.707031 281.308594 82.492188 289.957031 85.085938 298.605469 C 87.679688 307.25 84.222656 314.167969 84.222656 314.167969 C 84.222656 314.167969 64.332031 326.273438 60.007812 328.867188 C 55.683594 331.460938 60.875 334.054688 60.875 334.054688 C 73.84375 337.515625 88.542969 334.921875 101.515625 330.597656 C 114.484375 326.273438 118.808594 302.925781 119.671875 290.820312 C 120.539062 278.714844 128.320312 269.203125 128.320312 269.203125 C 128.320312 269.203125 252.832031 144.691406 258.019531 139.503906 C 263.207031 134.316406 270.125 129.992188 281.367188 129.128906 C 292.609375 128.261719 308.171875 122.210938 308.171875 122.210938 C 324.601562 117.019531 333.246094 89.351562 334.109375 84.164062 C 334.976562 78.976562 331.515625 80.707031 331.515625 80.707031 " fill-opacity="1" fill-rule="nonzero"/></g></svg>