<svg xmlns="http://www.w3.org/2000/svg" xmlns:xlink="http://www.w3.org/1999/xlink" width="500" zoomAndPan="magnify" viewBox="0 0 375 374.999991" height="500" preserveAspectRatio="xMidYMid meet" version="1.0"><defs><clipPath id="923123c441"><path d="M 201 239 L 345 239 L 345 360 L 201 360 Z M 201 239 " clip-rule="nonzero"/></clipPath><clipPath id="edb41b71b2"><path d="M 268.148438 197.328125 L 421.8125 270.621094 L 341.097656 439.859375 L 187.429688 366.566406 Z M 268.148438 197.328125 " clip-rule="nonzero"/></clipPath><clipPath id="d5f655f014"><path d="M 268.148438 197.328125 L 421.8125 270.621094 L 341.097656 439.859375 L 187.429688 366.566406 Z M 268.148438 197.328125 " clip-rule="nonzero"/></clipPath><clipPath id="f49064aada"><path d="M 197 263 L 374 263 L 374 372 L 197 372 Z M 197 263 " clip-rule="nonzero"/></clipPath><clipPath id="fe1b56ea05"><path d="M 268.148438 197.328125 L 421.8125 270.621094 L 341.097656 439.859375 L 187.429688 366.566406 Z M 268.148438 197.328125 " clip-rule="nonzero"/></clipPath><clipPath id="2d77767026"><path d="M 268.148438 197.328125 L 421.8125 270.621094 L 341.097656 439.859375 L 187.429688 366.566406 Z M 268.148438 197.328125 " clip-rule="nonzero"/></clipPath><clipPath id="d64a54597c"><path d="M 206 215 L 316 215 L 316 347 L 206 347 Z M 206 215 " clip-rule="nonzero"/></clipPath><clipPath id="3afa9c266e"><path d="M 268.148438 197.328125 L 421.8125 270.621094 L 341.097656 439.859375 L 187.429688 366.566406 Z M 268.148438 197.328125 " clip-rule="nonzero"/></clipPath><clipPath id="7eb09922e6"><path d="M 268.148438 197.328125 L 421.8125 270.621094 L 341.097656 439.859375 L 187.429688 366.566406 Z M 268.148438 197.328125 " clip-rule="nonzero"/></clipPath><clipPath id="58c420e2c7"><path d="M 30 238 L 174 238 L 174 361 L 30 361 Z M 30 238 " clip-rule="nonzero"/></clipPath><clipPath id="42708a898a"><path d="M -46.535156 270.160156 L 107.449219 197.535156 L 187.425781 367.121094 L 33.441406 439.746094 Z M -46.535156 270.160156 " clip-rule="nonzero"/></clipPath><clipPath id="6739c9922b"><path d="M 107.53125 197.496094 L -46.453125 270.117188 L 33.527344 439.703125 L 187.511719 367.082031 Z M 107.53125 197.496094 " clip-rule="nonzero"/></clipPath><clipPath id="46ae5e5860"><path d="M 1 263 L 178 263 L 178 372 L 1 372 Z M 1 263 " clip-rule="nonzero"/></clipPath><clipPath id="195dce8186"><path d="M -46.535156 270.160156 L 107.449219 197.535156 L 187.425781 367.121094 L 33.441406 439.746094 Z M -46.535156 270.160156 " clip-rule="nonzero"/></clipPath><clipPath id="051a188cd0"><path d="M 107.53125 197.496094 L -46.453125 270.117188 L 33.527344 439.703125 L 187.511719 367.082031 Z M 107.53125 197.496094 " clip-rule="nonzero"/></clipPath><clipPath id="570148f237"><path d="M 59 215 L 169 215 L 169 347 L 59 347 Z M 59 215 " clip-rule="nonzero"/></clipPath><clipPath id="19e16fcc5d"><path d="M -46.535156 270.160156 L 107.449219 197.535156 L 187.425781 367.121094 L 33.441406 439.746094 Z M -46.535156 270.160156 " clip-rule="nonzero"/></clipPath><clipPath id="574e5c7944"><path d="M 107.53125 197.496094 L -46.453125 270.117188 L 33.527344 439.703125 L 187.511719 367.082031 Z M 107.53125 197.496094 " clip-rule="nonzero"/></clipPath><clipPath id="77e6a42c4a"><path d="M 56 35.457031 L 268 35.457031 L 268 106 L 56 106 Z M 56 35.457031 " clip-rule="nonzero"/></clipPath><clipPath id="66e993a32b"><path d="M 100 101 L 275.71875 101 L 275.71875 359.457031 L 100 359.457031 Z M 100 101 " clip-rule="nonzero"/></clipPath></defs><g clip-path="url(#923123c441)"><g clip-path="url(#edb41b71b2)"><g clip-path="url(#d5f655f014)"><path fill="#ff6e40" d="M 344.558594 347.03125 L 335.296875 239.070312 C 335.296875 239.070312 324.457031 240.375 311.636719 244.363281 L 312.5625 255.171875 C 316.023438 255.003906 319.675781 255.085938 323.507812 255.5 L 331.492188 333.726562 C 331.492188 333.726562 242.800781 323.515625 201.832031 359.84375 C 201.832031 359.84375 253.03125 329.113281 344.558594 347.03125 " fill-opacity="1" fill-rule="nonzero"/></g></g></g><g clip-path="url(#f49064aada)"><g clip-path="url(#fe1b56ea05)"><g clip-path="url(#2d77767026)"><path fill="#ffffff" d="M 364.179688 263.933594 C 364.179688 263.933594 353.34375 265.238281 340.523438 269.230469 L 341.449219 280.035156 C 344.90625 279.867188 348.558594 279.949219 352.394531 280.359375 L 360.375 358.589844 C 360.375 358.589844 255.296875 334.953125 197.527344 371.210938 C 197.527344 371.210938 261.214844 348.902344 373.445312 371.894531 L 364.179688 263.933594 " fill-opacity="1" fill-rule="nonzero"/></g></g></g><g clip-path="url(#d64a54597c)"><g clip-path="url(#3afa9c266e)"><g clip-path="url(#7eb09922e6)"><path fill="#ff6e40" d="M 206.902344 346.441406 C 206.902344 346.441406 250.804688 311.535156 315.820312 323.617188 L 306.558594 215.65625 C 306.558594 215.65625 257.679688 221.523438 244.722656 246.558594 C 244.722656 246.558594 263.984375 228.785156 294.769531 232.082031 L 302.753906 310.3125 C 302.753906 310.3125 239.875 308.09375 206.902344 346.441406 " fill-opacity="1" fill-rule="nonzero"/></g></g></g><g clip-path="url(#58c420e2c7)"><g clip-path="url(#42708a898a)"><g clip-path="url(#6739c9922b)"><path fill="#ff6e40" d="M 30.421875 346.957031 L 40.160156 238.972656 C 40.160156 238.972656 51 240.324219 63.8125 244.371094 L 62.835938 255.183594 C 59.375 255 55.722656 255.0625 51.886719 255.460938 L 43.554688 333.703125 C 43.554688 333.703125 132.34375 323.871094 173.183594 360.398438 C 173.183594 360.398438 122.082031 329.425781 30.421875 346.957031 " fill-opacity="1" fill-rule="nonzero"/></g></g></g><g clip-path="url(#46ae5e5860)"><g clip-path="url(#195dce8186)"><g clip-path="url(#051a188cd0)"><path fill="#ffffff" d="M 11.148438 263.722656 C 11.148438 263.722656 21.988281 265.074219 34.796875 269.125 L 33.824219 279.933594 C 30.363281 279.75 26.710938 279.816406 22.871094 280.210938 L 14.542969 358.453125 C 14.542969 358.453125 119.792969 335.261719 177.441406 371.792969 C 177.441406 371.792969 113.808594 349.191406 1.410156 371.710938 L 11.148438 263.722656 " fill-opacity="1" fill-rule="nonzero"/></g></g></g><g clip-path="url(#570148f237)"><g clip-path="url(#19e16fcc5d)"><g clip-path="url(#574e5c7944)"><path fill="#ff6e40" d="M 168.164062 346.96875 C 168.164062 346.96875 124.386719 311.847656 59.277344 323.652344 L 69.015625 215.667969 C 69.015625 215.667969 117.898438 221.75 130.757812 246.859375 C 130.757812 246.859375 111.558594 228.988281 80.742188 232.15625 L 72.414062 310.398438 C 72.414062 310.398438 135.339844 308.453125 168.164062 346.96875 " fill-opacity="1" fill-rule="nonzero"/></g></g></g><g clip-path="url(#77e6a42c4a)"><path fill="#ff6e40" d="M 267.3125 71.699219 C 267.085938 75.222656 264.621094 78.222656 261.292969 79.425781 L 191.625 104.660156 C 190.664062 105.007812 189.65625 105.1875 188.644531 105.1875 C 187.636719 105.1875 186.628906 105.007812 185.671875 104.660156 L 120.839844 81.183594 C 118.792969 80.4375 117.792969 78.085938 118.746094 76.066406 C 119.582031 74.304688 121.699219 73.558594 123.535156 74.222656 L 188.207031 97.644531 C 188.492188 97.75 188.800781 97.75 189.082031 97.644531 L 259.019531 72.3125 C 259.710938 72.066406 259.863281 71.523438 259.863281 71.117188 C 259.867188 70.785156 259.765625 70.183594 259.039062 69.910156 L 189.101562 43.203125 C 188.8125 43.089844 188.480469 43.089844 188.1875 43.203125 L 139.828125 61.667969 C 141.546875 62.28125 143.3125 62.953125 145.113281 63.679688 C 170.773438 74.007812 188.351562 65.324219 194.675781 61.152344 C 195.296875 60.742188 196.003906 60.542969 196.714844 60.542969 C 197.746094 60.542969 198.765625 60.976562 199.496094 61.796875 C 201.011719 63.507812 200.648438 66.148438 198.742188 67.394531 C 191.042969 72.441406 170.96875 82.128906 142.328125 70.601562 C 102.203125 54.449219 86.429688 68.304688 81.421875 75.199219 L 86.011719 77.984375 L 74.746094 96.148438 C 71.890625 100.746094 65.921875 102.28125 61.207031 99.625 C 56.21875 96.816406 54.558594 90.429688 57.550781 85.550781 L 68.636719 67.457031 L 75.113281 71.382812 C 80.511719 63.925781 95.355469 50.207031 128.109375 58.160156 L 185.53125 36.234375 C 187.535156 35.46875 189.753906 35.46875 191.765625 36.234375 L 261.703125 62.941406 C 265.3125 64.316406 267.5625 67.792969 267.3125 71.699219 Z M 267.3125 71.699219 " fill-opacity="1" fill-rule="nonzero"/></g><g clip-path="url(#66e993a32b)"><path fill="#ff6e40" d="M 222.164062 102.160156 L 191.625 113.21875 C 190.664062 113.570312 189.65625 113.742188 188.648438 113.742188 C 187.636719 113.742188 186.628906 113.570312 185.671875 113.21875 L 154.058594 101.769531 C 139.820312 151.015625 100.824219 190.792969 100.824219 190.792969 C 112.074219 203.988281 123.105469 220.863281 133.4375 239.632812 L 164.75 307.179688 C 170.589844 322.160156 179.945312 345.148438 184.273438 359.207031 L 183.300781 287.546875 C 183.78125 276.933594 183.804688 223.433594 183.53125 199.960938 C 180.121094 198.230469 177.78125 194.695312 177.78125 190.609375 C 177.78125 184.886719 182.363281 180.242188 188.054688 180.125 C 193.746094 180.242188 198.328125 184.882812 198.328125 190.609375 C 198.328125 194.695312 195.988281 198.230469 192.574219 199.960938 C 192.304688 223.433594 192.328125 276.929688 192.808594 287.546875 L 191.835938 359.207031 C 196.164062 345.144531 205.515625 322.160156 211.359375 307.179688 L 242.671875 239.632812 C 253.003906 220.863281 264.035156 203.988281 275.285156 190.792969 C 275.289062 190.800781 236.496094 151.226562 222.164062 102.160156 Z M 222.164062 102.160156 " fill-opacity="1" fill-rule="nonzero"/></g></svg>