<svg xmlns="http://www.w3.org/2000/svg" xmlns:xlink="http://www.w3.org/1999/xlink" width="500" zoomAndPan="magnify" viewBox="0 0 375 374.999991" height="500" preserveAspectRatio="xMidYMid meet" version="1.0"><defs><clipPath id="5287baab81"><path d="M 162.574219 162.574219 L 212.425781 162.574219 L 212.425781 212.425781 L 162.574219 212.425781 Z M 162.574219 162.574219 " clip-rule="nonzero"/></clipPath><clipPath id="27095d6001"><path d="M 187.5 162.574219 C 173.734375 162.574219 162.574219 173.734375 162.574219 187.5 C 162.574219 201.265625 173.734375 212.425781 187.5 212.425781 C 201.265625 212.425781 212.425781 201.265625 212.425781 187.5 C 212.425781 173.734375 201.265625 162.574219 187.5 162.574219 Z M 187.5 162.574219 " clip-rule="nonzero"/></clipPath></defs><path fill="#ff6e40" d="M 187.496094 375 C 140.152344 375 104.453125 294.394531 104.453125 187.496094 C 104.453125 80.59375 140.152344 0 187.496094 0 C 234.839844 0 270.546875 80.59375 270.546875 187.496094 C 270.546875 294.394531 234.839844 375 187.496094 375 Z M 187.496094 24.160156 C 159.65625 24.160156 128.613281 91.246094 128.613281 187.496094 C 128.613281 283.746094 159.65625 350.847656 187.496094 350.847656 C 215.339844 350.847656 246.386719 283.746094 246.386719 187.496094 C 246.386719 91.246094 215.339844 24.160156 187.496094 24.160156 Z M 187.496094 24.160156 " fill-opacity="1" fill-rule="nonzero"/><path fill="#ff6e40" d="M 187.496094 270.546875 C 80.609375 270.546875 0 234.835938 0 187.496094 C 0 140.167969 80.609375 104.457031 187.496094 104.457031 C 294.378906 104.457031 375 140.167969 375 187.496094 C 375 234.835938 294.378906 270.546875 187.496094 270.546875 Z M 187.496094 128.617188 C 91.246094 128.617188 24.15625 159.648438 24.15625 187.496094 C 24.15625 215.347656 91.246094 246.386719 187.496094 246.386719 C 283.753906 246.386719 350.839844 215.347656 350.839844 187.496094 C 350.839844 159.648438 283.753906 128.617188 187.496094 128.617188 Z M 187.496094 128.617188 " fill-opacity="1" fill-rule="nonzero"/><path fill="#ffffff" d="M 283.722656 332.429688 C 242.554688 332.429688 181.734375 298.222656 128.78125 245.238281 C 94.585938 211.035156 67.734375 173.308594 53.1875 139.003906 C 37.183594 101.269531 37.789062 71.050781 54.925781 53.933594 C 63.636719 45.203125 76.210938 40.585938 91.277344 40.585938 C 132.433594 40.585938 193.261719 74.824219 246.226562 127.800781 C 321.792969 203.378906 353.539062 285.640625 320.0625 319.113281 C 311.347656 327.828125 298.789062 332.429688 283.722656 332.429688 Z M 91.277344 64.753906 C 82.648438 64.753906 76.15625 66.855469 72.003906 71.011719 C 62.585938 80.429688 63.863281 102.308594 75.4375 129.570312 C 88.78125 161.089844 113.800781 196.089844 145.863281 228.160156 C 193.765625 276.085938 249.160156 308.285156 283.722656 308.285156 C 292.355469 308.285156 298.835938 306.175781 302.980469 302.035156 C 322.679688 282.332031 297.195312 212.953125 229.144531 144.875 C 181.226562 96.949219 125.820312 64.753906 91.277344 64.753906 Z M 91.277344 64.753906 " fill-opacity="1" fill-rule="nonzero"/><path fill="#ffffff" d="M 91.277344 332.429688 C 76 332.429688 63.761719 327.949219 54.925781 319.113281 C 21.457031 285.605469 53.207031 203.378906 128.78125 127.800781 C 181.742188 74.832031 242.558594 40.605469 283.722656 40.605469 C 298.996094 40.605469 311.238281 45.101562 320.074219 53.941406 C 337.195312 71.050781 337.804688 101.269531 321.808594 139.003906 C 307.269531 173.308594 280.414062 211.046875 246.226562 245.238281 C 193.261719 298.222656 132.433594 332.429688 91.277344 332.429688 Z M 283.722656 64.769531 C 249.1875 64.769531 193.789062 96.96875 145.863281 144.875 C 77.816406 212.9375 52.316406 282.324219 72.003906 302.035156 C 76.144531 306.175781 82.648438 308.285156 91.277344 308.285156 C 125.820312 308.285156 181.226562 276.085938 229.144531 228.160156 C 261.199219 196.089844 286.222656 161.089844 299.5625 129.570312 C 311.132812 102.308594 312.398438 80.441406 302.996094 71.023438 C 298.835938 66.875 292.355469 64.769531 283.722656 64.769531 Z M 283.722656 64.769531 " fill-opacity="1" fill-rule="nonzero"/><path fill="#ffffff" d="M 216.859375 187.367188 C 216.859375 204.894531 202.636719 219.128906 185.085938 219.128906 C 167.558594 219.128906 153.328125 204.894531 153.328125 187.367188 C 153.328125 169.820312 167.558594 155.597656 185.085938 155.597656 C 202.636719 155.597656 216.859375 169.820312 216.859375 187.367188 Z M 216.859375 187.367188 " fill-opacity="1" fill-rule="nonzero"/><g clip-path="url(#5287baab81)"><g clip-path="url(#27095d6001)"><path fill="#ffffff" d="M 162.574219 162.574219 L 212.425781 162.574219 L 212.425781 212.425781 L 162.574219 212.425781 Z M 162.574219 162.574219 " fill-opacity="1" fill-rule="nonzero"/></g></g></svg>