<svg xmlns="http://www.w3.org/2000/svg" xmlns:xlink="http://www.w3.org/1999/xlink" width="500" zoomAndPan="magnify" viewBox="0 0 375 374.999991" height="500" preserveAspectRatio="xMidYMid meet" version="1.0"><defs><clipPath id="cc33ba4964"><path d="M 111 146 L 320 146 L 320 326 L 111 326 Z M 111 146 " clip-rule="nonzero"/></clipPath><clipPath id="31e6a3c4b9"><path d="M -75.6875 164.78125 L 227.828125 -60.519531 L 416.472656 193.617188 L 112.957031 418.917969 Z M -75.6875 164.78125 " clip-rule="nonzero"/></clipPath><clipPath id="665387de6f"><path d="M -75.6875 164.78125 L 227.828125 -60.519531 L 416.472656 193.617188 L 112.957031 418.917969 Z M -75.6875 164.78125 " clip-rule="nonzero"/></clipPath><clipPath id="44d05a7101"><path d="M 23 53 L 325 53 L 325 292 L 23 292 Z M 23 53 " clip-rule="nonzero"/></clipPath><clipPath id="7aab1f26ae"><path d="M -75.6875 164.78125 L 227.828125 -60.519531 L 416.472656 193.617188 L 112.957031 418.917969 Z M -75.6875 164.78125 " clip-rule="nonzero"/></clipPath><clipPath id="710dffcafe"><path d="M -75.6875 164.78125 L 227.828125 -60.519531 L 416.472656 193.617188 L 112.957031 418.917969 Z M -75.6875 164.78125 " clip-rule="nonzero"/></clipPath><clipPath id="528996732d"><path d="M 182 2 L 221 2 L 221 41 L 182 41 Z M 182 2 " clip-rule="nonzero"/></clipPath><clipPath id="629d0f50f7"><path d="M -75.6875 164.78125 L 227.828125 -60.519531 L 416.472656 193.617188 L 112.957031 418.917969 Z M -75.6875 164.78125 " clip-rule="nonzero"/></clipPath><clipPath id="3ff052c022"><path d="M -75.6875 164.78125 L 227.828125 -60.519531 L 416.472656 193.617188 L 112.957031 418.917969 Z M -75.6875 164.78125 " clip-rule="nonzero"/></clipPath><clipPath id="c37aed072e"><path d="M 114 22 L 140 22 L 140 48 L 114 48 Z M 114 22 " clip-rule="nonzero"/></clipPath><clipPath id="2167152ea4"><path d="M -75.6875 164.78125 L 227.828125 -60.519531 L 416.472656 193.617188 L 112.957031 418.917969 Z M -75.6875 164.78125 " clip-rule="nonzero"/></clipPath><clipPath id="19b2306113"><path d="M -75.6875 164.78125 L 227.828125 -60.519531 L 416.472656 193.617188 L 112.957031 418.917969 Z M -75.6875 164.78125 " clip-rule="nonzero"/></clipPath><clipPath id="738502277f"><path d="M 70 329 L 109 329 L 109 368 L 70 368 Z M 70 329 " clip-rule="nonzero"/></clipPath><clipPath id="03858d7f9b"><path d="M -75.6875 164.78125 L 227.828125 -60.519531 L 416.472656 193.617188 L 112.957031 418.917969 Z M -75.6875 164.78125 " clip-rule="nonzero"/></clipPath><clipPath id="6c30f51188"><path d="M -75.6875 164.78125 L 227.828125 -60.519531 L 416.472656 193.617188 L 112.957031 418.917969 Z M -75.6875 164.78125 " clip-rule="nonzero"/></clipPath><clipPath id="7e6154e84f"><path d="M 192.914062 15.261719 L 205.664062 15.261719 L 205.664062 28.011719 L 192.914062 28.011719 Z M 192.914062 15.261719 " clip-rule="nonzero"/></clipPath></defs><g clip-path="url(#cc33ba4964)"><g clip-path="url(#31e6a3c4b9)"><g clip-path="url(#665387de6f)"><path fill="#ff6e40" d="M 304.558594 147.449219 C 259.304688 202.914062 178.726562 262.753906 112.453125 290.050781 C 111.363281 290.496094 111.09375 291.921875 111.957031 292.726562 C 154.789062 332.445312 221.144531 337.320312 269.75 301.242188 C 318.34375 265.171875 332.886719 200.242188 307.269531 147.746094 C 306.753906 146.691406 305.304688 146.539062 304.558594 147.449219 Z M 304.558594 147.449219 " fill-opacity="1" fill-rule="nonzero"/></g></g></g><g clip-path="url(#44d05a7101)"><g clip-path="url(#7aab1f26ae)"><g clip-path="url(#710dffcafe)"><path fill="#ff6e40" d="M 247.796875 63.566406 C 242.519531 65.550781 242.164062 73.085938 247.867188 75.445312 C 250.472656 76.527344 252.277344 75.644531 253.960938 75.03125 C 287.683594 62.652344 304.8125 65.140625 309.597656 71.589844 C 313.664062 77.070312 312.410156 90.257812 298.679688 111.703125 C 296.480469 115.15625 293.949219 118.820312 291.066406 122.699219 C 264.75 91.066406 225.734375 75.796875 187.449219 78.449219 C 114.632812 83.394531 62.371094 150.132812 73.757812 221.226562 C 76.464844 238.589844 82.863281 255.117188 92.664062 269.972656 C 88.113281 271.609375 83.875 272.96875 79.933594 274.078125 C 55.433594 281.007812 42.449219 278.394531 38.378906 272.914062 C 33.59375 266.464844 36.183594 249.347656 57.78125 220.65625 C 58.0625 220.277344 58.351562 219.898438 58.640625 219.515625 C 60.347656 217.28125 59.910156 214.9375 59.921875 214.765625 C 59.375 209.015625 52.054688 206.921875 48.546875 211.507812 C 26.824219 239.871094 16.746094 265.460938 27.996094 280.617188 C 41.964844 299.433594 78.660156 289.082031 100.632812 280.75 C 207.601562 240.289062 352.449219 107.636719 319.972656 63.882812 C 308.714844 48.714844 281.269531 50.960938 247.796875 63.566406 Z M 247.796875 63.566406 " fill-opacity="1" fill-rule="nonzero"/></g></g></g><g clip-path="url(#528996732d)"><g clip-path="url(#629d0f50f7)"><g clip-path="url(#3ff052c022)"><path fill="#ffffff" d="M 220.316406 7.472656 C 219.621094 6.539062 216.824219 7.316406 212.867188 9.308594 C 206.628906 12.464844 199.089844 11.347656 194.03125 6.523438 C 190.824219 3.464844 188.367188 1.914062 187.433594 2.609375 C 186.496094 3.304688 187.273438 6.101562 189.269531 10.058594 C 192.421875 16.296875 191.308594 23.835938 186.484375 28.894531 C 183.425781 32.101562 181.875 34.558594 182.570312 35.492188 C 183.261719 36.429688 186.0625 35.652344 190.019531 33.65625 C 196.253906 30.503906 203.796875 31.617188 208.855469 36.441406 C 212.058594 39.5 214.519531 41.050781 215.453125 40.359375 C 216.386719 39.664062 215.613281 36.863281 213.617188 32.90625 C 210.460938 26.671875 211.578125 19.128906 216.402344 14.070312 C 219.457031 10.863281 221.007812 8.40625 220.316406 7.472656 Z M 220.316406 7.472656 " fill-opacity="1" fill-rule="nonzero"/></g></g></g><g clip-path="url(#c37aed072e)"><g clip-path="url(#2167152ea4)"><g clip-path="url(#19b2306113)"><path fill="#ffffff" d="M 139.859375 25.832031 C 139.402344 25.214844 137.546875 25.726562 134.929688 27.050781 C 130.804688 29.132812 125.816406 28.398438 122.476562 25.207031 C 120.355469 23.1875 118.726562 22.15625 118.109375 22.617188 C 117.492188 23.074219 118.003906 24.925781 119.328125 27.542969 C 121.414062 31.667969 120.675781 36.65625 117.484375 40 C 115.464844 42.117188 114.433594 43.746094 114.894531 44.363281 C 115.351562 44.980469 117.203125 44.46875 119.820312 43.144531 C 123.949219 41.0625 128.933594 41.796875 132.277344 44.988281 C 134.398438 47.011719 136.023438 48.039062 136.640625 47.582031 C 137.257812 47.121094 136.75 45.269531 135.425781 42.652344 C 133.339844 38.527344 134.074219 33.539062 137.265625 30.195312 C 139.292969 28.074219 140.316406 26.449219 139.859375 25.832031 Z M 139.859375 25.832031 " fill-opacity="1" fill-rule="nonzero"/></g></g></g><g clip-path="url(#738502277f)"><g clip-path="url(#03858d7f9b)"><g clip-path="url(#6c30f51188)"><path fill="#ffffff" d="M 108.675781 334.40625 C 107.984375 333.472656 105.183594 334.25 101.226562 336.246094 C 94.988281 339.398438 87.449219 338.28125 82.390625 333.457031 C 79.1875 330.398438 76.726562 328.851562 75.792969 329.542969 C 74.859375 330.238281 75.632812 333.035156 77.628906 336.992188 C 80.78125 343.230469 79.667969 350.769531 74.84375 355.828125 C 71.785156 359.035156 70.234375 361.492188 70.929688 362.429688 C 71.621094 363.363281 74.421875 362.585938 78.378906 360.589844 C 84.617188 357.4375 92.15625 358.554688 97.214844 363.375 C 100.417969 366.433594 102.878906 367.984375 103.8125 367.292969 C 104.746094 366.597656 103.972656 363.796875 101.976562 359.84375 C 98.824219 353.605469 99.9375 346.0625 104.761719 341.007812 C 107.820312 337.800781 109.371094 335.34375 108.675781 334.40625 Z M 108.675781 334.40625 " fill-opacity="1" fill-rule="nonzero"/></g></g></g><g clip-path="url(#7e6154e84f)"><path fill="#ffffff" d="M 205.664062 21.636719 C 205.664062 22.054688 205.625 22.472656 205.542969 22.882812 C 205.460938 23.292969 205.339844 23.691406 205.179688 24.078125 C 205.019531 24.464844 204.824219 24.832031 204.589844 25.179688 C 204.359375 25.527344 204.09375 25.847656 203.796875 26.144531 C 203.503906 26.441406 203.179688 26.707031 202.832031 26.9375 C 202.484375 27.171875 202.117188 27.367188 201.730469 27.527344 C 201.34375 27.6875 200.945312 27.808594 200.535156 27.890625 C 200.125 27.972656 199.710938 28.011719 199.289062 28.011719 C 198.871094 28.011719 198.457031 27.972656 198.046875 27.890625 C 197.636719 27.808594 197.238281 27.6875 196.851562 27.527344 C 196.464844 27.367188 196.097656 27.171875 195.75 26.9375 C 195.402344 26.707031 195.078125 26.441406 194.78125 26.144531 C 194.488281 25.847656 194.222656 25.527344 193.988281 25.179688 C 193.757812 24.832031 193.5625 24.464844 193.402344 24.078125 C 193.242188 23.691406 193.121094 23.292969 193.039062 22.882812 C 192.957031 22.472656 192.914062 22.054688 192.914062 21.636719 C 192.914062 21.21875 192.957031 20.804688 193.039062 20.394531 C 193.121094 19.984375 193.242188 19.585938 193.402344 19.199219 C 193.5625 18.8125 193.757812 18.445312 193.988281 18.097656 C 194.222656 17.746094 194.488281 17.425781 194.78125 17.128906 C 195.078125 16.832031 195.402344 16.570312 195.75 16.335938 C 196.097656 16.105469 196.464844 15.90625 196.851562 15.746094 C 197.238281 15.585938 197.636719 15.464844 198.046875 15.386719 C 198.457031 15.304688 198.871094 15.261719 199.289062 15.261719 C 199.710938 15.261719 200.125 15.304688 200.535156 15.386719 C 200.945312 15.464844 201.34375 15.585938 201.730469 15.746094 C 202.117188 15.90625 202.484375 16.105469 202.832031 16.335938 C 203.179688 16.570312 203.503906 16.832031 203.796875 17.128906 C 204.09375 17.425781 204.359375 17.746094 204.589844 18.097656 C 204.824219 18.445312 205.019531 18.8125 205.179688 19.199219 C 205.339844 19.585938 205.460938 19.984375 205.542969 20.394531 C 205.625 20.804688 205.664062 21.21875 205.664062 21.636719 Z M 205.664062 21.636719 " fill-opacity="1" fill-rule="nonzero"/></g></svg>