<svg xmlns="http://www.w3.org/2000/svg" xmlns:xlink="http://www.w3.org/1999/xlink" width="500" zoomAndPan="magnify" viewBox="0 0 375 374.999991" height="500" preserveAspectRatio="xMidYMid meet" version="1.0"><path fill="#caddff" d="M 99.53125 101.042969 C 137.117188 63.222656 126.355469 39.523438 152.074219 22.015625 C 191.644531 -4.925781 265.496094 18.25 309.066406 55.308594 C 362.429688 100.695312 389.964844 183.566406 358.601562 258.539062 C 325.199219 338.382812 237.316406 379.824219 158.894531 367.335938 C 88.867188 356.183594 20.027344 301.003906 13.128906 234.828125 C 12.382812 227.652344 9.082031 188.878906 32.226562 155.445312 C 51.359375 127.8125 69.738281 131.019531 99.53125 101.042969 " fill-opacity="1" fill-rule="nonzero"/><path fill="#99b9ff" d="M 344.808594 135.648438 L 45.71875 126.417969 C 38.609375 126.417969 32.820312 131.046875 32.820312 136.730469 L 32.820312 303.671875 C 32.820312 309.355469 38.609375 313.984375 45.71875 313.984375 L 153.789062 308.132812 L 139.914062 348.621094 L 125.234375 348.714844 C 120.65625 348.714844 116.933594 351.691406 116.933594 355.351562 C 116.933594 359.011719 120.65625 361.992188 125.234375 361.992188 L 248.179688 357.300781 C 252.757812 357.300781 244.191406 313.984375 244.191406 313.984375 C 244.191406 313.984375 351.917969 135.648438 344.808594 135.648438 " fill-opacity="1" fill-rule="nonzero"/><path fill="#ffffff" d="M 242.257812 292.640625 L 165.992188 292.640625 L 144.355469 355.785156 L 263.894531 355.785156 L 242.257812 292.640625 " fill-opacity="1" fill-rule="nonzero"/><path fill="#ffffff" d="M 356.390625 127 L 51.859375 127 C 45.136719 127 39.6875 131.359375 39.6875 136.730469 L 39.6875 303.671875 C 39.6875 309.042969 45.136719 313.402344 51.859375 313.402344 L 356.390625 313.402344 C 363.113281 313.402344 368.5625 309.042969 368.5625 303.671875 L 368.5625 136.730469 C 368.5625 131.359375 363.113281 127 356.390625 127 " fill-opacity="1" fill-rule="nonzero"/><path fill="#000000" d="M 51.859375 127.648438 C 45.503906 127.648438 40.335938 131.722656 40.335938 136.730469 L 40.335938 303.671875 C 40.335938 308.679688 45.503906 312.75 51.859375 312.75 L 356.394531 312.75 C 362.746094 312.75 367.914062 308.679688 367.914062 303.671875 L 367.914062 136.730469 C 367.914062 131.722656 362.746094 127.648438 356.394531 127.648438 Z M 356.394531 314.050781 L 51.859375 314.050781 C 44.789062 314.050781 39.039062 309.394531 39.039062 303.671875 L 39.039062 136.730469 C 39.039062 131.007812 44.789062 126.351562 51.859375 126.351562 L 356.394531 126.351562 C 363.460938 126.351562 369.210938 131.007812 369.210938 136.730469 L 369.210938 303.671875 C 369.210938 309.394531 363.460938 314.050781 356.394531 314.050781 " fill-opacity="1" fill-rule="nonzero"/><path fill="#ffffff" d="M 276.878906 349.296875 L 131.371094 349.296875 C 127.191406 349.296875 123.800781 352.007812 123.800781 355.351562 C 123.800781 358.695312 127.191406 361.40625 131.371094 361.40625 L 276.878906 361.40625 C 281.058594 361.40625 284.449219 358.695312 284.449219 355.351562 C 284.449219 352.007812 281.058594 349.296875 276.878906 349.296875 " fill-opacity="1" fill-rule="nonzero"/><path fill="#ffffff" d="M 260.839844 346.867188 L 254.761719 329.125 L 260.839844 346.867188 " fill-opacity="1" fill-rule="nonzero"/><path fill="#000000" d="M 260.839844 347.515625 C 260.570312 347.515625 260.316406 347.347656 260.226562 347.078125 L 254.144531 329.335938 C 254.027344 328.996094 254.210938 328.628906 254.550781 328.511719 C 254.886719 328.394531 255.257812 328.578125 255.375 328.914062 L 261.453125 346.65625 C 261.570312 346.996094 261.386719 347.363281 261.050781 347.484375 C 260.980469 347.507812 260.910156 347.515625 260.839844 347.515625 " fill-opacity="1" fill-rule="nonzero"/><path fill="#000000" d="M 276.878906 362.054688 C 276.519531 362.054688 276.226562 361.765625 276.226562 361.40625 C 276.226562 361.050781 276.519531 360.757812 276.878906 360.757812 C 280.695312 360.757812 283.800781 358.332031 283.800781 355.351562 C 283.800781 352.371094 280.695312 349.945312 276.878906 349.945312 L 247.105469 349.945312 C 246.746094 349.945312 246.453125 349.65625 246.453125 349.296875 C 246.453125 348.9375 246.746094 348.648438 247.105469 348.648438 L 276.878906 348.648438 C 281.414062 348.648438 285.101562 351.65625 285.101562 355.351562 C 285.101562 359.046875 281.414062 362.054688 276.878906 362.054688 " fill-opacity="1" fill-rule="nonzero"/><path fill="#000000" d="M 266.292969 362.054688 L 227.910156 362.054688 C 227.550781 362.054688 227.261719 361.765625 227.261719 361.40625 C 227.261719 361.050781 227.550781 360.757812 227.910156 360.757812 L 266.292969 360.757812 C 266.652344 360.757812 266.945312 361.050781 266.945312 361.40625 C 266.945312 361.765625 266.652344 362.054688 266.292969 362.054688 " fill-opacity="1" fill-rule="nonzero"/><path fill="#ffffff" d="M 50.503906 299.914062 C 50.503906 302.585938 53.214844 304.75 56.558594 304.75 L 351.691406 304.75 C 355.035156 304.75 357.742188 302.585938 357.742188 299.914062 L 357.742188 234.136719 L 50.503906 299.914062 " fill-opacity="1" fill-rule="nonzero"/><path fill="#000000" d="M 351.691406 305.402344 L 56.558594 305.402344 C 52.863281 305.402344 49.855469 302.9375 49.855469 299.914062 C 49.855469 299.554688 50.148438 299.265625 50.503906 299.265625 C 50.863281 299.265625 51.15625 299.554688 51.15625 299.914062 C 51.15625 302.222656 53.578125 304.101562 56.558594 304.101562 L 351.691406 304.101562 C 354.667969 304.101562 357.09375 302.222656 357.09375 299.914062 L 357.09375 234.136719 C 357.09375 233.777344 357.382812 233.488281 357.746094 233.488281 C 358.101562 233.488281 358.394531 233.777344 358.394531 234.136719 L 358.394531 299.914062 C 358.394531 302.9375 355.386719 305.402344 351.691406 305.402344 " fill-opacity="1" fill-rule="nonzero"/><path fill="#000000" d="M 50.503906 159.546875 C 50.148438 159.546875 49.855469 159.257812 49.855469 158.898438 L 49.855469 148.636719 C 49.855469 148.277344 50.148438 147.984375 50.503906 147.984375 C 50.863281 147.984375 51.15625 148.277344 51.15625 148.636719 L 51.15625 158.898438 C 51.15625 159.257812 50.863281 159.546875 50.503906 159.546875 " fill-opacity="1" fill-rule="nonzero"/><path fill="#ffffff" d="M 74.109375 135.652344 L 56.554688 135.652344 C 53.214844 135.652344 50.503906 137.816406 50.503906 140.488281 L 74.109375 135.652344 " fill-opacity="1" fill-rule="nonzero"/><path fill="#000000" d="M 50.503906 141.136719 C 50.148438 141.136719 49.855469 140.847656 49.855469 140.488281 C 49.855469 137.464844 52.863281 135 56.554688 135 L 74.109375 135 C 74.46875 135 74.757812 135.292969 74.757812 135.652344 C 74.757812 136.007812 74.46875 136.300781 74.109375 136.300781 L 56.554688 136.300781 C 53.578125 136.300781 51.15625 138.179688 51.15625 140.488281 C 51.15625 140.847656 50.863281 141.136719 50.503906 141.136719 " fill-opacity="1" fill-rule="nonzero"/><path fill="#ffffff" d="M 357.742188 148.632812 L 357.742188 140.488281 C 357.742188 137.816406 355.035156 135.648438 351.691406 135.648438 L 333.644531 135.648438 L 357.742188 148.632812 " fill-opacity="1" fill-rule="nonzero"/><path fill="#000000" d="M 357.746094 149.285156 C 357.382812 149.285156 357.09375 148.996094 357.09375 148.632812 L 357.09375 140.488281 C 357.09375 138.179688 354.667969 136.300781 351.691406 136.300781 L 333.644531 136.300781 C 333.285156 136.300781 332.992188 136.007812 332.992188 135.648438 C 332.992188 135.292969 333.285156 135 333.644531 135 L 351.691406 135 C 355.386719 135 358.394531 137.464844 358.394531 140.488281 L 358.394531 148.632812 C 358.394531 148.996094 358.101562 149.285156 357.746094 149.285156 " fill-opacity="1" fill-rule="nonzero"/><path fill="#000000" d="M 357.746094 172.019531 C 357.382812 172.019531 357.09375 171.730469 357.09375 171.371094 L 357.09375 160.027344 C 357.09375 159.667969 357.382812 159.378906 357.746094 159.378906 C 358.101562 159.378906 358.394531 159.667969 358.394531 160.027344 L 358.394531 171.371094 C 358.394531 171.730469 358.101562 172.019531 357.746094 172.019531 " fill-opacity="1" fill-rule="nonzero"/><path fill="#caddff" d="M 348.460938 304.117188 L 87.640625 304.117188 L 87.640625 136.074219 L 348.460938 136.074219 L 348.460938 304.117188 " fill-opacity="1" fill-rule="nonzero"/><path fill="#99b9ff" d="M 232.808594 150.3125 L 106.898438 150.3125 L 106.898438 146.117188 L 232.808594 146.117188 L 232.808594 150.3125 " fill-opacity="1" fill-rule="nonzero"/><path fill="#ffffff" d="M 296.425781 157.597656 L 149.253906 157.597656 L 149.253906 153.234375 L 296.425781 153.234375 L 296.425781 157.597656 " fill-opacity="1" fill-rule="nonzero"/><path fill="#ffffff" d="M 329.203125 164.796875 L 182.027344 164.796875 L 182.027344 160.429688 L 329.203125 160.429688 L 329.203125 164.796875 " fill-opacity="1" fill-rule="nonzero"/><path fill="#ffffff" d="M 311.457031 171.996094 L 235.386719 171.996094 L 235.386719 167.628906 L 311.457031 167.628906 L 311.457031 171.996094 " fill-opacity="1" fill-rule="nonzero"/><path fill="#99b9ff" d="M 232.808594 207.90625 L 106.898438 207.90625 L 106.898438 203.707031 L 232.808594 203.707031 L 232.808594 207.90625 " fill-opacity="1" fill-rule="nonzero"/><path fill="#ffffff" d="M 296.425781 215.191406 L 149.253906 215.191406 L 149.253906 210.824219 L 296.425781 210.824219 L 296.425781 215.191406 " fill-opacity="1" fill-rule="nonzero"/><path fill="#ffffff" d="M 329.203125 222.390625 L 182.027344 222.390625 L 182.027344 218.023438 L 329.203125 218.023438 L 329.203125 222.390625 " fill-opacity="1" fill-rule="nonzero"/><path fill="#ffffff" d="M 329.203125 229.589844 L 235.386719 229.589844 L 235.386719 225.222656 L 329.203125 225.222656 L 329.203125 229.589844 " fill-opacity="1" fill-rule="nonzero"/><path fill="#ffffff" d="M 296.425781 179.195312 L 149.253906 179.195312 L 149.253906 174.828125 L 296.425781 174.828125 L 296.425781 179.195312 " fill-opacity="1" fill-rule="nonzero"/><path fill="#ffffff" d="M 329.203125 186.394531 L 182.027344 186.394531 L 182.027344 182.027344 L 329.203125 182.027344 L 329.203125 186.394531 " fill-opacity="1" fill-rule="nonzero"/><path fill="#ffffff" d="M 293.710938 200.792969 L 235.386719 200.792969 L 235.386719 196.425781 L 293.710938 196.425781 L 293.710938 200.792969 " fill-opacity="1" fill-rule="nonzero"/><path fill="#ffffff" d="M 329.203125 193.59375 L 235.386719 193.59375 L 235.386719 189.226562 L 329.203125 189.226562 L 329.203125 193.59375 " fill-opacity="1" fill-rule="nonzero"/><path fill="#99b9ff" d="M 232.808594 236.703125 L 106.898438 236.703125 L 106.898438 232.503906 L 232.808594 232.503906 L 232.808594 236.703125 " fill-opacity="1" fill-rule="nonzero"/><path fill="#ffffff" d="M 296.425781 243.988281 L 227.214844 243.988281 L 227.214844 239.621094 L 296.425781 239.621094 L 296.425781 243.988281 " fill-opacity="1" fill-rule="nonzero"/><path fill="#ffffff" d="M 324.46875 251.1875 L 197.59375 251.1875 L 197.59375 246.820312 L 324.46875 246.820312 L 324.46875 251.1875 " fill-opacity="1" fill-rule="nonzero"/><path fill="#99b9ff" d="M 329.203125 258.382812 L 235.386719 258.382812 L 235.386719 254.019531 L 329.203125 254.019531 L 329.203125 258.382812 " fill-opacity="1" fill-rule="nonzero"/><path fill="#99b9ff" d="M 261.554688 294.378906 L 182.027344 294.378906 L 182.027344 290.011719 L 261.554688 290.011719 L 261.554688 294.378906 " fill-opacity="1" fill-rule="nonzero"/><path fill="#ffffff" d="M 296.425781 265.585938 L 149.253906 265.585938 L 149.253906 261.21875 L 296.425781 261.21875 L 296.425781 265.585938 " fill-opacity="1" fill-rule="nonzero"/><path fill="#ffffff" d="M 329.203125 272.78125 L 182.027344 272.78125 L 182.027344 268.417969 L 329.203125 268.417969 L 329.203125 272.78125 " fill-opacity="1" fill-rule="nonzero"/><path fill="#ffffff" d="M 329.203125 287.179688 L 235.386719 287.179688 L 235.386719 282.8125 L 329.203125 282.8125 L 329.203125 287.179688 " fill-opacity="1" fill-rule="nonzero"/><path fill="#ffffff" d="M 289.09375 279.980469 L 235.382812 279.980469 L 235.382812 275.617188 L 289.09375 275.617188 L 289.09375 279.980469 " fill-opacity="1" fill-rule="nonzero"/><path fill="#5479f7" d="M 215.398438 25.011719 L 95.335938 25.011719 C 91.078125 25.011719 87.621094 28.464844 87.621094 32.722656 L 87.621094 82.707031 C 87.621094 86.964844 91.078125 90.421875 95.335938 90.421875 L 215.398438 90.421875 C 219.660156 90.421875 223.113281 86.964844 223.113281 82.707031 L 223.113281 32.722656 C 223.113281 28.464844 219.660156 25.011719 215.398438 25.011719 " fill-opacity="1" fill-rule="nonzero"/><path fill="#ffffff" d="M 193.050781 42.722656 L 102.015625 42.722656 L 102.015625 34.941406 L 193.050781 34.941406 L 193.050781 42.722656 " fill-opacity="1" fill-rule="nonzero"/><path fill="#caddff" d="M 208.714844 57.503906 L 123.613281 57.503906 L 123.613281 52.113281 L 208.714844 52.113281 L 208.714844 57.503906 " fill-opacity="1" fill-rule="nonzero"/><path fill="#caddff" d="M 208.714844 69 L 123.613281 69 L 123.613281 63.609375 L 208.714844 63.609375 L 208.714844 69 " fill-opacity="1" fill-rule="nonzero"/><path fill="#caddff" d="M 208.71875 80.496094 L 123.613281 80.496094 L 123.613281 75.101562 L 208.71875 75.101562 L 208.71875 80.496094 " fill-opacity="1" fill-rule="nonzero"/><path fill="#5479f7" d="M 215.398438 100.703125 L 95.335938 100.703125 C 91.074219 100.703125 87.621094 104.15625 87.621094 108.417969 L 87.621094 158.398438 C 87.621094 162.65625 91.074219 166.113281 95.335938 166.113281 L 215.398438 166.113281 C 219.660156 166.113281 223.113281 162.65625 223.113281 158.398438 L 223.113281 108.417969 C 223.113281 104.15625 219.660156 100.703125 215.398438 100.703125 " fill-opacity="1" fill-rule="nonzero"/><path fill="#ffffff" d="M 193.050781 118.410156 L 102.015625 118.410156 L 102.015625 110.628906 L 193.050781 110.628906 L 193.050781 118.410156 " fill-opacity="1" fill-rule="nonzero"/><path fill="#caddff" d="M 208.714844 133.195312 L 123.613281 133.195312 L 123.613281 127.800781 L 208.714844 127.800781 L 208.714844 133.195312 " fill-opacity="1" fill-rule="nonzero"/><path fill="#caddff" d="M 208.714844 144.691406 L 123.613281 144.691406 L 123.613281 139.296875 L 208.714844 139.296875 L 208.714844 144.691406 " fill-opacity="1" fill-rule="nonzero"/><path fill="#caddff" d="M 208.714844 156.1875 L 123.613281 156.1875 L 123.613281 150.792969 L 208.714844 150.792969 L 208.714844 156.1875 " fill-opacity="1" fill-rule="nonzero"/><path fill="#5479f7" d="M 215.398438 176.394531 L 95.335938 176.394531 C 91.074219 176.394531 87.621094 179.847656 87.621094 184.105469 L 87.621094 234.089844 C 87.621094 238.347656 91.074219 241.804688 95.335938 241.804688 L 215.398438 241.804688 C 219.660156 241.804688 223.113281 238.347656 223.113281 234.089844 L 223.113281 184.105469 C 223.113281 179.847656 219.660156 176.394531 215.398438 176.394531 " fill-opacity="1" fill-rule="nonzero"/><path fill="#ffffff" d="M 193.050781 194.101562 L 102.015625 194.101562 L 102.015625 186.320312 L 193.050781 186.320312 L 193.050781 194.101562 " fill-opacity="1" fill-rule="nonzero"/><path fill="#caddff" d="M 208.714844 208.886719 L 123.613281 208.886719 L 123.613281 203.492188 L 208.714844 203.492188 L 208.714844 208.886719 " fill-opacity="1" fill-rule="nonzero"/><path fill="#caddff" d="M 208.714844 220.382812 L 123.613281 220.382812 L 123.613281 214.988281 L 208.714844 214.988281 L 208.714844 220.382812 " fill-opacity="1" fill-rule="nonzero"/><path fill="#caddff" d="M 208.714844 231.878906 L 123.613281 231.878906 L 123.613281 226.484375 L 208.714844 226.484375 L 208.714844 231.878906 " fill-opacity="1" fill-rule="nonzero"/><path fill="#000000" d="M 231.367188 356.65625 L 185.371094 356.65625 L 217.152344 304.226562 C 218.148438 302.589844 219.957031 301.59375 221.953125 301.59375 L 259.285156 301.59375 C 261.652344 301.59375 263.207031 304.132812 262.027344 306.078125 L 231.367188 356.65625 " fill-opacity="1" fill-rule="nonzero"/><path fill="#caddff" d="M 239.558594 319.980469 C 238.164062 322.277344 235.035156 324.140625 232.5625 324.140625 C 230.09375 324.140625 229.21875 322.277344 230.613281 319.980469 C 232.003906 317.683594 235.136719 315.820312 237.609375 315.820312 C 240.078125 315.820312 240.953125 317.683594 239.558594 319.980469 " fill-opacity="1" fill-rule="nonzero"/><path fill="#000000" d="M 230.679688 361.832031 L 132.453125 361.832031 C 131.484375 361.832031 130.703125 361.046875 130.703125 360.082031 L 130.703125 356.214844 L 232.429688 356.214844 L 232.429688 360.082031 C 232.429688 361.046875 231.644531 361.832031 230.679688 361.832031 " fill-opacity="1" fill-rule="nonzero"/><path fill="#ffffff" d="M 229.40625 357.363281 L 182.726562 357.363281 C 182.371094 357.363281 182.078125 357.070312 182.078125 356.714844 C 182.078125 356.355469 182.371094 356.066406 182.726562 356.066406 L 229.40625 356.066406 C 229.765625 356.066406 230.054688 356.355469 230.054688 356.714844 C 230.054688 357.070312 229.765625 357.363281 229.40625 357.363281 " fill-opacity="1" fill-rule="nonzero"/><path fill="#000000" d="M 90.644531 264.910156 C 90.644531 264.910156 81.132812 256.113281 77.640625 254.066406 C 74.148438 252.019531 69.800781 243.625 81.535156 238.480469 C 85.335938 236.816406 86.085938 232.199219 93.40625 231.410156 C 100.730469 230.621094 106.816406 234.339844 107.601562 238.953125 C 108.390625 243.570312 104.011719 247.570312 100.738281 248.105469 C 97.464844 248.640625 90.644531 264.910156 90.644531 264.910156 " fill-opacity="1" fill-rule="nonzero"/><path fill="#ffffff" d="M 107.1875 254.054688 L 108.207031 252.582031 L 104.171875 247.421875 L 101.40625 240.644531 C 93.59375 240.117188 90.460938 242.25 90.359375 248.242188 C 90.292969 252.082031 88.269531 252.175781 88.269531 252.175781 C 88.269531 252.175781 85.300781 248.980469 83.761719 252.769531 C 82.226562 256.5625 88.617188 259.199219 88.617188 259.199219 C 89.445312 260.949219 89.246094 263.015625 88.097656 264.574219 L 76.734375 280.015625 C 76.734375 280.015625 98.039062 285.652344 98.265625 282.292969 C 98.328125 281.339844 98.003906 280.527344 97.507812 279.851562 C 95.050781 276.503906 99.488281 267.464844 99.488281 267.464844 L 106.601562 264.59375 C 107.902344 264.066406 108.597656 262.640625 108.203125 261.289062 L 106.796875 256.453125 C 106.5625 255.632812 106.703125 254.753906 107.1875 254.054688 " fill-opacity="1" fill-rule="nonzero"/><path fill="#000000" d="M 77.824219 279.625 C 84.886719 281.441406 95.761719 283.621094 97.535156 282.351562 C 97.613281 282.292969 97.617188 282.265625 97.617188 282.25 C 97.664062 281.546875 97.449219 280.871094 96.984375 280.234375 C 94.371094 276.675781 98.433594 268.140625 98.90625 267.179688 C 98.976562 267.035156 99.097656 266.921875 99.246094 266.863281 L 106.355469 263.992188 C 107.355469 263.589844 107.882812 262.503906 107.582031 261.46875 L 106.175781 256.632812 C 105.882812 255.625 106.054688 254.550781 106.652344 253.6875 L 107.402344 252.605469 L 103.660156 247.820312 C 103.625 247.773438 103.59375 247.722656 103.574219 247.667969 L 100.960938 241.265625 C 96.917969 241.035156 94.328125 241.574219 92.828125 242.953125 C 91.628906 244.054688 91.050781 245.738281 91.007812 248.253906 C 90.933594 252.65625 88.40625 252.820312 88.300781 252.824219 C 88.113281 252.835938 87.925781 252.757812 87.796875 252.617188 C 87.476562 252.277344 86.464844 251.429688 85.644531 251.582031 C 85.140625 251.675781 84.710938 252.160156 84.363281 253.015625 C 83.085938 256.171875 88.804688 258.574219 88.863281 258.597656 C 89.011719 258.660156 89.132812 258.773438 89.203125 258.921875 C 90.136719 260.890625 89.910156 263.203125 88.621094 264.960938 Z M 95.191406 283.992188 C 89.582031 283.992188 79.058594 281.300781 76.566406 280.640625 C 76.359375 280.585938 76.191406 280.429688 76.121094 280.230469 C 76.050781 280.027344 76.082031 279.800781 76.210938 279.628906 L 87.574219 264.191406 C 88.535156 262.886719 88.738281 261.183594 88.125 259.691406 C 86.882812 259.128906 81.570312 256.453125 83.160156 252.527344 C 83.6875 251.230469 84.445312 250.484375 85.414062 250.308594 C 86.714844 250.0625 87.921875 250.96875 88.460938 251.457031 C 88.863281 251.269531 89.667969 250.601562 89.710938 248.230469 C 89.757812 245.378906 90.492188 243.335938 91.949219 241.996094 C 93.78125 240.316406 96.800781 239.679688 101.453125 239.996094 C 101.699219 240.015625 101.914062 240.171875 102.007812 240.402344 L 104.742188 247.09375 L 108.71875 252.183594 C 108.894531 252.40625 108.902344 252.71875 108.742188 252.949219 L 107.722656 254.425781 C 107.347656 254.96875 107.238281 255.636719 107.421875 256.269531 L 108.828125 261.105469 C 109.316406 262.785156 108.460938 264.539062 106.84375 265.195312 L 99.964844 267.972656 C 98.734375 270.5625 96.261719 277.058594 98.03125 279.46875 C 98.683594 280.355469 98.980469 281.320312 98.910156 282.335938 C 98.890625 282.632812 98.769531 283.0625 98.292969 283.40625 C 97.710938 283.824219 96.605469 283.992188 95.191406 283.992188 " fill-opacity="1" fill-rule="nonzero"/><path fill="#000000" d="M 88.84375 247.121094 L 94.246094 254.429688 C 96.539062 257.53125 100.738281 258.519531 104.171875 256.769531 L 107.105469 255.269531 L 112.527344 265.253906 C 113.109375 266.675781 112.355469 268.289062 110.894531 268.757812 L 103.011719 272.023438 C 100.761719 272.746094 98.292969 272.140625 96.632812 270.457031 L 88.160156 261.867188 C 88.160156 261.867188 91.375 258.890625 88.269531 252.175781 C 85.167969 245.460938 88.84375 247.121094 88.84375 247.121094 " fill-opacity="1" fill-rule="nonzero"/><path fill="#5479f7" d="M 179.847656 269.203125 L 164.410156 271.464844 C 164.410156 271.464844 158.148438 295.511719 142.4375 296.300781 C 134.882812 296.679688 129.164062 294.324219 125.265625 291.78125 C 119.359375 287.929688 112.621094 285.550781 105.59375 284.96875 L 77.363281 282.644531 C 61.761719 281.363281 46.890625 289.484375 39.558594 303.308594 C 31.71875 318.097656 21.996094 337.816406 15.796875 355.359375 C 14.652344 358.59375 17.035156 361.992188 20.46875 361.992188 L 95.382812 361.992188 L 111.863281 320.726562 C 120.074219 324.222656 132.730469 327.308594 150.507812 325.671875 C 188.089844 322.210938 179.847656 269.203125 179.847656 269.203125 " fill-opacity="1" fill-rule="nonzero"/><path fill="#000000" d="M 74.125 283.160156 C 59.953125 283.160156 46.847656 290.949219 40.132812 303.613281 C 32.804688 317.429688 22.742188 337.65625 16.40625 355.578125 C 15.929688 356.921875 16.128906 358.359375 16.953125 359.523438 C 17.769531 360.679688 19.050781 361.339844 20.46875 361.339844 L 94.941406 361.339844 L 111.261719 320.484375 C 111.324219 320.324219 111.453125 320.195312 111.613281 320.128906 C 111.777344 320.058594 111.957031 320.0625 112.117188 320.128906 C 119.539062 323.289062 132.214844 326.703125 150.449219 325.023438 C 159.152344 324.222656 166.058594 320.617188 170.976562 314.3125 C 182.484375 299.5625 179.847656 274.269531 179.292969 269.941406 L 164.925781 272.046875 C 163.980469 275.382812 157.507812 296.191406 142.472656 296.949219 C 136.015625 297.269531 130.105469 295.714844 124.910156 292.328125 C 119.039062 288.496094 112.34375 286.175781 105.542969 285.617188 L 77.3125 283.292969 C 76.246094 283.207031 75.183594 283.160156 74.125 283.160156 Z M 95.378906 362.636719 L 20.46875 362.636719 C 18.625 362.636719 16.957031 361.777344 15.890625 360.273438 C 14.824219 358.761719 14.566406 356.894531 15.183594 355.144531 C 21.542969 337.152344 31.636719 316.859375 38.984375 303.003906 C 46.445312 288.9375 61.535156 280.695312 77.417969 282 L 105.648438 284.324219 C 112.664062 284.902344 119.570312 287.292969 125.617188 291.238281 C 130.582031 294.476562 136.230469 295.957031 142.40625 295.652344 C 157.464844 294.894531 163.71875 271.539062 163.78125 271.300781 C 163.847656 271.046875 164.058594 270.859375 164.316406 270.824219 L 179.753906 268.5625 C 180.105469 268.507812 180.433594 268.753906 180.488281 269.105469 C 180.535156 269.398438 184.894531 298.582031 172 315.113281 C 166.851562 321.710938 159.640625 325.480469 150.566406 326.316406 C 132.554688 327.976562 119.855469 324.722656 112.222656 321.578125 L 95.984375 362.230469 C 95.886719 362.476562 95.648438 362.636719 95.378906 362.636719 " fill-opacity="1" fill-rule="nonzero"/><path fill="#5479f7" d="M 114.9375 328.945312 C 103.265625 325.082031 96.960938 306.945312 96.960938 306.945312 L 62.597656 313.863281 C 62.597656 313.863281 86.414062 351.867188 102.832031 355.34375 C 113.0625 357.515625 133.617188 347.867188 147.652344 340.285156 C 145.851562 336.308594 143.265625 330.601562 141.347656 326.402344 C 131.082031 328.894531 120.238281 330.699219 114.9375 328.945312 " fill-opacity="1" fill-rule="nonzero"/><path fill="#000000" d="M 106.085938 356.300781 C 104.867188 356.300781 103.730469 356.199219 102.695312 355.980469 C 86.203125 352.484375 63.023438 315.773438 62.046875 314.210938 C 61.855469 313.90625 61.949219 313.507812 62.253906 313.316406 C 62.558594 313.125 62.957031 313.21875 63.148438 313.519531 C 63.382812 313.898438 87.007812 351.328125 102.964844 354.710938 C 110.585938 356.328125 126.148438 351.105469 146.8125 340 C 145.082031 336.175781 142.769531 331.082031 140.976562 327.160156 C 128.09375 330.253906 119.265625 331.0625 114.734375 329.5625 C 102.894531 325.640625 96.609375 307.914062 96.347656 307.160156 C 96.230469 306.820312 96.410156 306.453125 96.75 306.332031 C 97.085938 306.214844 97.457031 306.394531 97.574219 306.730469 C 97.636719 306.910156 103.914062 324.613281 115.140625 328.328125 C 119.4375 329.753906 128.445312 328.867188 141.191406 325.769531 C 141.496094 325.695312 141.808594 325.847656 141.9375 326.128906 C 143.84375 330.304688 146.421875 335.984375 148.246094 340.019531 C 148.382812 340.328125 148.261719 340.695312 147.960938 340.855469 C 134.480469 348.136719 116.933594 356.300781 106.085938 356.300781 " fill-opacity="1" fill-rule="nonzero"/><path fill="#ffffff" d="M 184.980469 330.414062 L 169.074219 321.578125 C 166.617188 320.214844 163.707031 319.925781 161.035156 320.789062 C 156.601562 322.21875 149.140625 324.507812 141.347656 326.402344 C 143.265625 330.601562 145.851562 336.308594 147.652344 340.285156 C 156.136719 335.703125 162.242188 331.878906 162.242188 331.878906 L 172.511719 337.285156 C 172.511719 337.285156 171.941406 346.296875 173.980469 346.546875 C 176.019531 346.792969 176.785156 338.480469 176.785156 338.480469 C 176.785156 338.480469 178.539062 348.800781 181.566406 346.546875 L 182.726562 334.078125 C 182.726562 334.078125 184.738281 339.601562 185.890625 339.828125 C 187.046875 340.054688 187.046875 340.054688 187.046875 340.054688 L 184.980469 330.414062 " fill-opacity="1" fill-rule="nonzero"/><path fill="#000000" d="M 176.785156 337.828125 C 177.097656 337.828125 177.371094 338.058594 177.425781 338.371094 C 177.925781 341.296875 179.207031 345.65625 180.511719 346.175781 C 180.621094 346.222656 180.753906 346.25 180.949219 346.164062 L 182.082031 334.019531 C 182.109375 333.714844 182.34375 333.476562 182.644531 333.4375 C 182.945312 333.394531 183.234375 333.570312 183.335938 333.859375 C 184.304688 336.515625 185.550781 338.964844 186.050781 339.199219 L 186.207031 339.230469 L 184.40625 330.835938 L 168.757812 322.144531 C 166.46875 320.871094 163.722656 320.601562 161.234375 321.40625 C 156.617188 322.894531 149.640625 325.023438 142.261719 326.84375 C 144.027344 330.710938 146.261719 335.636719 147.957031 339.382812 C 156.011719 335.007812 161.839844 331.367188 161.898438 331.328125 C 162.09375 331.207031 162.339844 331.199219 162.546875 331.304688 L 172.8125 336.710938 C 173.042969 336.832031 173.175781 337.074219 173.160156 337.328125 C 172.867188 341.980469 173.410156 345.820312 174.058594 345.902344 C 174.089844 345.902344 174.136719 345.882812 174.195312 345.835938 C 175.132812 345.082031 175.894531 341.042969 176.136719 338.417969 C 176.167969 338.09375 176.433594 337.84375 176.761719 337.828125 C 176.769531 337.828125 176.777344 337.828125 176.785156 337.828125 Z M 180.710938 347.515625 C 180.445312 347.515625 180.214844 347.457031 180.027344 347.382812 C 178.585938 346.804688 177.566406 344.289062 176.929688 342.0625 C 176.558594 343.984375 175.949219 346.089844 175.011719 346.84375 C 174.585938 347.191406 174.171875 347.222656 173.902344 347.191406 C 171.621094 346.914062 171.671875 340.746094 171.839844 337.664062 L 162.269531 332.625 C 160.90625 333.472656 155.289062 336.902344 147.960938 340.855469 C 147.804688 340.941406 147.617188 340.957031 147.445312 340.902344 C 147.273438 340.84375 147.132812 340.71875 147.058594 340.554688 C 145.238281 336.519531 142.664062 330.839844 140.753906 326.671875 C 140.675781 326.496094 140.675781 326.292969 140.761719 326.117188 C 140.847656 325.945312 141.003906 325.816406 141.191406 325.769531 C 148.8125 323.917969 156.082031 321.703125 160.835938 320.167969 C 163.667969 319.257812 166.785156 319.5625 169.390625 321.007812 L 185.296875 329.84375 C 185.460938 329.9375 185.578125 330.09375 185.617188 330.273438 L 187.679688 339.921875 C 187.726562 340.132812 187.660156 340.355469 187.507812 340.511719 C 187.355469 340.667969 187.132812 340.734375 186.917969 340.695312 L 185.765625 340.464844 C 184.890625 340.292969 183.914062 338.582031 183.125 336.8125 L 182.214844 346.605469 C 182.195312 346.789062 182.101562 346.957031 181.953125 347.066406 C 181.5 347.402344 181.074219 347.515625 180.710938 347.515625 " fill-opacity="1" fill-rule="nonzero"/><path fill="#5479f7" d="M 103.910156 286.269531 L 104.613281 282.015625 C 104.84375 280.597656 103.921875 279.246094 102.515625 278.945312 C 95.492188 277.46875 76.023438 273.25 73.492188 271.464844 C 70.390625 269.277344 47.941406 290.429688 51.304688 289.871094 C 76.367188 285.742188 103.910156 286.269531 103.910156 286.269531 " fill-opacity="1" fill-rule="nonzero"/><path fill="#000000" d="M 72.894531 271.957031 C 72.707031 271.957031 72.382812 272.007812 71.847656 272.214844 C 66.433594 274.332031 54.136719 285.9375 51.941406 289.113281 C 74.621094 285.464844 99.34375 285.570312 103.359375 285.613281 L 103.972656 281.910156 C 104.148438 280.828125 103.449219 279.808594 102.378906 279.582031 C 92.527344 277.507812 75.621094 273.757812 73.117188 271.992188 C 73.117188 271.992188 73.058594 271.957031 72.894531 271.957031 Z M 51.1875 290.53125 C 50.65625 290.53125 50.445312 290.175781 50.390625 290.054688 C 50.199219 289.636719 49.914062 289.007812 54.019531 284.800781 C 56.378906 282.386719 59.507812 279.515625 62.398438 277.121094 C 71.699219 269.410156 73.328125 270.554688 73.863281 270.933594 C 75.824219 272.316406 90.019531 275.652344 102.648438 278.308594 C 104.398438 278.679688 105.542969 280.355469 105.253906 282.121094 L 104.550781 286.375 C 104.5 286.691406 104.222656 286.90625 103.898438 286.917969 C 103.625 286.914062 76.125 286.441406 51.410156 290.515625 C 51.332031 290.527344 51.257812 290.53125 51.1875 290.53125 " fill-opacity="1" fill-rule="nonzero"/><path fill="#ffffff" d="M 172.109375 243.8125 C 172.539062 242.957031 174.683594 240.40625 175.660156 239.671875 L 185.976562 230.082031 C 185.976562 230.082031 187.316406 234.703125 185.695312 237.429688 C 188.859375 237.53125 191.367188 238.070312 191.367188 238.070312 C 191.367188 238.070312 196.078125 233.921875 197.253906 233.207031 C 198.425781 232.488281 199.957031 231.355469 201.539062 231.375 C 203.121094 231.398438 204.6875 232.605469 204.6875 232.605469 L 195.625 244.089844 L 179.144531 248.625 L 180.070312 273.605469 L 164.410156 271.464844 L 172.109375 243.8125 " fill-opacity="1" fill-rule="nonzero"/><path fill="#000000" d="M 165.234375 270.921875 L 179.390625 272.859375 L 178.496094 248.648438 C 178.488281 248.347656 178.683594 248.078125 178.972656 248 L 195.246094 243.519531 L 203.742188 232.761719 C 203.203125 232.445312 202.351562 232.035156 201.527344 232.023438 C 201.519531 232.023438 201.503906 232.023438 201.496094 232.023438 C 200.339844 232.023438 199.105469 232.804688 198.109375 233.433594 C 197.929688 233.550781 197.757812 233.660156 197.589844 233.757812 C 196.667969 234.320312 193.09375 237.414062 191.796875 238.558594 C 191.640625 238.695312 191.433594 238.75 191.230469 238.707031 C 191.203125 238.703125 188.738281 238.179688 185.671875 238.078125 C 185.441406 238.070312 185.234375 237.941406 185.121094 237.738281 C 185.011719 237.539062 185.015625 237.292969 185.132812 237.09375 C 186.152344 235.390625 185.867188 232.777344 185.59375 231.324219 L 176.101562 240.148438 C 176.085938 240.164062 176.070312 240.179688 176.050781 240.191406 C 175.167969 240.851562 173.164062 243.230469 172.714844 244.054688 Z M 180.070312 274.253906 C 180.039062 274.253906 180.011719 274.253906 179.980469 274.25 L 164.324219 272.109375 C 164.136719 272.082031 163.972656 271.980469 163.867188 271.820312 C 163.765625 271.664062 163.734375 271.472656 163.785156 271.289062 L 171.484375 243.636719 C 171.496094 243.597656 171.507812 243.558594 171.53125 243.523438 C 171.992188 242.597656 174.160156 240.003906 175.242188 239.175781 L 185.535156 229.609375 C 185.699219 229.453125 185.933594 229.394531 186.152344 229.457031 C 186.367188 229.519531 186.539062 229.6875 186.601562 229.902344 C 186.652344 230.082031 187.742188 233.921875 186.691406 236.828125 C 188.804688 236.953125 190.496094 237.246094 191.175781 237.375 C 192.171875 236.503906 195.847656 233.300781 196.914062 232.648438 C 197.074219 232.550781 197.242188 232.445312 197.417969 232.335938 C 198.566406 231.609375 200 230.714844 201.542969 230.726562 C 203.324219 230.75 205.015625 232.039062 205.085938 232.09375 C 205.222656 232.195312 205.308594 232.355469 205.332031 232.527344 C 205.351562 232.699219 205.304688 232.871094 205.199219 233.007812 L 196.136719 244.492188 C 196.050781 244.601562 195.929688 244.679688 195.796875 244.714844 L 179.816406 249.113281 L 180.71875 273.582031 C 180.726562 273.773438 180.648438 273.957031 180.507812 274.085938 C 180.382812 274.195312 180.230469 274.253906 180.070312 274.253906 " fill-opacity="1" fill-rule="nonzero"/><path fill="#000000" d="M 274.101562 46.027344 C 278.160156 52.945312 287.679688 54.308594 289.8125 54.546875 C 298.492188 55.519531 304.898438 51.347656 306.632812 50.132812 C 309.636719 51.980469 316.917969 55.867188 326.425781 55.136719 C 333.941406 54.5625 346.601562 50.8125 349.054688 42.027344 C 351.992188 31.507812 338.753906 19.296875 327.402344 14.984375 C 317.875 11.367188 303.355469 10.90625 296.410156 18.230469 C 293.855469 20.917969 293.460938 23.460938 290.449219 24.335938 C 285.039062 25.914062 281.058594 19.257812 274.046875 19.597656 C 269.839844 19.800781 266.554688 22.421875 264.527344 24.460938 C 259.351562 26.167969 256.179688 29.605469 256.566406 32.367188 C 256.96875 35.246094 261.179688 36.992188 262 37.332031 C 266.261719 39.097656 268.523438 37.316406 271.050781 39.167969 C 273.289062 40.808594 272.382812 43.089844 274.101562 46.027344 " fill-opacity="1" fill-rule="nonzero"/><path fill="#ffffff" d="M 279.667969 53.140625 C 279.667969 53.140625 258.371094 59.941406 248.015625 53.140625 C 243.148438 49.945312 225.027344 27.359375 221.101562 25.269531 C 218.710938 24 214.996094 22.09375 212.453125 20.792969 C 210.679688 19.886719 208.605469 19.789062 206.753906 20.527344 L 196.171875 24.734375 C 196.171875 24.734375 199.25 27.207031 204.269531 26.214844 C 207.503906 25.578125 210.855469 25.90625 213.835938 27.316406 L 214.039062 27.414062 L 204.535156 30.371094 C 204.535156 30.371094 205.972656 32.773438 211.066406 31.851562 C 213.757812 31.359375 217 31.96875 219.464844 32.644531 L 219.632812 32.738281 C 219.632812 32.738281 228.722656 57.960938 242.054688 65.855469 C 261.449219 77.34375 281.832031 70.125 281.832031 70.125 L 279.667969 53.140625 " fill-opacity="1" fill-rule="nonzero"/><path fill="#000000" d="M 213.179688 31.023438 C 215.472656 31.023438 217.851562 31.527344 219.636719 32.019531 L 219.761719 32.066406 L 220.160156 32.273438 L 220.246094 32.515625 C 220.339844 32.765625 229.414062 57.613281 242.386719 65.296875 C 259.628906 75.507812 277.902344 70.648438 281.117188 69.667969 L 279.121094 53.984375 C 275.183594 55.140625 257.171875 59.929688 247.660156 53.683594 C 245.171875 52.046875 239.664062 45.875 233.832031 39.34375 C 228.34375 33.195312 222.671875 26.839844 220.792969 25.839844 C 218.421875 24.578125 214.789062 22.714844 212.15625 21.367188 C 210.554688 20.546875 208.671875 20.460938 206.992188 21.125 L 197.640625 24.84375 C 198.882812 25.441406 201.152344 26.167969 204.144531 25.578125 C 207.628906 24.890625 211.074219 25.289062 214.117188 26.730469 L 215.820312 27.539062 L 205.785156 30.660156 C 206.574219 31.167969 208.136719 31.71875 210.953125 31.207031 C 211.667969 31.082031 212.421875 31.023438 213.179688 31.023438 Z M 266.546875 72.972656 C 259.308594 72.972656 250.394531 71.546875 241.726562 66.414062 C 228.9375 58.839844 220.195312 36.121094 219.125 33.222656 C 216.886719 32.617188 213.75 32.023438 211.183594 32.484375 C 205.710938 33.476562 204.046875 30.816406 203.976562 30.703125 L 203.550781 29.992188 L 212.140625 27.324219 C 209.71875 26.488281 207.070312 26.324219 204.398438 26.851562 C 199.140625 27.886719 195.902344 25.347656 195.765625 25.238281 L 194.894531 24.539062 L 206.515625 19.921875 C 208.539062 19.113281 210.808594 19.222656 212.75 20.214844 C 215.382812 21.558594 219.023438 23.429688 221.402344 24.695312 C 223.484375 25.800781 228.980469 31.957031 234.800781 38.480469 C 240.316406 44.660156 246.027344 51.054688 248.371094 52.597656 C 258.347656 59.148438 279.261719 52.585938 279.472656 52.523438 L 280.210938 52.285156 L 282.542969 70.558594 L 282.046875 70.734375 C 281.933594 70.773438 275.535156 72.972656 266.546875 72.972656 " fill-opacity="1" fill-rule="nonzero"/><path fill="#000000" d="M 324.625 95.429688 C 324.625 95.429688 306.101562 108.003906 280.257812 104.300781 C 280.257812 104.300781 283.75 97.554688 289.722656 95.132812 C 295.695312 92.710938 324.625 95.429688 324.625 95.429688 " fill-opacity="1" fill-rule="nonzero"/><path fill="#000000" d="M 350.121094 127.148438 C 348.96875 98.945312 332.703125 88.550781 332.703125 88.550781 L 299.1875 96.90625 L 285.363281 127.148438 L 350.121094 127.148438 " fill-opacity="1" fill-rule="nonzero"/><path fill="#5479f7" d="M 280.386719 50.492188 L 298.007812 41.695312 C 302.476562 39.464844 307.882812 40.472656 311.234375 44.171875 C 318.921875 52.65625 332.167969 69.058594 338.824219 87.730469 C 338.824219 87.730469 326.851562 103 311.019531 101.9375 C 295.183594 100.871094 285.855469 99.855469 280.257812 104.300781 C 280.257812 104.300781 275.597656 80.890625 274.65625 60.214844 C 274.46875 56.128906 276.726562 52.320312 280.386719 50.492188 " fill-opacity="1" fill-rule="nonzero"/><path fill="#000000" d="M 308.453125 98.332031 C 308.121094 98.332031 307.835938 98.082031 307.808594 97.746094 C 307.210938 91.394531 305.230469 86.882812 301.917969 84.332031 C 299.386719 82.386719 296.707031 82 293.871094 81.59375 C 290.851562 81.160156 287.730469 80.710938 284.546875 78.402344 C 281.203125 75.976562 278.824219 72.230469 277.46875 67.265625 C 277.375 66.921875 277.578125 66.5625 277.925781 66.46875 C 278.269531 66.375 278.625 66.578125 278.722656 66.921875 C 279.996094 71.59375 282.210938 75.105469 285.308594 77.351562 C 288.234375 79.472656 291.191406 79.898438 294.050781 80.308594 C 296.933594 80.71875 299.910156 81.148438 302.707031 83.300781 C 306.320312 86.082031 308.46875 90.898438 309.097656 97.621094 C 309.132812 97.980469 308.871094 98.296875 308.511719 98.332031 C 308.492188 98.332031 308.472656 98.332031 308.453125 98.332031 " fill-opacity="1" fill-rule="nonzero"/><path fill="#ffffff" d="M 336.164062 126.183594 L 298.953125 50.128906 C 297.449219 47.050781 298.714844 43.335938 301.785156 41.820312 C 304.644531 40.410156 308.097656 41.382812 309.800781 44.078125 C 314.761719 51.941406 324.269531 67.773438 326.402344 76.902344 C 329.324219 89.390625 333.566406 95.574219 336.164062 99.554688 C 337.839844 102.125 339.941406 111.246094 341.222656 117.390625 C 341.871094 120.503906 345.0625 122.378906 348.097656 121.421875 L 348.109375 121.417969 C 350.824219 120.566406 353.785156 121.0625 356.074219 122.761719 L 360.078125 125.734375 C 360.507812 126.058594 360.269531 126.746094 359.730469 126.734375 L 336.164062 126.183594 " fill-opacity="1" fill-rule="nonzero"/><path fill="#000000" d="M 336.570312 125.542969 L 359.445312 126.078125 L 355.679688 123.28125 C 353.570312 121.714844 350.8125 121.25 348.300781 122.039062 C 346.671875 122.554688 344.90625 122.355469 343.4375 121.496094 C 341.96875 120.636719 340.933594 119.1875 340.585938 117.523438 C 338.613281 108.050781 336.851562 101.792969 335.617188 99.910156 L 335.335938 99.480469 C 332.660156 95.394531 328.613281 89.214844 325.769531 77.050781 C 323.683594 68.128906 314.523438 52.78125 309.25 44.425781 C 307.722656 42.007812 304.636719 41.140625 302.070312 42.40625 C 299.328125 43.757812 298.191406 47.09375 299.535156 49.84375 Z M 359.742188 127.382812 C 359.734375 127.382812 359.726562 127.382812 359.714844 127.382812 L 335.753906 126.824219 L 335.578125 126.46875 L 298.371094 50.414062 C 296.710938 47.023438 298.113281 42.910156 301.496094 41.242188 C 304.660156 39.675781 308.464844 40.75 310.347656 43.734375 C 315.664062 52.15625 324.90625 67.652344 327.035156 76.753906 C 329.824219 88.691406 333.796875 94.757812 336.425781 98.769531 L 336.707031 99.199219 C 338.394531 101.785156 340.441406 110.445312 341.855469 117.257812 C 342.128906 118.566406 342.945312 119.703125 344.09375 120.375 C 345.242188 121.050781 346.632812 121.203125 347.902344 120.804688 C 350.816406 119.882812 354.011719 120.425781 356.457031 122.242188 L 360.457031 125.214844 C 360.882812 125.53125 361.050781 126.074219 360.878906 126.570312 C 360.710938 127.0625 360.257812 127.382812 359.742188 127.382812 " fill-opacity="1" fill-rule="nonzero"/><path fill="#ffffff" d="M 280.429688 35.777344 C 280.457031 35.742188 282.257812 33.683594 281.269531 32.175781 C 280.277344 30.652344 278.304688 32.667969 278.304688 32.667969 C 278.304688 32.667969 276.636719 29.773438 272.820312 29.878906 C 272.820312 29.878906 271.195312 33.574219 267.039062 33.554688 C 267.039062 33.554688 267.984375 35.722656 269.386719 38.121094 L 269.839844 40.707031 C 269.910156 41.097656 270.347656 41.300781 270.6875 41.097656 C 270.945312 40.945312 271.273438 41.015625 271.449219 41.253906 C 272.480469 42.601562 273.59375 43.738281 274.6875 44.226562 C 276.222656 44.914062 277.59375 44.207031 278.625 42.890625 C 281.054688 45.832031 284.644531 50.84375 282.96875 53.007812 C 282.96875 53.007812 288.433594 54.59375 293.84375 47.160156 L 280.429688 35.777344 " fill-opacity="1" fill-rule="nonzero"/><path fill="#000000" d="M 283.933594 52.5 C 285.5 52.597656 289.160156 52.199219 292.957031 47.261719 L 279.507812 35.84375 L 279.941406 35.347656 C 279.957031 35.332031 281.425781 33.601562 280.726562 32.527344 C 280.582031 32.308594 280.445312 32.269531 280.347656 32.257812 C 279.847656 32.203125 279.054688 32.832031 278.769531 33.121094 L 278.171875 33.730469 L 277.742188 32.992188 C 277.683594 32.894531 276.308594 30.621094 273.21875 30.527344 C 272.695312 31.457031 271.109375 33.742188 268.027344 34.144531 C 268.425781 34.984375 269.105469 36.351562 269.949219 37.792969 L 270.007812 37.898438 L 270.460938 40.484375 C 270.980469 40.242188 271.613281 40.390625 271.96875 40.859375 C 273.070312 42.304688 274.074219 43.238281 274.957031 43.636719 C 276.339844 44.253906 277.433594 43.355469 278.113281 42.488281 L 278.609375 41.851562 L 279.125 42.476562 C 282.902344 47.054688 284.515625 50.417969 283.933594 52.5 Z M 284.3125 53.808594 C 283.417969 53.808594 282.859375 53.65625 282.789062 53.636719 L 281.871094 53.371094 L 282.453125 52.613281 C 283.421875 51.359375 281.988281 48.121094 278.601562 43.890625 C 277.355469 45.125 275.867188 45.464844 274.421875 44.816406 C 273.351562 44.335938 272.1875 43.285156 270.964844 41.683594 C 270.632812 41.863281 270.234375 41.875 269.890625 41.714844 C 269.527344 41.546875 269.269531 41.210938 269.203125 40.820312 L 268.769531 38.347656 C 267.394531 35.984375 266.480469 33.90625 266.441406 33.816406 L 266.042969 32.902344 L 267.042969 32.90625 C 267.050781 32.90625 267.0625 32.90625 267.070312 32.90625 C 270.734375 32.90625 272.214844 29.648438 272.226562 29.613281 L 272.394531 29.242188 L 272.804688 29.230469 C 275.851562 29.152344 277.640625 30.78125 278.414062 31.71875 C 278.921875 31.332031 279.695312 30.890625 280.472656 30.964844 C 280.855469 31.003906 281.398438 31.183594 281.816406 31.820312 C 282.726562 33.210938 281.878906 34.851562 281.316406 35.675781 L 294.71875 47.058594 L 294.367188 47.542969 C 290.425781 52.960938 286.429688 53.808594 284.3125 53.808594 " fill-opacity="1" fill-rule="nonzero"/><path fill="#000000" d="M 278.625 43.539062 C 278.476562 43.539062 278.328125 43.488281 278.207031 43.386719 C 277.933594 43.152344 277.898438 42.742188 278.128906 42.46875 C 278.734375 41.753906 279.28125 40.183594 279.4375 39.636719 C 279.539062 39.292969 279.902344 39.097656 280.246094 39.199219 C 280.585938 39.296875 280.785156 39.660156 280.6875 40.003906 C 280.660156 40.09375 280.027344 42.234375 279.121094 43.308594 C 278.992188 43.457031 278.808594 43.539062 278.625 43.539062 " fill-opacity="1" fill-rule="nonzero"/><path fill="#5479f7" d="M 317.394531 344.675781 C 317.394531 344.675781 326.019531 341.976562 340.148438 314.566406 C 352.074219 291.429688 341.441406 269.070312 339.296875 254.113281 C 339.078125 252.585938 336.988281 252.367188 336.472656 253.816406 C 332.894531 263.867188 327.144531 282.140625 328.074219 293.390625 C 329.417969 309.605469 317.394531 344.675781 317.394531 344.675781 " fill-opacity="1" fill-rule="nonzero"/><path fill="#5479f7" d="M 326.742188 329.6875 L 329.816406 305.402344 C 331.152344 294.855469 329.425781 284.148438 324.847656 274.574219 C 318.179688 260.625 317.65625 244.488281 323.40625 230.128906 L 328.339844 217.804688 C 328.964844 216.246094 326.980469 214.980469 325.855469 216.21875 L 318.921875 223.839844 C 303.199219 241.132812 297.894531 265.613281 305.023438 287.949219 L 317.789062 327.964844 L 326.742188 329.6875 " fill-opacity="1" fill-rule="nonzero"/><path fill="#caddff" d="M 328.222656 318.632812 C 328.195312 318.632812 328.167969 318.632812 328.140625 318.628906 C 327.785156 318.582031 327.535156 318.257812 327.578125 317.902344 L 329.171875 305.320312 C 329.976562 298.941406 329.660156 292.535156 328.234375 286.273438 C 328.15625 285.921875 328.375 285.574219 328.722656 285.496094 C 329.074219 285.417969 329.421875 285.632812 329.5 285.984375 C 330.960938 292.394531 331.285156 298.957031 330.457031 305.480469 L 328.867188 318.066406 C 328.824219 318.394531 328.542969 318.632812 328.222656 318.632812 " fill-opacity="1" fill-rule="nonzero"/><path fill="#5479f7" d="M 322.785156 330.484375 L 312.125 303.265625 C 309.09375 295.523438 302.710938 289.609375 294.8125 287.214844 L 287.542969 285.015625 C 285.78125 284.480469 284.59375 286.8125 286.054688 287.945312 L 290.519531 291.417969 C 295.363281 295.183594 298.25 300.957031 298.378906 307.121094 C 298.453125 310.742188 299.484375 314.28125 301.367188 317.367188 L 308.585938 329.207031 L 322.785156 330.484375 " fill-opacity="1" fill-rule="nonzero"/><path fill="#caddff" d="M 321.207031 318.34375 C 321.1875 318.34375 321.164062 318.34375 321.144531 318.339844 C 320.789062 318.308594 320.527344 317.992188 320.558594 317.636719 C 322.179688 300.304688 318.695312 289.140625 315.625 279.292969 C 314.199219 274.71875 312.851562 270.402344 312.046875 265.753906 C 308.261719 243.777344 321.171875 224.710938 321.300781 224.519531 C 321.503906 224.226562 321.910156 224.152344 322.203125 224.355469 C 322.5 224.558594 322.574219 224.960938 322.371094 225.257812 C 322.242188 225.445312 309.632812 244.089844 313.328125 265.53125 C 314.113281 270.097656 315.449219 274.375 316.863281 278.90625 C 319.96875 288.871094 323.496094 300.164062 321.855469 317.753906 C 321.820312 318.09375 321.539062 318.34375 321.207031 318.34375 " fill-opacity="1" fill-rule="nonzero"/><path fill="#caddff" d="M 316.683594 310.332031 C 316.410156 310.332031 316.15625 310.160156 316.0625 309.886719 C 314.699219 305.753906 311.605469 301.449219 309.253906 298.566406 C 309.023438 298.289062 309.0625 297.878906 309.34375 297.652344 C 309.621094 297.425781 310.03125 297.46875 310.257812 297.746094 C 312.679688 300.710938 315.871094 305.15625 317.300781 309.480469 C 317.410156 309.820312 317.226562 310.1875 316.882812 310.300781 C 316.816406 310.324219 316.75 310.332031 316.683594 310.332031 " fill-opacity="1" fill-rule="nonzero"/><path fill="#caddff" d="M 335.402344 306.722656 C 335.367188 306.722656 335.332031 306.722656 335.292969 306.714844 C 334.9375 306.652344 334.703125 306.320312 334.761719 305.964844 C 337.660156 288.828125 336.65625 262.429688 336.648438 262.164062 C 336.632812 261.804688 336.910156 261.503906 337.269531 261.492188 C 337.648438 261.476562 337.929688 261.753906 337.941406 262.113281 C 337.953125 262.378906 338.964844 288.910156 336.042969 306.183594 C 335.988281 306.5 335.714844 306.722656 335.402344 306.722656 " fill-opacity="1" fill-rule="nonzero"/><path fill="#caddff" d="M 309.953125 320.945312 C 309.597656 320.945312 309.304688 320.65625 309.304688 320.300781 C 309.097656 299.097656 292.152344 289.757812 291.980469 289.667969 C 291.664062 289.496094 291.542969 289.105469 291.714844 288.789062 C 291.882812 288.472656 292.273438 288.351562 292.59375 288.523438 C 292.769531 288.617188 310.390625 298.296875 310.601562 320.289062 C 310.605469 320.648438 310.316406 320.941406 309.957031 320.945312 C 309.957031 320.945312 309.953125 320.945312 309.953125 320.945312 " fill-opacity="1" fill-rule="nonzero"/><path fill="#caddff" d="M 312.269531 280.933594 C 312.074219 280.933594 311.882812 280.851562 311.753906 280.683594 C 307.097656 274.703125 305.09375 266.871094 305.011719 266.542969 C 304.925781 266.195312 305.136719 265.84375 305.484375 265.753906 C 305.832031 265.667969 306.183594 265.878906 306.273438 266.226562 C 306.292969 266.304688 308.292969 274.125 312.78125 279.886719 C 313 280.171875 312.949219 280.578125 312.667969 280.796875 C 312.546875 280.890625 312.40625 280.933594 312.269531 280.933594 " fill-opacity="1" fill-rule="nonzero"/><path fill="#99b9ff" d="M 320.257812 362.109375 C 309.105469 362.109375 300.066406 353.070312 300.066406 341.921875 L 300.066406 323.902344 L 340.449219 323.902344 L 340.449219 341.921875 C 340.449219 353.070312 331.410156 362.109375 320.257812 362.109375 " fill-opacity="1" fill-rule="nonzero"/><path fill="#99b9ff" d="M 336.492188 331.296875 L 304.027344 331.296875 C 303.667969 331.296875 303.375 331.003906 303.375 330.644531 C 303.375 330.289062 303.667969 330 304.027344 330 L 336.492188 330 C 336.851562 330 337.140625 330.289062 337.140625 330.644531 C 337.140625 331.003906 336.851562 331.296875 336.492188 331.296875 " fill-opacity="1" fill-rule="nonzero"/><path fill="#000000" d="M 19.769531 102.402344 C 19.601562 102.402344 19.4375 102.339844 19.308594 102.210938 C 19.054688 101.957031 19.054688 101.546875 19.308594 101.292969 L 61.535156 59.082031 C 61.789062 58.828125 62.199219 58.828125 62.453125 59.082031 C 62.707031 59.335938 62.707031 59.746094 62.453125 60 L 20.226562 102.210938 C 20.101562 102.339844 19.933594 102.402344 19.769531 102.402344 " fill-opacity="1" fill-rule="nonzero"/><path fill="#000000" d="M 42.71875 95.023438 C 42.550781 95.023438 42.386719 94.957031 42.257812 94.832031 C 42.003906 94.578125 42.003906 94.167969 42.257812 93.914062 L 80.808594 55.371094 C 81.0625 55.117188 81.472656 55.117188 81.726562 55.371094 C 81.980469 55.625 81.980469 56.035156 81.726562 56.289062 L 43.175781 94.832031 C 43.050781 94.957031 42.882812 95.023438 42.71875 95.023438 " fill-opacity="1" fill-rule="nonzero"/><path fill="#000000" d="M 68.851562 55.492188 C 66.730469 55.492188 65.003906 53.769531 65.003906 51.648438 C 65.003906 51.289062 65.296875 51 65.65625 51 C 66.015625 51 66.304688 51.289062 66.304688 51.648438 C 66.304688 53.050781 67.449219 54.195312 68.851562 54.195312 C 70.257812 54.195312 71.398438 53.050781 71.398438 51.648438 C 71.398438 50.242188 70.257812 49.101562 68.851562 49.101562 C 68.492188 49.101562 68.203125 48.808594 68.203125 48.449219 C 68.203125 48.09375 68.492188 47.804688 68.851562 47.804688 C 70.972656 47.804688 72.699219 49.527344 72.699219 51.648438 C 72.699219 53.769531 70.972656 55.492188 68.851562 55.492188 " fill-opacity="1" fill-rule="nonzero"/><path fill="#000000" d="M 241.742188 106.078125 C 241.578125 106.078125 241.410156 106.015625 241.285156 105.886719 C 241.03125 105.632812 241.03125 105.222656 241.285156 104.972656 L 259.753906 86.507812 C 260.007812 86.253906 260.417969 86.253906 260.671875 86.507812 C 260.921875 86.757812 260.921875 87.171875 260.671875 87.421875 L 242.203125 105.886719 C 242.074219 106.015625 241.910156 106.078125 241.742188 106.078125 " fill-opacity="1" fill-rule="nonzero"/><path fill="#000000" d="M 236.230469 119.8125 C 236.0625 119.8125 235.898438 119.746094 235.773438 119.621094 C 235.519531 119.367188 235.519531 118.957031 235.773438 118.703125 L 253.75 100.730469 C 254 100.476562 254.414062 100.476562 254.667969 100.730469 C 254.917969 100.984375 254.917969 101.394531 254.667969 101.648438 L 236.6875 119.621094 C 236.5625 119.746094 236.398438 119.8125 236.230469 119.8125 " fill-opacity="1" fill-rule="nonzero"/></svg>