<svg xmlns="http://www.w3.org/2000/svg" xmlns:xlink="http://www.w3.org/1999/xlink" width="500" zoomAndPan="magnify" viewBox="0 0 375 374.999991" height="500" preserveAspectRatio="xMidYMid meet" version="1.0"><path fill="#fc5d85" d="M 325.996094 273.03125 L 125.183594 273.03125 L 125.183594 18.148438 C 125.183594 11.46875 130.597656 6.054688 137.285156 6.054688 L 318.773438 6.054688 L 325.996094 18.148438 Z M 325.996094 273.03125 " fill-opacity="1" fill-rule="nonzero"/><path fill="#ffffff" d="M 201.113281 95.226562 C 199.988281 92.492188 197.355469 90.730469 194.390625 90.730469 C 194.390625 90.730469 194.382812 90.730469 194.382812 90.730469 C 191.40625 90.738281 188.773438 92.515625 187.617188 95.375 L 167.445312 148.328125 C 166.257812 151.449219 167.824219 154.941406 170.9375 156.132812 C 171.648438 156.40625 172.378906 156.53125 173.089844 156.53125 C 175.527344 156.53125 177.828125 155.042969 178.746094 152.628906 L 182.292969 143.335938 L 206.355469 143.335938 L 209.847656 152.617188 C 211.035156 155.742188 214.492188 157.308594 217.652344 156.144531 C 220.777344 154.964844 222.347656 151.472656 221.167969 148.339844 Z M 186.894531 131.242188 L 194.371094 111.625 L 201.789062 131.242188 Z M 186.894531 131.242188 " fill-opacity="1" fill-rule="nonzero"/><path fill="#ffffff" d="M 295.136719 143.292969 L 269.929688 143.292969 L 298.628906 101.691406 C 299.910156 99.839844 300.046875 97.433594 299.003906 95.445312 C 297.964844 93.453125 295.902344 92.203125 293.648438 92.203125 L 259.34375 92.203125 C 256 92.203125 253.285156 94.917969 253.285156 98.257812 C 253.285156 101.601562 256 104.300781 259.34375 104.300781 L 282.121094 104.300781 L 253.4375 145.902344 C 252.152344 147.753906 252.003906 150.15625 253.058594 152.148438 C 254.097656 154.140625 256.160156 155.386719 258.414062 155.386719 L 295.136719 155.386719 C 298.480469 155.386719 301.179688 152.675781 301.179688 149.332031 C 301.179688 145.992188 298.480469 143.292969 295.136719 143.292969 Z M 295.136719 143.292969 " fill-opacity="1" fill-rule="nonzero"/><path fill="#ffffff" d="M 242.835938 119.773438 L 231.21875 119.773438 C 227.863281 119.773438 225.160156 122.484375 225.160156 125.828125 C 225.160156 129.15625 227.863281 131.871094 231.21875 131.871094 L 242.835938 131.871094 C 246.179688 131.871094 248.878906 129.15625 248.878906 125.828125 C 248.878906 122.484375 246.179688 119.773438 242.835938 119.773438 Z M 242.835938 119.773438 " fill-opacity="1" fill-rule="nonzero"/><path fill="#ffdf78" d="M 161.484375 6.054688 L 161.484375 51.441406 C 161.484375 55.308594 165.785156 57.609375 169.003906 55.46875 L 179.625 48.386719 L 185.679688 52.414062 L 193.054688 26.539062 L 185.679688 0 L 167.527344 0 C 164.183594 0 161.484375 2.710938 161.484375 6.054688 Z M 161.484375 6.054688 " fill-opacity="1" fill-rule="nonzero"/><path fill="#fc427d" d="M 318.773438 6.054688 L 318.773438 247.980469 C 318.773438 258.007812 310.648438 266.132812 300.632812 266.132812 L 137.285156 266.132812 L 137.285156 6.054688 L 125.183594 6.054688 C 118.5 6.054688 113.085938 11.46875 113.085938 18.148438 L 113.085938 278.230469 L 318.773438 278.230469 C 325.460938 278.230469 330.875 272.816406 330.875 266.132812 L 330.875 18.148438 C 330.875 11.46875 325.460938 6.054688 318.773438 6.054688 Z M 318.773438 6.054688 " fill-opacity="1" fill-rule="nonzero"/><path fill="#ffcf5c" d="M 191.726562 0 L 185.679688 0 L 185.679688 52.414062 L 190.25 55.46875 C 193.464844 57.609375 197.78125 55.308594 197.78125 51.441406 L 197.78125 6.054688 C 197.78125 2.710938 195.066406 0 191.726562 0 Z M 191.726562 0 " fill-opacity="1" fill-rule="nonzero"/><path fill="#ffdf78" d="M 153.734375 189.25 C 140.59375 179.113281 123.558594 173.765625 105.253906 175.851562 C 75.503906 179.238281 51.167969 203.007812 47.164062 232.667969 C 43.832031 257.285156 53.996094 279.695312 71.292969 293.644531 C 81.34375 301.757812 87.226562 313.832031 88.578125 326.613281 L 128.640625 331.03125 C 128.640625 316.796875 134.558594 302.890625 145.71875 294.054688 C 161.117188 281.890625 170.996094 263.078125 170.996094 241.941406 C 170.996094 203.945312 153.734375 189.25 153.734375 189.25 Z M 153.734375 189.25 " fill-opacity="1" fill-rule="nonzero"/><path fill="#ffcf5c" d="M 153.734375 189.25 C 162.386719 200.488281 167.527344 214.566406 167.527344 229.84375 C 167.527344 249.230469 159.214844 266.648438 145.984375 278.789062 C 132.203125 291.421875 125.183594 309.835938 125.183594 328.527344 L 137.511719 326.613281 C 138.601562 313.96875 144.347656 301.976562 154.351562 294.054688 C 169.746094 281.890625 179.625 263.078125 179.625 241.941406 C 179.625 220.492188 169.484375 201.425781 153.734375 189.25 Z M 153.734375 189.25 " fill-opacity="1" fill-rule="nonzero"/><path fill="#ebe9eb" d="M 125.207031 326.613281 L 88.578125 326.613281 C 88.773438 328.503906 88.875 330.402344 88.875 332.300781 L 88.875 338.710938 L 94.839844 344.855469 L 88.875 350.808594 L 88.875 362.902344 L 100.984375 368.363281 L 130.40625 368.363281 L 130.40625 331.03125 Z M 125.207031 326.613281 " fill-opacity="1" fill-rule="nonzero"/><path fill="#ffffff" d="M 113.085938 308.464844 C 110.691406 308.464844 108.53125 307.054688 107.546875 304.882812 L 83.347656 250.441406 C 81.996094 247.386719 83.367188 243.816406 86.425781 242.453125 C 89.480469 241.09375 93.054688 242.476562 94.414062 245.523438 L 113.085938 287.519531 L 131.753906 245.523438 C 133.105469 242.476562 136.6875 241.09375 139.734375 242.453125 C 142.789062 243.816406 144.164062 247.386719 142.8125 250.441406 L 118.613281 304.882812 C 117.628906 307.054688 115.476562 308.464844 113.085938 308.464844 Z M 113.085938 308.464844 " fill-opacity="1" fill-rule="nonzero"/><path fill="#dad7da" d="M 125.183594 375 L 100.984375 375 C 94.300781 375 88.875 369.585938 88.875 362.902344 L 137.285156 362.902344 C 137.285156 369.585938 131.859375 375 125.183594 375 Z M 125.183594 375 " fill-opacity="1" fill-rule="nonzero"/><path fill="#dad7da" d="M 125.207031 326.613281 C 125.183594 327.253906 125.183594 327.882812 125.183594 328.527344 L 125.183594 338.710938 L 88.875 338.710938 L 88.875 350.808594 L 125.183594 350.808594 C 125.183594 357.492188 119.757812 362.902344 113.085938 362.902344 L 88.875 362.902344 C 88.875 369.585938 94.300781 375 100.984375 375 L 125.183594 375 C 131.859375 375 137.285156 369.585938 137.285156 362.902344 L 137.285156 350.808594 L 131.230469 344.753906 L 137.285156 338.710938 L 137.285156 331.03125 C 137.285156 329.554688 137.375 328.078125 137.511719 326.613281 Z M 125.207031 326.613281 " fill-opacity="1" fill-rule="nonzero"/><path fill="#c8c4c8" d="M 125.183594 338.710938 L 137.285156 338.710938 L 137.285156 350.808594 L 125.183594 350.808594 Z M 125.183594 338.710938 " fill-opacity="1" fill-rule="nonzero"/></svg>