<svg xmlns="http://www.w3.org/2000/svg" xmlns:xlink="http://www.w3.org/1999/xlink" width="500" zoomAndPan="magnify" viewBox="0 0 375 374.999991" height="500" preserveAspectRatio="xMidYMid meet" version="1.0"><path fill="#f68953" d="M 269.539062 16.070312 L 254.289062 51.386719 L 198.695312 51.386719 L 178.050781 16.070312 L 191.925781 18.378906 C 213.03125 21.902344 234.558594 21.902344 255.664062 18.378906 Z M 269.539062 16.070312 " fill-opacity="1" fill-rule="nonzero"/><path fill="#df6d2b" d="M 254.289062 51.386719 C 262.714844 51.386719 269.539062 58.21875 269.539062 66.632812 C 269.539062 75.050781 262.707031 81.882812 254.289062 81.882812 L 198.695312 81.882812 C 190.28125 81.882812 183.449219 75.058594 183.449219 66.632812 C 183.449219 58.21875 190.28125 51.386719 198.695312 51.386719 Z M 254.289062 51.386719 " fill-opacity="1" fill-rule="nonzero"/><path fill="#f68953" d="M 322.472656 233.289062 C 322.464844 242.84375 319.765625 251.773438 315.097656 259.351562 L 239.445312 282.917969 L 236.421875 282.917969 C 242.695312 278.902344 246.652344 271.25 246.652344 264.601562 C 247.0625 251.5 236.542969 240.984375 223.792969 240.984375 L 139.929688 240.984375 L 133.144531 234.199219 C 132.390625 220.132812 133.070312 204.921875 136.917969 191.34375 C 153.058594 134.40625 181.742188 96.40625 196.316406 81.882812 C 208.167969 81.882812 247.039062 81.882812 258.878906 81.882812 C 298.96875 121.824219 322.503906 175.664062 322.472656 233.289062 Z M 322.472656 233.289062 " fill-opacity="1" fill-rule="nonzero"/><path fill="#615285" d="M 71.316406 340.097656 L 2.699219 340.097656 L 2.699219 172.367188 L 71.316406 172.367188 C 71.316406 180.277344 71.316406 330.1875 71.316406 340.097656 Z M 71.316406 340.097656 " fill-opacity="1" fill-rule="nonzero"/><path fill="#ffdfcf" d="M 223.792969 240.984375 C 236.59375 240.984375 247.058594 251.546875 246.652344 264.601562 C 246.652344 269.519531 244.402344 275.335938 240.535156 279.433594 C 238.011719 282.105469 235.019531 284.121094 231.539062 285.378906 C 391.808594 235.457031 279.078125 270.570312 348.082031 249.074219 C 362.8125 246.15625 376.273438 257.433594 376.273438 272.1875 C 376.273438 282.335938 369.777344 291.339844 360.15625 294.550781 L 193.300781 359.160156 L 94.1875 324.847656 L 71.316406 324.847656 C 71.316406 306.75 71.316406 213.566406 71.316406 202.863281 L 101.8125 202.863281 C 106.363281 207.414062 135.785156 236.835938 139.929688 240.984375 Z M 223.792969 240.984375 " fill-opacity="1" fill-rule="nonzero"/><path fill="#000000" d="M 71.316406 347.722656 L 2.699219 347.722656 C -1.511719 347.722656 -4.921875 344.308594 -4.921875 340.097656 L -4.921875 172.367188 C -4.921875 168.15625 -1.511719 164.742188 2.699219 164.742188 L 71.316406 164.742188 C 75.527344 164.742188 78.941406 168.15625 78.941406 172.367188 L 78.941406 340.097656 C 78.941406 344.308594 75.527344 347.722656 71.316406 347.722656 Z M 10.324219 332.472656 L 63.691406 332.472656 L 63.691406 179.992188 L 10.324219 179.992188 Z M 10.324219 332.472656 " fill-opacity="1" fill-rule="nonzero"/><path fill="#000000" d="M 40.820312 309.601562 C 36.609375 309.601562 33.195312 306.1875 33.195312 301.976562 L 33.195312 294.351562 C 33.195312 290.140625 36.609375 286.730469 40.820312 286.730469 C 45.03125 286.730469 48.445312 290.140625 48.445312 294.351562 L 48.445312 301.976562 C 48.445312 306.1875 45.03125 309.601562 40.820312 309.601562 Z M 40.820312 309.601562 " fill-opacity="1" fill-rule="nonzero"/><path fill="#000000" d="M 254.289062 89.507812 C 250.082031 89.507812 246.667969 86.09375 246.667969 81.882812 C 246.667969 77.671875 250.082031 74.257812 254.289062 74.257812 C 258.5 74.257812 261.914062 70.84375 261.914062 66.632812 C 261.914062 62.429688 258.496094 59.011719 254.289062 59.011719 L 198.695312 59.011719 C 194.488281 59.011719 191.074219 62.421875 191.074219 66.632812 C 191.074219 70.839844 194.492188 74.257812 198.695312 74.257812 C 202.90625 74.257812 206.320312 77.671875 206.320312 81.882812 C 206.320312 86.09375 202.90625 89.507812 198.695312 89.507812 C 186.085938 89.507812 175.824219 79.246094 175.824219 66.632812 C 175.824219 54 186.054688 43.761719 198.695312 43.761719 L 254.289062 43.761719 C 266.902344 43.761719 277.164062 54.023438 277.164062 66.632812 C 277.164062 72.742188 274.78125 78.484375 270.460938 82.804688 C 266.140625 87.128906 260.398438 89.507812 254.289062 89.507812 Z M 254.289062 89.507812 " fill-opacity="1" fill-rule="nonzero"/><path fill="#000000" d="M 311.101562 265.84375 C 307.515625 263.632812 306.398438 258.9375 308.605469 255.351562 C 312.683594 248.730469 314.84375 241.101562 314.847656 233.285156 C 314.882812 180.160156 294.160156 128.976562 255.699219 89.507812 L 199.53125 89.507812 C 182.0625 107.917969 157.9375 145.148438 144.253906 193.421875 C 141.097656 204.5625 139.921875 218.144531 140.757812 233.789062 C 140.984375 237.996094 137.757812 241.585938 133.554688 241.8125 C 129.375 242.03125 125.757812 238.8125 125.535156 234.605469 C 124.605469 217.277344 125.96875 202.023438 129.585938 189.261719 C 144.648438 136.132812 172.046875 95.300781 190.9375 76.480469 C 192.367188 75.058594 194.300781 74.257812 196.320312 74.257812 L 258.882812 74.257812 C 260.898438 74.257812 262.832031 75.058594 264.261719 76.480469 C 306.894531 118.957031 330.136719 174.960938 330.097656 233.296875 C 330.089844 243.933594 327.148438 254.324219 321.59375 263.347656 C 319.375 266.945312 314.675781 268.042969 311.101562 265.84375 Z M 311.101562 265.84375 " fill-opacity="1" fill-rule="nonzero"/><path fill="#000000" d="M 251.269531 58.386719 C 247.402344 56.714844 245.621094 52.230469 247.289062 48.363281 L 256.996094 25.886719 L 256.914062 25.902344 C 235.660156 29.449219 214.109375 29.566406 192.832031 26.25 L 205.277344 47.539062 C 207.402344 51.175781 206.179688 55.84375 202.542969 57.96875 C 198.910156 60.09375 194.238281 58.871094 192.113281 55.234375 L 171.46875 19.917969 C 169.976562 17.367188 170.09375 14.179688 171.773438 11.746094 C 173.449219 9.308594 176.386719 8.0625 179.304688 8.550781 L 193.179688 10.859375 C 213.492188 14.25 234.09375 14.25 254.40625 10.859375 L 268.285156 8.550781 C 271.042969 8.09375 273.820312 9.175781 275.542969 11.371094 C 277.261719 13.570312 277.644531 16.53125 276.539062 19.09375 L 261.289062 54.40625 C 259.625 58.265625 255.144531 60.058594 251.269531 58.386719 Z M 251.269531 58.386719 " fill-opacity="1" fill-rule="nonzero"/><path fill="#000000" d="M 227.675781 199.050781 L 212.425781 199.050781 C 208.21875 199.050781 204.804688 195.636719 204.804688 191.425781 C 204.804688 187.214844 208.21875 183.800781 212.425781 183.800781 L 227.675781 183.800781 C 229.710938 183.800781 231.625 183.007812 233.066406 181.566406 C 236.046875 178.585938 236.046875 173.769531 233.0625 170.789062 C 231.625 169.347656 229.710938 168.554688 227.675781 168.554688 C 214.984375 168.554688 204.804688 158.269531 204.804688 145.679688 C 204.804688 133.070312 215.0625 122.808594 227.675781 122.808594 L 242.921875 122.808594 C 247.132812 122.808594 250.546875 126.222656 250.546875 130.433594 C 250.546875 134.644531 247.132812 138.054688 242.921875 138.054688 L 227.675781 138.054688 C 223.472656 138.054688 220.050781 141.476562 220.050781 145.679688 C 220.050781 149.859375 223.433594 153.304688 227.675781 153.304688 C 233.78125 153.304688 239.527344 155.683594 243.847656 160.003906 C 252.785156 168.949219 252.789062 183.40625 243.847656 192.347656 C 239.527344 196.671875 233.78125 199.050781 227.675781 199.050781 Z M 227.675781 199.050781 " fill-opacity="1" fill-rule="nonzero"/><path fill="#000000" d="M 227.675781 138.058594 C 223.464844 138.058594 220.050781 134.644531 220.050781 130.433594 L 220.050781 115.183594 C 220.050781 110.972656 223.464844 107.5625 227.675781 107.5625 C 231.886719 107.5625 235.300781 110.972656 235.300781 115.183594 L 235.300781 130.433594 C 235.300781 134.644531 231.886719 138.058594 227.675781 138.058594 Z M 227.675781 138.058594 " fill-opacity="1" fill-rule="nonzero"/><path fill="#000000" d="M 227.675781 214.300781 C 223.464844 214.300781 220.050781 210.886719 220.050781 206.675781 L 220.050781 191.425781 C 220.050781 187.214844 223.464844 183.800781 227.675781 183.800781 C 231.886719 183.800781 235.300781 187.214844 235.300781 191.425781 L 235.300781 206.675781 C 235.300781 210.886719 231.886719 214.300781 227.675781 214.300781 Z M 227.675781 214.300781 " fill-opacity="1" fill-rule="nonzero"/><path fill="#000000" d="M 190.804688 366.363281 L 92.90625 332.472656 L 71.316406 332.472656 C 67.105469 332.472656 63.691406 329.058594 63.691406 324.847656 C 63.691406 320.636719 67.105469 317.226562 71.316406 317.226562 L 94.1875 317.226562 C 95.035156 317.226562 95.878906 317.367188 96.679688 317.644531 L 193.152344 351.039062 C 365.46875 284.320312 357.445312 287.417969 357.746094 287.320312 C 364.265625 285.144531 368.648438 279.0625 368.648438 272.1875 C 368.648438 262.417969 359.878906 254.730469 349.925781 256.484375 L 233.808594 292.65625 C 229.789062 293.90625 225.515625 291.667969 224.261719 287.648438 C 223.007812 283.625 225.253906 279.351562 229.273438 278.097656 C 351.496094 240.039062 345.847656 241.742188 346.597656 241.59375 C 366.042969 237.742188 383.898438 252.621094 383.898438 272.1875 C 383.898438 285.570312 375.40625 297.414062 362.753906 301.722656 L 196.050781 366.265625 C 194.371094 366.917969 192.511719 366.953125 190.804688 366.363281 Z M 190.804688 366.363281 " fill-opacity="1" fill-rule="nonzero"/><path fill="#000000" d="M 223.792969 294.351562 L 139.929688 294.351562 C 135.71875 294.351562 132.308594 290.9375 132.308594 286.730469 C 132.308594 282.519531 135.71875 279.105469 139.929688 279.105469 L 223.792969 279.105469 C 225.640625 279.105469 227.308594 278.773438 228.949219 278.210938 C 234.511719 276.199219 238.867188 270.765625 239.03125 264.371094 C 239.304688 255.589844 232.285156 248.609375 223.796875 248.609375 L 139.929688 248.609375 C 137.910156 248.609375 135.972656 247.804688 134.539062 246.375 L 98.652344 210.488281 L 71.316406 210.488281 C 67.105469 210.488281 63.691406 207.074219 63.691406 202.863281 C 63.691406 198.652344 67.105469 195.238281 71.316406 195.238281 L 101.8125 195.238281 C 103.832031 195.238281 105.773438 196.042969 107.203125 197.472656 L 143.089844 233.359375 L 223.792969 233.359375 C 240.640625 233.359375 254.289062 247.003906 254.289062 263.855469 C 254.289062 280.652344 240.664062 294.351562 223.792969 294.351562 Z M 223.792969 294.351562 " fill-opacity="1" fill-rule="nonzero"/><path fill="#000000" d="M 40.820312 324.847656 C 36.609375 324.847656 33.195312 321.433594 33.195312 317.226562 L 33.195312 301.976562 C 33.195312 297.765625 36.609375 294.351562 40.820312 294.351562 C 45.03125 294.351562 48.445312 297.765625 48.445312 301.976562 L 48.445312 317.226562 C 48.445312 321.433594 45.03125 324.847656 40.820312 324.847656 Z M 40.820312 324.847656 " fill-opacity="1" fill-rule="nonzero"/></svg>