<svg xmlns="http://www.w3.org/2000/svg" xmlns:xlink="http://www.w3.org/1999/xlink" width="500" zoomAndPan="magnify" viewBox="0 0 375 374.999991" height="500" preserveAspectRatio="xMidYMid meet" version="1.0"><defs><clipPath id="579c5ccb59"><path d="M 65.625 0 L 307 0 L 307 375 L 65.625 375 Z M 65.625 0 " clip-rule="nonzero"/></clipPath><clipPath id="158e0635e0"><path d="M 65.625 12 L 302 12 L 302 131 L 65.625 131 Z M 65.625 12 " clip-rule="nonzero"/></clipPath></defs><g clip-path="url(#579c5ccb59)"><path fill="#f4e9e4" d="M 305.652344 358.007812 L 261.113281 258.671875 L 242.164062 216.488281 C 237.335938 205.625 234.800781 193.855469 234.800781 181.96875 L 234.800781 157.765625 C 238.121094 157.765625 240.835938 155.050781 240.835938 151.730469 L 240.835938 133.628906 C 240.835938 130.308594 238.121094 127.59375 234.800781 127.59375 L 207.640625 127.59375 L 207.640625 107.328125 C 210.644531 105.914062 214.042969 103.738281 217.117188 102.667969 C 227.558594 98.984375 238.78125 98.804688 249.464844 96.210938 C 262.5 93.011719 272.457031 85.285156 282.535156 76.835938 C 284.710938 75.027344 301.183594 55.171875 301.183594 55.171875 C 301.183594 55.171875 301.003906 55.113281 300.703125 54.992188 C 299.554688 54.6875 296.355469 53.722656 294.96875 53.542969 C 290.5625 52.878906 286.097656 52.578125 281.632812 52.335938 C 271.191406 51.730469 260.449219 51.550781 249.949219 52.15625 C 230.273438 53.242188 213.859375 67 204.625 83.960938 L 204.445312 83.960938 C 204.203125 68.570312 203.417969 44.128906 200.945312 33.144531 C 198.769531 23.667969 193.882812 14.4375 185.734375 9.003906 C 179.578125 4.960938 172.15625 3.390625 164.914062 2.367188 C 147.65625 0.0117188 129.972656 0.433594 112.832031 3.511719 C 98.46875 6.167969 84.769531 12.082031 70.226562 12.867188 C 67.390625 12.867188 65.820312 12.925781 65.820312 12.925781 C 77.164062 13.230469 86.882812 20.289062 93.21875 29.765625 C 99.554688 39.238281 103.597656 50.164062 109.996094 59.578125 C 116.332031 69.050781 126.109375 77.378906 137.457031 77.5625 C 144.878906 77.621094 151.941406 74.242188 159.363281 73.640625 C 167.933594 72.855469 176.5625 75.871094 183.925781 80.398438 C 189.09375 83.644531 197.246094 90.761719 201.609375 94.679688 L 201.609375 127.59375 L 174.449219 127.59375 C 171.128906 127.59375 168.414062 130.308594 168.414062 133.628906 L 168.414062 151.730469 C 168.414062 155.050781 171.128906 157.765625 174.449219 157.765625 L 174.449219 181.96875 C 174.449219 193.855469 171.914062 205.625 167.085938 216.488281 L 147.835938 259.335938 L 103.597656 358.007812 C 100.039062 366.035156 105.890625 375.027344 114.644531 375.027344 L 294.605469 375.027344 C 303.359375 375.027344 309.210938 366.035156 305.652344 358.007812 Z M 305.652344 358.007812 " fill-opacity="1" fill-rule="nonzero"/></g><path fill="#f4e9e4" d="M 305.652344 358.007812 L 261.113281 258.671875 L 242.164062 216.488281 C 237.335938 205.625 234.800781 193.855469 234.800781 181.96875 L 234.800781 157.765625 L 174.449219 157.765625 L 174.449219 181.96875 C 174.449219 193.855469 171.914062 205.625 167.085938 216.488281 L 147.835938 259.335938 L 103.597656 358.007812 C 100.039062 366.035156 105.890625 375.027344 114.644531 375.027344 L 294.605469 375.027344 C 303.359375 375.027344 309.210938 366.035156 305.652344 358.007812 Z M 305.652344 358.007812 " fill-opacity="1" fill-rule="nonzero"/><path fill="#2b9e90" d="M 114.640625 368.992188 C 112.550781 368.992188 110.699219 367.992188 109.566406 366.242188 C 108.425781 364.488281 108.257812 362.378906 109.113281 360.453125 L 151.457031 266 C 153.234375 266.347656 155.078125 266.785156 157.027344 267.324219 C 160.539062 268.304688 164.046875 269.4375 167.558594 270.570312 C 176.425781 273.429688 185.59375 276.382812 195.230469 277.121094 C 196.710938 277.265625 198.308594 277.339844 199.933594 277.339844 L 201.546875 277.316406 C 211.484375 276.984375 220.691406 273.90625 229.589844 270.933594 C 234.628906 269.246094 239.390625 267.660156 244.234375 266.546875 C 248.472656 265.605469 252.847656 265.019531 257.25 264.804688 L 300.148438 360.480469 C 300.992188 362.378906 300.824219 364.488281 299.683594 366.242188 C 298.550781 367.992188 296.699219 368.992188 294.609375 368.992188 Z M 114.640625 368.992188 " fill-opacity="1" fill-rule="nonzero"/><g clip-path="url(#158e0635e0)"><path fill="#80b918" d="M 300.703125 54.992188 C 286.519531 58.308594 272.21875 61.691406 258.519531 66.636719 C 240.714844 73.15625 223.996094 82.390625 208.96875 93.917969 C 208.523438 94.261719 208.085938 94.65625 207.640625 95.03125 L 207.640625 91.382812 C 207.640625 89.714844 206.292969 88.363281 204.625 88.363281 C 203.636719 88.363281 202.800781 88.871094 202.25 89.601562 C 177.175781 17.222656 90.824219 12.867188 70.226562 12.867188 C 67.390625 12.867188 65.820312 12.925781 65.820312 12.925781 C 77.164062 13.230469 86.882812 20.289062 93.21875 29.765625 C 99.554688 39.238281 103.597656 50.164062 109.996094 59.578125 C 116.332031 69.050781 126.109375 77.378906 137.457031 77.5625 C 144.878906 77.621094 151.941406 74.242188 159.363281 73.640625 C 167.933594 72.855469 176.5625 75.871094 183.925781 80.398438 C 189.09375 83.644531 197.246094 90.761719 201.609375 94.679688 L 201.609375 127.59375 C 201.609375 129.261719 202.957031 130.609375 204.625 130.609375 C 206.292969 130.609375 207.644531 129.261719 207.644531 127.59375 L 207.644531 107.328125 C 210.644531 105.914062 214.042969 103.738281 217.117188 102.667969 C 227.558594 98.984375 238.78125 98.804688 249.464844 96.210938 C 262.5 93.011719 272.457031 85.285156 282.535156 76.835938 C 284.710938 75.027344 301.183594 55.171875 301.183594 55.171875 C 301.183594 55.171875 301.003906 55.113281 300.703125 54.992188 Z M 300.703125 54.992188 " fill-opacity="1" fill-rule="nonzero"/></g><path fill="#80b918" d="M 212.585938 334.152344 C 211.597656 334.152344 210.625 333.664062 210.046875 332.765625 C 200.292969 317.546875 194.386719 299.980469 192.984375 281.96875 C 191.546875 263.636719 194.753906 245.304688 197.847656 227.578125 L 199.203125 219.75 C 202.492188 200.316406 206.589844 176.136719 201.519531 156.507812 C 201.105469 154.894531 202.074219 153.25 203.6875 152.832031 C 205.328125 152.410156 206.945312 153.386719 207.367188 155 C 212.753906 175.875 208.539062 200.761719 205.15625 220.757812 L 203.792969 228.613281 C 200.757812 245.976562 197.625 263.925781 198.996094 281.5 C 200.328125 298.523438 205.90625 315.125 215.128906 329.503906 C 216.03125 330.90625 215.617188 332.777344 214.214844 333.675781 C 213.714844 334 213.148438 334.152344 212.585938 334.152344 Z M 212.585938 334.152344 " fill-opacity="1" fill-rule="nonzero"/><path fill="#efd9cb" d="M 240.835938 133.628906 L 240.835938 151.730469 C 240.835938 155.050781 238.121094 157.765625 234.800781 157.765625 L 174.449219 157.765625 C 171.132812 157.765625 168.414062 155.050781 168.414062 151.730469 L 168.414062 133.628906 C 168.414062 130.308594 171.132812 127.59375 174.449219 127.59375 L 234.800781 127.59375 C 238.121094 127.59375 240.835938 130.308594 240.835938 133.628906 Z M 240.835938 133.628906 " fill-opacity="1" fill-rule="nonzero"/><path fill="#aacc00" d="M 281.632812 52.335938 C 286.097656 52.578125 290.5625 52.878906 294.96875 53.542969 C 296.359375 53.722656 299.554688 54.6875 300.703125 54.992188 C 286.519531 58.308594 272.21875 61.691406 258.519531 66.636719 C 240.714844 73.15625 224 82.390625 208.972656 93.917969 C 207.402344 95.125 205.773438 96.511719 204.625 98.140625 L 204.625 97.417969 C 204.625 97.355469 204.625 97.355469 204.625 97.296875 C 204.625 96.390625 204.625 91.199219 204.445312 83.957031 L 204.625 83.957031 C 213.859375 67 230.273438 53.242188 249.949219 52.15625 C 260.449219 51.550781 271.191406 51.730469 281.632812 52.335938 Z M 281.632812 52.335938 " fill-opacity="1" fill-rule="nonzero"/><path fill="#aacc00" d="M 204.445312 83.957031 C 204.625 91.199219 204.625 96.390625 204.625 97.296875 C 183.203125 17.511719 91.53125 12.867188 70.226562 12.867188 C 84.769531 12.082031 98.46875 6.167969 112.832031 3.511719 C 129.972656 0.433594 147.65625 0.0117188 164.914062 2.367188 C 172.15625 3.390625 179.582031 4.960938 185.734375 9.003906 C 193.882812 14.4375 198.773438 23.667969 200.945312 33.144531 C 203.417969 44.128906 204.203125 68.570312 204.445312 83.957031 Z M 204.445312 83.957031 " fill-opacity="1" fill-rule="nonzero"/><path fill="#f4e9e4" d="M 150.335938 295.425781 C 147.164062 294.28125 143.457031 295.777344 141.996094 299.28125 L 133.269531 320.179688 C 131.90625 323.445312 133.234375 327.679688 136.394531 328.820312 C 139.5625 329.964844 143.273438 328.46875 144.734375 324.964844 L 153.457031 304.066406 C 154.824219 300.800781 153.492188 296.566406 150.335938 295.425781 Z M 150.335938 295.425781 " fill-opacity="1" fill-rule="nonzero"/></svg>