<svg xmlns="http://www.w3.org/2000/svg" xmlns:xlink="http://www.w3.org/1999/xlink" width="500" zoomAndPan="magnify" viewBox="0 0 375 374.999991" height="500" preserveAspectRatio="xMidYMid meet" version="1.0"><defs><clipPath id="b3dc913c20"><path d="M 176 70.339844 L 323.492188 70.339844 L 323.492188 283 L 176 283 Z M 176 70.339844 " clip-rule="nonzero"/></clipPath><clipPath id="2cbbd3fa42"><path d="M 236 93.363281 L 279 93.363281 L 279 215 L 236 215 Z M 236 93.363281 " clip-rule="nonzero"/></clipPath><clipPath id="1113713871"><path d="M 45 6.632812 L 331 6.632812 L 331 374 L 45 374 Z M 45 6.632812 " clip-rule="nonzero"/></clipPath></defs><path fill="#ff6e40" d="M 14.953125 255.746094 C -0.0703125 274.707031 -5.503906 307.285156 14.953125 328.503906 C 35.410156 349.726562 69.359375 341.390625 93.328125 345.175781 C 117.296875 348.960938 146.851562 348.960938 152.894531 315.621094 C 158.972656 282.28125 144.558594 273.945312 103.617188 250.433594 C 62.671875 226.925781 43.773438 219.355469 14.953125 255.746094 Z M 14.953125 255.746094 " fill-opacity="1" fill-rule="nonzero"/><g clip-path="url(#b3dc913c20)"><path fill="#ff6e40" d="M 323.007812 221.644531 C 323.085938 222.144531 323.199219 222.648438 323.234375 223.15625 C 323.507812 227.109375 322.785156 230.96875 320.148438 233.886719 C 317.84375 236.285156 315.253906 238.324219 312.386719 240 C 309.566406 241.578125 306.664062 242.992188 303.683594 244.242188 C 299.167969 246.375 294.386719 248.035156 290.492188 251.296875 C 287.929688 253.257812 285.5625 255.433594 283.382812 257.8125 C 281.171875 260.714844 279.136719 263.730469 277.277344 266.867188 C 275.328125 269.835938 273.179688 272.472656 269.339844 273.113281 C 268.597656 273.234375 267.964844 274.195312 267.347656 274.832031 C 266.660156 275.535156 266.128906 276.398438 265.394531 277.042969 C 262.941406 279.171875 259.871094 279.980469 256.839844 280.8125 C 252.652344 281.957031 248.429688 283.148438 244.042969 282.15625 C 241.128906 281.546875 238.269531 280.742188 235.464844 279.746094 C 233.0625 278.914062 230.898438 277.671875 228.964844 276.023438 C 227.03125 274.375 225.460938 272.433594 224.257812 270.195312 C 220.179688 262.46875 218.519531 254.09375 218.316406 245.382812 C 218.359375 240.699219 217.945312 236.058594 217.074219 231.460938 C 216.640625 229.289062 216.015625 227.171875 215.195312 225.117188 C 214.371094 223.058594 213.371094 221.09375 212.1875 219.222656 C 211.003906 217.351562 209.664062 215.601562 208.15625 213.976562 C 206.652344 212.351562 205.015625 210.875 203.238281 209.550781 C 199.378906 206.640625 195.574219 203.652344 191.792969 200.640625 C 187.1875 196.957031 183.144531 192.734375 179.667969 187.972656 C 178.894531 186.972656 178.269531 185.890625 177.796875 184.71875 C 177.324219 183.546875 177.015625 182.335938 176.875 181.078125 C 176.734375 179.824219 176.765625 178.574219 176.972656 177.328125 C 177.175781 176.082031 177.546875 174.882812 178.078125 173.738281 C 180.527344 167.964844 184.058594 162.832031 189.660156 159.546875 C 191.566406 158.460938 193.527344 157.484375 195.546875 156.613281 C 197.84375 155.507812 200.199219 154.546875 202.617188 153.730469 C 207.796875 152.15625 212.996094 150.753906 217.9375 148.410156 C 220.6875 147.140625 223.1875 145.488281 225.429688 143.453125 C 227.675781 141.417969 229.5625 139.09375 231.089844 136.476562 C 231.652344 135.710938 232.027344 134.859375 232.214844 133.925781 C 232.394531 131.566406 233.496094 129.5625 234.273438 127.414062 C 236.019531 122.210938 236.839844 116.867188 236.734375 111.378906 C 236.835938 101.375 238.339844 91.589844 241.246094 82.019531 C 242.046875 79.191406 243.40625 76.664062 245.328125 74.4375 C 246.019531 73.5625 246.839844 72.828125 247.785156 72.234375 C 248.730469 71.640625 249.746094 71.222656 250.832031 70.976562 C 253.992188 70.386719 257.09375 70.613281 260.136719 71.65625 C 265.207031 73.300781 269.324219 76.4375 272.992188 80.121094 C 279.042969 86.136719 283.609375 93.125 286.691406 101.082031 C 289.242188 107.46875 290.441406 114.097656 290.28125 120.972656 C 289.980469 128.441406 290.066406 135.90625 290.542969 143.367188 C 291.179688 149.625 292.210938 155.816406 293.636719 161.945312 C 294.519531 165.660156 295.605469 169.3125 296.898438 172.90625 C 297.421875 174.253906 298.050781 175.546875 298.78125 176.792969 C 299.171875 177.546875 299.730469 178.222656 300.054688 179.003906 C 302.527344 184.957031 306.53125 189.882812 310.519531 194.84375 C 313.039062 197.824219 315.285156 200.996094 317.261719 204.359375 C 320.230469 209.722656 322.683594 215.355469 323.007812 221.644531 Z M 323.007812 221.644531 " fill-opacity="1" fill-rule="nonzero"/></g><g clip-path="url(#2cbbd3fa42)"><path fill="#ffffff" d="M 255.394531 152.015625 C 255.28125 158.507812 257.550781 164.1875 261.03125 169.464844 C 261.5 170.179688 262.230469 170.933594 263 171.207031 C 265.582031 172.089844 268.25 172.746094 270.847656 173.558594 C 271.429688 173.746094 272.257812 174.171875 272.34375 174.601562 C 272.359375 175.671875 272.042969 176.570312 267.964844 178.066406 C 262.128906 180.894531 259.71875 185.914062 259.660156 192.035156 C 259.605469 198.527344 260.117188 205.035156 260.316406 211.523438 C 260.359375 212.792969 261.03125 214.308594 259.203125 214.679688 C 257.992188 215.078125 257.734375 213.367188 257.390625 212.253906 C 256.25 208.484375 255.066406 204.71875 254.28125 200.882812 C 253.054688 194.945312 250.1875 189.925781 246.492188 185.289062 C 244.496094 182.777344 238.375 181.476562 238.230469 181.476562 C 235.734375 181.59375 235.863281 179.082031 237.6875 178.167969 C 237.773438 178.125 240.355469 176.371094 241.570312 175.527344 C 247.277344 171.621094 249.644531 165.769531 250.859375 159.265625 C 251.457031 156.082031 251.984375 152.871094 252.628906 149.691406 C 252.667969 149.476562 252.726562 149.261719 252.8125 149.0625 C 253.082031 148.277344 255.410156 147.007812 255.394531 152.015625 Z M 264.613281 174.660156 C 258.777344 172.789062 256.652344 167.980469 254.824219 162.917969 C 254.394531 161.746094 252.726562 161.816406 252.414062 163.015625 C 250.816406 169.195312 247.605469 174.289062 242.011719 177.953125 C 241.15625 178.523438 241.285156 179.824219 242.242188 180.195312 C 242.496094 180.292969 242.726562 180.394531 242.96875 180.523438 C 244.652344 181.390625 246.605469 182.078125 247.832031 183.402344 C 249.800781 185.542969 251.457031 187.941406 252.753906 190.539062 C 253.496094 192.035156 254.140625 193.5625 254.738281 195.058594 C 255.238281 196.332031 257.105469 196.015625 257.179688 194.660156 C 257.25 193.121094 257.363281 191.535156 257.519531 189.953125 C 258.0625 184.589844 259.988281 179.878906 264.882812 176.941406 C 264.882812 176.941406 264.898438 176.925781 264.898438 176.925781 C 265.839844 176.371094 265.652344 174.988281 264.613281 174.660156 Z M 268.421875 96.574219 C 269.164062 99.996094 269.632812 103.519531 270.730469 106.816406 C 271.789062 109.925781 274.597656 111.082031 277.738281 111.441406 C 277.738281 111.441406 277.75 111.441406 277.75 111.441406 C 278.808594 111.582031 279.164062 112.953125 278.324219 113.609375 C 278.195312 113.707031 277.109375 114.035156 276.710938 114.136719 C 271.945312 115.347656 270.761719 116.875 271.015625 121.839844 C 271.160156 124.539062 271.589844 127.207031 271.703125 129.902344 C 271.730469 130.785156 271.160156 131.699219 270.875 132.597656 C 270.246094 131.941406 269.234375 131.386719 269.035156 130.613281 C 268.347656 127.875 267.992188 125.050781 267.40625 122.28125 C 266.453125 117.660156 264.824219 116.332031 260.089844 116.003906 C 258.121094 115.976562 256.792969 114.5625 259.304688 113.765625 C 264.65625 111.582031 265.480469 106.773438 266.136719 101.894531 C 266.421875 99.769531 266.296875 98.511719 266.539062 96.375 C 266.625 95.703125 266.878906 93.5625 267.566406 93.5625 C 268.148438 93.5625 268.421875 96.574219 268.421875 96.574219 Z M 267.777344 105.589844 C 266.523438 110.785156 263.382812 113.664062 263.382812 113.664062 C 264.855469 113.949219 269.175781 119.300781 269.175781 119.300781 C 269.605469 117.191406 270.390625 113.550781 273.144531 112.652344 C 270.234375 110.882812 268.378906 108.773438 267.777344 105.589844 Z M 267.777344 105.589844 " fill-opacity="1" fill-rule="nonzero"/></g><g clip-path="url(#1113713871)"><path fill="#ffffff" d="M 67.691406 331.148438 C 77.695312 319.363281 79.808594 302.859375 78.257812 287.929688 C 76.398438 270.015625 68.832031 253.28125 62.859375 236.472656 C 59.816406 227.90625 57.058594 219.1875 55.707031 210.210938 C 54.410156 201.394531 54.109375 192.546875 54.8125 183.660156 C 56.195312 165.589844 61.097656 147.855469 67.792969 131.015625 C 68.609375 128.957031 69.457031 126.910156 70.332031 124.878906 C 70.402344 124.722656 70.496094 124.582031 70.621094 124.464844 C 69.601562 122.964844 68.710938 121.390625 67.941406 119.75 C 63.433594 110.050781 63.691406 99.011719 64.671875 88.601562 C 65.457031 78.890625 66.804688 69.253906 68.710938 59.699219 C 70.683594 50.515625 73.671875 41.410156 78.566406 33.347656 C 79.777344 31.34375 81.109375 29.425781 82.5625 27.589844 C 84.015625 25.753906 85.582031 24.019531 87.253906 22.382812 C 88.929688 20.75 90.699219 19.226562 92.566406 17.8125 C 94.433594 16.402344 96.382812 15.117188 98.414062 13.953125 C 100.445312 12.789062 102.542969 11.757812 104.703125 10.859375 C 106.867188 9.960938 109.074219 9.203125 111.332031 8.585938 C 113.589844 7.96875 115.878906 7.496094 118.199219 7.167969 C 120.515625 6.84375 122.84375 6.664062 125.183594 6.632812 C 129.820312 6.613281 134.382812 7.175781 138.875 8.316406 C 143.371094 9.457031 147.648438 11.144531 151.710938 13.371094 C 155.769531 15.582031 159.496094 18.253906 162.894531 21.386719 C 164.539062 22.917969 166.078125 24.546875 167.511719 26.273438 C 169.085938 28.113281 170.40625 30.09375 171.828125 32.027344 C 173.023438 33.796875 174.5625 35.183594 176.449219 36.191406 L 176.761719 36.332031 L 177.3125 36.535156 C 177.757812 36.683594 178.210938 36.804688 178.671875 36.898438 L 178.953125 36.953125 L 179.160156 36.953125 L 179.550781 36.992188 C 180.023438 37.039062 180.5 37.058594 180.972656 37.046875 C 182.742188 37.015625 184.476562 36.753906 186.175781 36.261719 C 188.15625 35.757812 190.105469 35.121094 192.042969 34.5 C 195.972656 33.246094 200.011719 31.980469 204.167969 31.933594 C 206.097656 31.886719 207.976562 32.175781 209.804688 32.804688 C 211.628906 33.4375 213.285156 34.367188 214.777344 35.59375 C 220.566406 40.371094 222.484375 48.738281 221.488281 55.898438 C 220.277344 64.542969 214.046875 71.550781 207.414062 76.71875 C 203.699219 79.558594 199.835938 82.175781 195.824219 84.578125 C 190.996094 87.546875 186.15625 90.511719 181.3125 93.464844 L 166.429688 102.5625 C 164.574219 103.695312 162.257812 104.820312 161.0625 106.585938 C 159.867188 108.355469 160.03125 110.679688 160.425781 112.753906 C 161.152344 116.273438 162.230469 119.675781 163.664062 122.96875 L 163.664062 123.03125 L 163.765625 123.269531 L 164.054688 123.9375 C 164.269531 124.421875 164.488281 124.902344 164.707031 125.382812 C 165.132812 126.300781 165.566406 127.222656 166.019531 128.125 C 166.953125 130.011719 167.933594 131.871094 168.96875 133.703125 C 173.089844 141.09375 177.847656 148.050781 183.238281 154.574219 C 185.402344 157.214844 187.730469 159.699219 190.230469 162.03125 C 190.410156 162.214844 190.546875 162.425781 190.640625 162.664062 C 190.738281 162.90625 190.785156 163.152344 190.78125 163.410156 C 190.78125 163.667969 190.730469 163.914062 190.632812 164.152344 C 190.53125 164.390625 190.390625 164.601562 190.210938 164.785156 C 190.027344 164.964844 189.816406 165.105469 189.582031 165.207031 C 189.34375 165.308594 189.097656 165.359375 188.839844 165.359375 C 188.582031 165.363281 188.332031 165.316406 188.09375 165.222656 C 187.855469 165.128906 187.640625 164.988281 187.457031 164.8125 C 181.855469 159.664062 177.132812 153.511719 172.824219 147.273438 C 168.003906 140.429688 163.894531 133.183594 160.496094 125.53125 C 159.007812 122.253906 157.824219 118.867188 156.953125 115.371094 C 156.585938 113.929688 156.347656 112.464844 156.238281 110.980469 C 146.140625 111.664062 136.046875 111.679688 125.945312 111.027344 C 123.054688 110.839844 120.179688 110.59375 117.304688 110.296875 C 116.871094 113.296875 116.054688 116.191406 114.855469 118.976562 C 113.65625 121.761719 112.113281 124.339844 110.230469 126.71875 C 104.636719 133.570312 95.890625 137.859375 86.980469 136.148438 C 81.636719 135.109375 76.949219 132.015625 73.300781 127.960938 C 66.535156 144.003906 61.304688 160.960938 59.277344 178.246094 C 58.214844 187.007812 58.097656 195.777344 58.929688 204.5625 C 59.824219 213.535156 62.152344 222.195312 65.011719 230.726562 C 70.722656 247.738281 78.503906 264.304688 81.417969 282.132812 C 83.878906 297.203125 83.066406 313.65625 75.273438 327.140625 C 71.574219 333.542969 66.207031 338.425781 60.941406 343.5 C 56.398438 347.875 51.066406 352.929688 49.988281 359.464844 C 49.816406 360.550781 49.78125 361.636719 49.886719 362.726562 C 58.386719 365.015625 66.996094 366.765625 75.714844 367.984375 C 80.222656 368.613281 84.757812 369.070312 89.300781 369.390625 C 93.605469 369.6875 98.070312 370.128906 102.375 369.808594 C 103.984375 369.792969 105.433594 369.304688 106.726562 368.347656 C 108.054688 367.199219 108.457031 365.328125 108.691406 363.632812 C 109.34375 359.128906 109.632812 354.546875 110.097656 350.023438 L 113.019531 321.421875 C 114.890625 303.128906 116.605469 284.8125 118.65625 266.542969 C 120.226562 252.722656 122.300781 238.742188 127.1875 225.683594 C 131.902344 212.992188 139.492188 201.324219 150.988281 193.804688 C 163.5625 185.578125 179.277344 183.8125 193.789062 186.5625 C 208.859375 189.414062 222.320312 197.214844 233.351562 207.730469 C 244.566406 218.414062 253.214844 231.570312 260.289062 245.273438 C 268.207031 260.691406 274.519531 276.746094 279.222656 293.433594 C 284 310.335938 287.074219 327.542969 288.449219 345.054688 C 288.714844 348.496094 288.898438 351.9375 289.03125 355.378906 C 294.476562 353.683594 299.558594 350.894531 303.09375 346.28125 C 306.632812 341.667969 308.4375 336.066406 309.066406 330.496094 C 309.851562 323.628906 308.886719 316.738281 307.394531 310.066406 C 305.773438 302.804688 303.667969 295.671875 302.019531 288.417969 C 298.6875 273.675781 296.484375 258.769531 295.417969 243.695312 C 294.898438 236.417969 294.5625 229.09375 294.71875 221.800781 C 294.867188 215.242188 295.558594 208.507812 298.042969 202.378906 C 299.117188 199.558594 300.609375 196.984375 302.527344 194.65625 C 304.441406 192.324219 306.675781 190.359375 309.230469 188.761719 C 313.945312 185.902344 319.777344 184.503906 325.207031 185.902344 C 326.550781 186.257812 327.835938 186.769531 329.058594 187.433594 C 331.28125 188.636719 329.300781 192.03125 327.070312 190.828125 C 324.902344 189.660156 322.589844 189.136719 320.128906 189.257812 C 317.648438 189.398438 315.292969 190.015625 313.058594 191.109375 C 310.625 192.316406 308.46875 193.90625 306.597656 195.878906 C 304.726562 197.851562 303.253906 200.085938 302.175781 202.582031 C 299.550781 208.328125 298.835938 214.800781 298.65625 221.054688 C 298.445312 228.199219 298.773438 235.386719 299.253906 242.523438 C 300.246094 257.351562 302.367188 272.019531 305.617188 286.523438 C 307.230469 293.730469 309.304688 300.824219 310.953125 308.03125 C 312.523438 314.835938 313.671875 321.898438 313.128906 328.910156 C 312.660156 334.960938 311.078125 341.039062 307.839844 346.234375 C 306.105469 348.941406 303.984375 351.300781 301.480469 353.316406 C 298.976562 355.332031 296.214844 356.902344 293.203125 358.019531 C 291.707031 358.609375 290.183594 359.113281 288.628906 359.53125 C 288.371094 359.605469 288.109375 359.625 287.84375 359.59375 C 287.621094 359.683594 287.390625 359.738281 287.152344 359.765625 C 257.042969 362.769531 226.871094 363.585938 196.640625 362.21875 C 192.957031 362.042969 189.261719 361.847656 185.585938 361.613281 C 182.757812 361.488281 179.957031 361.136719 177.1875 360.558594 C 171.6875 359.292969 165.824219 355.734375 164.496094 349.855469 C 164.363281 349.269531 164.28125 348.675781 164.25 348.078125 C 164.222656 347.476562 164.246094 346.878906 164.320312 346.28125 C 164.394531 345.683594 164.519531 345.101562 164.695312 344.523438 C 164.871094 343.949219 165.097656 343.394531 165.371094 342.859375 C 165.644531 342.324219 165.960938 341.816406 166.320312 341.335938 C 166.683594 340.855469 167.085938 340.410156 167.523438 340 C 167.964844 339.589844 168.433594 339.222656 168.9375 338.894531 C 169.441406 338.566406 169.96875 338.28125 170.523438 338.046875 C 174.082031 336.476562 178.019531 336.238281 181.6875 335 C 183.144531 334.558594 184.378906 333.769531 185.398438 332.640625 C 187.023438 330.613281 186.929688 327.925781 186.425781 325.515625 C 185.011719 318.65625 182.804688 312.007812 180.707031 305.34375 C 176.902344 293.320312 173.5625 280.984375 175.550781 268.328125 C 176.691406 260.933594 179.953125 253.167969 185.453125 247.859375 C 184.078125 245.351562 182.859375 242.773438 181.796875 240.117188 C 180.644531 237.265625 179.621094 234.359375 178.617188 231.476562 C 177.785156 229.078125 181.578125 228.050781 182.402344 230.429688 C 184.101562 235.292969 185.921875 240.589844 188.445312 245.414062 C 189.765625 244.476562 191.175781 243.691406 192.664062 243.058594 C 201.199219 239.488281 212.347656 241.484375 218.871094 248.140625 C 222.101562 251.441406 225.296875 257.261719 221.800781 261.453125 C 220.105469 263.480469 216.945312 264.46875 214.421875 264.894531 C 211.480469 265.382812 208.550781 265.308594 205.636719 264.664062 C 197.578125 262.953125 191.785156 257.726562 187.511719 251.253906 C 182.96875 255.96875 180.382812 262.835938 179.363281 269.042969 C 177.453125 280.679688 180.660156 292.222656 184.125 303.246094 C 186.082031 309.484375 188.164062 315.691406 189.625 322.105469 C 190.347656 325.246094 191.109375 328.390625 190.222656 331.53125 C 189.714844 333.433594 188.726562 335.035156 187.257812 336.34375 C 184.4375 338.777344 180.675781 339.421875 177.140625 340.183594 C 173.996094 340.851562 170.5 341.589844 168.886719 344.433594 C 166.105469 349.355469 170.820312 354.234375 175.175781 355.953125 C 180.476562 358.066406 186.664062 357.886719 192.265625 358.179688 C 220.527344 359.664062 248.757812 359.234375 276.960938 356.882812 C 279.679688 356.652344 282.398438 356.394531 285.109375 356.136719 C 284.496094 339.042969 282.222656 322.171875 278.289062 305.527344 C 274.355469 288.878906 268.835938 272.777344 261.734375 257.214844 C 255.296875 243.183594 247.644531 229.488281 237.492188 217.777344 C 227.65625 206.417969 215.414062 196.988281 200.957031 192.40625 C 187.265625 188.078125 171.726562 187.761719 158.5625 194.035156 C 146.335938 199.855469 137.84375 210.613281 132.523438 222.832031 C 127.070312 235.402344 124.667969 249.164062 123.03125 262.652344 C 120.878906 280.253906 119.347656 297.941406 117.53125 315.574219 C 116.582031 324.941406 115.628906 334.308594 114.664062 343.679688 C 114.175781 348.394531 113.695312 353.109375 113.21875 357.824219 C 112.824219 361.683594 112.972656 366.421875 110.65625 369.730469 C 108.417969 372.910156 104.558594 373.695312 100.890625 373.75 C 96.480469 373.816406 92.027344 373.492188 87.632812 373.148438 C 78.492188 372.433594 69.429688 371.136719 60.453125 369.257812 C 56.132812 368.351562 51.84375 367.304688 47.582031 366.113281 C 47.25 366.023438 46.957031 365.855469 46.714844 365.613281 C 46.46875 365.367188 46.304688 365.074219 46.214844 364.738281 C 43.65625 349.871094 59.394531 340.921875 67.691406 331.148438 Z M 76.734375 125.847656 C 79.433594 128.789062 82.699219 130.828125 86.527344 131.96875 C 88.398438 132.480469 90.300781 132.675781 92.238281 132.558594 C 94.171875 132.441406 96.039062 132.011719 97.832031 131.277344 C 101.566406 129.707031 104.710938 127.347656 107.261719 124.203125 C 109.953125 120.90625 111.808594 117.195312 112.824219 113.0625 C 115.386719 103.136719 113.5625 92.632812 111.066406 82.886719 C 108.53125 72.996094 104.976562 63.480469 100.402344 54.351562 C 98.175781 49.910156 95.726562 45.59375 93.0625 41.402344 C 91.703125 39.261719 95.105469 37.292969 96.457031 39.421875 C 102.136719 48.371094 106.808594 57.820312 110.46875 67.769531 C 112.261719 72.652344 113.789062 77.617188 115.054688 82.660156 C 116.429688 87.894531 117.347656 93.207031 117.804688 98.597656 C 118 101.214844 118 103.835938 117.804688 106.453125 C 128.136719 107.496094 138.492188 107.839844 148.867188 107.476562 C 151.453125 107.386719 154.039062 107.246094 156.621094 107.066406 C 157.230469 105.03125 158.382812 103.378906 160.082031 102.101562 C 162.210938 100.554688 164.421875 99.132812 166.710938 97.839844 L 173.949219 93.410156 L 188.546875 84.421875 C 196.351562 79.644531 204.601562 75.109375 210.832031 68.3125 C 212.25 66.789062 213.503906 65.140625 214.589844 63.363281 C 215.167969 62.410156 215.691406 61.433594 216.160156 60.425781 C 216.238281 60.269531 216.308594 60.109375 216.371094 59.945312 C 216.371094 59.898438 216.503906 59.605469 216.527344 59.542969 C 216.6875 59.136719 216.828125 58.757812 216.960938 58.292969 C 217.210938 57.445312 217.417969 56.582031 217.574219 55.710938 C 217.574219 55.519531 217.636719 55.339844 217.660156 55.152344 L 217.699219 54.8125 C 217.753906 54.375 217.785156 53.925781 217.808594 53.476562 C 217.859375 52.585938 217.859375 51.691406 217.808594 50.796875 C 217.808594 50.390625 217.746094 49.972656 217.699219 49.566406 C 217.703125 49.488281 217.703125 49.414062 217.699219 49.335938 L 217.699219 49.234375 C 217.652344 48.984375 217.613281 48.730469 217.566406 48.449219 C 217.417969 47.609375 217.214844 46.785156 216.960938 45.972656 C 216.835938 45.558594 216.695312 45.140625 216.542969 44.730469 L 216.339844 44.214844 C 216.285156 44.105469 216.238281 43.992188 216.191406 43.875 C 215.832031 43.105469 215.425781 42.363281 214.972656 41.644531 C 214.761719 41.3125 214.53125 41 214.3125 40.679688 C 214.289062 40.652344 214.265625 40.625 214.25 40.589844 L 214.179688 40.511719 L 213.722656 39.96875 C 213.171875 39.359375 212.578125 38.792969 211.941406 38.273438 L 211.871094 38.210938 L 211.78125 38.148438 C 211.609375 38.039062 211.445312 37.910156 211.28125 37.800781 C 210.910156 37.558594 210.527344 37.335938 210.132812 37.132812 C 209.976562 37.050781 209.820312 36.972656 209.660156 36.898438 L 209.417969 36.78125 C 209.023438 36.632812 208.632812 36.488281 208.222656 36.371094 C 207.816406 36.253906 207.4375 36.160156 207.027344 36.082031 L 206.621094 36.011719 L 206.328125 36.011719 C 206.164062 36.011719 205.992188 36.011719 205.820312 35.964844 C 201.953125 35.664062 198.457031 36.695312 194.660156 37.878906 C 190.867188 39.066406 187.03125 40.433594 183.015625 40.898438 C 181.054688 41.175781 179.121094 41.054688 177.210938 40.535156 C 175.296875 40.015625 173.566406 39.140625 172.015625 37.910156 C 170.207031 36.269531 168.648438 34.417969 167.347656 32.347656 C 166.101562 30.566406 164.742188 28.871094 163.269531 27.265625 C 160.3125 24.054688 157.003906 21.261719 153.34375 18.886719 C 149.683594 16.507812 145.78125 14.625 141.644531 13.230469 C 137.523438 11.824219 133.289062 10.972656 128.941406 10.683594 C 124.59375 10.390625 120.28125 10.671875 116.007812 11.519531 C 111.65625 12.386719 107.484375 13.789062 103.492188 15.722656 C 99.496094 17.660156 95.8125 20.066406 92.433594 22.941406 C 89.097656 25.898438 86.152344 29.203125 83.601562 32.859375 C 81.054688 36.515625 78.96875 40.421875 77.347656 44.574219 C 73.875 53.148438 71.964844 62.261719 70.621094 71.378906 C 69.960938 75.886719 69.445312 80.492188 68.964844 85.082031 C 68.324219 90.316406 68.007812 95.570312 68.011719 100.84375 C 68.003906 105.957031 68.832031 110.933594 70.496094 115.773438 C 71.894531 119.554688 73.972656 122.910156 76.734375 125.847656 Z M 200.027344 258.363281 C 204.390625 260.839844 209.796875 262.089844 214.738281 260.832031 C 216.664062 260.34375 219.796875 259.394531 219.453125 256.847656 C 219.09375 255.089844 218.34375 253.519531 217.203125 252.132812 C 212.183594 245.609375 202.171875 243.679688 194.683594 246.4375 C 193.152344 247.007812 191.726562 247.777344 190.402344 248.738281 C 192.800781 252.757812 196.007812 255.964844 200.027344 258.363281 Z M 200.027344 258.363281 " fill-opacity="1" fill-rule="nonzero"/></g></svg>