<svg xmlns="http://www.w3.org/2000/svg" xmlns:xlink="http://www.w3.org/1999/xlink" width="500" zoomAndPan="magnify" viewBox="0 0 375 374.999991" height="500" preserveAspectRatio="xMidYMid meet" version="1.0"><defs><clipPath id="2fef6f9445"><path d="M 298 25 L 327.367188 25 L 327.367188 55 L 298 55 Z M 298 25 " clip-rule="nonzero"/></clipPath><clipPath id="3a71d26c09"><path d="M 47.726562 320 L 77 320 L 77 350 L 47.726562 350 Z M 47.726562 320 " clip-rule="nonzero"/></clipPath><clipPath id="8c251ab231"><path d="M 89.523438 118.242188 L 173.523438 118.242188 L 173.523438 202.242188 L 89.523438 202.242188 Z M 89.523438 118.242188 " clip-rule="nonzero"/></clipPath></defs><path fill="#ff6e40" d="M 244.851562 73.792969 L 233.980469 73.792969 L 233.980469 63.953125 C 230.125 61.960938 225.742188 60.8125 221.113281 60.8125 C 205.570312 60.8125 192.882812 73.539062 192.882812 89.042969 L 192.882812 285.949219 C 192.882812 301.453125 205.570312 314.179688 221.113281 314.179688 C 235.972656 314.179688 248.238281 302.554688 249.273438 287.941406 C 252.625 289.082031 256.191406 289.726562 259.929688 289.726562 C 277.894531 289.726562 292.4375 275.179688 292.4375 257.214844 C 292.4375 253.933594 291.972656 250.800781 291.082031 247.804688 C 308.515625 241.425781 320.953125 224.632812 320.953125 204.992188 C 320.953125 193.652344 316.816406 183.28125 310.011719 175.300781 C 313.4375 169.957031 315.394531 163.570312 315.394531 156.730469 C 315.394531 141.121094 305.058594 127.929688 290.871094 123.578125 L 264.105469 123.578125 L 264.105469 89.285156 L 274.894531 89.285156 C 263.632812 73.148438 249.519531 73.972656 244.851562 73.792969 Z M 242.925781 138.699219 L 224.28125 138.699219 L 224.28125 157.375 L 242.925781 157.375 Z M 279.210938 135.460938 L 260.566406 135.460938 L 260.566406 154.105469 L 279.210938 154.105469 Z M 250.375 116.425781 L 238.503906 116.425781 L 238.503906 128.261719 L 250.375 128.261719 Z M 232.480469 100.523438 L 220.609375 100.523438 L 220.609375 112.359375 L 232.480469 112.359375 Z M 256.648438 79.847656 L 244.816406 79.847656 L 244.816406 91.71875 L 256.648438 91.71875 Z M 256.648438 79.847656 " fill-opacity="1" fill-rule="evenodd"/><g clip-path="url(#2fef6f9445)"><path fill="#ff6e40" d="M 327.367188 25.277344 L 298.636719 25.277344 L 298.636719 54.011719 L 327.367188 54.011719 Z M 327.367188 25.277344 " fill-opacity="1" fill-rule="evenodd"/></g><path fill="#ff6e40" d="M 287.304688 48.230469 L 269.164062 48.230469 L 269.164062 66.382812 L 287.304688 66.382812 Z M 287.304688 48.230469 " fill-opacity="1" fill-rule="evenodd"/><path fill="#ff6e40" d="M 321.589844 92.582031 L 303.417969 92.582031 L 303.417969 110.753906 L 321.589844 110.753906 Z M 321.589844 92.582031 " fill-opacity="1" fill-rule="evenodd"/><path fill="#ff6e40" d="M 292.363281 0.152344 L 279.496094 0.152344 L 279.496094 13.019531 L 292.363281 13.019531 Z M 292.363281 0.152344 " fill-opacity="1" fill-rule="evenodd"/><path fill="#ff6e40" d="M 266.023438 16.726562 L 251.125 16.726562 L 251.125 31.589844 L 266.023438 31.589844 Z M 266.023438 16.726562 " fill-opacity="1" fill-rule="evenodd"/><path fill="#ff6e40" d="M 311.046875 66.308594 L 298.171875 66.308594 L 298.171875 79.136719 L 311.046875 79.136719 Z M 311.046875 66.308594 " fill-opacity="1" fill-rule="evenodd"/><path fill="#ff6e40" d="M 250.800781 52.445312 L 241.039062 52.445312 L 241.039062 62.207031 L 250.800781 62.207031 Z M 250.800781 52.445312 " fill-opacity="1" fill-rule="evenodd"/><path fill="#ff6e40" d="M 293.472656 94.753906 L 269.019531 94.753906 L 269.019531 119.207031 L 293.472656 119.207031 Z M 293.472656 94.753906 " fill-opacity="1" fill-rule="evenodd"/><path fill="#ffffff" d="M 130.179688 301.207031 L 141.054688 301.207031 L 141.054688 311.046875 C 144.90625 313.039062 149.289062 314.1875 153.921875 314.1875 C 169.425781 314.1875 182.152344 301.460938 182.152344 285.957031 L 182.152344 89.050781 C 182.152344 73.546875 169.425781 60.820312 153.921875 60.820312 C 139.058594 60.820312 126.792969 72.476562 125.757812 87.058594 C 122.410156 85.917969 118.804688 85.273438 115.101562 85.273438 C 97.140625 85.273438 82.554688 99.851562 82.554688 117.785156 C 82.554688 121.066406 83.058594 124.199219 83.949219 127.195312 C 66.519531 133.574219 54.039062 150.367188 54.039062 170.007812 C 54.039062 181.347656 58.175781 191.71875 65.019531 199.699219 C 61.59375 205.042969 59.640625 211.429688 59.640625 218.269531 C 59.640625 233.878906 69.941406 247.070312 84.160156 251.421875 L 110.925781 251.421875 L 110.925781 285.714844 L 100.128906 285.714844 C 111.398438 301.851562 125.472656 301.027344 130.179688 301.207031 Z M 132.105469 236.300781 L 150.75 236.300781 L 150.75 217.625 L 132.105469 217.625 Z M 95.78125 239.539062 L 114.464844 239.539062 L 114.464844 220.894531 L 95.789062 220.894531 L 95.789062 239.539062 Z M 124.65625 258.574219 L 136.488281 258.574219 L 136.488281 246.738281 L 124.65625 246.738281 Z M 142.550781 274.476562 L 154.421875 274.476562 L 154.421875 262.640625 L 142.550781 262.640625 Z M 118.347656 295.152344 L 130.21875 295.152344 L 130.21875 283.28125 L 118.347656 283.28125 Z M 118.347656 295.152344 " fill-opacity="1" fill-rule="evenodd"/><g clip-path="url(#3a71d26c09)"><path fill="#ffffff" d="M 76.394531 320.988281 L 47.625 320.988281 L 47.625 349.722656 L 76.394531 349.722656 Z M 76.394531 320.988281 " fill-opacity="1" fill-rule="evenodd"/></g><path fill="#ffffff" d="M 105.871094 308.617188 L 87.726562 308.617188 L 87.726562 326.769531 L 105.871094 326.769531 Z M 105.871094 308.617188 " fill-opacity="1" fill-rule="evenodd"/><path fill="#ffffff" d="M 71.585938 264.277344 L 53.441406 264.277344 L 53.441406 282.417969 L 71.585938 282.417969 Z M 71.585938 264.277344 " fill-opacity="1" fill-rule="evenodd"/><path fill="#ffffff" d="M 95.496094 361.980469 L 82.628906 361.980469 L 82.628906 374.847656 L 95.496094 374.847656 Z M 95.496094 361.980469 " fill-opacity="1" fill-rule="evenodd"/><path fill="#ffffff" d="M 123.90625 343.410156 L 109.007812 343.410156 L 109.007812 358.273438 L 123.90625 358.273438 Z M 123.90625 343.410156 " fill-opacity="1" fill-rule="evenodd"/><path fill="#ffffff" d="M 76.824219 295.863281 L 63.984375 295.863281 L 63.984375 308.691406 L 76.824219 308.691406 Z M 76.824219 295.863281 " fill-opacity="1" fill-rule="evenodd"/><path fill="#ffffff" d="M 133.992188 312.792969 L 124.230469 312.792969 L 124.230469 322.554688 L 133.992188 322.554688 Z M 133.992188 312.792969 " fill-opacity="1" fill-rule="evenodd"/><path fill="#ffffff" d="M 105.980469 255.792969 L 81.558594 255.792969 L 81.558594 280.246094 L 105.980469 280.246094 Z M 105.980469 255.792969 " fill-opacity="1" fill-rule="evenodd"/><g clip-path="url(#8c251ab231)"><path fill="#ffffff" d="M 173.523438 160.242188 C 173.523438 161.621094 173.457031 162.992188 173.320312 164.359375 C 173.1875 165.730469 172.984375 167.089844 172.71875 168.4375 C 172.449219 169.785156 172.113281 171.121094 171.714844 172.4375 C 171.316406 173.753906 170.851562 175.046875 170.328125 176.316406 C 169.800781 177.585938 169.214844 178.828125 168.566406 180.042969 C 167.917969 181.253906 167.210938 182.433594 166.445312 183.578125 C 165.679688 184.722656 164.863281 185.824219 163.992188 186.886719 C 163.117188 187.953125 162.195312 188.96875 161.222656 189.941406 C 160.25 190.914062 159.230469 191.835938 158.167969 192.710938 C 157.105469 193.582031 156 194.402344 154.859375 195.164062 C 153.714844 195.929688 152.535156 196.636719 151.324219 197.285156 C 150.109375 197.933594 148.867188 198.519531 147.597656 199.046875 C 146.324219 199.574219 145.03125 200.035156 143.714844 200.433594 C 142.398438 200.835938 141.066406 201.167969 139.71875 201.4375 C 138.367188 201.707031 137.007812 201.90625 135.640625 202.042969 C 134.273438 202.175781 132.898438 202.242188 131.523438 202.242188 C 130.148438 202.242188 128.777344 202.175781 127.40625 202.042969 C 126.039062 201.90625 124.679688 201.707031 123.332031 201.4375 C 121.980469 201.167969 120.648438 200.835938 119.332031 200.433594 C 118.015625 200.035156 116.722656 199.574219 115.453125 199.046875 C 114.179688 198.519531 112.9375 197.933594 111.726562 197.285156 C 110.511719 196.636719 109.332031 195.929688 108.191406 195.164062 C 107.046875 194.402344 105.941406 193.582031 104.878906 192.710938 C 103.816406 191.835938 102.796875 190.914062 101.824219 189.941406 C 100.851562 188.96875 99.929688 187.953125 99.058594 186.886719 C 98.183594 185.824219 97.367188 184.722656 96.601562 183.578125 C 95.839844 182.433594 95.132812 181.253906 94.484375 180.042969 C 93.835938 178.828125 93.246094 177.585938 92.722656 176.316406 C 92.195312 175.046875 91.730469 173.753906 91.332031 172.4375 C 90.933594 171.121094 90.597656 169.785156 90.332031 168.4375 C 90.0625 167.089844 89.859375 165.730469 89.726562 164.359375 C 89.589844 162.992188 89.523438 161.621094 89.523438 160.242188 C 89.523438 158.867188 89.589844 157.496094 89.726562 156.128906 C 89.859375 154.757812 90.0625 153.398438 90.332031 152.050781 C 90.597656 150.699219 90.933594 149.367188 91.332031 148.050781 C 91.730469 146.734375 92.195312 145.441406 92.722656 144.171875 C 93.246094 142.902344 93.835938 141.660156 94.484375 140.445312 C 95.132812 139.230469 95.839844 138.054688 96.601562 136.910156 C 97.367188 135.765625 98.183594 134.664062 99.058594 133.597656 C 99.929688 132.535156 100.851562 131.519531 101.824219 130.546875 C 102.796875 129.574219 103.816406 128.648438 104.878906 127.777344 C 105.941406 126.90625 107.046875 126.085938 108.191406 125.320312 C 109.332031 124.558594 110.511719 123.851562 111.726562 123.203125 C 112.9375 122.554688 114.179688 121.96875 115.453125 121.441406 C 116.722656 120.914062 118.015625 120.453125 119.332031 120.050781 C 120.648438 119.652344 121.980469 119.320312 123.332031 119.050781 C 124.679688 118.78125 126.039062 118.582031 127.40625 118.445312 C 128.777344 118.3125 130.148438 118.242188 131.523438 118.242188 C 132.898438 118.242188 134.273438 118.3125 135.640625 118.445312 C 137.007812 118.582031 138.367188 118.78125 139.71875 119.050781 C 141.066406 119.320312 142.398438 119.652344 143.714844 120.050781 C 145.03125 120.453125 146.324219 120.914062 147.597656 121.441406 C 148.867188 121.96875 150.109375 122.554688 151.324219 123.203125 C 152.535156 123.851562 153.714844 124.558594 154.859375 125.320312 C 156 126.085938 157.105469 126.90625 158.167969 127.777344 C 159.230469 128.648438 160.25 129.574219 161.222656 130.546875 C 162.195312 131.519531 163.117188 132.535156 163.992188 133.597656 C 164.863281 134.664062 165.679688 135.765625 166.445312 136.910156 C 167.210938 138.054688 167.917969 139.230469 168.566406 140.445312 C 169.214844 141.660156 169.800781 142.902344 170.328125 144.171875 C 170.851562 145.441406 171.316406 146.734375 171.714844 148.050781 C 172.113281 149.367188 172.449219 150.699219 172.71875 152.050781 C 172.984375 153.398438 173.1875 154.757812 173.320312 156.128906 C 173.457031 157.496094 173.523438 158.867188 173.523438 160.242188 Z M 173.523438 160.242188 " fill-opacity="1" fill-rule="nonzero"/></g></svg>