<svg xmlns="http://www.w3.org/2000/svg" xmlns:xlink="http://www.w3.org/1999/xlink" width="500" zoomAndPan="magnify" viewBox="0 0 375 374.999991" height="500" preserveAspectRatio="xMidYMid meet" version="1.0"><defs><clipPath id="33d0cc6bf0"><path d="M 8 136 L 365 136 L 365 366.699219 L 8 366.699219 Z M 8 136 " clip-rule="nonzero"/></clipPath><clipPath id="8ad9973f02"><path d="M 54 31 L 324 31 L 324 168 L 54 168 Z M 54 31 " clip-rule="nonzero"/></clipPath><clipPath id="dba71dba9e"><path d="M 320.28125 171.164062 L 50.832031 164.179688 L 54.261719 31.78125 L 323.714844 38.765625 Z M 320.28125 171.164062 " clip-rule="nonzero"/></clipPath><clipPath id="c351cd7f88"><path d="M 185.769531 167.675781 L 54.691406 31.792969 L 323.714844 38.765625 Z M 185.769531 167.675781 " clip-rule="nonzero"/></clipPath><clipPath id="abcf8f775b"><path d="M 96 0 L 279 0 L 279 188.683594 L 96 188.683594 Z M 96 0 " clip-rule="nonzero"/></clipPath></defs><g clip-path="url(#33d0cc6bf0)"><path fill="#ffffff" d="M 358.226562 181.621094 C 305.882812 166.960938 253.324219 153.035156 200.917969 138.496094 C 192.441406 135.925781 183.347656 135.152344 174.808594 137.878906 C 123.085938 151.925781 71.390625 166.125 19.664062 180.167969 C 15.117188 181.652344 7.785156 182.917969 8.527344 189.355469 C 9.300781 195.074219 15.828125 195.699219 20.164062 197.308594 C 36.34375 201.730469 52.582031 206.003906 68.765625 210.519531 C 68.917969 238.609375 68.640625 266.699219 68.855469 294.792969 C 68.113281 300.425781 72.105469 306.394531 78.171875 306.238281 C 114.550781 308.496094 149.292969 324.179688 176.765625 347.816406 C 181 351.964844 187.929688 355.238281 192.976562 350.417969 C 218.285156 328.945312 248.601562 312.121094 281.921875 307.785156 C 287.890625 306.824219 294.140625 307.105469 299.890625 305.003906 C 305.523438 301.539062 304.347656 294.082031 304.566406 288.484375 C 304.070312 262.496094 304.71875 236.511719 304.347656 210.558594 C 309.050781 209.257812 313.785156 207.957031 318.484375 206.65625 C 318.453125 237.101562 318.636719 267.542969 318.359375 297.980469 C 310.066406 304.074219 309.542969 316.042969 318.109375 322.203125 C 311.117188 335.90625 310.34375 351.589844 313.34375 366.472656 C 326.863281 360.535156 341.832031 362.355469 355.601562 366.410156 C 346.628906 351.902344 341.585938 335.382812 332.519531 320.902344 C 339.015625 313.878906 337.53125 303.703125 330.167969 298.011719 C 329.917969 266.519531 329.980469 235.023438 330.074219 203.5625 C 340.65625 200.34375 351.695312 198.460938 361.878906 194.070312 C 367.199219 190.410156 364.167969 182.300781 358.226562 181.621094 Z M 316.558594 192.824219 C 282.285156 190.160156 248.003906 187.472656 213.726562 184.996094 C 205.3125 185.335938 200.363281 176.453125 192.128906 175.867188 C 182.511719 174.164062 169.394531 176.578125 165.585938 186.847656 C 164.597656 197.550781 177.902344 202.101562 186.589844 201.882812 C 194.945312 203.023438 201.320312 195.601562 209.515625 196.191406 C 236.523438 198.171875 263.5 200.308594 290.507812 202.347656 C 258.425781 211.011719 226.410156 219.984375 194.296875 228.582031 C 186.746094 231.089844 178.949219 228.707031 171.621094 226.664062 C 125.246094 213.890625 78.8125 201.269531 32.378906 188.675781 C 80.855469 175.34375 129.394531 162.257812 177.902344 148.949219 C 183.683594 147.125 189.808594 147.21875 195.597656 149.042969 C 243.980469 162.257812 292.394531 175.433594 340.78125 188.613281 C 332.894531 190.839844 324.878906 193.839844 316.558594 192.824219 Z M 316.558594 192.824219 " fill-opacity="1" fill-rule="nonzero"/></g><g clip-path="url(#8ad9973f02)"><g clip-path="url(#dba71dba9e)"><g clip-path="url(#c351cd7f88)"><path fill="#232021" d="M 320.28125 171.164062 L 51.347656 164.191406 L 54.78125 31.792969 L 323.714844 38.765625 Z M 320.28125 171.164062 " fill-opacity="1" fill-rule="nonzero"/></g></g></g><g clip-path="url(#abcf8f775b)"><path fill="#ff6e40" d="M 192.511719 181.261719 C 194.695312 181.261719 196.46875 183.035156 196.46875 185.21875 C 196.46875 187.222656 194.980469 188.878906 193.046875 189.140625 L 192.511719 189.175781 L 181.957031 189.175781 C 179.769531 189.175781 178 187.40625 178 185.21875 C 178 183.214844 179.488281 181.558594 181.417969 181.296875 L 181.957031 181.261719 Z M 203.0625 170.707031 C 205.25 170.707031 207.023438 172.480469 207.023438 174.664062 C 207.023438 176.667969 205.53125 178.324219 203.601562 178.585938 L 203.0625 178.625 L 171.402344 178.625 C 169.214844 178.625 167.445312 176.851562 167.445312 174.664062 C 167.445312 172.664062 168.933594 171.007812 170.867188 170.746094 L 171.402344 170.707031 Z M 208.339844 160.152344 C 210.527344 160.152344 212.296875 161.925781 212.296875 164.113281 C 212.296875 166.117188 210.808594 167.769531 208.878906 168.035156 L 208.339844 168.070312 L 166.125 168.070312 C 163.941406 168.070312 162.167969 166.296875 162.167969 164.113281 C 162.167969 162.109375 163.65625 160.453125 165.589844 160.191406 L 166.125 160.152344 Z M 187.234375 38.785156 C 215.648438 38.785156 238.683594 61.820312 238.683594 90.234375 C 238.683594 102.367188 231.449219 115.480469 217.285156 129.734375 C 214.359375 132.675781 212.613281 136.574219 212.339844 140.6875 L 212.300781 141.816406 L 212.300781 150.921875 C 212.296875 154.335938 209.703125 157.140625 206.375 157.480469 L 205.703125 157.515625 L 168.765625 157.515625 C 165.347656 157.515625 162.539062 154.921875 162.203125 151.59375 L 162.167969 150.917969 L 162.167969 141.824219 C 162.167969 137.292969 160.375 132.945312 157.183594 129.734375 C 143.015625 115.480469 135.785156 102.367188 135.785156 90.234375 C 135.785156 61.820312 158.816406 38.785156 187.234375 38.785156 Z M 139.882812 133.160156 C 141.300781 134.578125 141.417969 136.800781 140.238281 138.351562 L 139.882812 138.757812 L 128.691406 149.953125 C 127.144531 151.496094 124.640625 151.496094 123.09375 149.953125 C 121.675781 148.535156 121.558594 146.3125 122.738281 144.757812 L 123.09375 144.355469 L 134.289062 133.160156 C 135.832031 131.613281 138.339844 131.613281 139.882812 133.160156 Z M 240.226562 132.804688 L 240.628906 133.160156 L 251.824219 144.355469 C 253.371094 145.898438 253.371094 148.40625 251.824219 149.953125 C 250.40625 151.367188 248.183594 151.484375 246.632812 150.304688 L 246.226562 149.953125 L 235.035156 138.757812 C 233.488281 137.210938 233.488281 134.707031 235.035156 133.160156 C 236.449219 131.742188 238.671875 131.625 240.226562 132.804688 Z M 187.234375 46.699219 C 163.191406 46.699219 143.699219 66.191406 143.699219 90.234375 C 143.699219 99.882812 149.964844 111.242188 162.796875 124.152344 C 167.152344 128.535156 169.722656 134.363281 170.046875 140.503906 L 170.082031 141.820312 L 170.078125 149.601562 L 204.382812 149.601562 L 204.386719 141.816406 C 204.386719 136.078125 206.355469 130.546875 209.917969 126.117188 L 210.765625 125.113281 L 211.671875 124.152344 C 224.503906 111.242188 230.769531 99.882812 230.769531 90.234375 C 230.769531 66.191406 211.277344 46.699219 187.234375 46.699219 Z M 116.21875 81.628906 C 118.40625 81.628906 120.179688 83.398438 120.179688 85.585938 C 120.179688 87.589844 118.6875 89.246094 116.757812 89.507812 L 116.21875 89.542969 L 100.390625 89.542969 C 98.203125 89.542969 96.433594 87.769531 96.433594 85.585938 C 96.433594 83.582031 97.921875 81.925781 99.851562 81.664062 L 100.390625 81.628906 Z M 274.527344 81.628906 C 276.714844 81.628906 278.484375 83.398438 278.484375 85.585938 C 278.484375 87.589844 276.996094 89.246094 275.066406 89.507812 L 274.527344 89.542969 L 258.695312 89.542969 C 256.511719 89.542969 254.738281 87.769531 254.738281 85.585938 C 254.738281 83.582031 256.226562 81.925781 258.160156 81.664062 L 258.695312 81.628906 Z M 192.511719 54.617188 C 209.269531 54.617188 222.851562 68.199219 222.851562 84.957031 C 222.851562 87.144531 221.082031 88.914062 218.894531 88.914062 C 216.707031 88.914062 214.9375 87.144531 214.9375 84.957031 C 214.9375 72.570312 204.894531 62.53125 192.511719 62.53125 C 190.324219 62.53125 188.550781 60.757812 188.550781 58.574219 C 188.550781 56.386719 190.324219 54.617188 192.511719 54.617188 Z M 128.285156 20.867188 L 128.691406 21.21875 L 139.882812 32.414062 C 141.429688 33.960938 141.429688 36.464844 139.882812 38.011719 C 138.46875 39.429688 136.242188 39.546875 134.691406 38.367188 L 134.289062 38.011719 L 123.09375 26.816406 C 121.546875 25.273438 121.546875 22.765625 123.09375 21.21875 C 124.511719 19.804688 126.734375 19.683594 128.285156 20.867188 Z M 251.824219 21.21875 C 253.242188 22.636719 253.359375 24.859375 252.179688 26.410156 L 251.824219 26.816406 L 240.628906 38.011719 C 239.085938 39.558594 236.578125 39.558594 235.035156 38.011719 C 233.617188 36.59375 233.5 34.371094 234.679688 32.820312 L 235.035156 32.414062 L 246.226562 21.21875 C 247.773438 19.675781 250.277344 19.675781 251.824219 21.21875 Z M 187.457031 -0.164062 C 189.460938 -0.164062 191.117188 1.324219 191.378906 3.257812 L 191.417969 3.792969 L 191.417969 19.625 C 191.417969 21.808594 189.644531 23.582031 187.457031 23.582031 C 185.457031 23.582031 183.800781 22.09375 183.539062 20.160156 L 183.5 19.625 L 183.5 3.792969 C 183.5 1.609375 185.273438 -0.164062 187.457031 -0.164062 Z M 187.457031 -0.164062 " fill-opacity="1" fill-rule="nonzero"/></g></svg>