<svg xmlns="http://www.w3.org/2000/svg" xmlns:xlink="http://www.w3.org/1999/xlink" width="500" zoomAndPan="magnify" viewBox="0 0 375 374.999991" height="500" preserveAspectRatio="xMidYMid meet" version="1.0"><defs><clipPath id="9f632e0c35"><path d="M 0 158.019531 L 375 158.019531 L 375 368.652344 L 0 368.652344 Z M 0 158.019531 " clip-rule="nonzero"/></clipPath><clipPath id="ef053d33e7"><path d="M 187.5 158.019531 C 83.945312 158.019531 0 205.171875 0 263.335938 C 0 321.5 83.945312 368.652344 187.5 368.652344 C 291.054688 368.652344 375 321.5 375 263.335938 C 375 205.171875 291.054688 158.019531 187.5 158.019531 Z M 187.5 158.019531 " clip-rule="nonzero"/></clipPath><clipPath id="cf6c730047"><path d="M 0 158.019531 L 375 158.019531 L 375 368.769531 L 0 368.769531 Z M 0 158.019531 " clip-rule="nonzero"/></clipPath><clipPath id="be1c99e2a1"><path d="M 187.5 158.019531 C 83.945312 158.019531 0 205.171875 0 263.335938 C 0 321.5 83.945312 368.652344 187.5 368.652344 C 291.054688 368.652344 375 321.5 375 263.335938 C 375 205.171875 291.054688 158.019531 187.5 158.019531 Z M 187.5 158.019531 " clip-rule="nonzero"/></clipPath><clipPath id="e882fd3a74"><path d="M 103.066406 0 L 276.316406 0 L 276.316406 269 L 103.066406 269 Z M 103.066406 0 " clip-rule="nonzero"/></clipPath><clipPath id="29b67ae1fd"><path d="M 105.261719 3.421875 L 274.011719 3.421875 L 274.011719 266 L 105.261719 266 Z M 105.261719 3.421875 " clip-rule="nonzero"/></clipPath></defs><g clip-path="url(#9f632e0c35)"><g clip-path="url(#ef053d33e7)"><path fill="#000023" d="M 0 158.019531 L 375.191406 158.019531 L 375.191406 368.652344 L 0 368.652344 Z M 0 158.019531 " fill-opacity="1" fill-rule="nonzero"/></g></g><g clip-path="url(#cf6c730047)"><g clip-path="url(#be1c99e2a1)"><path stroke-linecap="butt" transform="matrix(0.75, 0, 0, 0.75, 0.000994655, 158.018838)" fill="none" stroke-linejoin="miter" d="M 249.99869 0.000923769 C 111.925764 0.000923769 -0.00132621 62.87072 -0.00132621 140.422808 C -0.00132621 217.974896 111.925764 280.844692 249.99869 280.844692 C 388.071616 280.844692 499.998707 217.974896 499.998707 140.422808 C 499.998707 62.87072 388.071616 0.000923769 249.99869 0.000923769 Z M 249.99869 0.000923769 " stroke="#dbdfdb" stroke-width="20" stroke-opacity="1" stroke-miterlimit="4"/></g></g><g clip-path="url(#e882fd3a74)"><path fill="#dbdfdb" d="M 189.917969 124.300781 C 162.71875 124.300781 140.695312 102.195312 140.695312 74.976562 C 140.695312 47.757812 162.71875 25.785156 189.917969 25.785156 C 217.121094 25.785156 239.242188 47.757812 239.242188 74.976562 C 239.242188 102.195312 217.121094 124.300781 189.917969 124.300781 Z M 189.917969 0.222656 C 142.136719 0.222656 103.21875 39.023438 103.21875 86.855469 C 103.21875 134.574219 184.316406 264.878906 184.316406 264.878906 C 187.429688 269.972656 192.507812 269.972656 195.636719 264.878906 C 195.636719 264.878906 276.585938 134.6875 276.585938 86.855469 C 276.585938 39.023438 237.816406 0.222656 189.917969 0.222656 " fill-opacity="1" fill-rule="evenodd"/></g><path fill="#dbdfdb" d="M 189.902344 58.785156 C 180.921875 58.785156 173.648438 66.0625 173.648438 75.042969 C 173.648438 84.003906 180.921875 91.296875 189.902344 91.296875 C 198.882812 91.296875 206.15625 84.003906 206.15625 75.042969 C 206.15625 66.0625 198.882812 58.785156 189.902344 58.785156 " fill-opacity="1" fill-rule="evenodd"/><g clip-path="url(#29b67ae1fd)"><path fill="#ff6e40" d="M 189.910156 124.574219 C 163.398438 124.574219 141.933594 103.027344 141.933594 76.5 C 141.933594 49.972656 163.398438 28.558594 189.910156 28.558594 C 216.421875 28.558594 237.980469 49.972656 237.980469 76.5 C 237.980469 103.027344 216.421875 124.574219 189.910156 124.574219 Z M 189.910156 3.640625 C 143.339844 3.640625 105.410156 41.460938 105.410156 88.078125 C 105.410156 134.585938 184.449219 261.585938 184.449219 261.585938 C 187.484375 266.550781 192.433594 266.550781 195.484375 261.585938 C 195.484375 261.585938 274.378906 134.699219 274.378906 88.078125 C 274.378906 41.460938 236.59375 3.640625 189.910156 3.640625 " fill-opacity="1" fill-rule="evenodd"/></g><path fill="#ff6e40" d="M 189.894531 60.722656 C 181.140625 60.722656 174.050781 67.8125 174.050781 76.566406 C 174.050781 85.300781 181.140625 92.40625 189.894531 92.40625 C 198.644531 92.40625 205.738281 85.300781 205.738281 76.566406 C 205.738281 67.8125 198.644531 60.722656 189.894531 60.722656 " fill-opacity="1" fill-rule="evenodd"/></svg>