<svg xmlns="http://www.w3.org/2000/svg" xmlns:xlink="http://www.w3.org/1999/xlink" width="500" zoomAndPan="magnify" viewBox="0 0 375 374.999991" height="500" preserveAspectRatio="xMidYMid meet" version="1.0"><defs><clipPath id="ce8fadba67"><path d="M 57.613281 0 L 317.113281 0 L 317.113281 370 L 57.613281 370 Z M 57.613281 0 " clip-rule="nonzero"/></clipPath><clipPath id="da418a7e10"><path d="M 187 0 L 317.113281 0 L 317.113281 370 L 187 370 Z M 187 0 " clip-rule="nonzero"/></clipPath><clipPath id="df6c7d82f6"><path d="M 178.964844 214.25 L 231.464844 214.25 L 231.464844 266.75 L 178.964844 266.75 Z M 178.964844 214.25 " clip-rule="nonzero"/></clipPath></defs><g clip-path="url(#ce8fadba67)"><path fill="#ffffff" d="M 148.445312 369.460938 L 60.398438 357.136719 L 79.082031 230.929688 L 63.773438 230.929688 L 57.613281 204.097656 L 83.253906 204.097656 L 83.253906 216.820312 L 107.105469 216.820312 L 107.105469 204.097656 L 124.601562 204.097656 L 140.503906 91.203125 L 115.652344 74.496094 L 115.652344 18.050781 L 139.109375 12.289062 L 139.109375 27.394531 L 166.335938 20.441406 L 166.335938 5.328125 L 187.601562 -0.0351562 L 208.675781 5.328125 L 208.675781 20.433594 L 235.902344 27.390625 L 235.902344 12.289062 L 259.359375 18.050781 L 259.359375 74.496094 L 234.515625 91.195312 L 250.417969 204.089844 L 268.105469 204.089844 L 268.105469 216.8125 L 291.757812 216.8125 L 291.757812 204.089844 L 317.398438 204.089844 L 311.238281 230.921875 L 296.132812 230.921875 L 314.613281 357.136719 L 226.566406 369.460938 L 226.566406 324.148438 C 226.566406 302.679688 209.070312 284.992188 187.609375 284.992188 C 166.140625 284.992188 148.453125 302.679688 148.453125 324.148438 L 148.453125 369.460938 Z M 148.445312 369.460938 " fill-opacity="1" fill-rule="evenodd"/></g><path fill="#ff6e40" d="M 187.601562 375.027344 L 156.992188 370.65625 L 156.992188 324.148438 C 156.992188 307.253906 170.703125 293.535156 187.601562 293.535156 C 204.300781 293.535156 218.214844 307.246094 218.214844 324.148438 L 218.214844 370.65625 Z M 187.601562 375.027344 " fill-opacity="1" fill-rule="evenodd"/><path fill="#ff6e40" d="M 187.601562 293.535156 C 204.300781 293.535156 218.214844 307.246094 218.214844 324.148438 L 218.214844 370.65625 L 187.601562 375.027344 Z M 187.601562 293.535156 " fill-opacity="1" fill-rule="evenodd"/><g clip-path="url(#da418a7e10)"><path fill="#ffffff" d="M 226.566406 369.460938 L 314.613281 357.136719 L 296.132812 230.929688 L 311.238281 230.929688 L 317.398438 204.097656 L 291.757812 204.097656 L 291.757812 216.820312 L 268.101562 216.820312 L 268.101562 204.097656 L 250.410156 204.097656 L 234.507812 91.203125 L 259.351562 74.503906 L 259.351562 18.050781 L 235.898438 12.289062 L 235.898438 27.394531 L 208.667969 20.441406 L 208.667969 5.328125 L 187.601562 -0.0351562 L 187.601562 284.992188 C 209.070312 284.992188 226.558594 302.679688 226.558594 324.148438 L 226.558594 369.460938 Z M 226.566406 369.460938 " fill-opacity="1" fill-rule="evenodd"/></g><path fill="#000000" d="M 166.335938 38.519531 L 166.335938 55.820312 L 139.109375 62.578125 L 139.109375 45.28125 Z M 166.335938 38.519531 " fill-opacity="1" fill-rule="evenodd"/><path fill="#000000" d="M 208.675781 38.519531 L 208.675781 55.820312 L 235.902344 62.578125 L 235.902344 45.28125 Z M 208.675781 38.519531 " fill-opacity="1" fill-rule="evenodd"/><path fill="#000000" d="M 159.78125 135.324219 C 152.429688 135.324219 146.464844 141.289062 146.464844 148.640625 L 146.464844 174.277344 L 173.101562 168.121094 L 173.101562 148.640625 C 173.097656 141.28125 167.132812 135.324219 159.78125 135.324219 Z M 159.78125 135.324219 " fill-opacity="1" fill-rule="evenodd"/><path fill="#000000" d="M 215.230469 135.324219 C 222.582031 135.324219 228.546875 141.289062 228.546875 148.640625 L 228.546875 174.277344 L 201.910156 168.121094 L 201.910156 148.640625 C 201.914062 141.28125 207.878906 135.324219 215.230469 135.324219 Z M 215.230469 135.324219 " fill-opacity="1" fill-rule="evenodd"/><g clip-path="url(#df6c7d82f6)"><path fill="#ffffff" d="M 231.464844 240.5 C 231.464844 241.359375 231.425781 242.21875 231.339844 243.074219 C 231.253906 243.929688 231.128906 244.777344 230.960938 245.621094 C 230.792969 246.464844 230.585938 247.296875 230.335938 248.121094 C 230.085938 248.941406 229.796875 249.75 229.46875 250.546875 C 229.140625 251.339844 228.773438 252.117188 228.367188 252.875 C 227.960938 253.632812 227.519531 254.371094 227.042969 255.085938 C 226.566406 255.800781 226.054688 256.488281 225.507812 257.152344 C 224.960938 257.816406 224.386719 258.453125 223.777344 259.0625 C 223.167969 259.671875 222.535156 260.246094 221.867188 260.792969 C 221.203125 261.335938 220.515625 261.847656 219.800781 262.328125 C 219.085938 262.804688 218.347656 263.246094 217.589844 263.652344 C 216.832031 264.054688 216.054688 264.421875 215.261719 264.753906 C 214.46875 265.082031 213.660156 265.371094 212.835938 265.621094 C 212.011719 265.871094 211.179688 266.078125 210.335938 266.246094 C 209.492188 266.414062 208.644531 266.539062 207.789062 266.625 C 206.933594 266.707031 206.074219 266.75 205.214844 266.75 C 204.355469 266.75 203.5 266.707031 202.644531 266.625 C 201.789062 266.539062 200.9375 266.414062 200.09375 266.246094 C 199.25 266.078125 198.417969 265.871094 197.597656 265.621094 C 196.773438 265.371094 195.964844 265.082031 195.171875 264.753906 C 194.375 264.421875 193.601562 264.054688 192.84375 263.652344 C 192.082031 263.246094 191.347656 262.804688 190.632812 262.328125 C 189.917969 261.847656 189.226562 261.335938 188.5625 260.792969 C 187.898438 260.246094 187.261719 259.671875 186.65625 259.0625 C 186.046875 258.453125 185.46875 257.816406 184.925781 257.152344 C 184.378906 256.488281 183.867188 255.800781 183.390625 255.085938 C 182.914062 254.371094 182.472656 253.632812 182.066406 252.875 C 181.660156 252.117188 181.292969 251.339844 180.964844 250.546875 C 180.636719 249.75 180.347656 248.941406 180.097656 248.121094 C 179.847656 247.296875 179.636719 246.464844 179.46875 245.621094 C 179.300781 244.777344 179.175781 243.929688 179.09375 243.074219 C 179.007812 242.21875 178.964844 241.359375 178.964844 240.5 C 178.964844 239.640625 179.007812 238.78125 179.09375 237.925781 C 179.175781 237.070312 179.300781 236.222656 179.46875 235.378906 C 179.636719 234.535156 179.847656 233.703125 180.097656 232.878906 C 180.347656 232.058594 180.636719 231.25 180.964844 230.457031 C 181.292969 229.660156 181.660156 228.882812 182.066406 228.125 C 182.472656 227.367188 182.914062 226.632812 183.390625 225.917969 C 183.867188 225.203125 184.378906 224.511719 184.925781 223.847656 C 185.46875 223.183594 186.046875 222.546875 186.65625 221.9375 C 187.261719 221.332031 187.898438 220.753906 188.5625 220.210938 C 189.226562 219.664062 189.917969 219.152344 190.632812 218.675781 C 191.347656 218.195312 192.082031 217.753906 192.84375 217.351562 C 193.601562 216.945312 194.375 216.578125 195.171875 216.25 C 195.964844 215.917969 196.773438 215.628906 197.597656 215.378906 C 198.417969 215.132812 199.25 214.921875 200.09375 214.753906 C 200.9375 214.585938 201.789062 214.460938 202.644531 214.375 C 203.5 214.292969 204.355469 214.25 205.214844 214.25 C 206.074219 214.25 206.933594 214.292969 207.789062 214.375 C 208.644531 214.460938 209.492188 214.585938 210.335938 214.753906 C 211.179688 214.921875 212.011719 215.132812 212.835938 215.378906 C 213.660156 215.628906 214.46875 215.917969 215.261719 216.25 C 216.054688 216.578125 216.832031 216.945312 217.589844 217.351562 C 218.347656 217.753906 219.085938 218.195312 219.800781 218.675781 C 220.515625 219.152344 221.203125 219.664062 221.867188 220.210938 C 222.535156 220.753906 223.167969 221.332031 223.777344 221.9375 C 224.386719 222.546875 224.960938 223.183594 225.507812 223.847656 C 226.054688 224.511719 226.566406 225.203125 227.042969 225.917969 C 227.519531 226.632812 227.960938 227.367188 228.367188 228.125 C 228.773438 228.882812 229.140625 229.660156 229.46875 230.457031 C 229.796875 231.25 230.085938 232.058594 230.335938 232.878906 C 230.585938 233.703125 230.792969 234.535156 230.960938 235.378906 C 231.128906 236.222656 231.253906 237.070312 231.339844 237.925781 C 231.425781 238.78125 231.464844 239.640625 231.464844 240.5 Z M 231.464844 240.5 " fill-opacity="1" fill-rule="nonzero"/></g></svg>