<svg xmlns="http://www.w3.org/2000/svg" xmlns:xlink="http://www.w3.org/1999/xlink" width="500" zoomAndPan="magnify" viewBox="0 0 375 374.999991" height="500" preserveAspectRatio="xMidYMid meet" version="1.0"><defs><clipPath id="2abb2c3606"><path d="M 94.019531 125.515625 L 272.519531 125.515625 L 272.519531 304.015625 L 94.019531 304.015625 Z M 94.019531 125.515625 " clip-rule="nonzero"/></clipPath><clipPath id="4b0bc51565"><path d="M 166.210938 9.515625 L 200.710938 9.515625 L 200.710938 44 L 166.210938 44 Z M 166.210938 9.515625 " clip-rule="nonzero"/></clipPath><clipPath id="86bf5c3860"><path d="M 284.585938 322.742188 L 353.585938 322.742188 L 353.585938 357.242188 L 284.585938 357.242188 Z M 284.585938 322.742188 " clip-rule="nonzero"/></clipPath><clipPath id="505c68d654"><path d="M 11.847656 322.742188 L 80.847656 322.742188 L 80.847656 357.242188 L 11.847656 357.242188 Z M 11.847656 322.742188 " clip-rule="nonzero"/></clipPath><clipPath id="5b1c3c6033"><path d="M 155.40625 66.527344 L 210.90625 66.527344 L 210.90625 94.277344 L 155.40625 94.277344 Z M 155.40625 66.527344 " clip-rule="nonzero"/></clipPath><clipPath id="f852394274"><path d="M 24.671875 248.714844 L 68 248.714844 L 68 292 L 24.671875 292 Z M 24.671875 248.714844 " clip-rule="nonzero"/></clipPath><clipPath id="f130811420"><path d="M 298.789062 248.714844 L 342.289062 248.714844 L 342.289062 292 L 298.789062 292 Z M 298.789062 248.714844 " clip-rule="nonzero"/></clipPath><clipPath id="35762cebd0"><path d="M 0 1 L 366.75 1 L 366.75 369 L 0 369 Z M 0 1 " clip-rule="nonzero"/></clipPath></defs><g clip-path="url(#2abb2c3606)"><path fill="#ff6e40" d="M 183.273438 125.515625 C 232.578125 125.515625 272.53125 165.464844 272.53125 214.769531 C 272.53125 264.074219 232.578125 304.027344 183.273438 304.027344 C 133.96875 304.027344 94.019531 264.074219 94.019531 214.769531 C 94.019531 165.464844 133.96875 125.515625 183.273438 125.515625 Z M 183.273438 125.515625 " fill-opacity="1" fill-rule="nonzero"/></g><g clip-path="url(#4b0bc51565)"><path fill="#ff6e40" d="M 183.277344 9.515625 C 192.707031 9.515625 200.347656 17.15625 200.347656 26.585938 C 200.347656 36.011719 192.707031 43.652344 183.277344 43.652344 C 173.851562 43.652344 166.210938 36.011719 166.210938 26.585938 C 166.210938 17.15625 173.851562 9.515625 183.277344 9.515625 Z M 183.277344 9.515625 " fill-opacity="1" fill-rule="nonzero"/></g><g clip-path="url(#86bf5c3860)"><path fill="#ff6e40" d="M 319.027344 322.734375 C 317.898438 322.734375 316.773438 322.789062 315.652344 322.902344 C 314.53125 323.011719 313.417969 323.175781 312.308594 323.394531 C 311.203125 323.617188 310.113281 323.890625 309.03125 324.21875 C 307.953125 324.542969 306.894531 324.925781 305.851562 325.355469 C 304.808594 325.785156 303.792969 326.269531 302.796875 326.800781 C 301.800781 327.332031 300.835938 327.910156 299.898438 328.539062 C 298.960938 329.164062 298.058594 329.835938 297.183594 330.550781 C 296.3125 331.265625 295.480469 332.023438 294.683594 332.820312 C 293.882812 333.617188 293.128906 334.449219 292.414062 335.324219 C 291.699219 336.195312 291.027344 337.097656 290.398438 338.035156 C 289.773438 338.972656 289.195312 339.941406 288.664062 340.933594 C 288.132812 341.929688 287.648438 342.945312 287.21875 343.988281 C 286.785156 345.03125 286.40625 346.089844 286.078125 347.171875 C 285.753906 348.25 285.480469 349.339844 285.257812 350.449219 C 285.039062 351.554688 284.875 352.667969 284.761719 353.789062 C 284.652344 354.910156 284.597656 356.035156 284.597656 357.164062 L 353.464844 357.164062 C 353.464844 356.035156 353.410156 354.910156 353.296875 353.789062 C 353.1875 352.667969 353.023438 351.554688 352.800781 350.445312 C 352.582031 349.339844 352.308594 348.246094 351.980469 347.167969 C 351.652344 346.089844 351.273438 345.027344 350.84375 343.988281 C 350.410156 342.945312 349.929688 341.925781 349.398438 340.933594 C 348.867188 339.9375 348.285156 338.972656 347.660156 338.035156 C 347.035156 337.097656 346.363281 336.191406 345.648438 335.320312 C 344.929688 334.449219 344.175781 333.613281 343.378906 332.816406 C 342.578125 332.019531 341.746094 331.261719 340.871094 330.546875 C 340 329.832031 339.097656 329.160156 338.160156 328.535156 C 337.222656 327.910156 336.253906 327.328125 335.261719 326.796875 C 334.265625 326.265625 333.246094 325.785156 332.203125 325.355469 C 331.164062 324.921875 330.101562 324.542969 329.023438 324.214844 C 327.945312 323.886719 326.851562 323.613281 325.746094 323.394531 C 324.640625 323.175781 323.523438 323.011719 322.402344 322.898438 C 321.28125 322.789062 320.15625 322.734375 319.027344 322.734375 Z M 319.027344 322.734375 " fill-opacity="1" fill-rule="nonzero"/></g><g clip-path="url(#505c68d654)"><path fill="#ff6e40" d="M 46.289062 322.734375 C 45.164062 322.734375 44.039062 322.789062 42.914062 322.902344 C 41.792969 323.011719 40.679688 323.175781 39.574219 323.394531 C 38.46875 323.617188 37.375 323.890625 36.296875 324.21875 C 35.214844 324.542969 34.15625 324.925781 33.113281 325.355469 C 32.074219 325.785156 31.054688 326.269531 30.058594 326.800781 C 29.066406 327.332031 28.097656 327.910156 27.160156 328.539062 C 26.222656 329.164062 25.320312 329.835938 24.449219 330.550781 C 23.578125 331.265625 22.742188 332.023438 21.945312 332.820312 C 21.148438 333.617188 20.390625 334.449219 19.675781 335.324219 C 18.960938 336.195312 18.289062 337.097656 17.664062 338.035156 C 17.035156 338.972656 16.457031 339.941406 15.925781 340.933594 C 15.394531 341.929688 14.914062 342.945312 14.480469 343.988281 C 14.050781 345.03125 13.671875 346.089844 13.34375 347.171875 C 13.015625 348.25 12.742188 349.339844 12.523438 350.449219 C 12.300781 351.554688 12.136719 352.667969 12.027344 353.789062 C 11.914062 354.910156 11.859375 356.035156 11.859375 357.164062 L 80.726562 357.164062 C 80.726562 356.035156 80.671875 354.910156 80.558594 353.789062 C 80.449219 352.667969 80.285156 351.554688 80.066406 350.445312 C 79.84375 349.339844 79.570312 348.246094 79.242188 347.167969 C 78.914062 346.089844 78.535156 345.027344 78.105469 343.988281 C 77.671875 342.945312 77.191406 341.925781 76.660156 340.933594 C 76.128906 339.9375 75.550781 338.972656 74.921875 338.035156 C 74.296875 337.097656 73.625 336.191406 72.910156 335.320312 C 72.195312 334.449219 71.4375 333.613281 70.640625 332.816406 C 69.84375 332.019531 69.007812 331.261719 68.136719 330.546875 C 67.265625 329.832031 66.359375 329.160156 65.421875 328.535156 C 64.484375 327.910156 63.515625 327.328125 62.523438 326.796875 C 61.527344 326.265625 60.507812 325.785156 59.46875 325.355469 C 58.425781 324.921875 57.363281 324.542969 56.285156 324.214844 C 55.207031 323.886719 54.113281 323.613281 53.007812 323.394531 C 51.902344 323.175781 50.789062 323.011719 49.664062 322.898438 C 48.542969 322.789062 47.417969 322.734375 46.289062 322.734375 Z M 46.289062 322.734375 " fill-opacity="1" fill-rule="nonzero"/></g><g clip-path="url(#5b1c3c6033)"><path fill="#ff6e40" d="M 183.28125 66.519531 C 182.367188 66.519531 181.457031 66.566406 180.550781 66.65625 C 179.640625 66.746094 178.738281 66.878906 177.84375 67.054688 C 176.949219 67.234375 176.0625 67.457031 175.191406 67.722656 C 174.316406 67.984375 173.460938 68.292969 172.617188 68.640625 C 171.773438 68.992188 170.949219 69.382812 170.144531 69.8125 C 169.339844 70.242188 168.558594 70.710938 167.796875 71.21875 C 167.039062 71.722656 166.308594 72.265625 165.601562 72.847656 C 164.894531 73.425781 164.21875 74.039062 163.574219 74.683594 C 162.929688 75.328125 162.316406 76.003906 161.738281 76.710938 C 161.160156 77.414062 160.617188 78.148438 160.109375 78.90625 C 159.601562 79.664062 159.132812 80.445312 158.703125 81.25 C 158.273438 82.054688 157.882812 82.878906 157.535156 83.722656 C 157.183594 84.566406 156.878906 85.425781 156.613281 86.296875 C 156.347656 87.171875 156.125 88.054688 155.949219 88.953125 C 155.769531 89.847656 155.636719 90.75 155.546875 91.65625 C 155.457031 92.566406 155.414062 93.476562 155.414062 94.386719 L 211.152344 94.386719 C 211.152344 93.476562 211.109375 92.566406 211.019531 91.65625 C 210.929688 90.746094 210.796875 89.847656 210.617188 88.949219 C 210.4375 88.054688 210.21875 87.171875 209.953125 86.296875 C 209.6875 85.425781 209.378906 84.566406 209.03125 83.722656 C 208.683594 82.878906 208.292969 82.054688 207.863281 81.25 C 207.429688 80.445312 206.960938 79.664062 206.457031 78.902344 C 205.949219 78.144531 205.40625 77.414062 204.824219 76.707031 C 204.246094 76 203.632812 75.328125 202.988281 74.679688 C 202.34375 74.035156 201.667969 73.421875 200.960938 72.84375 C 200.257812 72.265625 199.523438 71.722656 198.765625 71.214844 C 198.007812 70.707031 197.222656 70.238281 196.417969 69.808594 C 195.613281 69.378906 194.789062 68.988281 193.945312 68.640625 C 193.101562 68.292969 192.246094 67.984375 191.371094 67.71875 C 190.496094 67.453125 189.613281 67.234375 188.71875 67.054688 C 187.824219 66.878906 186.921875 66.742188 186.011719 66.65625 C 185.105469 66.566406 184.191406 66.519531 183.28125 66.519531 Z M 183.28125 66.519531 " fill-opacity="1" fill-rule="nonzero"/></g><g clip-path="url(#f852394274)"><path fill="#ff6e40" d="M 67.890625 270.324219 C 67.890625 271.03125 67.859375 271.738281 67.789062 272.441406 C 67.71875 273.144531 67.617188 273.84375 67.476562 274.539062 C 67.339844 275.234375 67.167969 275.917969 66.960938 276.597656 C 66.757812 277.273438 66.519531 277.941406 66.246094 278.59375 C 65.976562 279.246094 65.675781 279.886719 65.339844 280.511719 C 65.007812 281.132812 64.644531 281.742188 64.25 282.328125 C 63.859375 282.917969 63.4375 283.484375 62.988281 284.03125 C 62.539062 284.578125 62.0625 285.101562 61.5625 285.605469 C 61.0625 286.105469 60.539062 286.578125 59.992188 287.027344 C 59.445312 287.476562 58.878906 287.898438 58.289062 288.292969 C 57.699219 288.683594 57.09375 289.046875 56.46875 289.382812 C 55.84375 289.714844 55.207031 290.015625 54.550781 290.289062 C 53.898438 290.558594 53.234375 290.796875 52.554688 291.003906 C 51.878906 291.207031 51.191406 291.378906 50.5 291.519531 C 49.804688 291.65625 49.105469 291.757812 48.402344 291.828125 C 47.695312 291.898438 46.992188 291.933594 46.28125 291.933594 C 45.574219 291.933594 44.871094 291.898438 44.164062 291.828125 C 43.460938 291.757812 42.761719 291.65625 42.066406 291.519531 C 41.375 291.378906 40.6875 291.207031 40.011719 291.003906 C 39.332031 290.796875 38.667969 290.558594 38.011719 290.289062 C 37.359375 290.015625 36.71875 289.714844 36.097656 289.382812 C 35.472656 289.046875 34.867188 288.683594 34.277344 288.292969 C 33.6875 287.898438 33.121094 287.476562 32.574219 287.027344 C 32.027344 286.578125 31.503906 286.105469 31.003906 285.605469 C 30.503906 285.101562 30.027344 284.578125 29.578125 284.03125 C 29.128906 283.484375 28.707031 282.917969 28.316406 282.328125 C 27.921875 281.742188 27.558594 281.132812 27.226562 280.511719 C 26.890625 279.886719 26.589844 279.246094 26.320312 278.59375 C 26.046875 277.941406 25.808594 277.273438 25.605469 276.597656 C 25.398438 275.917969 25.226562 275.234375 25.089844 274.539062 C 24.949219 273.84375 24.847656 273.144531 24.777344 272.441406 C 24.707031 271.738281 24.671875 271.03125 24.671875 270.324219 C 24.671875 269.617188 24.707031 268.910156 24.777344 268.207031 C 24.847656 267.5 24.949219 266.800781 25.089844 266.109375 C 25.226562 265.414062 25.398438 264.726562 25.605469 264.050781 C 25.808594 263.375 26.046875 262.707031 26.320312 262.054688 C 26.589844 261.398438 26.890625 260.761719 27.226562 260.136719 C 27.558594 259.511719 27.921875 258.90625 28.316406 258.316406 C 28.707031 257.730469 29.128906 257.160156 29.578125 256.613281 C 30.027344 256.066406 30.503906 255.542969 31.003906 255.042969 C 31.503906 254.542969 32.027344 254.070312 32.574219 253.621094 C 33.121094 253.171875 33.6875 252.75 34.277344 252.355469 C 34.867188 251.964844 35.472656 251.601562 36.097656 251.265625 C 36.71875 250.933594 37.359375 250.628906 38.011719 250.359375 C 38.667969 250.089844 39.332031 249.851562 40.011719 249.644531 C 40.6875 249.441406 41.375 249.269531 42.066406 249.128906 C 42.761719 248.992188 43.460938 248.886719 44.164062 248.820312 C 44.871094 248.75 45.574219 248.714844 46.28125 248.714844 C 46.992188 248.714844 47.695312 248.75 48.402344 248.820312 C 49.105469 248.886719 49.804688 248.992188 50.5 249.128906 C 51.191406 249.269531 51.878906 249.441406 52.554688 249.644531 C 53.234375 249.851562 53.898438 250.089844 54.550781 250.359375 C 55.207031 250.628906 55.84375 250.933594 56.46875 251.265625 C 57.09375 251.601562 57.699219 251.964844 58.289062 252.355469 C 58.878906 252.75 59.445312 253.171875 59.992188 253.621094 C 60.539062 254.070312 61.0625 254.542969 61.5625 255.042969 C 62.0625 255.542969 62.539062 256.066406 62.988281 256.613281 C 63.4375 257.160156 63.859375 257.730469 64.25 258.316406 C 64.644531 258.90625 65.007812 259.511719 65.339844 260.136719 C 65.675781 260.761719 65.976562 261.398438 66.246094 262.054688 C 66.519531 262.707031 66.757812 263.375 66.960938 264.050781 C 67.167969 264.726562 67.339844 265.414062 67.476562 266.109375 C 67.617188 266.800781 67.71875 267.5 67.789062 268.207031 C 67.859375 268.910156 67.890625 269.617188 67.890625 270.324219 Z M 67.890625 270.324219 " fill-opacity="1" fill-rule="nonzero"/></g><g clip-path="url(#f130811420)"><path fill="#ff6e40" d="M 342.007812 270.324219 C 342.007812 271.03125 341.972656 271.738281 341.90625 272.441406 C 341.835938 273.144531 341.730469 273.84375 341.59375 274.539062 C 341.457031 275.234375 341.285156 275.917969 341.078125 276.597656 C 340.871094 277.273438 340.632812 277.941406 340.363281 278.59375 C 340.09375 279.246094 339.789062 279.886719 339.457031 280.511719 C 339.125 281.132812 338.757812 281.742188 338.367188 282.328125 C 337.972656 282.917969 337.550781 283.484375 337.101562 284.03125 C 336.65625 284.578125 336.179688 285.101562 335.679688 285.605469 C 335.179688 286.105469 334.65625 286.578125 334.109375 287.027344 C 333.5625 287.476562 332.992188 287.898438 332.40625 288.292969 C 331.816406 288.683594 331.210938 289.046875 330.585938 289.382812 C 329.960938 289.714844 329.324219 290.015625 328.667969 290.289062 C 328.015625 290.558594 327.347656 290.796875 326.671875 291.003906 C 325.996094 291.207031 325.308594 291.378906 324.613281 291.519531 C 323.921875 291.65625 323.222656 291.757812 322.515625 291.828125 C 321.8125 291.898438 321.105469 291.933594 320.398438 291.933594 C 319.691406 291.933594 318.984375 291.898438 318.28125 291.828125 C 317.578125 291.757812 316.878906 291.65625 316.183594 291.519531 C 315.488281 291.378906 314.804688 291.207031 314.125 291.003906 C 313.449219 290.796875 312.785156 290.558594 312.128906 290.289062 C 311.476562 290.015625 310.835938 289.714844 310.210938 289.382812 C 309.589844 289.046875 308.980469 288.683594 308.394531 288.292969 C 307.804688 287.898438 307.238281 287.476562 306.691406 287.027344 C 306.144531 286.578125 305.621094 286.105469 305.117188 285.605469 C 304.617188 285.101562 304.144531 284.578125 303.695312 284.03125 C 303.246094 283.484375 302.824219 282.917969 302.429688 282.328125 C 302.039062 281.742188 301.675781 281.132812 301.339844 280.511719 C 301.007812 279.886719 300.707031 279.246094 300.433594 278.59375 C 300.164062 277.941406 299.925781 277.273438 299.71875 276.597656 C 299.515625 275.917969 299.34375 275.234375 299.203125 274.539062 C 299.066406 273.84375 298.964844 273.144531 298.894531 272.441406 C 298.824219 271.738281 298.789062 271.03125 298.789062 270.324219 C 298.789062 269.617188 298.824219 268.910156 298.894531 268.207031 C 298.964844 267.5 299.066406 266.800781 299.203125 266.109375 C 299.34375 265.414062 299.515625 264.726562 299.71875 264.050781 C 299.925781 263.375 300.164062 262.707031 300.433594 262.054688 C 300.707031 261.398438 301.007812 260.761719 301.339844 260.136719 C 301.675781 259.511719 302.039062 258.90625 302.429688 258.316406 C 302.824219 257.730469 303.246094 257.160156 303.695312 256.613281 C 304.144531 256.066406 304.617188 255.542969 305.117188 255.042969 C 305.621094 254.542969 306.144531 254.070312 306.691406 253.621094 C 307.238281 253.171875 307.804688 252.75 308.394531 252.355469 C 308.980469 251.964844 309.589844 251.601562 310.210938 251.265625 C 310.835938 250.933594 311.476562 250.628906 312.128906 250.359375 C 312.785156 250.089844 313.449219 249.851562 314.125 249.644531 C 314.804688 249.441406 315.488281 249.269531 316.183594 249.128906 C 316.878906 248.992188 317.578125 248.886719 318.28125 248.820312 C 318.984375 248.75 319.691406 248.714844 320.398438 248.714844 C 321.105469 248.714844 321.8125 248.75 322.515625 248.820312 C 323.222656 248.886719 323.921875 248.992188 324.613281 249.128906 C 325.308594 249.269531 325.996094 249.441406 326.671875 249.644531 C 327.347656 249.851562 328.015625 250.089844 328.667969 250.359375 C 329.324219 250.628906 329.960938 250.933594 330.585938 251.265625 C 331.210938 251.601562 331.816406 251.964844 332.40625 252.355469 C 332.992188 252.75 333.5625 253.171875 334.109375 253.621094 C 334.65625 254.070312 335.179688 254.542969 335.679688 255.042969 C 336.179688 255.542969 336.65625 256.066406 337.101562 256.613281 C 337.550781 257.160156 337.972656 257.730469 338.367188 258.316406 C 338.757812 258.90625 339.125 259.511719 339.457031 260.136719 C 339.789062 260.761719 340.09375 261.398438 340.363281 262.054688 C 340.632812 262.707031 340.871094 263.375 341.078125 264.050781 C 341.285156 264.726562 341.457031 265.414062 341.59375 266.109375 C 341.730469 266.800781 341.835938 267.5 341.90625 268.207031 C 341.972656 268.910156 342.007812 269.617188 342.007812 270.324219 Z M 342.007812 270.324219 " fill-opacity="1" fill-rule="nonzero"/></g><g clip-path="url(#35762cebd0)"><path fill="#ffffff" d="M 183.273438 1.941406 C 169.210938 1.941406 158.074219 13.398438 158.074219 27.332031 C 158.074219 33.09375 159.921875 38.34375 163.132812 42.636719 C 151.425781 49.574219 143.726562 62.398438 143.726562 77.066406 L 143.726562 82.761719 C 143.726562 95.585938 153.96875 105.796875 166.539062 105.796875 L 200.011719 105.796875 C 212.582031 105.796875 222.824219 95.519531 222.824219 82.761719 L 222.824219 77.066406 C 222.824219 62.398438 215.125 49.574219 203.417969 42.636719 C 206.660156 38.34375 208.476562 33.09375 208.476562 27.332031 C 208.476562 13.398438 197.339844 1.941406 183.273438 1.941406 Z M 183.273438 14.160156 C 190.371094 14.160156 196.257812 19.953125 196.257812 27.332031 C 196.257812 34.714844 190.371094 40.539062 183.273438 40.539062 C 176.179688 40.539062 170.261719 34.714844 170.261719 27.332031 C 170.261719 19.953125 176.179688 14.160156 183.273438 14.160156 Z M 173.984375 50.941406 C 176.945312 52.152344 180.0625 52.726562 183.273438 52.726562 C 186.488281 52.726562 189.351562 52.214844 192.597656 50.941406 C 202.90625 54.699219 210.609375 64.816406 210.609375 77.066406 L 210.609375 82.761719 C 210.609375 88.710938 205.960938 93.578125 200.011719 93.578125 L 166.539062 93.578125 C 160.589844 93.578125 155.941406 88.710938 155.941406 82.761719 L 155.941406 77.066406 C 155.941406 64.625 163.898438 54.507812 173.984375 50.941406 Z M 109.648438 82.632812 C 108.660156 82.699219 107.738281 82.984375 106.941406 83.492188 C 59.46875 110.890625 30.546875 161.195312 30.546875 215.761719 C 30.671875 223.910156 42.542969 223.878906 42.765625 215.761719 C 42.765625 165.554688 69.523438 119.195312 113.019531 94.089844 C 118.398438 90.9375 116.359375 82.601562 109.648438 82.632812 Z M 256.457031 82.632812 C 249.96875 83.113281 248.40625 90.9375 253.53125 94.089844 C 297.027344 119.195312 323.785156 165.554688 323.785156 215.761719 C 323.785156 223.910156 336.035156 223.910156 336.035156 215.761719 C 336.035156 161.195312 306.890625 110.761719 259.640625 83.492188 C 258.75 82.953125 257.761719 82.667969 256.457031 82.632812 Z M 183.273438 118.015625 C 128.960938 118.015625 85.496094 162.210938 85.496094 215.761719 C 85.496094 269.3125 128.929688 313.511719 183.273438 313.511719 C 237.652344 313.511719 280.992188 269.472656 280.992188 215.761719 C 280.992188 161.988281 237.589844 118.015625 183.273438 118.015625 Z M 165.265625 132.144531 C 155.371094 141.179688 147.226562 151.746094 141.117188 163.453125 C 135.324219 160.75 129.789062 157.503906 124.507812 153.683594 C 135.707031 143.089844 149.835938 135.484375 165.265625 132.144531 Z M 201.285156 132.175781 C 216.75 135.484375 230.875 143.058594 242.042969 153.621094 C 236.761719 157.472656 231.226562 160.78125 225.433594 163.515625 C 219.324219 151.808594 211.179688 141.179688 201.285156 132.175781 Z M 189.351562 137.96875 C 199.472656 146.367188 207.871094 156.675781 214.011719 168.035156 C 206.058594 170.644531 197.753906 172.300781 189.351562 172.808594 Z M 177.132812 138.0625 L 177.132812 172.839844 C 168.765625 172.300781 160.460938 170.675781 152.539062 168.066406 C 158.648438 156.707031 167.046875 146.429688 177.132812 138.0625 Z M 116.234375 162.691406 C 122.5 167.367188 129.089844 171.375 136.054688 174.652344 C 131.730469 185.726562 129.121094 197.5 128.453125 209.652344 L 98 209.652344 C 99.242188 191.964844 105.828125 175.765625 116.234375 162.691406 Z M 250.347656 162.722656 C 260.722656 175.800781 267.308594 191.964844 268.550781 209.652344 L 238.066406 209.652344 C 237.429688 197.5 234.851562 185.726562 230.496094 174.621094 C 237.460938 171.375 244.082031 167.367188 250.347656 162.722656 Z M 147.382812 179.234375 C 156.929688 182.511719 166.984375 184.453125 177.132812 185.027344 L 177.132812 209.652344 L 140.703125 209.652344 C 141.339844 199.089844 143.597656 188.875 147.382812 179.234375 Z M 219.167969 179.234375 C 222.921875 188.875 225.210938 199.058594 225.847656 209.652344 L 189.351562 209.652344 L 189.351562 185.058594 C 199.535156 184.484375 209.558594 182.511719 219.167969 179.234375 Z M 97.96875 221.871094 L 128.453125 221.871094 C 129.121094 234.058594 131.730469 245.832031 136.089844 256.9375 C 129.121094 260.183594 122.46875 264.191406 116.203125 268.835938 C 105.828125 255.757812 99.210938 239.59375 97.96875 221.871094 Z M 140.703125 221.871094 L 177.132812 221.871094 L 177.132812 246.5 C 166.984375 247.074219 156.960938 249.046875 147.382812 252.324219 C 143.597656 242.648438 141.339844 232.46875 140.703125 221.871094 Z M 189.351562 221.871094 L 225.847656 221.871094 C 225.210938 232.46875 222.953125 242.648438 219.167969 252.324219 C 209.589844 249.046875 199.503906 247.042969 189.351562 246.5 Z M 238.066406 221.871094 L 268.550781 221.871094 C 267.308594 239.59375 260.691406 255.726562 250.316406 268.835938 C 244.082031 264.160156 237.429688 260.183594 230.460938 256.9375 C 234.820312 245.832031 237.429688 234.058594 238.066406 221.871094 Z M 48.875 240.199219 C 31.976562 240.199219 18.328125 253.914062 18.328125 270.714844 C 18.328125 278.253906 21.0625 285.191406 25.644531 290.539062 C 10.371094 298.777344 0 315.070312 0 333.777344 L 0 340.90625 C 0 356.050781 12.121094 368.492188 27.523438 368.492188 L 70.253906 368.492188 C 85.402344 368.492188 97.714844 356.339844 97.714844 340.90625 L 97.714844 333.777344 C 97.714844 315.070312 87.46875 298.84375 72.101562 290.570312 C 76.683594 285.222656 79.417969 278.285156 79.417969 270.714844 C 79.417969 253.914062 65.769531 240.199219 48.875 240.199219 Z M 317.675781 241.949219 C 300.71875 241.949219 287.132812 255.695312 287.132812 272.496094 C 287.132812 279.527344 289.453125 285.921875 293.496094 291.109375 C 278.636719 299.542969 268.773438 315.675781 268.773438 333.777344 L 268.773438 340.90625 C 268.773438 356.050781 280.957031 368.492188 296.296875 368.492188 L 339.058594 368.492188 C 354.460938 368.492188 366.550781 356.050781 366.550781 340.90625 L 366.550781 333.777344 C 366.550781 315.484375 356.71875 299.542969 341.859375 291.109375 C 345.933594 285.921875 348.253906 279.402344 348.253906 272.496094 C 348.253906 255.695312 334.605469 241.949219 317.675781 241.949219 Z M 48.875 252.417969 C 58.894531 252.417969 67.199219 260.53125 67.199219 270.714844 C 67.199219 280.929688 58.960938 289.074219 48.875 289.074219 C 38.820312 289.074219 30.546875 280.929688 30.546875 270.714844 C 30.546875 260.53125 38.851562 252.417969 48.875 252.417969 Z M 317.675781 254.167969 C 327.699219 254.167969 336.035156 262.28125 336.035156 272.496094 C 336.035156 282.679688 327.699219 290.855469 317.675781 290.855469 C 307.65625 290.855469 299.351562 282.679688 299.351562 272.496094 C 299.351562 262.28125 307.65625 254.167969 317.675781 254.167969 Z M 177.132812 258.71875 L 177.132812 293.527344 C 167.046875 285.160156 158.648438 274.851562 152.539062 263.492188 C 160.460938 260.914062 168.765625 259.257812 177.132812 258.71875 Z M 189.351562 258.71875 C 197.753906 259.257812 206.027344 260.882812 213.980469 263.492188 C 207.871094 274.851562 199.535156 285.128906 189.417969 293.496094 Z M 141.117188 268.074219 C 147.226562 279.75 155.371094 290.347656 165.234375 299.351562 C 149.609375 296.011719 135.675781 288.46875 124.507812 277.875 C 129.789062 274.054688 135.324219 270.777344 141.117188 268.074219 Z M 225.433594 268.074219 C 231.226562 270.777344 236.792969 274.054688 242.078125 277.90625 C 231.066406 288.339844 216.875 296.042969 201.253906 299.382812 C 211.179688 290.316406 219.324219 279.75 225.433594 268.074219 Z M 60.742188 298.90625 C 74.996094 303.679688 85.496094 317.390625 85.496094 333.777344 L 85.496094 340.90625 C 85.496094 349.371094 78.816406 356.273438 70.253906 356.273438 L 27.523438 356.273438 C 19.058594 356.273438 12.21875 349.527344 12.21875 340.90625 L 12.21875 333.777344 C 12.21875 317.390625 22.6875 303.710938 37.003906 298.90625 C 40.601562 300.402344 44.769531 301.292969 48.875 301.292969 C 53.011719 301.292969 57.144531 300.402344 60.742188 298.90625 Z M 303.742188 299.667969 C 307.878906 301.769531 312.746094 303.074219 317.675781 303.074219 C 322.609375 303.074219 327.476562 301.800781 331.613281 299.667969 C 344.785156 304.984375 354.332031 318.15625 354.332031 333.777344 L 354.332031 340.90625 C 354.332031 349.527344 347.492188 356.273438 339.058594 356.273438 L 296.296875 356.273438 C 287.925781 356.273438 280.992188 349.527344 280.992188 340.90625 L 280.992188 333.777344 C 280.992188 318.15625 290.789062 304.886719 303.742188 299.667969 Z M 126.703125 345.167969 C 120.371094 345.773438 119 354.367188 124.921875 356.910156 C 162.273438 372.34375 204.210938 372.34375 241.597656 356.910156 C 247.738281 354.238281 245.925781 345.582031 239.691406 345.167969 C 238.734375 345.167969 237.8125 345.203125 236.953125 345.648438 C 202.558594 359.839844 163.960938 359.839844 129.566406 345.648438 C 128.644531 345.234375 127.71875 345.105469 126.703125 345.167969 " fill-opacity="1" fill-rule="nonzero"/></g></svg>