<svg xmlns="http://www.w3.org/2000/svg" xmlns:xlink="http://www.w3.org/1999/xlink" width="500" zoomAndPan="magnify" viewBox="0 0 375 374.999991" height="500" preserveAspectRatio="xMidYMid meet" version="1.0"><defs><clipPath id="450602c719"><path d="M 58.617188 9.652344 L 320.367188 9.652344 L 320.367188 370.402344 L 58.617188 370.402344 Z M 58.617188 9.652344 " clip-rule="nonzero"/></clipPath></defs><g clip-path="url(#450602c719)"><path fill="#ffffff" d="M 237.050781 137.417969 L 237.050781 68.703125 L 252.578125 9.652344 L 126.097656 9.652344 L 141.625 68.703125 L 204.203125 68.703125 L 204.203125 159.867188 C 264.15625 168.804688 299.746094 225.757812 282.476562 283.125 C 259.667969 358.886719 131.867188 213.234375 118.417969 330.011719 C 100.257812 311.839844 89.007812 286.765625 89.007812 259.101562 C 89.007812 208.832031 126.175781 167.070312 174.476562 159.867188 L 174.476562 95.375 L 141.628906 95.375 L 141.628906 137.417969 C 93.0625 156.46875 58.675781 203.777344 58.675781 259.117188 C 58.675781 306.175781 83.5625 347.429688 120.890625 370.425781 L 257.796875 370.425781 C 295.121094 347.429688 320.011719 306.175781 320.011719 259.117188 C 320.011719 203.78125 285.617188 156.46875 237.058594 137.417969 Z M 237.050781 137.417969 " fill-opacity="1" fill-rule="nonzero"/></g><path fill="#ff6e40" d="M 250.273438 211.6875 C 250.273438 212.519531 250.234375 213.347656 250.152344 214.171875 C 250.070312 214.996094 249.949219 215.816406 249.789062 216.628906 C 249.625 217.441406 249.425781 218.246094 249.183594 219.039062 C 248.941406 219.832031 248.664062 220.613281 248.347656 221.378906 C 248.03125 222.144531 247.675781 222.894531 247.285156 223.625 C 246.894531 224.355469 246.46875 225.066406 246.007812 225.753906 C 245.546875 226.445312 245.054688 227.109375 244.527344 227.75 C 244 228.390625 243.445312 229.003906 242.859375 229.59375 C 242.273438 230.179688 241.660156 230.734375 241.019531 231.261719 C 240.375 231.785156 239.710938 232.28125 239.023438 232.742188 C 238.332031 233.203125 237.621094 233.628906 236.890625 234.019531 C 236.160156 234.410156 235.410156 234.761719 234.644531 235.082031 C 233.878906 235.398438 233.097656 235.675781 232.304688 235.917969 C 231.511719 236.15625 230.707031 236.359375 229.894531 236.519531 C 229.082031 236.683594 228.261719 236.804688 227.4375 236.886719 C 226.613281 236.964844 225.785156 237.007812 224.957031 237.007812 C 224.128906 237.007812 223.300781 236.964844 222.476562 236.886719 C 221.648438 236.804688 220.832031 236.683594 220.015625 236.519531 C 219.203125 236.359375 218.398438 236.15625 217.605469 235.917969 C 216.8125 235.675781 216.035156 235.398438 215.265625 235.082031 C 214.5 234.761719 213.753906 234.410156 213.019531 234.019531 C 212.289062 233.628906 211.578125 233.203125 210.890625 232.742188 C 210.199219 232.28125 209.535156 231.785156 208.894531 231.261719 C 208.253906 230.734375 207.640625 230.179688 207.054688 229.59375 C 206.46875 229.003906 205.910156 228.390625 205.386719 227.75 C 204.859375 227.109375 204.367188 226.445312 203.90625 225.753906 C 203.445312 225.066406 203.019531 224.355469 202.628906 223.625 C 202.238281 222.894531 201.882812 222.144531 201.566406 221.378906 C 201.25 220.613281 200.96875 219.832031 200.730469 219.039062 C 200.488281 218.246094 200.285156 217.441406 200.125 216.628906 C 199.964844 215.816406 199.839844 214.996094 199.761719 214.171875 C 199.679688 213.347656 199.636719 212.519531 199.636719 211.6875 C 199.636719 210.859375 199.679688 210.03125 199.761719 209.207031 C 199.839844 208.382812 199.964844 207.5625 200.125 206.75 C 200.285156 205.9375 200.488281 205.132812 200.730469 204.339844 C 200.96875 203.546875 201.25 202.765625 201.566406 202 C 201.882812 201.234375 202.238281 200.484375 202.628906 199.753906 C 203.019531 199.023438 203.445312 198.3125 203.90625 197.625 C 204.367188 196.933594 204.859375 196.269531 205.386719 195.628906 C 205.910156 194.988281 206.46875 194.375 207.054688 193.785156 C 207.640625 193.199219 208.253906 192.644531 208.894531 192.117188 C 209.535156 191.59375 210.199219 191.097656 210.890625 190.636719 C 211.578125 190.175781 212.289062 189.75 213.019531 189.359375 C 213.753906 188.96875 214.5 188.617188 215.265625 188.296875 C 216.035156 187.980469 216.8125 187.703125 217.605469 187.460938 C 218.398438 187.222656 219.203125 187.019531 220.015625 186.859375 C 220.832031 186.695312 221.648438 186.574219 222.476562 186.492188 C 223.300781 186.414062 224.128906 186.371094 224.957031 186.371094 C 225.785156 186.371094 226.613281 186.414062 227.4375 186.492188 C 228.261719 186.574219 229.082031 186.695312 229.894531 186.859375 C 230.707031 187.019531 231.511719 187.222656 232.304688 187.460938 C 233.097656 187.703125 233.878906 187.980469 234.644531 188.296875 C 235.410156 188.617188 236.160156 188.96875 236.890625 189.359375 C 237.621094 189.75 238.332031 190.175781 239.023438 190.636719 C 239.710938 191.097656 240.375 191.59375 241.019531 192.117188 C 241.660156 192.644531 242.273438 193.199219 242.859375 193.785156 C 243.445312 194.375 244 194.988281 244.527344 195.628906 C 245.054688 196.269531 245.546875 196.933594 246.007812 197.625 C 246.46875 198.3125 246.894531 199.023438 247.285156 199.753906 C 247.675781 200.484375 248.03125 201.234375 248.347656 202 C 248.664062 202.765625 248.941406 203.546875 249.183594 204.339844 C 249.425781 205.132812 249.625 205.9375 249.789062 206.75 C 249.949219 207.5625 250.070312 208.382812 250.152344 209.207031 C 250.234375 210.03125 250.273438 210.859375 250.273438 211.6875 Z M 250.273438 211.6875 " fill-opacity="1" fill-rule="nonzero"/><path fill="#ff6e40" d="M 143.109375 243.140625 C 143.109375 243.753906 143.078125 244.363281 143.019531 244.972656 C 142.960938 245.582031 142.871094 246.1875 142.75 246.789062 C 142.632812 247.390625 142.480469 247.984375 142.304688 248.570312 C 142.125 249.15625 141.921875 249.730469 141.6875 250.296875 C 141.453125 250.863281 141.191406 251.414062 140.902344 251.957031 C 140.613281 252.496094 140.296875 253.019531 139.957031 253.53125 C 139.617188 254.039062 139.253906 254.53125 138.863281 255.003906 C 138.476562 255.476562 138.066406 255.929688 137.632812 256.363281 C 137.199219 256.796875 136.746094 257.207031 136.273438 257.597656 C 135.800781 257.984375 135.308594 258.351562 134.796875 258.691406 C 134.289062 259.03125 133.765625 259.34375 133.222656 259.632812 C 132.683594 259.921875 132.128906 260.183594 131.566406 260.417969 C 131 260.652344 130.421875 260.859375 129.835938 261.035156 C 129.25 261.214844 128.65625 261.363281 128.054688 261.480469 C 127.457031 261.601562 126.851562 261.691406 126.242188 261.75 C 125.632812 261.8125 125.019531 261.84375 124.40625 261.84375 C 123.796875 261.84375 123.183594 261.8125 122.574219 261.75 C 121.964844 261.691406 121.359375 261.601562 120.757812 261.480469 C 120.160156 261.363281 119.566406 261.214844 118.980469 261.035156 C 118.394531 260.859375 117.816406 260.652344 117.25 260.417969 C 116.683594 260.183594 116.132812 259.921875 115.59375 259.632812 C 115.050781 259.34375 114.527344 259.03125 114.019531 258.691406 C 113.507812 258.351562 113.015625 257.984375 112.542969 257.597656 C 112.070312 257.207031 111.617188 256.796875 111.183594 256.363281 C 110.75 255.929688 110.339844 255.476562 109.949219 255.003906 C 109.5625 254.53125 109.199219 254.039062 108.859375 253.53125 C 108.515625 253.019531 108.203125 252.496094 107.914062 251.957031 C 107.625 251.414062 107.363281 250.863281 107.128906 250.296875 C 106.894531 249.730469 106.6875 249.15625 106.511719 248.570312 C 106.332031 247.984375 106.183594 247.390625 106.066406 246.789062 C 105.945312 246.1875 105.855469 245.582031 105.796875 244.972656 C 105.734375 244.363281 105.707031 243.753906 105.707031 243.140625 C 105.707031 242.527344 105.734375 241.917969 105.796875 241.308594 C 105.855469 240.695312 105.945312 240.09375 106.066406 239.492188 C 106.183594 238.890625 106.332031 238.296875 106.511719 237.710938 C 106.6875 237.125 106.894531 236.546875 107.128906 235.984375 C 107.363281 235.417969 107.625 234.863281 107.914062 234.324219 C 108.203125 233.785156 108.515625 233.257812 108.859375 232.75 C 109.199219 232.242188 109.5625 231.75 109.949219 231.277344 C 110.339844 230.800781 110.75 230.347656 111.183594 229.914062 C 111.617188 229.480469 112.070312 229.070312 112.542969 228.683594 C 113.015625 228.292969 113.507812 227.929688 114.019531 227.589844 C 114.527344 227.25 115.050781 226.933594 115.59375 226.644531 C 116.132812 226.355469 116.683594 226.097656 117.25 225.863281 C 117.816406 225.628906 118.394531 225.421875 118.980469 225.242188 C 119.566406 225.066406 120.160156 224.917969 120.757812 224.796875 C 121.359375 224.675781 121.964844 224.589844 122.574219 224.527344 C 123.183594 224.46875 123.796875 224.4375 124.40625 224.4375 C 125.019531 224.4375 125.632812 224.46875 126.242188 224.527344 C 126.851562 224.589844 127.457031 224.675781 128.054688 224.796875 C 128.65625 224.917969 129.25 225.066406 129.835938 225.242188 C 130.421875 225.421875 131 225.628906 131.566406 225.863281 C 132.128906 226.097656 132.683594 226.355469 133.222656 226.644531 C 133.765625 226.933594 134.289062 227.25 134.796875 227.589844 C 135.308594 227.929688 135.800781 228.292969 136.273438 228.683594 C 136.746094 229.070312 137.199219 229.480469 137.632812 229.914062 C 138.066406 230.347656 138.476562 230.800781 138.863281 231.277344 C 139.253906 231.75 139.617188 232.242188 139.957031 232.75 C 140.296875 233.257812 140.613281 233.785156 140.902344 234.324219 C 141.191406 234.863281 141.453125 235.417969 141.6875 235.984375 C 141.921875 236.546875 142.125 237.125 142.304688 237.710938 C 142.480469 238.296875 142.632812 238.890625 142.75 239.492188 C 142.871094 240.09375 142.960938 240.695312 143.019531 241.308594 C 143.078125 241.917969 143.109375 242.527344 143.109375 243.140625 Z M 143.109375 243.140625 " fill-opacity="1" fill-rule="nonzero"/><path fill="#ff6e40" d="M 166.738281 201.820312 C 166.738281 202.734375 166.648438 203.640625 166.46875 204.535156 C 166.292969 205.433594 166.027344 206.304688 165.675781 207.148438 C 165.328125 207.992188 164.898438 208.796875 164.390625 209.558594 C 163.882812 210.316406 163.304688 211.019531 162.65625 211.667969 C 162.011719 212.3125 161.308594 212.890625 160.546875 213.398438 C 159.785156 213.90625 158.984375 214.335938 158.140625 214.6875 C 157.292969 215.035156 156.421875 215.300781 155.527344 215.480469 C 154.628906 215.65625 153.722656 215.746094 152.808594 215.746094 C 151.894531 215.746094 150.988281 215.65625 150.09375 215.480469 C 149.195312 215.300781 148.324219 215.035156 147.480469 214.6875 C 146.632812 214.335938 145.832031 213.90625 145.070312 213.398438 C 144.308594 212.890625 143.605469 212.3125 142.960938 211.667969 C 142.3125 211.019531 141.734375 210.316406 141.226562 209.558594 C 140.71875 208.796875 140.289062 207.992188 139.941406 207.148438 C 139.589844 206.304688 139.328125 205.433594 139.148438 204.535156 C 138.96875 203.640625 138.878906 202.734375 138.878906 201.820312 C 138.878906 200.902344 138.96875 200 139.148438 199.101562 C 139.328125 198.203125 139.589844 197.332031 139.941406 196.488281 C 140.289062 195.644531 140.71875 194.839844 141.226562 194.082031 C 141.734375 193.320312 142.3125 192.617188 142.960938 191.96875 C 143.605469 191.324219 144.308594 190.746094 145.070312 190.238281 C 145.832031 189.730469 146.632812 189.300781 147.480469 188.949219 C 148.324219 188.601562 149.195312 188.335938 150.09375 188.15625 C 150.988281 187.980469 151.894531 187.890625 152.808594 187.890625 C 153.722656 187.890625 154.628906 187.980469 155.527344 188.15625 C 156.421875 188.335938 157.292969 188.601562 158.140625 188.949219 C 158.984375 189.300781 159.785156 189.730469 160.546875 190.238281 C 161.308594 190.746094 162.011719 191.324219 162.65625 191.96875 C 163.304688 192.617188 163.882812 193.320312 164.390625 194.082031 C 164.898438 194.839844 165.328125 195.644531 165.675781 196.488281 C 166.027344 197.332031 166.292969 198.203125 166.46875 199.101562 C 166.648438 200 166.738281 200.902344 166.738281 201.820312 Z M 166.738281 201.820312 " fill-opacity="1" fill-rule="nonzero"/><path fill="#ff6e40" d="M 186.390625 243.085938 C 186.390625 243.785156 186.324219 244.476562 186.1875 245.164062 C 186.050781 245.847656 185.847656 246.511719 185.582031 247.15625 C 185.3125 247.804688 184.984375 248.417969 184.597656 248.996094 C 184.210938 249.578125 183.769531 250.117188 183.273438 250.609375 C 182.78125 251.105469 182.242188 251.542969 181.664062 251.933594 C 181.082031 252.320312 180.46875 252.648438 179.824219 252.917969 C 179.179688 253.183594 178.511719 253.386719 177.828125 253.523438 C 177.140625 253.65625 176.449219 253.726562 175.75 253.726562 C 175.054688 253.726562 174.359375 253.65625 173.675781 253.523438 C 172.992188 253.386719 172.324219 253.183594 171.679688 252.917969 C 171.035156 252.648438 170.421875 252.320312 169.839844 251.933594 C 169.261719 251.542969 168.722656 251.105469 168.226562 250.609375 C 167.734375 250.117188 167.292969 249.578125 166.90625 248.996094 C 166.515625 248.417969 166.1875 247.804688 165.921875 247.15625 C 165.65625 246.511719 165.453125 245.847656 165.316406 245.164062 C 165.179688 244.476562 165.113281 243.785156 165.113281 243.085938 C 165.113281 242.386719 165.179688 241.695312 165.316406 241.011719 C 165.453125 240.324219 165.65625 239.660156 165.921875 239.015625 C 166.1875 238.371094 166.515625 237.757812 166.90625 237.175781 C 167.292969 236.59375 167.734375 236.058594 168.226562 235.5625 C 168.722656 235.070312 169.261719 234.628906 169.839844 234.238281 C 170.421875 233.851562 171.035156 233.523438 171.679688 233.257812 C 172.324219 232.988281 172.992188 232.789062 173.675781 232.652344 C 174.359375 232.515625 175.054688 232.445312 175.75 232.445312 C 176.449219 232.445312 177.140625 232.515625 177.828125 232.652344 C 178.511719 232.789062 179.179688 232.988281 179.824219 233.257812 C 180.46875 233.523438 181.082031 233.851562 181.664062 234.238281 C 182.242188 234.628906 182.78125 235.070312 183.273438 235.5625 C 183.769531 236.058594 184.210938 236.59375 184.597656 237.175781 C 184.984375 237.757812 185.3125 238.371094 185.582031 239.015625 C 185.847656 239.660156 186.050781 240.324219 186.1875 241.011719 C 186.324219 241.695312 186.390625 242.386719 186.390625 243.085938 Z M 186.390625 243.085938 " fill-opacity="1" fill-rule="nonzero"/><path fill="#ff6e40" d="M 196.191406 183.1875 C 196.191406 183.785156 196.136719 184.375 196.019531 184.960938 C 195.902344 185.546875 195.730469 186.113281 195.5 186.664062 C 195.273438 187.214844 194.992188 187.738281 194.664062 188.234375 C 194.332031 188.730469 193.953125 189.191406 193.53125 189.613281 C 193.113281 190.035156 192.652344 190.410156 192.15625 190.742188 C 191.660156 191.074219 191.136719 191.351562 190.585938 191.582031 C 190.035156 191.808594 189.46875 191.980469 188.882812 192.097656 C 188.296875 192.214844 187.707031 192.273438 187.109375 192.273438 C 186.515625 192.273438 185.921875 192.214844 185.339844 192.097656 C 184.753906 191.980469 184.1875 191.808594 183.636719 191.582031 C 183.082031 191.351562 182.558594 191.074219 182.066406 190.742188 C 181.570312 190.410156 181.109375 190.035156 180.6875 189.613281 C 180.265625 189.191406 179.890625 188.730469 179.558594 188.234375 C 179.226562 187.738281 178.949219 187.214844 178.71875 186.664062 C 178.492188 186.113281 178.320312 185.546875 178.203125 184.960938 C 178.085938 184.375 178.027344 183.785156 178.027344 183.1875 C 178.027344 182.59375 178.085938 182.003906 178.203125 181.417969 C 178.320312 180.832031 178.492188 180.265625 178.71875 179.714844 C 178.949219 179.164062 179.226562 178.640625 179.558594 178.144531 C 179.890625 177.648438 180.265625 177.1875 180.6875 176.765625 C 181.109375 176.34375 181.570312 175.96875 182.066406 175.636719 C 182.558594 175.304688 183.082031 175.027344 183.636719 174.796875 C 184.1875 174.570312 184.753906 174.398438 185.339844 174.28125 C 185.921875 174.164062 186.515625 174.105469 187.109375 174.105469 C 187.707031 174.105469 188.296875 174.164062 188.882812 174.28125 C 189.46875 174.398438 190.035156 174.570312 190.585938 174.796875 C 191.136719 175.027344 191.660156 175.304688 192.15625 175.636719 C 192.652344 175.96875 193.113281 176.34375 193.53125 176.765625 C 193.953125 177.1875 194.332031 177.648438 194.664062 178.144531 C 194.992188 178.640625 195.273438 179.164062 195.503906 179.714844 C 195.730469 180.265625 195.902344 180.832031 196.019531 181.417969 C 196.136719 182.003906 196.191406 182.59375 196.191406 183.1875 Z M 196.191406 183.1875 " fill-opacity="1" fill-rule="nonzero"/><path fill="#ff6e40" d="M 227.84375 267.8125 C 227.84375 268.730469 227.757812 269.632812 227.578125 270.53125 C 227.398438 271.429688 227.136719 272.300781 226.785156 273.144531 C 226.433594 273.988281 226.007812 274.792969 225.5 275.550781 C 224.988281 276.3125 224.414062 277.015625 223.765625 277.664062 C 223.121094 278.308594 222.414062 278.886719 221.65625 279.394531 C 220.894531 279.902344 220.09375 280.332031 219.246094 280.683594 C 218.402344 281.03125 217.53125 281.296875 216.632812 281.476562 C 215.738281 281.652344 214.832031 281.742188 213.917969 281.742188 C 213.003906 281.742188 212.097656 281.652344 211.199219 281.476562 C 210.300781 281.296875 209.433594 281.03125 208.585938 280.683594 C 207.742188 280.332031 206.9375 279.902344 206.179688 279.394531 C 205.417969 278.886719 204.714844 278.308594 204.066406 277.664062 C 203.421875 277.015625 202.84375 276.3125 202.335938 275.550781 C 201.828125 274.792969 201.398438 273.988281 201.046875 273.144531 C 200.699219 272.300781 200.433594 271.429688 200.257812 270.53125 C 200.078125 269.632812 199.988281 268.730469 199.988281 267.8125 C 199.988281 266.898438 200.078125 265.992188 200.257812 265.097656 C 200.433594 264.199219 200.699219 263.328125 201.046875 262.484375 C 201.398438 261.640625 201.828125 260.835938 202.335938 260.074219 C 202.84375 259.316406 203.421875 258.613281 204.066406 257.964844 C 204.714844 257.320312 205.417969 256.742188 206.179688 256.234375 C 206.9375 255.726562 207.742188 255.296875 208.585938 254.945312 C 209.433594 254.597656 210.300781 254.332031 211.199219 254.152344 C 212.097656 253.976562 213.003906 253.886719 213.917969 253.886719 C 214.832031 253.886719 215.738281 253.976562 216.632812 254.152344 C 217.53125 254.332031 218.402344 254.597656 219.246094 254.945312 C 220.09375 255.296875 220.894531 255.726562 221.65625 256.234375 C 222.414062 256.742188 223.121094 257.320312 223.765625 257.964844 C 224.414062 258.613281 224.988281 259.316406 225.5 260.074219 C 226.007812 260.835938 226.433594 261.640625 226.785156 262.484375 C 227.136719 263.328125 227.398438 264.199219 227.578125 265.097656 C 227.757812 265.992188 227.84375 266.898438 227.84375 267.8125 Z M 227.84375 267.8125 " fill-opacity="1" fill-rule="nonzero"/><path fill="#ff6e40" d="M 264.417969 252.894531 C 264.417969 253.492188 264.363281 254.082031 264.246094 254.667969 C 264.128906 255.253906 263.957031 255.820312 263.726562 256.371094 C 263.5 256.921875 263.21875 257.445312 262.890625 257.941406 C 262.558594 258.4375 262.179688 258.898438 261.757812 259.320312 C 261.335938 259.742188 260.878906 260.117188 260.382812 260.449219 C 259.886719 260.78125 259.363281 261.058594 258.8125 261.289062 C 258.261719 261.515625 257.695312 261.6875 257.109375 261.804688 C 256.523438 261.921875 255.933594 261.980469 255.335938 261.980469 C 254.742188 261.980469 254.148438 261.921875 253.566406 261.804688 C 252.980469 261.6875 252.414062 261.515625 251.859375 261.289062 C 251.308594 261.058594 250.785156 260.78125 250.289062 260.449219 C 249.796875 260.117188 249.335938 259.742188 248.914062 259.320312 C 248.492188 258.898438 248.117188 258.4375 247.785156 257.941406 C 247.453125 257.445312 247.175781 256.921875 246.945312 256.371094 C 246.71875 255.820312 246.546875 255.253906 246.429688 254.667969 C 246.3125 254.082031 246.253906 253.492188 246.253906 252.894531 C 246.253906 252.300781 246.3125 251.710938 246.429688 251.125 C 246.546875 250.539062 246.71875 249.972656 246.945312 249.421875 C 247.175781 248.871094 247.453125 248.347656 247.785156 247.851562 C 248.117188 247.355469 248.492188 246.894531 248.914062 246.472656 C 249.335938 246.050781 249.796875 245.675781 250.289062 245.34375 C 250.785156 245.011719 251.308594 244.734375 251.859375 244.503906 C 252.414062 244.277344 252.980469 244.105469 253.566406 243.988281 C 254.148438 243.871094 254.742188 243.8125 255.335938 243.8125 C 255.933594 243.8125 256.523438 243.871094 257.109375 243.988281 C 257.695312 244.105469 258.261719 244.277344 258.8125 244.503906 C 259.363281 244.734375 259.886719 245.011719 260.382812 245.34375 C 260.878906 245.675781 261.335938 246.050781 261.757812 246.472656 C 262.179688 246.894531 262.558594 247.355469 262.890625 247.851562 C 263.21875 248.347656 263.5 248.871094 263.726562 249.421875 C 263.957031 249.972656 264.128906 250.539062 264.246094 251.125 C 264.363281 251.710938 264.417969 252.300781 264.417969 252.894531 Z M 264.417969 252.894531 " fill-opacity="1" fill-rule="nonzero"/></svg>