<svg xmlns="http://www.w3.org/2000/svg" xmlns:xlink="http://www.w3.org/1999/xlink" width="500" zoomAndPan="magnify" viewBox="0 0 375 374.999991" height="500" preserveAspectRatio="xMidYMid meet" version="1.0"><defs><clipPath id="478668bfe6"><path d="M 84.53125 84.53125 L 299.78125 84.53125 L 299.78125 299.78125 L 84.53125 299.78125 Z M 84.53125 84.53125 " clip-rule="nonzero"/></clipPath><clipPath id="efd8ee7084"><path d="M 10 9.4375 L 362 9.4375 L 362 362 L 10 362 Z M 10 9.4375 " clip-rule="nonzero"/></clipPath></defs><g clip-path="url(#478668bfe6)"><path fill="#ffffff" d="M 299.78125 192.15625 C 299.78125 193.917969 299.738281 195.679688 299.652344 197.4375 C 299.566406 199.195312 299.4375 200.953125 299.261719 202.707031 C 299.089844 204.457031 298.875 206.207031 298.617188 207.949219 C 298.359375 209.691406 298.058594 211.425781 297.714844 213.152344 C 297.371094 214.878906 296.984375 216.597656 296.554688 218.308594 C 296.128906 220.015625 295.660156 221.714844 295.148438 223.398438 C 294.636719 225.085938 294.082031 226.757812 293.492188 228.414062 C 292.898438 230.074219 292.261719 231.714844 291.589844 233.34375 C 290.914062 234.96875 290.203125 236.582031 289.449219 238.171875 C 288.695312 239.765625 287.902344 241.335938 287.074219 242.890625 C 286.242188 244.445312 285.375 245.976562 284.46875 247.488281 C 283.5625 248.996094 282.621094 250.484375 281.644531 251.949219 C 280.664062 253.414062 279.652344 254.855469 278.601562 256.269531 C 277.550781 257.683594 276.46875 259.070312 275.351562 260.433594 C 274.234375 261.792969 273.085938 263.128906 271.902344 264.433594 C 270.71875 265.738281 269.503906 267.011719 268.257812 268.257812 C 267.011719 269.503906 265.738281 270.71875 264.433594 271.902344 C 263.128906 273.085938 261.792969 274.234375 260.433594 275.351562 C 259.070312 276.46875 257.683594 277.550781 256.269531 278.601562 C 254.855469 279.652344 253.414062 280.664062 251.949219 281.644531 C 250.484375 282.621094 248.996094 283.5625 247.488281 284.46875 C 245.976562 285.375 244.445312 286.242188 242.890625 287.074219 C 241.335938 287.902344 239.765625 288.695312 238.171875 289.449219 C 236.578125 290.203125 234.96875 290.914062 233.34375 291.589844 C 231.714844 292.261719 230.074219 292.898438 228.414062 293.492188 C 226.757812 294.082031 225.085938 294.636719 223.398438 295.148438 C 221.714844 295.660156 220.015625 296.128906 218.308594 296.554688 C 216.597656 296.984375 214.878906 297.371094 213.152344 297.714844 C 211.425781 298.058594 209.691406 298.359375 207.949219 298.617188 C 206.207031 298.875 204.457031 299.089844 202.707031 299.261719 C 200.953125 299.4375 199.195312 299.566406 197.4375 299.652344 C 195.679688 299.738281 193.917969 299.78125 192.15625 299.78125 C 190.394531 299.78125 188.636719 299.738281 186.875 299.652344 C 185.117188 299.566406 183.359375 299.4375 181.609375 299.261719 C 179.855469 299.089844 178.105469 298.875 176.363281 298.617188 C 174.621094 298.359375 172.886719 298.058594 171.160156 297.714844 C 169.433594 297.371094 167.714844 296.984375 166.007812 296.554688 C 164.296875 296.128906 162.601562 295.660156 160.914062 295.148438 C 159.230469 294.636719 157.558594 294.082031 155.898438 293.492188 C 154.242188 292.898438 152.597656 292.261719 150.96875 291.589844 C 149.34375 290.914062 147.734375 290.203125 146.140625 289.449219 C 144.550781 288.695312 142.976562 287.902344 141.421875 287.074219 C 139.871094 286.242188 138.335938 285.375 136.828125 284.46875 C 135.316406 283.5625 133.828125 282.621094 132.363281 281.644531 C 130.898438 280.664062 129.460938 279.652344 128.042969 278.601562 C 126.628906 277.550781 125.242188 276.46875 123.878906 275.351562 C 122.519531 274.234375 121.183594 273.085938 119.878906 271.902344 C 118.574219 270.71875 117.300781 269.503906 116.054688 268.257812 C 114.808594 267.011719 113.59375 265.738281 112.410156 264.433594 C 111.230469 263.128906 110.078125 261.792969 108.960938 260.433594 C 107.84375 259.070312 106.761719 257.683594 105.710938 256.269531 C 104.664062 254.855469 103.648438 253.414062 102.667969 251.949219 C 101.691406 250.484375 100.75 248.996094 99.84375 247.488281 C 98.9375 245.976562 98.070312 244.445312 97.238281 242.890625 C 96.410156 241.335938 95.617188 239.765625 94.863281 238.171875 C 94.113281 236.578125 93.398438 234.96875 92.722656 233.34375 C 92.050781 231.714844 91.417969 230.074219 90.824219 228.414062 C 90.230469 226.757812 89.675781 225.085938 89.167969 223.398438 C 88.65625 221.714844 88.183594 220.015625 87.757812 218.308594 C 87.328125 216.597656 86.941406 214.878906 86.601562 213.152344 C 86.257812 211.425781 85.953125 209.691406 85.695312 207.949219 C 85.4375 206.207031 85.222656 204.457031 85.050781 202.707031 C 84.878906 200.953125 84.746094 199.195312 84.660156 197.4375 C 84.574219 195.679688 84.53125 193.917969 84.53125 192.15625 C 84.53125 190.394531 84.574219 188.636719 84.660156 186.875 C 84.746094 185.117188 84.878906 183.359375 85.050781 181.609375 C 85.222656 179.855469 85.4375 178.105469 85.695312 176.363281 C 85.953125 174.621094 86.257812 172.886719 86.601562 171.160156 C 86.941406 169.433594 87.328125 167.714844 87.757812 166.007812 C 88.183594 164.296875 88.65625 162.601562 89.167969 160.914062 C 89.675781 159.230469 90.230469 157.558594 90.824219 155.898438 C 91.417969 154.242188 92.050781 152.597656 92.722656 150.96875 C 93.398438 149.34375 94.113281 147.734375 94.863281 146.140625 C 95.617188 144.550781 96.410156 142.976562 97.238281 141.421875 C 98.070312 139.871094 98.9375 138.335938 99.84375 136.828125 C 100.75 135.316406 101.691406 133.828125 102.667969 132.363281 C 103.648438 130.898438 104.664062 129.460938 105.710938 128.042969 C 106.761719 126.628906 107.84375 125.242188 108.960938 123.878906 C 110.078125 122.519531 111.230469 121.183594 112.410156 119.878906 C 113.59375 118.574219 114.808594 117.300781 116.054688 116.054688 C 117.300781 114.808594 118.574219 113.59375 119.878906 112.410156 C 121.183594 111.230469 122.519531 110.078125 123.878906 108.960938 C 125.242188 107.84375 126.628906 106.761719 128.042969 105.710938 C 129.460938 104.664062 130.898438 103.648438 132.363281 102.667969 C 133.828125 101.691406 135.316406 100.75 136.828125 99.84375 C 138.335938 98.9375 139.871094 98.070312 141.421875 97.238281 C 142.976562 96.410156 144.550781 95.617188 146.140625 94.863281 C 147.734375 94.113281 149.34375 93.398438 150.96875 92.722656 C 152.597656 92.050781 154.242188 91.417969 155.898438 90.824219 C 157.558594 90.230469 159.230469 89.675781 160.914062 89.167969 C 162.601562 88.65625 164.296875 88.183594 166.007812 87.757812 C 167.714844 87.328125 169.433594 86.941406 171.160156 86.601562 C 172.886719 86.257812 174.621094 85.953125 176.363281 85.695312 C 178.105469 85.4375 179.855469 85.222656 181.609375 85.050781 C 183.359375 84.878906 185.117188 84.746094 186.875 84.660156 C 188.636719 84.574219 190.394531 84.53125 192.15625 84.53125 C 193.917969 84.53125 195.679688 84.574219 197.4375 84.660156 C 199.195312 84.746094 200.953125 84.878906 202.707031 85.050781 C 204.457031 85.222656 206.207031 85.4375 207.949219 85.695312 C 209.691406 85.953125 211.425781 86.257812 213.152344 86.601562 C 214.878906 86.941406 216.597656 87.328125 218.308594 87.757812 C 220.015625 88.183594 221.714844 88.65625 223.398438 89.167969 C 225.085938 89.675781 226.757812 90.230469 228.414062 90.824219 C 230.074219 91.417969 231.714844 92.050781 233.34375 92.722656 C 234.96875 93.398438 236.582031 94.113281 238.171875 94.863281 C 239.765625 95.617188 241.335938 96.410156 242.890625 97.238281 C 244.445312 98.070312 245.976562 98.9375 247.488281 99.84375 C 248.996094 100.75 250.484375 101.691406 251.949219 102.667969 C 253.414062 103.648438 254.855469 104.664062 256.269531 105.710938 C 257.683594 106.761719 259.070312 107.84375 260.433594 108.960938 C 261.792969 110.078125 263.128906 111.230469 264.433594 112.410156 C 265.738281 113.59375 267.011719 114.808594 268.257812 116.054688 C 269.503906 117.300781 270.71875 118.574219 271.902344 119.878906 C 273.085938 121.183594 274.234375 122.519531 275.351562 123.878906 C 276.46875 125.242188 277.550781 126.628906 278.601562 128.042969 C 279.652344 129.460938 280.664062 130.898438 281.644531 132.363281 C 282.621094 133.828125 283.5625 135.316406 284.46875 136.828125 C 285.375 138.335938 286.242188 139.871094 287.074219 141.421875 C 287.902344 142.976562 288.695312 144.550781 289.449219 146.140625 C 290.203125 147.734375 290.914062 149.34375 291.589844 150.96875 C 292.261719 152.597656 292.898438 154.242188 293.492188 155.898438 C 294.082031 157.558594 294.636719 159.230469 295.148438 160.914062 C 295.660156 162.601562 296.128906 164.296875 296.554688 166.007812 C 296.984375 167.714844 297.371094 169.433594 297.714844 171.160156 C 298.058594 172.886719 298.359375 174.621094 298.617188 176.363281 C 298.875 178.105469 299.089844 179.855469 299.261719 181.609375 C 299.4375 183.359375 299.566406 185.117188 299.652344 186.875 C 299.738281 188.636719 299.78125 190.394531 299.78125 192.15625 Z M 299.78125 192.15625 " fill-opacity="1" fill-rule="nonzero"/></g><g clip-path="url(#efd8ee7084)"><path fill="#ff6e40" d="M 185.539062 9.894531 C 182.671875 9.902344 179.804688 9.980469 176.941406 10.128906 C 174.078125 10.277344 171.222656 10.496094 168.367188 10.785156 C 165.515625 11.074219 162.671875 11.429688 159.835938 11.859375 C 157 12.289062 154.175781 12.785156 151.367188 13.351562 C 148.554688 13.917969 145.761719 14.550781 142.980469 15.253906 C 140.199219 15.957031 137.441406 16.730469 134.699219 17.566406 C 131.957031 18.40625 129.234375 19.3125 126.539062 20.28125 C 123.839844 21.253906 121.167969 22.292969 118.519531 23.394531 C 115.875 24.496094 113.253906 25.664062 110.664062 26.894531 C 108.074219 28.125 105.515625 29.417969 102.992188 30.773438 C 100.464844 32.128906 97.972656 33.546875 95.515625 35.027344 C 93.058594 36.503906 90.640625 38.039062 88.257812 39.636719 C 85.875 41.234375 83.535156 42.886719 81.234375 44.601562 C 78.933594 46.3125 76.675781 48.078125 74.460938 49.898438 C 72.246094 51.722656 70.078125 53.597656 67.957031 55.523438 C 65.835938 57.453125 63.761719 59.433594 61.734375 61.460938 C 59.710938 63.492188 57.734375 65.570312 55.8125 67.695312 C 53.886719 69.824219 52.015625 71.996094 50.199219 74.210938 C 48.382812 76.429688 46.621094 78.691406 44.914062 80.996094 C 43.207031 83.300781 41.558594 85.644531 39.96875 88.03125 C 38.375 90.414062 36.84375 92.839844 35.371094 95.296875 C 33.898438 97.757812 32.488281 100.253906 31.136719 102.78125 C 29.785156 105.3125 28.496094 107.875 27.273438 110.464844 C 26.046875 113.058594 24.886719 115.679688 23.789062 118.328125 C 22.691406 120.976562 21.660156 123.652344 20.695312 126.351562 C 19.730469 129.050781 18.828125 131.773438 17.996094 134.519531 C 17.164062 137.261719 16.398438 140.023438 15.703125 142.804688 C 15.003906 145.585938 14.375 148.382812 13.816406 151.195312 C 13.257812 154.007812 12.765625 156.832031 12.34375 159.667969 C 11.921875 162.503906 11.570312 165.351562 11.285156 168.203125 C 11.003906 171.054688 10.792969 173.914062 10.648438 176.777344 C 10.507812 179.644531 10.433594 182.507812 10.433594 185.375 C 10.371094 193.621094 10.902344 201.828125 12.03125 210 C 13.15625 218.167969 14.871094 226.210938 17.164062 234.132812 C 19.457031 242.050781 22.3125 249.765625 25.726562 257.273438 C 29.140625 264.777344 33.078125 272 37.539062 278.933594 L 10.9375 351.328125 C 10.699219 351.949219 10.542969 352.59375 10.472656 353.257812 C 10.402344 353.921875 10.417969 354.582031 10.523438 355.242188 C 10.628906 355.902344 10.816406 356.535156 11.089844 357.144531 C 11.359375 357.753906 11.707031 358.316406 12.128906 358.835938 C 12.890625 359.59375 13.769531 360.183594 14.765625 360.59375 C 15.761719 361.007812 16.796875 361.214844 17.875 361.21875 C 18.609375 361.164062 19.316406 360.996094 19.996094 360.710938 L 91.980469 334.128906 C 94.847656 335.933594 97.765625 337.660156 100.734375 339.296875 C 103.699219 340.9375 106.714844 342.488281 109.769531 343.953125 C 112.828125 345.417969 115.925781 346.792969 119.0625 348.078125 C 122.199219 349.359375 125.371094 350.554688 128.578125 351.65625 C 131.785156 352.757812 135.019531 353.765625 138.28125 354.679688 C 141.546875 355.59375 144.835938 356.414062 148.148438 357.136719 C 151.460938 357.859375 154.789062 358.488281 158.136719 359.019531 C 161.484375 359.546875 164.847656 359.980469 168.21875 360.320312 C 171.59375 360.65625 174.972656 360.894531 178.359375 361.035156 C 181.746094 361.175781 185.136719 361.21875 188.527344 361.160156 C 191.914062 361.105469 195.300781 360.953125 198.679688 360.699219 C 202.0625 360.449219 205.433594 360.101562 208.792969 359.652344 C 212.152344 359.207031 215.496094 358.664062 218.828125 358.023438 C 222.15625 357.382812 225.464844 356.644531 228.75 355.8125 C 232.035156 354.980469 235.296875 354.054688 238.527344 353.035156 C 241.761719 352.015625 244.960938 350.902344 248.128906 349.695312 C 251.296875 348.488281 254.429688 347.191406 257.523438 345.804688 C 260.613281 344.417969 263.664062 342.941406 266.671875 341.378906 C 269.679688 339.8125 272.640625 338.164062 275.554688 336.429688 C 278.464844 334.695312 281.324219 332.875 284.132812 330.976562 C 286.9375 329.074219 289.6875 327.09375 292.382812 325.035156 C 295.074219 322.972656 297.703125 320.835938 300.273438 318.625 C 302.839844 316.414062 305.34375 314.128906 307.78125 311.769531 C 310.214844 309.414062 312.582031 306.988281 314.878906 304.492188 C 317.175781 302 319.394531 299.441406 321.542969 296.816406 C 323.691406 294.195312 325.761719 291.511719 327.753906 288.769531 C 329.746094 286.027344 331.65625 283.226562 333.488281 280.375 C 335.316406 277.519531 337.0625 274.617188 338.726562 271.664062 C 340.390625 268.707031 341.964844 265.707031 343.453125 262.664062 C 344.941406 259.617188 346.339844 256.53125 347.648438 253.402344 C 348.960938 250.277344 350.179688 247.113281 351.304688 243.917969 C 352.429688 240.71875 353.464844 237.492188 354.40625 234.234375 C 355.34375 230.980469 356.1875 227.695312 356.9375 224.390625 C 357.6875 221.085938 358.34375 217.761719 358.898438 214.414062 C 359.457031 211.070312 359.917969 207.714844 360.28125 204.34375 C 360.644531 200.972656 360.910156 197.59375 361.074219 194.210938 C 361.242188 190.824219 361.3125 187.4375 361.285156 184.046875 C 361.253906 180.65625 361.128906 177.269531 360.902344 173.886719 C 360.679688 170.503906 360.355469 167.132812 359.933594 163.769531 C 359.515625 160.402344 359 157.054688 358.382812 153.722656 C 357.769531 150.386719 357.058594 147.074219 356.253906 143.78125 C 355.449219 140.488281 354.546875 137.222656 353.550781 133.980469 C 352.558594 130.738281 351.46875 127.53125 350.289062 124.351562 C 349.109375 121.175781 347.835938 118.035156 346.472656 114.929688 C 345.109375 111.828125 343.660156 108.765625 342.117188 105.746094 C 340.578125 102.722656 338.953125 99.75 337.238281 96.824219 C 335.527344 93.898438 333.734375 91.027344 331.855469 88.203125 C 329.976562 85.382812 328.015625 82.617188 325.976562 79.90625 C 323.9375 77.199219 321.824219 74.550781 319.632812 71.964844 C 317.441406 69.378906 315.175781 66.859375 312.835938 64.40625 C 310.5 61.949219 308.09375 59.566406 305.617188 57.25 C 303.140625 54.933594 300.597656 52.691406 297.992188 50.523438 C 295.386719 48.355469 292.722656 46.265625 289.992188 44.25 C 287.265625 42.234375 284.484375 40.304688 281.644531 38.449219 C 278.804688 36.597656 275.917969 34.828125 272.976562 33.140625 C 270.035156 31.457031 267.046875 29.859375 264.011719 28.34375 C 260.976562 26.832031 257.902344 25.410156 254.785156 24.074219 C 251.671875 22.742188 248.519531 21.496094 245.328125 20.34375 C 242.140625 19.191406 238.921875 18.132812 235.671875 17.167969 C 232.421875 16.203125 229.148438 15.332031 225.847656 14.554688 C 222.546875 13.78125 219.230469 13.101562 215.890625 12.515625 C 212.550781 11.933594 209.195312 11.445312 205.828125 11.058594 C 202.460938 10.667969 199.085938 10.375 195.699219 10.179688 C 192.316406 9.988281 188.929688 9.890625 185.539062 9.894531 Z M 267.609375 221.507812 C 267.550781 222.636719 267.269531 223.710938 266.765625 224.726562 C 266.265625 225.742188 265.582031 226.613281 264.722656 227.347656 C 263.746094 227.953125 262.695312 228.359375 261.570312 228.566406 C 260.445312 228.773438 259.320312 228.769531 258.191406 228.558594 L 222.160156 217.019531 L 222.160156 234.121094 C 222.148438 234.605469 222.089844 235.085938 221.984375 235.5625 C 221.882812 236.035156 221.734375 236.496094 221.542969 236.941406 C 221.351562 237.386719 221.121094 237.808594 220.847656 238.210938 C 220.578125 238.613281 220.269531 238.984375 219.925781 239.328125 C 219.582031 239.671875 219.210938 239.980469 218.808594 240.253906 C 218.40625 240.523438 217.984375 240.757812 217.535156 240.949219 C 217.089844 241.136719 216.632812 241.285156 216.15625 241.390625 C 215.683594 241.492188 215.203125 241.550781 214.71875 241.5625 L 111.5625 241.5625 C 111.070312 241.578125 110.585938 241.542969 110.101562 241.453125 C 109.617188 241.367188 109.148438 241.234375 108.691406 241.050781 C 108.234375 240.871094 107.800781 240.644531 107.390625 240.371094 C 106.980469 240.101562 106.605469 239.789062 106.257812 239.441406 C 105.910156 239.09375 105.605469 238.714844 105.335938 238.300781 C 105.066406 237.890625 104.84375 237.457031 104.664062 236.996094 C 104.484375 236.539062 104.351562 236.070312 104.269531 235.585938 C 104.1875 235.101562 104.152344 234.613281 104.171875 234.121094 L 104.171875 136.957031 C 104.152344 136.464844 104.183594 135.976562 104.265625 135.492188 C 104.347656 135.007812 104.480469 134.535156 104.660156 134.078125 C 104.835938 133.621094 105.0625 133.183594 105.328125 132.773438 C 105.597656 132.359375 105.90625 131.980469 106.253906 131.632812 C 106.597656 131.28125 106.976562 130.972656 107.386719 130.703125 C 107.796875 130.429688 108.230469 130.203125 108.6875 130.023438 C 109.144531 129.839844 109.617188 129.707031 110.101562 129.621094 C 110.582031 129.535156 111.070312 129.5 111.5625 129.515625 L 214.6875 129.515625 C 215.171875 129.523438 215.652344 129.582031 216.125 129.683594 C 216.601562 129.785156 217.0625 129.933594 217.507812 130.125 C 217.957031 130.3125 218.378906 130.546875 218.78125 130.816406 C 219.183594 131.089844 219.558594 131.398438 219.902344 131.742188 C 220.246094 132.082031 220.554688 132.457031 220.824219 132.859375 C 221.097656 133.261719 221.328125 133.6875 221.519531 134.132812 C 221.710938 134.578125 221.855469 135.039062 221.957031 135.515625 C 222.0625 135.992188 222.117188 136.472656 222.128906 136.957031 L 222.128906 154.042969 L 258.160156 142.621094 C 259.28125 142.304688 260.414062 142.25 261.558594 142.457031 C 262.707031 142.660156 263.75 143.109375 264.6875 143.792969 C 265.554688 144.535156 266.234375 145.421875 266.738281 146.441406 C 267.238281 147.464844 267.519531 148.546875 267.578125 149.683594 Z M 267.609375 221.507812 " fill-opacity="1" fill-rule="nonzero"/></g></svg>