<svg xmlns="http://www.w3.org/2000/svg" xmlns:xlink="http://www.w3.org/1999/xlink" width="500" zoomAndPan="magnify" viewBox="0 0 375 374.999991" height="500" preserveAspectRatio="xMidYMid meet" version="1.0"><defs><clipPath id="a40569e7fa"><path d="M 0 37.5 L 375 37.5 L 375 332 L 0 332 Z M 0 37.5 " clip-rule="nonzero"/></clipPath><clipPath id="560627754f"><path d="M 193 342 L 363 342 L 363 351.75 L 193 351.75 Z M 193 342 " clip-rule="nonzero"/></clipPath></defs><path fill="#ffffff" d="M 340.601562 153.546875 C 337.402344 154.1875 334.210938 154.800781 331.023438 155.417969 C 330.773438 155.464844 306.699219 159.738281 258.792969 168.253906 C 237.554688 171.785156 216.332031 175.425781 195.144531 179.246094 C 193.878906 179.476562 192.648438 179.789062 191.5 180.214844 L 191.542969 180.199219 C 183.472656 181.632812 175.058594 183.128906 166.285156 184.6875 L 166.335938 184.691406 C 165.996094 184.65625 165.640625 184.640625 165.28125 184.648438 C 154.210938 186.851562 143.222656 188.820312 132.234375 191.351562 C 128.726562 192.160156 125.886719 195.984375 126.167969 203.53125 C 126.21875 204.875 126.367188 206.050781 126.605469 207.0625 C 126.59375 207.007812 126.582031 206.949219 126.5625 206.886719 C 126.628906 224.5 132.191406 239.050781 143.25 250.535156 L 143.238281 250.523438 C 145.542969 253.03125 149.042969 253.949219 153 253.386719 C 166.195312 251.5 179.382812 249.5625 192.554688 247.511719 L 192.558594 247.511719 L 257.515625 238.167969 L 257.402344 238.171875 C 257.828125 238.160156 258.25 238.140625 258.671875 238.109375 C 289.894531 233.449219 320.386719 229.039062 350.8125 224.230469 C 356.902344 223.269531 362.757812 220.25 361.980469 212.816406 C 361.984375 212.867188 361.988281 212.917969 361.996094 212.96875 C 365.832031 197.445312 360.515625 178.855469 346.035156 157.203125 C 346.054688 157.253906 346.074219 157.308594 346.09375 157.363281 C 345.042969 154.386719 342.96875 153.5 340.601562 153.550781 Z M 346.828125 162.828125 C 346.828125 162.714844 346.828125 162.601562 346.828125 162.492188 C 346.828125 162.601562 346.828125 162.714844 346.828125 162.828125 Z M 346.828125 162.472656 C 346.828125 162.367188 346.824219 162.265625 346.824219 162.164062 C 346.828125 162.265625 346.828125 162.367188 346.828125 162.472656 Z M 346.824219 162.140625 C 346.820312 162.039062 346.820312 161.941406 346.820312 161.84375 C 346.820312 161.941406 346.824219 162.042969 346.824219 162.140625 Z M 346.816406 161.800781 C 346.8125 161.699219 346.808594 161.601562 346.804688 161.503906 C 346.804688 161.601562 346.8125 161.699219 346.816406 161.800781 Z M 346.804688 161.488281 C 346.800781 161.386719 346.792969 161.285156 346.785156 161.1875 C 346.792969 161.285156 346.796875 161.386719 346.804688 161.488281 Z M 346.785156 161.179688 C 346.78125 161.078125 346.773438 160.980469 346.769531 160.878906 C 346.773438 160.980469 346.78125 161.078125 346.785156 161.179688 Z M 346.769531 160.871094 C 346.761719 160.777344 346.75 160.675781 346.746094 160.585938 C 346.753906 160.679688 346.761719 160.777344 346.769531 160.871094 Z M 346.742188 160.574219 C 346.734375 160.480469 346.726562 160.386719 346.71875 160.296875 C 346.726562 160.386719 346.734375 160.480469 346.742188 160.574219 Z M 346.714844 160.28125 C 346.703125 160.1875 346.695312 160.097656 346.683594 160.007812 C 346.691406 160.097656 346.703125 160.1875 346.714844 160.28125 Z M 346.683594 160 C 346.671875 159.910156 346.660156 159.824219 346.648438 159.738281 C 346.660156 159.824219 346.667969 159.910156 346.683594 160 Z M 346.648438 159.722656 C 346.632812 159.632812 346.621094 159.546875 346.609375 159.460938 C 346.621094 159.546875 346.632812 159.632812 346.648438 159.722656 Z M 346.609375 159.457031 C 346.597656 159.371094 346.582031 159.285156 346.566406 159.203125 C 346.582031 159.285156 346.597656 159.371094 346.609375 159.457031 Z M 346.566406 159.191406 C 346.546875 159.109375 346.535156 159.023438 346.519531 158.945312 C 346.535156 159.023438 346.550781 159.109375 346.566406 159.191406 Z M 346.519531 158.9375 C 346.503906 158.859375 346.488281 158.78125 346.472656 158.699219 C 346.488281 158.78125 346.503906 158.859375 346.519531 158.9375 Z M 346.46875 158.695312 C 346.453125 158.617188 346.4375 158.542969 346.417969 158.46875 C 346.433594 158.542969 346.453125 158.617188 346.46875 158.695312 Z M 346.414062 158.449219 C 346.398438 158.375 346.378906 158.300781 346.359375 158.230469 C 346.378906 158.304688 346.394531 158.375 346.414062 158.449219 Z M 346.359375 158.214844 C 346.339844 158.140625 346.320312 158.070312 346.300781 158 C 346.320312 158.070312 346.339844 158.144531 346.359375 158.214844 Z M 346.296875 157.988281 C 346.277344 157.917969 346.257812 157.847656 346.238281 157.78125 C 346.257812 157.847656 346.277344 157.917969 346.296875 157.988281 Z M 346.234375 157.769531 C 346.210938 157.699219 346.191406 157.632812 346.171875 157.566406 C 346.191406 157.632812 346.214844 157.699219 346.234375 157.769531 Z M 346.167969 157.558594 C 346.144531 157.492188 346.121094 157.421875 346.097656 157.355469 C 346.121094 157.421875 346.144531 157.492188 346.167969 157.558594 Z M 257.046875 238.171875 C 256.972656 238.171875 256.902344 238.175781 256.828125 238.175781 C 256.902344 238.175781 256.972656 238.175781 257.046875 238.171875 Z M 256.230469 238.171875 C 256.152344 238.171875 256.066406 238.167969 255.988281 238.164062 C 256.066406 238.167969 256.152344 238.167969 256.230469 238.171875 Z M 253.820312 237.996094 C 253.769531 237.988281 253.714844 237.980469 253.664062 237.972656 C 253.714844 237.980469 253.769531 237.988281 253.820312 237.996094 Z M 253.574219 237.960938 C 253.523438 237.957031 253.472656 237.945312 253.421875 237.9375 C 253.472656 237.945312 253.523438 237.953125 253.574219 237.960938 Z M 253.3125 237.921875 C 253.265625 237.910156 253.21875 237.90625 253.171875 237.894531 C 253.21875 237.90625 253.265625 237.910156 253.3125 237.921875 Z M 253.070312 237.875 C 252.984375 237.859375 252.90625 237.84375 252.824219 237.828125 Z M 253.066406 237.875 C 252.984375 237.859375 252.898438 237.839844 252.820312 237.820312 C 252.902344 237.839844 252.984375 237.855469 253.066406 237.875 Z M 252.777344 237.8125 C 252.710938 237.796875 252.644531 237.785156 252.582031 237.769531 C 252.644531 237.785156 252.710938 237.800781 252.777344 237.8125 Z M 252.480469 237.738281 C 252.433594 237.726562 252.386719 237.714844 252.335938 237.699219 C 252.386719 237.714844 252.433594 237.726562 252.480469 237.738281 Z M 252.238281 237.675781 C 252.191406 237.664062 252.144531 237.648438 252.097656 237.632812 C 252.144531 237.648438 252.191406 237.660156 252.238281 237.675781 Z M 251.996094 237.605469 C 251.953125 237.59375 251.910156 237.578125 251.863281 237.5625 C 251.910156 237.578125 251.953125 237.59375 251.996094 237.605469 Z M 251.757812 237.53125 C 251.710938 237.515625 251.671875 237.5 251.628906 237.488281 C 251.671875 237.503906 251.714844 237.515625 251.757812 237.53125 Z M 251.523438 237.449219 C 251.484375 237.433594 251.4375 237.421875 251.398438 237.40625 C 251.4375 237.421875 251.484375 237.4375 251.523438 237.449219 Z M 251.289062 237.363281 C 251.246094 237.347656 251.207031 237.332031 251.160156 237.316406 C 251.203125 237.332031 251.246094 237.347656 251.289062 237.363281 Z M 251.0625 237.277344 C 251.019531 237.261719 250.976562 237.242188 250.9375 237.222656 C 250.976562 237.242188 251.023438 237.257812 251.0625 237.277344 Z M 250.835938 237.183594 C 250.792969 237.164062 250.753906 237.148438 250.710938 237.128906 C 250.753906 237.148438 250.792969 237.167969 250.835938 237.183594 Z M 250.613281 237.085938 C 250.570312 237.066406 250.53125 237.046875 250.488281 237.023438 C 250.53125 237.042969 250.570312 237.066406 250.613281 237.085938 Z M 250.390625 236.980469 C 250.347656 236.957031 250.308594 236.9375 250.261719 236.917969 C 250.304688 236.9375 250.34375 236.957031 250.390625 236.980469 Z M 250.171875 236.867188 C 250.128906 236.847656 250.085938 236.820312 250.039062 236.796875 C 250.085938 236.824219 250.128906 236.847656 250.171875 236.867188 Z M 249.960938 236.75 C 249.820312 236.671875 249.679688 236.589844 249.542969 236.503906 C 249.679688 236.589844 249.820312 236.671875 249.960938 236.75 Z M 249.480469 236.460938 C 249.433594 236.429688 249.386719 236.402344 249.339844 236.371094 C 249.390625 236.402344 249.433594 236.433594 249.480469 236.460938 Z M 249.265625 236.316406 C 249.222656 236.285156 249.183594 236.257812 249.140625 236.230469 C 249.183594 236.257812 249.222656 236.285156 249.265625 236.316406 Z M 249.058594 236.167969 C 249.019531 236.140625 248.980469 236.113281 248.945312 236.082031 C 248.980469 236.113281 249.019531 236.140625 249.058594 236.167969 Z M 248.863281 236.019531 C 248.824219 235.992188 248.789062 235.960938 248.75 235.929688 C 248.785156 235.960938 248.824219 235.992188 248.863281 236.019531 Z M 248.667969 235.863281 C 248.632812 235.835938 248.597656 235.804688 248.5625 235.773438 C 248.597656 235.804688 248.632812 235.835938 248.667969 235.863281 Z M 248.484375 235.707031 C 248.449219 235.671875 248.410156 235.640625 248.375 235.605469 C 248.410156 235.640625 248.445312 235.671875 248.484375 235.707031 Z M 248.300781 235.535156 C 248.265625 235.503906 248.230469 235.46875 248.199219 235.4375 C 248.230469 235.472656 248.265625 235.503906 248.300781 235.535156 Z M 248.117188 235.359375 C 248.085938 235.328125 248.054688 235.292969 248.023438 235.261719 C 248.054688 235.292969 248.085938 235.328125 248.117188 235.359375 Z M 247.941406 235.179688 C 247.910156 235.144531 247.878906 235.109375 247.84375 235.070312 C 247.875 235.105469 247.90625 235.144531 247.941406 235.179688 Z M 247.773438 234.992188 C 247.742188 234.953125 247.710938 234.914062 247.675781 234.875 C 247.707031 234.914062 247.738281 234.953125 247.773438 234.992188 Z M 247.609375 234.792969 C 247.574219 234.753906 247.542969 234.707031 247.507812 234.667969 C 247.542969 234.707031 247.574219 234.753906 247.609375 234.792969 Z M 247.449219 234.59375 C 247.414062 234.546875 247.378906 234.496094 247.34375 234.445312 C 247.378906 234.496094 247.414062 234.546875 247.449219 234.59375 Z M 247.292969 234.378906 C 247.25 234.320312 247.207031 234.257812 247.164062 234.199219 C 247.207031 234.257812 247.246094 234.320312 247.292969 234.378906 Z M 247.136719 234.15625 C 247.089844 234.085938 247.039062 234.011719 246.992188 233.9375 C 247.039062 234.011719 247.089844 234.085938 247.136719 234.15625 Z M 246.945312 233.859375 C 246.914062 233.808594 246.886719 233.761719 246.851562 233.710938 C 246.882812 233.761719 246.914062 233.8125 246.945312 233.859375 Z M 246.792969 233.601562 C 246.765625 233.558594 246.742188 233.511719 246.714844 233.46875 C 246.742188 233.511719 246.765625 233.558594 246.792969 233.601562 Z M 246.660156 233.359375 C 246.632812 233.3125 246.609375 233.265625 246.585938 233.21875 C 246.613281 233.265625 246.636719 233.3125 246.660156 233.359375 Z M 246.53125 233.109375 C 246.507812 233.058594 246.484375 233.011719 246.460938 232.960938 C 246.484375 233.011719 246.507812 233.0625 246.53125 233.109375 Z M 246.410156 232.847656 C 246.386719 232.796875 246.363281 232.746094 246.339844 232.695312 C 246.363281 232.746094 246.386719 232.796875 246.410156 232.847656 Z M 246.289062 232.574219 C 246.265625 232.523438 246.246094 232.476562 246.226562 232.425781 C 246.246094 232.476562 246.269531 232.527344 246.289062 232.574219 Z M 246.171875 232.296875 C 246.152344 232.246094 246.136719 232.195312 246.117188 232.144531 C 246.136719 232.195312 246.152344 232.246094 246.171875 232.296875 Z M 246.070312 232.011719 C 246.050781 231.960938 246.03125 231.90625 246.011719 231.851562 C 246.03125 231.90625 246.050781 231.960938 246.070312 232.011719 Z M 245.964844 231.71875 C 245.949219 231.664062 245.933594 231.605469 245.914062 231.550781 C 245.929688 231.605469 245.949219 231.660156 245.964844 231.71875 Z M 245.875 231.417969 C 245.855469 231.359375 245.839844 231.296875 245.824219 231.238281 C 245.839844 231.296875 245.859375 231.359375 245.875 231.417969 Z M 245.785156 231.109375 C 245.769531 231.042969 245.753906 230.980469 245.734375 230.914062 C 245.75 230.976562 245.765625 231.042969 245.785156 231.109375 Z M 245.703125 230.789062 C 245.683594 230.710938 245.664062 230.632812 245.648438 230.550781 C 245.667969 230.632812 245.683594 230.710938 245.703125 230.789062 Z M 245.625 230.464844 C 245.601562 230.355469 245.578125 230.238281 245.558594 230.125 C 245.578125 230.238281 245.601562 230.355469 245.625 230.464844 Z M 362.183594 212.496094 C 362.199219 212.613281 362.210938 212.730469 362.222656 212.847656 C 362.210938 212.730469 362.199219 212.613281 362.183594 212.496094 Z M 184.730469 191.445312 C 184.714844 191.335938 184.703125 191.226562 184.691406 191.117188 C 184.703125 191.226562 184.714844 191.335938 184.730469 191.445312 Z M 184.679688 191.011719 C 184.675781 190.9375 184.667969 190.859375 184.664062 190.789062 C 184.667969 190.863281 184.675781 190.9375 184.679688 191.011719 Z M 184.652344 190.679688 C 184.648438 190.605469 184.644531 190.535156 184.640625 190.460938 C 184.644531 190.535156 184.648438 190.605469 184.652344 190.679688 Z M 184.632812 190.351562 C 184.628906 190.261719 184.625 190.164062 184.621094 190.074219 C 184.625 190.164062 184.628906 190.257812 184.632812 190.351562 Z M 184.621094 190.035156 C 184.617188 189.9375 184.617188 189.84375 184.617188 189.75 C 184.617188 189.84375 184.621094 189.9375 184.621094 190.035156 Z M 184.617188 189.640625 C 184.617188 189.574219 184.617188 189.507812 184.621094 189.441406 C 184.621094 189.507812 184.617188 189.574219 184.617188 189.640625 Z M 184.621094 189.339844 C 184.625 189.273438 184.625 189.207031 184.628906 189.136719 C 184.625 189.203125 184.621094 189.269531 184.621094 189.339844 Z M 184.632812 189.035156 C 184.640625 188.941406 184.648438 188.847656 184.652344 188.753906 L 184.652344 188.75 C 184.660156 188.660156 184.667969 188.5625 184.679688 188.472656 C 184.667969 188.5625 184.660156 188.65625 184.652344 188.75 Z M 184.667969 188.664062 C 184.675781 188.601562 184.683594 188.539062 184.691406 188.472656 C 184.679688 188.539062 184.675781 188.601562 184.667969 188.664062 Z M 184.703125 188.378906 C 184.714844 188.320312 184.722656 188.257812 184.730469 188.199219 C 184.722656 188.257812 184.714844 188.320312 184.703125 188.378906 Z M 184.75 188.097656 C 184.761719 188.023438 184.777344 187.945312 184.789062 187.867188 C 184.773438 187.945312 184.761719 188.019531 184.75 188.097656 Z M 184.796875 187.835938 C 184.8125 187.75 184.832031 187.664062 184.851562 187.578125 C 184.832031 187.664062 184.8125 187.75 184.796875 187.835938 Z M 184.867188 187.503906 C 184.886719 187.4375 184.898438 187.378906 184.914062 187.316406 C 184.898438 187.378906 184.882812 187.441406 184.867188 187.503906 Z M 184.9375 187.230469 C 184.953125 187.175781 184.96875 187.117188 184.984375 187.058594 C 184.96875 187.117188 184.953125 187.175781 184.9375 187.230469 Z M 185.007812 186.976562 C 185.03125 186.90625 185.054688 186.832031 185.074219 186.761719 C 185.054688 186.832031 185.03125 186.902344 185.007812 186.976562 Z M 185.085938 186.734375 C 185.109375 186.652344 185.140625 186.574219 185.167969 186.496094 C 185.140625 186.574219 185.109375 186.652344 185.085938 186.734375 Z M 185.191406 186.421875 C 185.210938 186.367188 185.234375 186.3125 185.253906 186.257812 C 185.230469 186.3125 185.210938 186.367188 185.191406 186.421875 Z M 185.292969 186.171875 C 185.3125 186.125 185.332031 186.070312 185.351562 186.023438 C 185.332031 186.070312 185.3125 186.125 185.292969 186.171875 Z M 185.386719 185.941406 C 185.414062 185.875 185.445312 185.8125 185.476562 185.746094 C 185.445312 185.808594 185.414062 185.875 185.386719 185.941406 Z M 185.488281 185.714844 C 185.523438 185.644531 185.558594 185.570312 185.597656 185.5 C 185.558594 185.574219 185.523438 185.644531 185.488281 185.714844 Z M 185.628906 185.4375 C 185.652344 185.386719 185.683594 185.335938 185.707031 185.285156 C 185.679688 185.335938 185.652344 185.386719 185.628906 185.4375 Z M 185.753906 185.203125 C 185.777344 185.15625 185.804688 185.113281 185.832031 185.066406 C 185.804688 185.113281 185.777344 185.15625 185.753906 185.203125 Z M 185.871094 184.996094 C 185.90625 184.933594 185.941406 184.878906 185.980469 184.820312 C 185.941406 184.878906 185.90625 184.9375 185.871094 184.996094 Z M 186 184.789062 C 186.042969 184.722656 186.085938 184.65625 186.128906 184.589844 C 186.085938 184.65625 186.042969 184.71875 186 184.789062 Z M 186.175781 184.527344 C 186.207031 184.484375 186.234375 184.4375 186.265625 184.398438 C 186.234375 184.441406 186.203125 184.488281 186.175781 184.527344 Z M 186.324219 184.320312 C 186.355469 184.28125 186.382812 184.238281 186.417969 184.199219 C 186.382812 184.238281 186.351562 184.28125 186.324219 184.320312 Z M 186.46875 184.128906 C 186.507812 184.078125 186.546875 184.027344 186.589844 183.976562 C 186.546875 184.027344 186.503906 184.078125 186.46875 184.128906 Z M 186.617188 183.941406 C 186.667969 183.882812 186.71875 183.824219 186.769531 183.765625 C 186.71875 183.824219 186.667969 183.882812 186.617188 183.941406 Z M 186.816406 183.707031 C 186.855469 183.667969 186.894531 183.625 186.929688 183.582031 C 186.894531 183.621094 186.855469 183.664062 186.816406 183.707031 Z M 186.984375 183.523438 C 187.023438 183.484375 187.058594 183.445312 187.097656 183.40625 C 187.058594 183.445312 187.019531 183.484375 186.984375 183.523438 Z M 187.152344 183.347656 C 187.203125 183.296875 187.253906 183.246094 187.304688 183.195312 C 187.253906 183.246094 187.203125 183.296875 187.152344 183.347656 Z M 187.320312 183.179688 C 187.375 183.125 187.433594 183.070312 187.492188 183.015625 C 187.433594 183.070312 187.375 183.125 187.320312 183.179688 Z M 187.546875 182.96875 C 187.589844 182.929688 187.628906 182.894531 187.671875 182.855469 C 187.628906 182.890625 187.589844 182.929688 187.546875 182.96875 Z M 187.734375 182.800781 C 187.78125 182.765625 187.820312 182.730469 187.867188 182.691406 C 187.820312 182.726562 187.777344 182.765625 187.734375 182.800781 Z M 187.917969 182.648438 C 187.972656 182.601562 188.027344 182.5625 188.082031 182.515625 C 188.027344 182.558594 187.972656 182.601562 187.917969 182.648438 Z M 188.109375 182.496094 C 188.171875 182.445312 188.238281 182.394531 188.300781 182.347656 C 188.238281 182.394531 188.171875 182.445312 188.109375 182.496094 Z M 188.359375 182.308594 C 188.40625 182.273438 188.453125 182.238281 188.503906 182.203125 C 188.457031 182.238281 188.40625 182.273438 188.359375 182.308594 Z M 188.5625 182.15625 C 188.613281 182.125 188.660156 182.089844 188.707031 182.058594 C 188.660156 182.089844 188.613281 182.125 188.5625 182.15625 Z M 188.769531 182.015625 C 188.824219 181.976562 188.882812 181.941406 188.9375 181.90625 C 188.882812 181.941406 188.828125 181.980469 188.769531 182.015625 Z M 188.976562 181.882812 C 189.046875 181.835938 189.113281 181.796875 189.183594 181.75 C 189.113281 181.792969 189.042969 181.835938 188.976562 181.882812 Z M 189.242188 181.71875 C 189.296875 181.6875 189.347656 181.65625 189.402344 181.625 C 189.347656 181.65625 189.296875 181.6875 189.242188 181.71875 Z M 189.46875 181.585938 C 189.519531 181.558594 189.570312 181.527344 189.621094 181.5 C 189.570312 181.527344 189.519531 181.558594 189.46875 181.585938 Z M 189.695312 181.457031 C 189.753906 181.421875 189.808594 181.390625 189.867188 181.363281 C 189.808594 181.394531 189.753906 181.421875 189.695312 181.457031 Z M 189.914062 181.335938 C 189.988281 181.300781 190.0625 181.261719 190.136719 181.222656 C 190.0625 181.261719 189.988281 181.300781 189.914062 181.335938 Z M 190.199219 181.195312 C 190.257812 181.167969 190.316406 181.136719 190.371094 181.113281 C 190.316406 181.140625 190.257812 181.167969 190.199219 181.195312 Z M 190.4375 181.082031 C 190.492188 181.050781 190.554688 181.027344 190.609375 180.996094 C 190.550781 181.023438 190.492188 181.050781 190.4375 181.082031 Z M 190.675781 180.96875 C 190.746094 180.933594 190.824219 180.902344 190.898438 180.871094 C 190.820312 180.902344 190.746094 180.9375 190.675781 180.96875 Z M 190.90625 180.867188 C 190.988281 180.832031 191.070312 180.796875 191.152344 180.761719 C 191.070312 180.796875 190.984375 180.828125 190.90625 180.867188 Z M 191.203125 180.742188 C 191.265625 180.71875 191.328125 180.691406 191.390625 180.667969 C 191.328125 180.691406 191.265625 180.71875 191.203125 180.742188 Z M 191.46875 180.636719 C 191.527344 180.617188 191.582031 180.59375 191.640625 180.574219 Z M 166.769531 185.050781 C 166.804688 185.054688 166.839844 185.058594 166.875 185.066406 C 166.839844 185.058594 166.804688 185.050781 166.769531 185.050781 Z M 167.105469 185.109375 C 167.136719 185.117188 167.171875 185.121094 167.199219 185.128906 C 167.167969 185.121094 167.136719 185.117188 167.105469 185.109375 Z M 167.402344 185.179688 C 167.425781 185.1875 167.453125 185.191406 167.476562 185.203125 C 167.453125 185.195312 167.425781 185.1875 167.402344 185.179688 Z M 167.8125 185.304688 C 167.839844 185.316406 167.871094 185.324219 167.898438 185.339844 C 167.871094 185.328125 167.839844 185.316406 167.8125 185.304688 Z M 167.945312 185.355469 C 167.972656 185.367188 168.003906 185.375 168.035156 185.390625 C 168.003906 185.375 167.976562 185.367188 167.945312 185.355469 Z M 168.078125 185.40625 C 168.109375 185.421875 168.140625 185.4375 168.175781 185.449219 C 168.140625 185.4375 168.109375 185.421875 168.078125 185.40625 Z M 168.210938 185.464844 C 168.25 185.484375 168.296875 185.503906 168.335938 185.527344 C 168.296875 185.507812 168.253906 185.484375 168.210938 185.464844 Z M 168.382812 185.550781 C 168.414062 185.5625 168.4375 185.578125 168.464844 185.59375 C 168.4375 185.578125 168.414062 185.5625 168.382812 185.550781 Z M 168.511719 185.617188 C 168.539062 185.632812 168.566406 185.644531 168.59375 185.664062 C 168.566406 185.644531 168.539062 185.628906 168.511719 185.617188 Z M 168.640625 185.691406 C 168.667969 185.707031 168.691406 185.722656 168.71875 185.734375 C 168.691406 185.71875 168.667969 185.703125 168.640625 185.691406 Z M 169.128906 186.019531 C 169.152344 186.039062 169.175781 186.054688 169.199219 186.074219 C 169.175781 186.054688 169.152344 186.039062 169.128906 186.019531 Z M 169.25 186.117188 C 169.273438 186.140625 169.300781 186.15625 169.324219 186.179688 C 169.300781 186.15625 169.273438 186.136719 169.25 186.117188 Z M 169.359375 186.210938 C 169.398438 186.246094 169.4375 186.28125 169.472656 186.316406 C 169.4375 186.28125 169.398438 186.246094 169.359375 186.210938 Z M 169.472656 186.316406 C 169.507812 186.351562 169.542969 186.382812 169.578125 186.421875 C 169.542969 186.386719 169.507812 186.351562 169.472656 186.316406 Z M 169.617188 186.460938 C 169.640625 186.484375 169.664062 186.511719 169.6875 186.535156 C 169.664062 186.511719 169.640625 186.484375 169.617188 186.460938 Z M 169.726562 186.578125 C 169.746094 186.601562 169.769531 186.625 169.789062 186.652344 C 169.765625 186.625 169.742188 186.601562 169.726562 186.578125 Z M 170.035156 186.957031 C 170.054688 186.980469 170.074219 187.007812 170.09375 187.035156 C 170.074219 187.007812 170.054688 186.980469 170.035156 186.957031 Z M 170.132812 187.085938 C 170.152344 187.113281 170.171875 187.144531 170.195312 187.179688 C 170.171875 187.144531 170.152344 187.117188 170.132812 187.085938 Z M 170.226562 187.226562 C 170.253906 187.265625 170.277344 187.304688 170.304688 187.34375 C 170.277344 187.300781 170.253906 187.265625 170.226562 187.226562 Z M 170.425781 187.554688 C 170.449219 187.59375 170.476562 187.632812 170.496094 187.675781 C 170.476562 187.636719 170.453125 187.59375 170.425781 187.554688 Z M 170.523438 187.726562 C 170.542969 187.761719 170.558594 187.796875 170.578125 187.832031 C 170.558594 187.796875 170.539062 187.761719 170.523438 187.726562 Z M 170.609375 187.902344 C 170.628906 187.933594 170.644531 187.964844 170.660156 188 C 170.644531 187.96875 170.628906 187.933594 170.609375 187.902344 Z M 170.691406 188.070312 C 170.707031 188.105469 170.722656 188.136719 170.738281 188.171875 Z M 170.847656 188.429688 C 170.863281 188.46875 170.875 188.507812 170.890625 188.542969 C 170.875 188.507812 170.863281 188.46875 170.847656 188.429688 Z M 170.917969 188.609375 C 170.933594 188.648438 170.945312 188.691406 170.960938 188.730469 C 170.945312 188.691406 170.933594 188.652344 170.917969 188.609375 Z M 170.988281 188.808594 C 171.003906 188.847656 171.019531 188.894531 171.035156 188.9375 C 171.019531 188.894531 171.003906 188.851562 170.988281 188.808594 Z M 171.121094 189.207031 C 171.140625 189.273438 171.160156 189.34375 171.179688 189.414062 C 171.160156 189.34375 171.140625 189.273438 171.121094 189.207031 Z M 171.203125 189.496094 C 171.214844 189.542969 171.222656 189.585938 171.238281 189.632812 C 171.222656 189.585938 171.214844 189.542969 171.203125 189.496094 Z M 171.257812 189.71875 C 171.273438 189.765625 171.28125 189.8125 171.292969 189.855469 C 171.28125 189.808594 171.269531 189.765625 171.257812 189.71875 Z M 171.3125 189.9375 C 171.324219 189.988281 171.335938 190.035156 171.34375 190.082031 C 171.335938 190.035156 171.324219 189.988281 171.3125 189.9375 Z M 171.410156 190.417969 C 171.421875 190.464844 171.429688 190.507812 171.4375 190.550781 Z M 171.457031 190.667969 C 171.464844 190.71875 171.472656 190.769531 171.480469 190.820312 C 171.472656 190.769531 171.464844 190.71875 171.457031 190.667969 Z M 171.496094 190.90625 C 171.503906 190.964844 171.515625 191.023438 171.519531 191.082031 C 171.511719 191.023438 171.503906 190.960938 171.496094 190.90625 Z M 171.566406 191.429688 C 171.578125 191.519531 171.585938 191.609375 171.597656 191.695312 C 171.585938 191.609375 171.578125 191.519531 171.566406 191.429688 Z M 171.609375 191.804688 C 171.617188 191.863281 171.617188 191.914062 171.625 191.972656 C 171.617188 191.914062 171.617188 191.859375 171.609375 191.804688 Z M 171.632812 192.085938 C 171.640625 192.144531 171.644531 192.203125 171.648438 192.265625 C 171.644531 192.203125 171.636719 192.148438 171.632812 192.085938 Z M 171.691406 192.988281 C 171.695312 193.042969 171.695312 193.101562 171.699219 193.15625 C 171.695312 193.097656 171.695312 193.039062 171.691406 192.988281 Z M 171.703125 193.292969 C 171.703125 193.359375 171.703125 193.429688 171.707031 193.5 C 171.707031 193.429688 171.703125 193.363281 171.703125 193.292969 Z M 171.707031 193.597656 C 171.707031 193.679688 171.710938 193.761719 171.710938 193.84375 C 171.710938 193.761719 171.710938 193.679688 171.707031 193.597656 Z M 171.710938 193.925781 C 171.710938 194.03125 171.710938 194.144531 171.710938 194.253906 C 171.710938 194.144531 171.710938 194.03125 171.710938 193.925781 Z M 132.117188 212.085938 C 132.070312 212.097656 132.023438 212.101562 131.980469 212.109375 C 132.023438 212.101562 132.070312 212.097656 132.117188 212.085938 Z M 131.941406 212.117188 C 131.910156 212.117188 131.878906 212.125 131.84375 212.128906 C 131.878906 212.125 131.910156 212.117188 131.941406 212.117188 Z M 131.796875 212.132812 C 131.765625 212.136719 131.734375 212.140625 131.703125 212.144531 C 131.734375 212.140625 131.765625 212.136719 131.796875 212.132812 Z M 131.664062 212.148438 C 131.621094 212.148438 131.578125 212.152344 131.535156 212.15625 C 131.578125 212.152344 131.621094 212.148438 131.664062 212.148438 Z M 131.507812 212.15625 C 131.472656 212.160156 131.4375 212.160156 131.402344 212.160156 C 131.4375 212.160156 131.472656 212.15625 131.507812 212.15625 Z M 131.222656 212.160156 C 131.191406 212.160156 131.160156 212.15625 131.125 212.15625 C 131.15625 212.15625 131.1875 212.160156 131.222656 212.160156 Z M 131.097656 212.15625 C 131.054688 212.152344 131.011719 212.152344 130.96875 212.148438 C 131.007812 212.148438 131.054688 212.152344 131.097656 212.15625 Z M 130.941406 212.148438 C 130.910156 212.144531 130.875 212.140625 130.84375 212.136719 C 130.875 212.140625 130.910156 212.144531 130.941406 212.148438 Z M 130.675781 212.117188 C 130.644531 212.109375 130.617188 212.105469 130.582031 212.097656 C 130.617188 212.105469 130.644531 212.113281 130.675781 212.117188 Z M 130.550781 212.09375 C 130.511719 212.085938 130.46875 212.078125 130.429688 212.066406 C 130.472656 212.078125 130.511719 212.085938 130.550781 212.09375 Z M 130.410156 212.0625 C 130.378906 212.054688 130.34375 212.046875 130.3125 212.035156 C 130.34375 212.046875 130.375 212.050781 130.410156 212.0625 Z M 130.269531 212.027344 C 130.242188 212.019531 130.21875 212.011719 130.191406 212.003906 C 130.214844 212.011719 130.242188 212.019531 130.269531 212.027344 Z M 130.148438 211.992188 C 130.121094 211.980469 130.089844 211.972656 130.0625 211.960938 C 130.089844 211.972656 130.121094 211.980469 130.148438 211.992188 Z M 130.03125 211.953125 C 129.992188 211.941406 129.953125 211.925781 129.917969 211.910156 C 129.953125 211.929688 129.992188 211.941406 130.03125 211.953125 Z M 129.886719 211.898438 C 129.859375 211.886719 129.832031 211.878906 129.804688 211.863281 C 129.832031 211.878906 129.859375 211.886719 129.886719 211.898438 Z M 129.765625 211.84375 C 129.738281 211.832031 129.714844 211.820312 129.683594 211.808594 C 129.710938 211.824219 129.734375 211.835938 129.765625 211.84375 Z M 129.652344 211.792969 C 129.617188 211.777344 129.582031 211.757812 129.546875 211.742188 C 129.582031 211.757812 129.617188 211.777344 129.652344 211.792969 Z M 129.542969 211.738281 C 129.503906 211.71875 129.46875 211.695312 129.429688 211.671875 C 129.46875 211.695312 129.503906 211.714844 129.542969 211.738281 Z M 129.402344 211.65625 C 129.375 211.640625 129.347656 211.625 129.324219 211.609375 C 129.347656 211.625 129.375 211.640625 129.402344 211.65625 Z M 129.285156 211.585938 C 129.257812 211.570312 129.238281 211.554688 129.210938 211.535156 C 129.238281 211.554688 129.257812 211.570312 129.285156 211.585938 Z M 129.179688 211.515625 C 129.148438 211.492188 129.117188 211.472656 129.085938 211.453125 C 129.117188 211.472656 129.148438 211.496094 129.179688 211.515625 Z M 129.070312 211.4375 C 129.035156 211.414062 129.003906 211.386719 128.972656 211.363281 C 129.003906 211.386719 129.039062 211.414062 129.070312 211.4375 Z M 128.945312 211.339844 C 128.917969 211.320312 128.898438 211.300781 128.871094 211.28125 C 128.898438 211.296875 128.917969 211.320312 128.945312 211.339844 Z M 128.835938 211.25 C 128.8125 211.230469 128.789062 211.210938 128.761719 211.1875 C 128.789062 211.210938 128.8125 211.230469 128.835938 211.25 Z M 128.738281 211.164062 C 128.707031 211.132812 128.675781 211.101562 128.640625 211.074219 C 128.675781 211.105469 128.707031 211.132812 128.738281 211.164062 Z M 128.625 211.058594 C 128.597656 211.027344 128.570312 211 128.539062 210.972656 C 128.570312 211 128.597656 211.027344 128.625 211.058594 Z M 128.515625 210.941406 C 128.492188 210.917969 128.472656 210.894531 128.449219 210.871094 C 128.472656 210.894531 128.492188 210.921875 128.515625 210.941406 Z M 128.417969 210.835938 C 128.394531 210.808594 128.371094 210.785156 128.351562 210.757812 C 128.371094 210.785156 128.394531 210.808594 128.417969 210.835938 Z M 128.320312 210.726562 C 128.292969 210.691406 128.261719 210.652344 128.234375 210.617188 C 128.261719 210.65625 128.289062 210.691406 128.320312 210.726562 Z M 128.21875 210.601562 C 128.195312 210.566406 128.171875 210.535156 128.148438 210.503906 C 128.167969 210.535156 128.195312 210.566406 128.21875 210.601562 Z M 128.117188 210.464844 C 128.097656 210.4375 128.078125 210.410156 128.054688 210.378906 C 128.074219 210.410156 128.097656 210.4375 128.117188 210.464844 Z M 128.03125 210.34375 C 128.011719 210.3125 127.988281 210.277344 127.960938 210.242188 C 127.984375 210.277344 128.007812 210.308594 128.03125 210.34375 Z M 127.945312 210.222656 C 127.917969 210.179688 127.890625 210.136719 127.863281 210.089844 C 127.890625 210.136719 127.917969 210.175781 127.945312 210.222656 Z M 127.84375 210.0625 C 127.824219 210.027344 127.804688 209.996094 127.785156 209.960938 C 127.804688 209.996094 127.824219 210.03125 127.84375 210.0625 Z M 127.753906 209.910156 C 127.738281 209.882812 127.722656 209.851562 127.707031 209.824219 Z M 127.601562 209.628906 C 127.578125 209.582031 127.550781 209.535156 127.53125 209.488281 C 127.550781 209.535156 127.578125 209.582031 127.601562 209.628906 Z M 127.511719 209.445312 C 127.492188 209.40625 127.476562 209.371094 127.457031 209.332031 C 127.476562 209.371094 127.492188 209.40625 127.511719 209.445312 Z M 127.433594 209.289062 C 127.417969 209.25 127.398438 209.214844 127.382812 209.175781 C 127.398438 209.214844 127.414062 209.253906 127.433594 209.289062 Z M 127.363281 209.125 C 127.34375 209.082031 127.324219 209.035156 127.304688 208.992188 C 127.324219 209.035156 127.34375 209.082031 127.363281 209.125 Z M 127.296875 208.964844 C 127.273438 208.914062 127.25 208.855469 127.226562 208.796875 C 127.25 208.855469 127.273438 208.910156 127.296875 208.964844 Z M 127.089844 208.402344 C 127.070312 208.34375 127.050781 208.285156 127.035156 208.230469 C 127.054688 208.285156 127.074219 208.34375 127.089844 208.402344 Z M 127.027344 208.214844 C 127.007812 208.15625 126.988281 208.097656 126.972656 208.03125 C 126.988281 208.097656 127.007812 208.15625 127.027344 208.214844 Z M 126.960938 207.996094 C 126.949219 207.949219 126.933594 207.902344 126.921875 207.851562 C 126.933594 207.898438 126.949219 207.949219 126.960938 207.996094 Z M 126.902344 207.785156 C 126.886719 207.738281 126.875 207.691406 126.867188 207.644531 C 126.878906 207.691406 126.890625 207.738281 126.902344 207.785156 Z M 126.851562 207.59375 C 126.835938 207.527344 126.820312 207.460938 126.800781 207.394531 Z M 143.476562 251.046875 C 143.425781 250.988281 143.375 250.933594 143.324219 250.875 C 143.375 250.933594 143.425781 250.988281 143.476562 251.046875 Z M 143.320312 250.867188 C 143.269531 250.8125 143.222656 250.753906 143.171875 250.695312 C 143.21875 250.753906 143.269531 250.8125 143.320312 250.867188 Z M 143.164062 250.683594 C 143.117188 250.625 143.066406 250.5625 143.015625 250.503906 C 143.066406 250.5625 143.113281 250.625 143.164062 250.683594 Z M 143.015625 250.5 C 142.964844 250.441406 142.917969 250.375 142.871094 250.3125 C 142.917969 250.375 142.964844 250.4375 143.015625 250.5 Z M 142.863281 250.304688 C 142.816406 250.242188 142.773438 250.179688 142.726562 250.117188 C 142.773438 250.179688 142.820312 250.242188 142.863281 250.304688 Z M 142.722656 250.109375 C 142.675781 250.042969 142.628906 249.976562 142.585938 249.910156 C 142.628906 249.976562 142.675781 250.042969 142.722656 250.109375 Z M 142.585938 249.910156 C 142.539062 249.84375 142.496094 249.773438 142.453125 249.703125 C 142.496094 249.773438 142.539062 249.84375 142.585938 249.910156 Z M 142.449219 249.699219 C 142.402344 249.628906 142.363281 249.558594 142.320312 249.488281 C 142.363281 249.558594 142.40625 249.628906 142.449219 249.699219 Z M 142.320312 249.484375 C 142.277344 249.414062 142.234375 249.34375 142.195312 249.269531 C 142.234375 249.34375 142.277344 249.414062 142.320312 249.484375 Z M 142.195312 249.265625 C 142.152344 249.195312 142.113281 249.125 142.078125 249.050781 C 142.113281 249.125 142.15625 249.199219 142.195312 249.265625 Z M 142.070312 249.042969 C 142.03125 248.96875 141.996094 248.894531 141.957031 248.820312 C 141.996094 248.894531 142.03125 248.96875 142.070312 249.042969 Z M 141.953125 248.8125 C 141.914062 248.738281 141.878906 248.664062 141.84375 248.585938 C 141.878906 248.664062 141.917969 248.738281 141.953125 248.8125 Z M 141.839844 248.578125 C 141.804688 248.5 141.769531 248.425781 141.734375 248.34375 C 141.769531 248.425781 141.804688 248.5 141.839844 248.578125 Z M 141.730469 248.339844 C 141.695312 248.261719 141.660156 248.179688 141.628906 248.097656 C 141.660156 248.179688 141.695312 248.261719 141.730469 248.339844 Z M 141.628906 248.09375 C 141.597656 248.011719 141.5625 247.933594 141.53125 247.851562 C 141.5625 247.933594 141.59375 248.015625 141.628906 248.09375 Z M 141.53125 247.84375 C 141.5 247.761719 141.46875 247.675781 141.4375 247.589844 C 141.46875 247.675781 141.5 247.757812 141.53125 247.84375 Z M 141.433594 247.589844 C 141.40625 247.503906 141.375 247.417969 141.347656 247.332031 C 141.375 247.417969 141.402344 247.503906 141.433594 247.589844 Z M 141.34375 247.324219 C 141.3125 247.238281 141.289062 247.152344 141.261719 247.066406 C 141.285156 247.152344 141.3125 247.238281 141.34375 247.324219 Z M 141.257812 247.050781 C 141.230469 246.964844 141.207031 246.878906 141.179688 246.789062 C 141.207031 246.878906 141.230469 246.964844 141.257812 247.050781 Z M 141.179688 246.78125 C 141.152344 246.695312 141.128906 246.609375 141.105469 246.515625 C 141.125 246.605469 141.152344 246.695312 141.179688 246.78125 Z M 141.105469 246.507812 C 141.078125 246.417969 141.058594 246.324219 141.035156 246.230469 C 141.058594 246.324219 141.078125 246.417969 141.105469 246.507812 Z M 184.636719 189.53125 C 184.644531 189.4375 184.648438 189.34375 184.65625 189.25 Z M 171.628906 192.304688 L 171.617188 192.199219 Z M 171.597656 192.039062 L 171.597656 192.035156 C 171.589844 191.949219 171.578125 191.863281 171.566406 191.777344 L 171.554688 191.691406 Z M 171.277344 190.449219 L 171.257812 190.367188 Z M 171.21875 190.246094 L 171.21875 190.242188 C 171.199219 190.175781 171.175781 190.105469 171.15625 190.042969 L 171.132812 189.972656 Z M 170.609375 188.859375 L 170.589844 188.828125 L 170.585938 188.824219 C 170.558594 188.773438 170.527344 188.722656 170.496094 188.675781 L 170.480469 188.652344 Z M 170.609375 188.859375 " fill-opacity="1" fill-rule="evenodd"/><g clip-path="url(#a40569e7fa)"><path fill="#ff6e40" d="M 262.558594 299.359375 C 267.761719 259.921875 267.765625 259.964844 303.859375 254.6875 C 322.46875 251.96875 341.027344 248.875 359.65625 246.316406 C 366.363281 245.394531 374.183594 244.695312 374.917969 254.425781 C 375.574219 263.152344 368.875 265.332031 361.746094 266.46875 C 343.175781 269.433594 324.691406 273.109375 306.03125 275.3125 C 290.96875 277.097656 283.394531 282.167969 285.945312 299.402344 C 287.441406 309.5625 295.566406 324.011719 281.722656 330.398438 C 268.898438 336.320312 260.585938 322.679688 253.753906 315.035156 C 232.640625 291.40625 208.671875 289.867188 179.46875 296.40625 C 138.820312 305.507812 104.050781 295.015625 80.179688 257.0625 C 61.941406 228.058594 42.75 199.457031 21.691406 172.460938 C -26.085938 111.242188 10.964844 59.480469 76.464844 49.511719 C 120.890625 42.75 166.148438 41.472656 211.019531 37.589844 C 218.34375 36.957031 224.027344 40.007812 229.519531 44.101562 C 259.710938 66.613281 289.925781 89.097656 320.109375 111.621094 C 324.835938 115.152344 331.507812 117.984375 329.351562 125.519531 C 327.308594 132.660156 320.359375 132.488281 314.441406 133.40625 C 261.335938 141.625 208.203125 149.671875 155.140625 158.136719 C 104.710938 166.1875 82.039062 215.722656 111.152344 253.84375 C 123.488281 269.996094 140.265625 276.980469 160.324219 276.6875 C 161.65625 276.664062 162.976562 276.242188 164.3125 276.105469 C 198.941406 272.511719 236.050781 254.644531 262.558594 299.359375 Z M 262.558594 299.359375 " fill-opacity="1" fill-rule="evenodd"/></g><g clip-path="url(#560627754f)"><path fill="#ff6e40" d="M 362.066406 347.074219 C 362.066406 347.230469 361.933594 347.382812 361.660156 347.539062 C 361.390625 347.691406 360.984375 347.84375 360.445312 347.996094 C 359.902344 348.148438 359.230469 348.296875 358.429688 348.445312 C 357.625 348.59375 356.691406 348.738281 355.632812 348.882812 C 354.574219 349.023438 353.390625 349.164062 352.085938 349.300781 C 350.78125 349.4375 349.359375 349.570312 347.824219 349.699219 C 346.285156 349.828125 344.636719 349.949219 342.882812 350.070312 C 341.125 350.191406 339.269531 350.304688 337.3125 350.414062 C 335.351562 350.523438 333.304688 350.625 331.164062 350.726562 C 329.023438 350.824219 326.804688 350.914062 324.5 351 C 322.199219 351.085938 319.828125 351.167969 317.386719 351.238281 C 314.945312 351.3125 312.445312 351.378906 309.886719 351.4375 C 307.332031 351.496094 304.726562 351.546875 302.078125 351.59375 C 299.429688 351.636719 296.746094 351.675781 294.03125 351.707031 C 291.316406 351.734375 288.582031 351.757812 285.828125 351.773438 C 283.070312 351.789062 280.308594 351.796875 277.542969 351.796875 C 274.773438 351.796875 272.011719 351.789062 269.257812 351.773438 C 266.503906 351.757812 263.765625 351.734375 261.050781 351.707031 C 258.335938 351.675781 255.65625 351.636719 253.003906 351.59375 C 250.355469 351.546875 247.753906 351.496094 245.195312 351.4375 C 242.636719 351.378906 240.136719 351.3125 237.695312 351.238281 C 235.253906 351.167969 232.882812 351.085938 230.582031 351 C 228.28125 350.914062 226.058594 350.824219 223.917969 350.726562 C 221.78125 350.625 219.730469 350.523438 217.773438 350.414062 C 215.816406 350.304688 213.957031 350.191406 212.203125 350.070312 C 210.445312 349.949219 208.800781 349.828125 207.261719 349.699219 C 205.722656 349.570312 204.300781 349.4375 202.996094 349.300781 C 201.691406 349.164062 200.507812 349.023438 199.449219 348.882812 C 198.390625 348.738281 197.460938 348.59375 196.65625 348.445312 C 195.851562 348.296875 195.179688 348.148438 194.640625 347.996094 C 194.101562 347.84375 193.695312 347.691406 193.421875 347.539062 C 193.152344 347.382812 193.015625 347.230469 193.015625 347.074219 C 193.015625 346.921875 193.152344 346.765625 193.421875 346.613281 C 193.695312 346.457031 194.101562 346.304688 194.640625 346.152344 C 195.179688 346.003906 195.851562 345.851562 196.65625 345.703125 C 197.460938 345.554688 198.390625 345.410156 199.449219 345.269531 C 200.507812 345.125 201.691406 344.984375 202.996094 344.847656 C 204.300781 344.710938 205.722656 344.582031 207.261719 344.453125 C 208.800781 344.324219 210.445312 344.199219 212.203125 344.078125 C 213.957031 343.960938 215.816406 343.84375 217.773438 343.734375 C 219.730469 343.625 221.78125 343.523438 223.917969 343.425781 C 226.058594 343.328125 228.28125 343.234375 230.582031 343.148438 C 232.882812 343.0625 235.253906 342.984375 237.695312 342.910156 C 240.136719 342.835938 242.636719 342.773438 245.195312 342.710938 C 247.753906 342.652344 250.355469 342.601562 253.003906 342.554688 C 255.65625 342.511719 258.335938 342.472656 261.050781 342.445312 C 263.765625 342.414062 266.503906 342.390625 269.257812 342.375 C 272.011719 342.359375 274.773438 342.351562 277.542969 342.351562 C 280.308594 342.351562 283.070312 342.359375 285.828125 342.375 C 288.582031 342.390625 291.316406 342.414062 294.03125 342.445312 C 296.746094 342.472656 299.429688 342.511719 302.078125 342.554688 C 304.726562 342.601562 307.332031 342.652344 309.886719 342.710938 C 312.445312 342.773438 314.945312 342.835938 317.386719 342.910156 C 319.828125 342.984375 322.199219 343.0625 324.5 343.148438 C 326.804688 343.234375 329.023438 343.328125 331.164062 343.425781 C 333.304688 343.523438 335.351562 343.625 337.3125 343.734375 C 339.269531 343.84375 341.125 343.960938 342.882812 344.078125 C 344.636719 344.199219 346.285156 344.324219 347.824219 344.453125 C 349.359375 344.582031 350.78125 344.710938 352.085938 344.847656 C 353.390625 344.984375 354.574219 345.125 355.632812 345.269531 C 356.691406 345.410156 357.625 345.554688 358.429688 345.703125 C 359.230469 345.851562 359.902344 346.003906 360.445312 346.152344 C 360.984375 346.304688 361.390625 346.457031 361.660156 346.613281 C 361.933594 346.765625 362.066406 346.921875 362.066406 347.074219 Z M 362.066406 347.074219 " fill-opacity="1" fill-rule="nonzero"/></g></svg>