<svg xmlns="http://www.w3.org/2000/svg" xmlns:xlink="http://www.w3.org/1999/xlink" width="500" zoomAndPan="magnify" viewBox="0 0 375 374.999991" height="500" preserveAspectRatio="xMidYMid meet" version="1.0"><defs><clipPath id="63d4cba332"><path d="M 244 354 L 250.640625 354 L 250.640625 366.175781 L 244 366.175781 Z M 244 354 " clip-rule="nonzero"/></clipPath><clipPath id="f4f9177996"><path d="M 139 7.207031 L 151 7.207031 L 151 33 L 139 33 Z M 139 7.207031 " clip-rule="nonzero"/></clipPath><clipPath id="1fc66ab768"><path d="M 217 180 L 293 180 L 293 364 L 217 364 Z M 217 180 " clip-rule="nonzero"/></clipPath><clipPath id="d763bd1f4a"><path d="M 135.597656 205.132812 L 219.539062 130.71875 L 370.847656 301.402344 L 286.90625 375.816406 Z M 135.597656 205.132812 " clip-rule="nonzero"/></clipPath><clipPath id="9e2030a2b1"><path d="M 135.597656 205.132812 L 219.539062 130.71875 L 370.847656 301.402344 L 286.90625 375.816406 Z M 135.597656 205.132812 " clip-rule="nonzero"/></clipPath><clipPath id="878b2ef31b"><path d="M 217 179 L 294 179 L 294 364 L 217 364 Z M 217 179 " clip-rule="nonzero"/></clipPath><clipPath id="941284e88c"><path d="M 135.597656 205.132812 L 219.539062 130.71875 L 370.847656 301.402344 L 286.90625 375.816406 Z M 135.597656 205.132812 " clip-rule="nonzero"/></clipPath><clipPath id="d2ad00c2d1"><path d="M 135.597656 205.132812 L 219.539062 130.71875 L 370.847656 301.402344 L 286.90625 375.816406 Z M 135.597656 205.132812 " clip-rule="nonzero"/></clipPath><clipPath id="02519cdfaa"><path d="M 283 350 L 292 350 L 292 354 L 283 354 Z M 283 350 " clip-rule="nonzero"/></clipPath><clipPath id="0fcf3d72a7"><path d="M 135.597656 205.132812 L 219.539062 130.71875 L 370.847656 301.402344 L 286.90625 375.816406 Z M 135.597656 205.132812 " clip-rule="nonzero"/></clipPath><clipPath id="3107fdf1a2"><path d="M 135.597656 205.132812 L 219.539062 130.71875 L 370.847656 301.402344 L 286.90625 375.816406 Z M 135.597656 205.132812 " clip-rule="nonzero"/></clipPath><clipPath id="be41f900d2"><path d="M 205 144 L 231 144 L 231 168 L 205 168 Z M 205 144 " clip-rule="nonzero"/></clipPath><clipPath id="8277124357"><path d="M 135.597656 205.132812 L 219.539062 130.71875 L 370.847656 301.402344 L 286.90625 375.816406 Z M 135.597656 205.132812 " clip-rule="nonzero"/></clipPath><clipPath id="4aa71617e5"><path d="M 135.597656 205.132812 L 219.539062 130.71875 L 370.847656 301.402344 L 286.90625 375.816406 Z M 135.597656 205.132812 " clip-rule="nonzero"/></clipPath><clipPath id="31f9081a69"><path d="M 204 143 L 232 143 L 232 169 L 204 169 Z M 204 143 " clip-rule="nonzero"/></clipPath><clipPath id="6199b44c1b"><path d="M 135.597656 205.132812 L 219.539062 130.71875 L 370.847656 301.402344 L 286.90625 375.816406 Z M 135.597656 205.132812 " clip-rule="nonzero"/></clipPath><clipPath id="3b11d4d0f0"><path d="M 135.597656 205.132812 L 219.539062 130.71875 L 370.847656 301.402344 L 286.90625 375.816406 Z M 135.597656 205.132812 " clip-rule="nonzero"/></clipPath><clipPath id="742dbbbf91"><path d="M 209 159 L 241 159 L 241 193 L 209 193 Z M 209 159 " clip-rule="nonzero"/></clipPath><clipPath id="473e783d3a"><path d="M 135.597656 205.132812 L 219.539062 130.71875 L 370.847656 301.402344 L 286.90625 375.816406 Z M 135.597656 205.132812 " clip-rule="nonzero"/></clipPath><clipPath id="55a15e3f35"><path d="M 135.597656 205.132812 L 219.539062 130.71875 L 370.847656 301.402344 L 286.90625 375.816406 Z M 135.597656 205.132812 " clip-rule="nonzero"/></clipPath><clipPath id="566436c49d"><path d="M 208 158 L 242 158 L 242 194 L 208 194 Z M 208 158 " clip-rule="nonzero"/></clipPath><clipPath id="40ddba39d0"><path d="M 135.597656 205.132812 L 219.539062 130.71875 L 370.847656 301.402344 L 286.90625 375.816406 Z M 135.597656 205.132812 " clip-rule="nonzero"/></clipPath><clipPath id="2105d5b9fa"><path d="M 135.597656 205.132812 L 219.539062 130.71875 L 370.847656 301.402344 L 286.90625 375.816406 Z M 135.597656 205.132812 " clip-rule="nonzero"/></clipPath><clipPath id="f417d0bf74"><path d="M 212 168 L 236 168 L 236 181 L 212 181 Z M 212 168 " clip-rule="nonzero"/></clipPath><clipPath id="eee3603c7d"><path d="M 135.597656 205.132812 L 219.539062 130.71875 L 370.847656 301.402344 L 286.90625 375.816406 Z M 135.597656 205.132812 " clip-rule="nonzero"/></clipPath><clipPath id="79893836a1"><path d="M 135.597656 205.132812 L 219.539062 130.71875 L 370.847656 301.402344 L 286.90625 375.816406 Z M 135.597656 205.132812 " clip-rule="nonzero"/></clipPath><clipPath id="b8a964d17c"><path d="M 212 168 L 237 168 L 237 181 L 212 181 Z M 212 168 " clip-rule="nonzero"/></clipPath><clipPath id="515ca70901"><path d="M 135.597656 205.132812 L 219.539062 130.71875 L 370.847656 301.402344 L 286.90625 375.816406 Z M 135.597656 205.132812 " clip-rule="nonzero"/></clipPath><clipPath id="a8bfd8e1bf"><path d="M 135.597656 205.132812 L 219.539062 130.71875 L 370.847656 301.402344 L 286.90625 375.816406 Z M 135.597656 205.132812 " clip-rule="nonzero"/></clipPath><clipPath id="0f4632ec42"><path d="M 270 328 L 293 328 L 293 338 L 270 338 Z M 270 328 " clip-rule="nonzero"/></clipPath><clipPath id="06386555cc"><path d="M 135.597656 205.132812 L 219.539062 130.71875 L 370.847656 301.402344 L 286.90625 375.816406 Z M 135.597656 205.132812 " clip-rule="nonzero"/></clipPath><clipPath id="a5a25a0791"><path d="M 135.597656 205.132812 L 219.539062 130.71875 L 370.847656 301.402344 L 286.90625 375.816406 Z M 135.597656 205.132812 " clip-rule="nonzero"/></clipPath></defs><path fill="#e56003" d="M 241.375 213.953125 L 48.433594 213.953125 L 48.433594 204.835938 L 241.375 204.835938 L 241.375 213.953125 " fill-opacity="1" fill-rule="nonzero"/><path fill="#e56003" d="M 181.878906 107.097656 C 181.878906 86.675781 165.328125 70.125 144.898438 70.125 C 124.476562 70.125 107.914062 86.675781 107.914062 107.097656 C 107.914062 127.515625 124.476562 144.078125 144.898438 144.078125 C 165.328125 144.078125 181.878906 127.515625 181.878906 107.097656 " fill-opacity="1" fill-rule="nonzero"/><path fill="#ffffff" d="M 120.269531 134.671875 L 52.355469 304.472656 C 49.234375 312.273438 37.566406 355.847656 42.367188 357.757812 L 43.816406 358.347656 C 48.617188 360.269531 70.21875 320.667969 73.339844 312.878906 L 140.949219 143.867188 C 133.042969 143.027344 125.886719 139.699219 120.269531 134.671875 " fill-opacity="1" fill-rule="nonzero"/><path fill="#ffffff" d="M 237.453125 304.472656 L 169.527344 134.671875 C 163.910156 139.699219 156.75 143.027344 148.84375 143.867188 L 216.457031 312.878906 C 219.574219 320.667969 241.191406 360.269531 245.980469 358.347656 L 247.425781 357.757812 C 252.230469 355.847656 240.574219 312.273438 237.453125 304.472656 " fill-opacity="1" fill-rule="nonzero"/><g clip-path="url(#63d4cba332)"><path fill="#e56003" d="M 248.53125 354.820312 C 248.425781 356.441406 248.085938 357.507812 247.425781 357.757812 L 245.980469 358.347656 C 245.613281 358.492188 245.136719 358.375 244.585938 358.058594 C 246.203125 361.175781 249.425781 366.714844 250.28125 366.386719 L 250.597656 366.253906 C 251.609375 365.847656 249.375 357.296875 248.53125 354.820312 " fill-opacity="1" fill-rule="nonzero"/></g><path fill="#ffffff" d="M 144.898438 70.125 C 149.910156 70.125 154.6875 71.125 159.039062 72.929688 L 159.039062 42.089844 C 159.039062 37.046875 154.960938 32.964844 149.921875 32.964844 L 139.886719 32.964844 C 134.847656 32.964844 130.753906 37.046875 130.753906 42.089844 L 130.753906 72.929688 C 135.121094 71.125 139.898438 70.125 144.898438 70.125 " fill-opacity="1" fill-rule="nonzero"/><path fill="#ffffff" d="M 163.105469 107.097656 C 163.105469 97.042969 154.960938 88.902344 144.898438 88.902344 C 134.847656 88.902344 126.6875 97.042969 126.6875 107.097656 C 126.6875 117.160156 134.847656 125.304688 144.898438 125.304688 C 154.960938 125.304688 163.105469 117.160156 163.105469 107.097656 " fill-opacity="1" fill-rule="nonzero"/><g clip-path="url(#f4f9177996)"><path fill="#e56003" d="M 139.886719 32.964844 L 149.921875 32.964844 C 150.015625 32.964844 150.109375 32.972656 150.210938 32.976562 L 150.210938 11.261719 C 150.210938 9.363281 148.671875 7.835938 146.777344 7.835938 L 143.015625 7.835938 C 141.121094 7.835938 139.59375 9.363281 139.59375 11.261719 L 139.59375 32.976562 C 139.6875 32.972656 139.792969 32.964844 139.886719 32.964844 " fill-opacity="1" fill-rule="nonzero"/></g><path fill="#ffffff" d="M 148.84375 223.730469 C 148.84375 224.453125 148.265625 225.046875 147.554688 225.046875 L 142.253906 225.046875 C 141.53125 225.046875 140.949219 224.453125 140.949219 223.730469 L 140.949219 195.0625 C 140.949219 194.335938 141.53125 193.746094 142.253906 193.746094 L 147.554688 193.746094 C 148.265625 193.746094 148.84375 194.335938 148.84375 195.0625 L 148.84375 223.730469 " fill-opacity="1" fill-rule="nonzero"/><g clip-path="url(#1fc66ab768)"><g clip-path="url(#d763bd1f4a)"><g clip-path="url(#9e2030a2b1)"><path fill="#e56003" d="M 217.601562 190 L 271.644531 338.628906 L 291.328125 363.148438 L 292.601562 330.644531 L 238.667969 180.144531 C 231.238281 183.855469 223.9375 187.425781 217.601562 190 Z M 217.601562 190 " fill-opacity="1" fill-rule="nonzero"/></g></g></g><g clip-path="url(#878b2ef31b)"><g clip-path="url(#941284e88c)"><g clip-path="url(#d2ad00c2d1)"><path stroke-linecap="round" transform="matrix(0.7075, -0.25026, 0.25026, 0.7075, -251.816377, -271.11669)" fill="none" stroke-linejoin="round" d="M 384.799953 787.868571 L 386.645693 998.597737 L 400.477493 1038.146983 L 416.520841 997.879975 L 415.643951 784.848858 C 404.661431 786.209213 393.903337 787.450189 384.799953 787.868571 Z M 384.799953 787.868571 " stroke="#000000" stroke-width="1.599" stroke-opacity="1" stroke-miterlimit="4"/></g></g></g><g clip-path="url(#02519cdfaa)"><g clip-path="url(#0fcf3d72a7)"><g clip-path="url(#3107fdf1a2)"><path stroke-linecap="round" transform="matrix(0.7075, -0.25026, 0.25026, 0.7075, -251.816377, -271.11669)" fill-opacity="1" fill="#e56003" fill-rule="nonzero" stroke-linejoin="round" d="M 395.501013 1022.699614 C 399.343531 1020.07802 402.078504 1020.32217 405.852133 1022.921351 " stroke="#000000" stroke-width="1" stroke-opacity="1" stroke-miterlimit="4"/></g></g></g><g clip-path="url(#be41f900d2)"><g clip-path="url(#8277124357)"><g clip-path="url(#4aa71617e5)"><path fill="#e56003" d="M 209.914062 167.957031 L 205.46875 155.382812 C 206.175781 146.386719 219.820312 140.207031 226.730469 147.132812 L 231 159.929688 C 226.753906 163.796875 219.441406 167.414062 209.917969 167.957031 Z M 209.914062 167.957031 " fill-opacity="1" fill-rule="nonzero"/></g></g></g><g clip-path="url(#31f9081a69)"><g clip-path="url(#6199b44c1b)"><g clip-path="url(#3b11d4d0f0)"><path stroke-linecap="round" transform="matrix(0.7075, -0.25026, 0.25026, 0.7075, -251.816377, -271.11669)" fill="none" stroke-linejoin="round" d="M 384.937691 756.761139 L 384.940831 738.989495 C 389.826585 728.002374 409.713499 726.302323 415.316776 738.073435 L 414.993871 756.046679 C 407.941293 759.018 397.147648 760.312655 384.942598 756.762875 Z M 384.937691 756.761139 " stroke="#000000" stroke-width="1.6" stroke-opacity="1" stroke-miterlimit="4"/></g></g></g><g clip-path="url(#742dbbbf91)"><g clip-path="url(#473e783d3a)"><g clip-path="url(#55a15e3f35)"><path fill="#e56003" d="M 218.597656 192.976562 L 209.46875 167.164062 C 215.480469 163.164062 221.0625 158.632812 231.054688 159.527344 L 240.644531 185.175781 C 230.964844 186.324219 224.492188 189.839844 218.597656 192.976562 Z M 218.597656 192.976562 " fill-opacity="1" fill-rule="nonzero"/></g></g></g><g clip-path="url(#566436c49d)"><g clip-path="url(#40ddba39d0)"><g clip-path="url(#2105d5b9fa)"><path stroke-linecap="round" transform="matrix(0.7075, -0.25026, 0.25026, 0.7075, -251.816377, -271.11669)" fill="none" stroke-linejoin="round" d="M 384.72861 792.050492 L 384.730637 755.567095 C 394.06029 753.213511 403.086219 750.001609 415.241359 755.565538 L 415.891287 792.047657 C 403.2209 789.189062 393.527436 790.729328 384.72861 792.050492 Z M 384.72861 792.050492 " stroke="#000000" stroke-width="1.806" stroke-opacity="1" stroke-miterlimit="4"/></g></g></g><g clip-path="url(#f417d0bf74)"><g clip-path="url(#eee3603c7d)"><g clip-path="url(#79893836a1)"><path fill="#e56003" d="M 212.894531 176.621094 C 219.101562 172.496094 225.273438 170.089844 233.96875 168.597656 L 235.796875 172.90625 C 228.09375 173.554688 221.164062 176.472656 214.277344 180.535156 Z M 212.894531 176.621094 " fill-opacity="1" fill-rule="nonzero"/></g></g></g><g clip-path="url(#b8a964d17c)"><g clip-path="url(#515ca70901)"><g clip-path="url(#a8bfd8e1bf)"><path stroke-linecap="round" transform="matrix(0.7075, -0.25026, 0.25026, 0.7075, -251.816377, -271.11669)" fill="none" stroke-linejoin="round" d="M 384.831884 768.969743 C 394.462444 766.545918 403.285086 766.265644 414.871607 768.254983 L 415.253592 774.479988 C 405.288435 771.871585 395.286405 772.457959 384.829764 774.501239 Z M 384.831884 768.969743 " stroke="#000000" stroke-width="0.79" stroke-opacity="1" stroke-miterlimit="4"/></g></g></g><g clip-path="url(#0f4632ec42)"><g clip-path="url(#06386555cc)"><g clip-path="url(#a5a25a0791)"><path stroke-linecap="round" transform="matrix(0.7075, -0.25026, 0.25026, 0.7075, 7.301474, 217.881022)" fill="none" stroke-linejoin="round" d="M 278.37689 267.381504 C 287.006527 261.075579 296.508194 258.407399 307.968999 267.198562 " stroke="#000000" stroke-width="1" stroke-opacity="1" stroke-miterlimit="4"/></g></g></g></svg>