<svg xmlns="http://www.w3.org/2000/svg" xmlns:xlink="http://www.w3.org/1999/xlink" width="500" zoomAndPan="magnify" viewBox="0 0 375 374.999991" height="500" preserveAspectRatio="xMidYMid meet" version="1.0"><defs><clipPath id="f15f1c06d1"><path d="M 14 8.296875 L 372 8.296875 L 372 366.796875 L 14 366.796875 Z M 14 8.296875 " clip-rule="nonzero"/></clipPath></defs><g clip-path="url(#f15f1c06d1)"><path fill="#ffffff" d="M 317.367188 113.644531 C 315.136719 142.625 303.988281 172.726562 286.152344 201.152344 L 272.21875 152.660156 L 273.890625 145.972656 L 282.25 118.101562 L 261.628906 128.136719 L 227.070312 119.773438 C 227.070312 110.855469 219.824219 103.054688 210.351562 103.054688 C 201.433594 103.054688 193.628906 110.300781 193.628906 119.773438 C 193.628906 128.691406 200.875 136.496094 210.351562 136.496094 C 216.480469 136.496094 221.496094 133.152344 224.285156 128.691406 L 261.070312 138.167969 L 281.695312 207.28125 C 252.152344 252.429688 206.449219 291.445312 156.839844 310.957031 C 78.808594 341.054688 18.613281 310.957031 16.382812 242.953125 C 15.824219 247.972656 15.265625 252.429688 14.710938 256.890625 C 8.578125 348.300781 83.265625 391.21875 181.921875 352.757812 C 280.578125 314.855469 365.300781 209.511719 371.433594 118.660156 C 377.5625 27.25 302.875 -15.667969 204.21875 22.789062 C 199.203125 25.019531 194.1875 26.691406 189.167969 29.480469 C 264.972656 6.625 320.152344 42.855469 315.695312 114.757812 Z M 286.152344 201.152344 C 287.269531 199.480469 287.824219 197.808594 288.941406 196.136719 L 292.84375 208.953125 C 292.84375 208.953125 293.398438 208.953125 293.398438 208.953125 C 301.203125 208.953125 307.332031 215.085938 307.332031 222.890625 C 307.332031 230.691406 301.203125 236.824219 293.398438 236.824219 C 285.597656 236.824219 279.464844 230.691406 279.464844 222.890625 C 279.464844 218.429688 281.136719 215.085938 284.480469 212.300781 Z M 284.480469 212.300781 Z M 284.480469 212.300781 Z M 284.480469 212.300781 Z M 284.480469 212.300781 Z M 284.480469 212.300781 Z M 284.480469 212.300781 Z M 284.480469 212.300781 Z M 284.480469 212.300781 Z M 284.480469 212.300781 Z M 284.480469 212.300781 Z M 284.480469 212.300781 Z M 284.480469 212.300781 Z M 284.480469 212.300781 Z M 284.480469 212.300781 Z M 284.480469 212.300781 Z M 284.480469 212.300781 Z M 284.480469 212.300781 Z M 284.480469 212.300781 Z M 284.480469 212.300781 Z M 284.480469 212.300781 Z M 284.480469 212.300781 Z M 284.480469 212.300781 Z M 284.480469 212.300781 L 287.824219 210.070312 L 285.597656 201.152344 L 284.480469 211.742188 Z M 284.480469 212.300781 Z M 292.285156 209.511719 Z M 291.726562 209.511719 C 291.726562 209.511719 291.726562 209.511719 291.167969 209.511719 C 291.167969 209.511719 291.167969 209.511719 291.726562 209.511719 Z M 291.167969 209.511719 C 291.167969 209.511719 291.167969 209.511719 290.613281 209.511719 C 290.613281 209.511719 290.613281 209.511719 291.167969 209.511719 Z M 290.613281 209.511719 C 290.613281 209.511719 290.613281 209.511719 290.054688 209.511719 C 290.054688 209.511719 290.054688 209.511719 290.613281 209.511719 Z M 290.054688 209.511719 C 290.054688 209.511719 290.054688 209.511719 289.496094 209.511719 C 289.496094 209.511719 289.496094 209.511719 290.054688 209.511719 Z M 289.496094 209.511719 C 289.496094 209.511719 289.496094 209.511719 288.941406 209.511719 Z M 288.941406 209.511719 C 288.941406 209.511719 288.941406 209.511719 288.382812 209.511719 C 288.382812 209.511719 288.382812 209.511719 288.941406 209.511719 Z M 288.382812 209.511719 C 288.382812 209.511719 288.382812 209.511719 287.824219 209.511719 C 287.824219 209.511719 287.824219 209.511719 288.382812 209.511719 Z M 287.824219 209.511719 C 287.824219 209.511719 287.824219 209.511719 287.269531 209.511719 C 287.269531 209.511719 287.269531 209.511719 287.824219 209.511719 Z M 287.269531 209.511719 C 287.269531 209.511719 287.269531 209.511719 286.710938 209.511719 C 286.710938 209.511719 286.710938 209.511719 287.269531 209.511719 Z M 286.710938 209.511719 C 286.710938 209.511719 286.710938 209.511719 286.152344 209.511719 Z M 286.710938 209.511719 " fill-opacity="1" fill-rule="evenodd"/></g><path fill="#ffffff" d="M 91.628906 280.855469 C 83.824219 271.9375 77.136719 261.90625 71.003906 251.875 L 34.21875 260.792969 C 42.019531 270.265625 50.382812 278.070312 59.859375 285.316406 L 92.1875 280.855469 Z M 227.070312 52.890625 C 230.414062 52.890625 232.644531 55.675781 232.644531 58.460938 C 232.644531 61.808594 229.859375 64.035156 227.070312 64.035156 C 223.726562 64.035156 221.496094 61.25 221.496094 58.460938 C 221.496094 55.117188 224.285156 52.890625 227.070312 52.890625 Z M 227.070312 44.527344 C 234.875 44.527344 241.003906 50.660156 241.003906 58.460938 C 241.003906 66.265625 234.875 72.398438 227.070312 72.398438 C 219.269531 72.398438 213.136719 66.265625 213.136719 58.460938 C 213.136719 57.347656 213.136719 56.234375 213.695312 55.675781 L 193.070312 47.871094 L 165.203125 52.890625 L 159.628906 66.265625 L 176.351562 100.824219 L 136.777344 115.316406 L 120.054688 75.183594 L 152.382812 65.152344 L 159.070312 50.101562 L 142.351562 25.578125 C 143.464844 25.578125 144.578125 25.578125 145.695312 25.578125 C 156.285156 25.578125 166.875 26.691406 177.464844 28.921875 C 181.921875 30.035156 186.941406 31.152344 191.398438 32.824219 C 196.414062 34.496094 201.433594 36.726562 206.449219 38.953125 C 204.777344 39.511719 203.105469 39.511719 201.433594 40.070312 L 216.480469 50.101562 C 219.269531 46.757812 223.167969 44.527344 227.628906 44.527344 Z M 66.546875 48.988281 C 68.777344 62.363281 71.5625 75.183594 74.347656 87.445312 L 109.464844 70.726562 L 93.859375 34.496094 C 84.382812 38.398438 74.90625 42.855469 66.546875 48.429688 Z M 4.121094 140.398438 L 29.757812 120.332031 C 28.644531 109.183594 28.085938 98.035156 28.085938 86.332031 C 16.382812 102.496094 8.578125 120.890625 4.121094 140.953125 Z M 36.449219 164.363281 C 33.660156 152.660156 31.988281 140.398438 30.316406 127.578125 L 2.449219 148.199219 C 1.332031 155.445312 0.777344 162.136719 0.777344 169.382812 C 0.777344 174.398438 0.777344 179.414062 1.332031 184.429688 L 35.890625 164.363281 Z M 44.25 159.90625 L 79.367188 139.839844 C 75.464844 127.019531 72.121094 113.085938 68.777344 99.707031 L 38.121094 122.5625 C 39.792969 135.382812 42.019531 148.199219 44.808594 160.464844 Z M 57.070312 203.9375 L 96.085938 187.773438 C 91.070312 174.953125 86.613281 161.578125 82.152344 148.199219 L 46.480469 167.707031 C 49.265625 180.527344 53.167969 192.234375 57.628906 203.9375 Z M 14.152344 229.019531 C 18.613281 238.496094 24.183594 247.972656 30.316406 255.773438 L 32.546875 255.21875 L 66.546875 245.183594 C 60.972656 235.710938 56.511719 225.675781 52.054688 215.085938 Z M 78.808594 249.644531 C 84.941406 260.234375 91.628906 270.265625 99.429688 279.742188 L 139.5625 274.167969 C 132.316406 263.019531 125.628906 251.875 119.496094 239.609375 L 78.25 249.085938 Z M 78.808594 249.644531 " fill-opacity="1" fill-rule="evenodd"/><path fill="#ff6e40" d="M 37.003906 114.199219 L 67.105469 90.789062 C 64.316406 78.527344 62.085938 66.265625 59.859375 54.003906 C 50.382812 60.691406 42.019531 69.054688 34.777344 77.972656 C 35.332031 90.234375 36.449219 102.496094 37.5625 114.757812 Z M 183.039062 214.527344 L 152.382812 199.480469 C 152.382812 192.234375 146.808594 186.660156 139.5625 186.660156 C 132.316406 186.660156 126.742188 192.234375 126.742188 199.480469 C 126.742188 206.726562 132.316406 212.300781 139.5625 212.300781 C 143.464844 212.300781 147.367188 210.628906 149.59375 207.839844 L 180.808594 223.445312 L 178.023438 216.757812 L 199.757812 273.054688 C 209.792969 266.363281 218.710938 259.117188 227.628906 250.757812 C 228.742188 249.644531 229.859375 248.527344 231.53125 247.414062 L 217.039062 201.152344 L 178.023438 216.757812 Z M 140.675781 167.152344 L 176.351562 176.070312 C 176.351562 185.546875 184.152344 193.347656 193.628906 193.347656 C 203.105469 193.347656 210.90625 185.546875 210.90625 176.070312 C 210.90625 166.59375 203.105469 158.789062 193.628906 158.789062 C 187.496094 158.789062 181.921875 162.136719 178.578125 167.152344 L 144.023438 158.789062 L 130.644531 124.789062 L 88.839844 143.183594 C 93.300781 157.117188 97.757812 170.496094 103.332031 183.316406 L 146.808594 164.363281 L 141.234375 167.152344 Z M 193.628906 184.988281 C 188.613281 184.988281 184.710938 181.085938 184.710938 176.070312 C 184.710938 171.054688 188.613281 167.152344 193.628906 167.152344 C 198.644531 167.152344 202.546875 171.054688 202.546875 176.070312 C 202.546875 181.085938 198.644531 184.988281 193.628906 184.988281 Z M 139.003906 193.90625 C 142.351562 193.90625 144.578125 196.691406 144.578125 199.480469 C 144.578125 202.824219 141.792969 205.054688 139.003906 205.054688 C 135.660156 205.054688 133.429688 202.265625 133.429688 199.480469 C 133.429688 196.136719 136.21875 193.90625 139.003906 193.90625 Z M 117.269531 307.609375 C 109.464844 300.921875 102.21875 293.675781 95.53125 286.429688 L 64.316406 289.21875 C 77.136719 298.136719 91.628906 304.265625 107.234375 308.726562 C 110.578125 308.726562 113.921875 308.167969 116.710938 307.609375 Z M 144.023438 281.972656 L 103.890625 285.875 C 110.023438 293.117188 116.710938 299.808594 123.957031 306.496094 C 133.988281 304.824219 144.023438 301.480469 152.941406 298.136719 C 153.496094 298.136719 154.054688 297.578125 155.167969 297.578125 C 151.269531 292.5625 147.921875 287.546875 144.578125 282.527344 Z M 104.449219 98.035156 L 97.757812 79.085938 L 77.136719 89.117188 Z M 139.5625 118.101562 L 165.203125 128.691406 L 160.742188 109.742188 Z M 92.742188 137.054688 L 113.921875 127.578125 L 104.449219 110.855469 L 92.742188 137.609375 Z M 98.875 197.25 L 59.300781 211.742188 C 63.757812 222.332031 68.21875 232.363281 73.792969 242.398438 L 113.921875 230.136719 C 108.347656 219.546875 103.332031 208.398438 98.875 196.691406 Z M 37.5625 171.609375 L 1.890625 191.117188 C 3.5625 202.265625 6.347656 212.855469 10.808594 222.890625 L 48.152344 206.726562 C 43.695312 195.578125 40.347656 183.316406 37.5625 171.054688 Z M 37.5625 171.609375 " fill-opacity="1" fill-rule="evenodd"/></svg>