<svg xmlns="http://www.w3.org/2000/svg" xmlns:xlink="http://www.w3.org/1999/xlink" width="500" zoomAndPan="magnify" viewBox="0 0 375 374.999991" height="500" preserveAspectRatio="xMidYMid meet" version="1.0"><defs><clipPath id="8ba1dfcbab"><path d="M 308 0 L 365.863281 0 L 365.863281 61 L 308 61 Z M 308 0 " clip-rule="nonzero"/></clipPath></defs><path fill="#ffffff" d="M 332.773438 300.152344 C 330.832031 301.03125 329.289062 301.425781 328.066406 302.296875 C 325.589844 304.054688 323.367188 306.15625 320.914062 307.953125 C 303.472656 320.71875 283.339844 325.328125 262.304688 326.160156 C 241.027344 327 219.878906 327.972656 199.011719 332.898438 C 176.464844 338.222656 154.582031 345.324219 133.683594 355.269531 C 130.019531 357.011719 128.824219 356.660156 127.097656 353.117188 C 109.929688 317.769531 92.65625 282.472656 75.273438 247.234375 C 58.679688 213.585938 41.953125 180.003906 25.183594 146.449219 C 23.746094 143.574219 21.484375 141.105469 19.566406 138.164062 C 18.957031 137.132812 18.382812 136.394531 17.808594 135.652344 C 17.105469 133.71875 16.769531 131.519531 15.617188 129.898438 C 12.988281 126.191406 14.355469 123.910156 17.6875 121.875 C 25.207031 117.300781 32.53125 112.378906 40.21875 108.101562 C 58.472656 97.929688 78.046875 90.816406 98.355469 83.78125 C 99.824219 83.40625 100.59375 83.078125 101.367188 82.742188 C 101.367188 82.75 101.382812 82.796875 101.726562 82.796875 C 102.734375 82.75 103.40625 82.808594 104.011719 82.648438 C 121.699219 77.949219 139.460938 73.625 157.761719 72.058594 C 172.652344 70.785156 187.535156 69.417969 202.449219 68.429688 C 209.128906 67.988281 215.875 68.363281 222.597656 68.363281 C 230.503906 70.132812 234.59375 76.550781 238.828125 82.398438 C 248.574219 95.859375 253.84375 111.871094 260.226562 127.097656 C 267.503906 145.808594 276.070312 164.035156 283.574219 182.644531 C 291.351562 201.929688 299.125 221.21875 307.332031 240.328125 C 315.148438 258.535156 324.230469 276.191406 332.605469 294.160156 C 333.378906 295.820312 333.101562 297.964844 332.773438 300.152344 Z M 332.773438 300.152344 " fill-opacity="1" fill-rule="nonzero"/><path fill="#000000" d="M 210.195312 217.363281 C 210.210938 219.203125 209.117188 220.320312 208.027344 221.632812 C 206.847656 223.054688 205.757812 224.546875 204.5625 225.957031 C 203.308594 227.429688 202.015625 229.070312 200.316406 230.050781 C 197.628906 231.601562 196.40625 229.257812 196.769531 226.710938 C 197.207031 223.636719 198.027344 220.621094 199.203125 217.746094 C 199.949219 215.925781 200.953125 212.632812 203.242188 212.304688 C 205.007812 212.050781 206.929688 212.957031 208.324219 213.980469 C 209.511719 214.855469 210.179688 216.054688 210.195312 217.363281 Z M 210.195312 217.363281 " fill-opacity="1" fill-rule="nonzero"/><path fill="#ff6e40" d="M 17.609375 135.933594 C 18.375 136.402344 18.949219 137.140625 19.300781 138.386719 C 19.742188 141.105469 20.132812 143.453125 21.109375 145.523438 C 29.195312 162.753906 37.277344 179.972656 45.550781 197.113281 C 72.132812 252.132812 98.800781 307.105469 125.441406 362.09375 C 128.085938 367.539062 128.039062 367.328125 133.378906 364.699219 C 146.582031 358.1875 159.59375 351.207031 173.1875 345.621094 C 199.738281 334.710938 228.113281 332.601562 256.332031 330.101562 C 264.445312 329.382812 272.6875 329.605469 280.671875 328.222656 C 289.078125 326.769531 297.238281 323.914062 305.496094 321.667969 C 301.769531 323.609375 298.246094 326.519531 294.289062 327.328125 C 278.527344 330.554688 262.671875 333.355469 246.78125 335.878906 C 224.59375 339.402344 201.546875 338.667969 180.339844 346.859375 C 165.042969 352.765625 150.664062 361.054688 135.910156 368.367188 C 132.761719 369.925781 129.765625 371.796875 126.777344 373.644531 C 124.570312 375.003906 122.722656 374.617188 121.359375 372.605469 C 119.398438 369.703125 117.394531 366.777344 115.835938 363.644531 C 98.210938 328.207031 80.636719 292.742188 63.09375 257.265625 C 53.507812 237.882812 43.957031 218.476562 34.441406 199.046875 C 26.558594 182.9375 18.871094 166.734375 10.8125 150.71875 C 8.847656 146.820312 9.847656 144.195312 12.476562 141.472656 C 14.148438 139.738281 15.769531 137.96875 17.609375 135.933594 Z M 17.609375 135.933594 " fill-opacity="1" fill-rule="nonzero"/><path fill="#ffffff" d="M 338.480469 70.167969 C 327.332031 63.171875 316.179688 56.175781 305.027344 49.183594 C 304.570312 48.894531 304.109375 48.605469 303.648438 48.316406 C 302.023438 47.296875 300.332031 46.339844 298.753906 45.242188 C 297.621094 44.457031 296.785156 43.238281 295.492188 44.355469 C 294.140625 45.523438 293.046875 47.3125 291.890625 48.683594 C 290.664062 50.140625 289.429688 51.59375 288.195312 53.046875 C 283.257812 58.855469 278.304688 64.65625 273.660156 70.707031 C 267.011719 79.363281 260.546875 88.15625 254.339844 97.128906 C 248.085938 106.164062 242.09375 115.378906 236.457031 124.808594 C 230.835938 134.203125 225.570312 143.816406 220.773438 153.65625 C 216.488281 162.453125 212.449219 171.378906 209.003906 180.535156 C 205.007812 191.144531 201.855469 202.140625 199.195312 213.109375 C 198.683594 215.222656 198.707031 217.335938 200.128906 219.160156 C 201.917969 221.457031 205.027344 222.390625 207.851562 221.820312 C 210.90625 221.203125 213.929688 218.332031 216.152344 216.316406 C 223.09375 210.019531 230.257812 204.019531 237.109375 197.597656 C 240.402344 194.515625 243.582031 191.300781 246.542969 187.898438 C 252.832031 180.667969 258.914062 173.152344 265.429688 166.082031 C 273.179688 157.695312 280.566406 148.984375 287.769531 140.128906 C 295.703125 130.386719 303.953125 120.90625 311.945312 111.21875 C 320.214844 101.199219 328.234375 90.925781 335.164062 79.921875 C 336.480469 77.835938 337.792969 75.75 339.109375 73.664062 C 339.34375 73.292969 339.589844 72.851562 339.707031 72.398438 C 339.828125 71.945312 339.8125 71.476562 339.53125 71.050781 C 339.273438 70.667969 338.871094 70.410156 338.480469 70.167969 Z M 338.480469 70.167969 " fill-opacity="1" fill-rule="nonzero"/><g clip-path="url(#8ba1dfcbab)"><path fill="#ffffff" d="M 366.03125 12.90625 C 365.777344 9.351562 364.40625 5.683594 361.765625 3.207031 C 361.5 2.957031 361.222656 2.726562 360.9375 2.511719 C 357.878906 0.226562 353.8125 0.0234375 350.164062 1.058594 C 347.136719 1.917969 344.378906 3.535156 341.730469 5.234375 C 339.109375 6.921875 336.261719 8.378906 333.699219 10.117188 C 330.945312 11.984375 328.21875 13.992188 325.570312 16.023438 C 320.226562 20.125 315.285156 24.714844 310.242188 29.171875 C 309.628906 29.710938 308.992188 30.292969 308.742188 31.070312 C 308.160156 32.882812 310.714844 34.167969 311.980469 34.867188 C 321.621094 40.175781 331.644531 46.179688 339.847656 53.5625 C 341.554688 54.984375 343.078125 56.355469 344.453125 58.082031 C 345.203125 59.023438 346.503906 61.183594 347.9375 60.042969 C 348.152344 59.871094 348.296875 59.636719 348.4375 59.402344 C 352.289062 53.058594 355.757812 46.476562 358.816406 39.714844 C 361.851562 33 364.714844 26.113281 365.742188 18.761719 C 365.875 17.804688 365.976562 16.84375 366.035156 15.878906 C 366.097656 14.886719 366.101562 13.894531 366.03125 12.90625 Z M 366.03125 12.90625 " fill-opacity="1" fill-rule="nonzero"/></g><path fill="#ff6e40" d="M 360.925781 58.535156 C 359.382812 56.066406 356.515625 53.9375 353.527344 55.414062 C 352.179688 56.078125 351.128906 57.207031 350.109375 58.308594 C 349.578125 58.882812 348.941406 59.832031 348.246094 60.414062 C 347.195312 59.042969 345.761719 57.875 344.578125 56.847656 C 342.085938 54.679688 339.5 52.621094 336.859375 50.632812 C 331.691406 46.730469 326.332031 43.09375 321.042969 39.355469 C 318.308594 37.421875 315.566406 35.503906 312.851562 33.609375 C 310.699219 32.109375 308.566406 29.800781 305.746094 30.910156 C 304.058594 31.574219 302.988281 33.113281 301.832031 34.421875 C 300.539062 35.890625 299.117188 37.261719 297.78125 38.695312 C 297.0625 39.460938 296.328125 40.265625 296.007812 41.261719 C 295.460938 42.976562 296.625 44.101562 297.894531 45.027344 C 304.359375 49.75 310.808594 54.472656 317.546875 58.804688 C 319.28125 59.917969 320.988281 60.890625 322.691406 62.101562 C 323.996094 63.027344 325.402344 63.800781 326.566406 64.875 C 327.664062 65.886719 329.078125 66.601562 330.488281 67.070312 C 334.898438 68.539062 339.496094 66.359375 343.90625 67.648438 C 345.167969 68.015625 346.136719 68.355469 347.429688 67.742188 C 347.835938 67.550781 348.199219 67.277344 348.515625 66.957031 C 348.417969 67.113281 348.324219 67.269531 348.238281 67.425781 C 346.886719 69.914062 345.765625 72.523438 344.417969 75.019531 C 341.894531 79.695312 338.671875 83.929688 335.601562 88.25 C 332.707031 92.320312 330.015625 96.476562 327.199219 100.621094 C 321.976562 108.308594 316.238281 115.648438 310.042969 122.578125 C 303.652344 129.722656 298.128906 137.726562 292.355469 145.414062 C 291.25 146.886719 290.125 148.941406 291.21875 150.421875 C 291.847656 151.269531 293.042969 151.542969 294.078125 151.339844 C 298.460938 150.480469 301.695312 145.238281 304.351562 142.09375 C 307.464844 137.425781 311.84375 133.332031 315.359375 128.949219 C 319.1875 124.179688 323.152344 119.519531 326.960938 114.722656 C 333.0625 107.035156 338.945312 99.195312 344.71875 91.257812 C 350.34375 83.523438 355.789062 75.554688 359.699219 66.796875 C 360.824219 64.285156 362.503906 61.0625 360.925781 58.535156 Z M 360.925781 58.535156 " fill-opacity="1" fill-rule="nonzero"/><path fill="#ff6e40" d="M 222.460938 68.046875 C 215.875 68.363281 209.128906 67.996094 202.433594 68.4375 C 187.527344 69.433594 172.636719 70.792969 157.746094 72.066406 C 139.445312 73.640625 121.683594 77.964844 103.996094 82.65625 C 103.390625 82.816406 102.726562 82.757812 101.6875 82.796875 C 109.984375 79.746094 118.582031 76.332031 127.414062 73.75 C 145.054688 68.589844 163.046875 64.984375 181.492188 64.496094 C 193.441406 64.175781 205.40625 64.351562 217.355469 64.648438 C 219.046875 64.6875 220.671875 66.652344 222.460938 68.046875 Z M 222.460938 68.046875 " fill-opacity="1" fill-rule="nonzero"/><path fill="#ffffff" d="M 101.03125 82.757812 C 100.59375 83.085938 99.816406 83.421875 98.707031 83.765625 C 99.136719 83.429688 99.914062 83.09375 101.03125 82.757812 Z M 101.03125 82.757812 " fill-opacity="1" fill-rule="nonzero"/><path fill="#ffffff" d="M 311.539062 318.710938 C 311.703125 318.351562 312.136719 318.015625 312.871094 317.753906 C 312.71875 318.128906 312.273438 318.429688 311.539062 318.710938 Z M 311.539062 318.710938 " fill-opacity="1" fill-rule="nonzero"/><path fill="#ff6e40" d="M 321.257812 36.425781 C 318.929688 34.910156 316.851562 33.214844 314.695312 31.191406 C 324.988281 19.507812 336.027344 9.050781 350.875 3.714844 C 354.03125 2.585938 356.246094 4.203125 355.433594 7.070312 C 355.136719 8.140625 353.65625 9.054688 352.515625 9.675781 C 340.300781 16.335938 330.160156 25.421875 321.257812 36.425781 Z M 321.257812 36.425781 " fill-opacity="1" fill-rule="nonzero"/><path fill="#000000" d="M 305.726562 321.4375 C 297.230469 323.90625 289.070312 326.757812 280.671875 328.214844 C 272.6875 329.597656 264.4375 329.375 256.332031 330.09375 C 228.113281 332.59375 199.746094 334.703125 173.1875 345.613281 C 159.601562 351.199219 146.582031 358.179688 133.378906 364.691406 C 128.039062 367.320312 128.085938 367.539062 125.441406 362.085938 C 98.792969 307.097656 72.132812 252.125 45.550781 197.105469 C 37.277344 179.972656 29.195312 162.746094 21.109375 145.515625 C 20.140625 143.445312 19.742188 141.097656 19.34375 138.667969 C 21.484375 141.105469 23.746094 143.574219 25.183594 146.449219 C 41.960938 180.003906 58.6875 213.585938 75.273438 247.234375 C 92.65625 282.480469 109.929688 317.769531 127.097656 353.117188 C 128.824219 356.667969 130.019531 357.019531 133.683594 355.269531 C 154.582031 345.324219 176.464844 338.222656 199.011719 332.898438 C 219.878906 327.972656 241.035156 327 262.304688 326.160156 C 283.339844 325.328125 303.472656 320.71875 320.914062 307.953125 C 323.367188 306.15625 325.589844 304.054688 328.066406 302.296875 C 329.28125 301.433594 330.832031 301.03125 332.558594 300.449219 C 331 303.183594 329.558594 306.425781 327.113281 308.457031 C 323 311.871094 318.25 314.515625 313.167969 317.578125 C 312.136719 318.007812 311.695312 318.34375 311.257812 318.679688 C 309.492188 319.535156 307.726562 320.375 305.726562 321.4375 Z M 305.726562 321.4375 " fill-opacity="1" fill-rule="nonzero"/><path fill="#000000" d="M 142.71875 147.882812 C 136.660156 153.351562 134.917969 160.726562 133.847656 168.816406 C 133.761719 172.054688 133.40625 175.003906 134.070312 177.71875 C 134.527344 179.566406 136.375 182.386719 137.660156 182.417969 C 139.777344 182.460938 142.710938 181.148438 143.910156 179.4375 C 146.613281 175.585938 148.410156 171.109375 150.71875 166.96875 C 151.152344 166.195312 152.359375 165.171875 153.003906 165.300781 C 157.90625 166.289062 163.011719 164.238281 167.839844 166.265625 C 168.0625 166.355469 168.527344 165.859375 169.175781 165.453125 C 167.25 163.574219 163.410156 162.847656 166.074219 158.882812 C 166.886719 157.667969 165.960938 155.292969 165.832031 153.445312 C 164.316406 154.742188 162.707031 155.957031 161.351562 157.402344 C 160.933594 157.851562 161.359375 159 161.109375 159.730469 C 160.207031 162.375 156.082031 164.269531 154.277344 162.558594 C 150.863281 159.328125 150 161.742188 148.714844 164.421875 C 146.425781 169.207031 144.375 174.226562 139.28125 177.648438 C 138.46875 165.988281 141.921875 155.957031 147.53125 146.179688 C 145.53125 146.414062 143.855469 146.851562 142.71875 147.882812 Z M 142.71875 147.882812 " fill-opacity="1" fill-rule="nonzero"/><path fill="#000000" d="M 189.921875 224.539062 C 189.003906 225.113281 187.582031 225.488281 187.269531 226.289062 C 186.175781 229.09375 184.335938 229.839844 181.425781 230.0625 C 177.453125 230.359375 173.59375 231.589844 170.980469 235.082031 C 169.910156 236.511719 168.925781 237.320312 167.222656 235.527344 C 164.824219 233.003906 162.5 234.058594 160.230469 236.121094 C 157.425781 238.660156 156.144531 238.191406 155.570312 234.394531 C 155.050781 230.941406 154.851562 227.441406 154.4375 223.554688 C 151.695312 220.984375 150.25 222.207031 149.777344 225.042969 C 149.496094 226.753906 149.847656 228.566406 149.769531 230.324219 C 149.449219 237.816406 149.128906 245.3125 148.699219 252.800781 C 148.546875 255.46875 147.820312 258.125 147.882812 260.769531 C 147.914062 262.015625 149.199219 263.238281 149.90625 264.46875 C 150.808594 263.367188 152.308594 262.359375 152.503906 261.144531 C 153.371094 255.820312 153.773438 250.417969 154.539062 245.070312 C 154.667969 244.128906 155.515625 242.929688 156.355469 242.523438 C 158.800781 241.347656 161.414062 240.515625 164.316406 239.414062 C 168.613281 243.242188 169.492188 243.554688 172.746094 239.980469 C 178.859375 233.265625 186.613281 231.171875 195.238281 230.828125 C 197.058594 230.757812 198.835938 229.933594 200.632812 229.460938 C 200.566406 229.0625 200.503906 228.664062 200.433594 228.265625 C 196.773438 227.433594 192.390625 228.527344 189.921875 224.539062 Z M 189.921875 224.539062 " fill-opacity="1" fill-rule="nonzero"/><path fill="#000000" d="M 134.789062 253.136719 C 133.417969 253.75 132.425781 255.253906 131.347656 256.4375 C 129.746094 258.203125 128.339844 259.683594 125.792969 257.484375 C 124.136719 256.046875 122.042969 256.261719 121.089844 258.59375 C 119.046875 263.574219 117.109375 268.601562 115.359375 273.691406 C 115.050781 274.570312 115.871094 275.835938 116.167969 276.929688 C 117.160156 276.3125 118.605469 275.914062 119.078125 275.011719 C 120.476562 272.359375 121.5 269.503906 122.722656 266.355469 C 123.296875 263 124.417969 261.425781 127.980469 262.542969 C 129.234375 262.941406 131.304688 261.832031 132.570312 260.855469 C 134.398438 259.441406 135.828125 257.515625 136.980469 256.285156 C 139.203125 257.339844 140.753906 258.074219 142.3125 258.8125 C 141.367188 256.828125 140.769531 254.503906 139.320312 253 C 138.585938 252.234375 136.125 252.542969 134.789062 253.136719 Z M 134.789062 253.136719 " fill-opacity="1" fill-rule="nonzero"/><path fill="#000000" d="M 205.25 182.867188 C 201.949219 183.28125 198.625 184.839844 195.707031 186.566406 C 192.25 188.605469 189.125 190.546875 184.785156 190.730469 C 181.851562 190.851562 178.75 192.679688 176.191406 194.421875 C 172.8125 196.71875 170.125 200.089844 165.304688 199.179688 C 164.417969 199.011719 163.25 199.898438 162.316406 200.464844 C 160.238281 201.730469 158.449219 204.925781 155.761719 201.195312 C 155.554688 200.921875 154.421875 200.976562 153.980469 201.265625 C 149.792969 204.007812 145.566406 206.707031 141.558594 209.6875 C 139.136719 211.488281 137.085938 213.789062 134.832031 215.820312 C 133.167969 217.328125 132.007812 217.378906 131.074219 214.890625 C 130.59375 213.597656 129.15625 212.671875 128.15625 211.582031 C 127.007812 212.757812 125.617188 213.78125 124.792969 215.148438 C 123.824219 216.753906 123.480469 218.722656 122.632812 220.414062 C 121.1875 223.285156 119.558594 226.074219 117.480469 229.863281 C 116.074219 225.464844 115.273438 222.230469 113.996094 219.199219 C 113.273438 217.464844 111.765625 216.050781 110.613281 214.492188 C 109.191406 215.78125 107.128906 216.808594 106.464844 218.410156 C 103.132812 226.433594 100.09375 234.585938 97.152344 242.761719 C 96.722656 243.96875 97.339844 245.558594 97.480469 246.972656 C 97.875 247.039062 98.273438 247.101562 98.671875 247.171875 C 99.359375 245.847656 100.207031 244.578125 100.695312 243.1875 C 102.957031 236.769531 105.066406 230.308594 107.335938 223.898438 C 108.023438 221.941406 109.039062 220.101562 109.902344 218.203125 C 111.605469 221.300781 112.085938 224.277344 113.289062 226.945312 C 114.195312 228.96875 116.023438 230.589844 117.4375 232.394531 C 119.191406 230.902344 121.402344 229.710938 122.601562 227.863281 C 124.527344 224.90625 125.78125 221.503906 127.351562 218.21875 C 132.296875 222.171875 133.757812 222.109375 138.179688 217.847656 C 140.839844 215.285156 143.320312 212.550781 146.050781 210.074219 C 147.1875 209.042969 148.824219 207.714844 150.097656 207.84375 C 154.890625 208.324219 159.128906 207.539062 162.90625 204.453125 C 163.730469 203.78125 164.882812 202.917969 165.777344 203.03125 C 170.851562 203.664062 173.96875 200.355469 177.613281 197.820312 C 179.582031 196.453125 182.25 195.109375 184.480469 195.285156 C 190.035156 195.734375 194.269531 193.785156 198.507812 190.492188 C 200.679688 188.8125 203.851562 188.414062 206.960938 187.398438 C 209.664062 183.632812 209.273438 182.378906 205.25 182.867188 Z M 205.25 182.867188 " fill-opacity="1" fill-rule="nonzero"/><path fill="#000000" d="M 357.253906 57.039062 C 357.144531 57.015625 357.019531 57.023438 356.886719 57.070312 C 356.660156 57.148438 356.472656 57.308594 356.292969 57.472656 C 355.296875 58.390625 354.46875 59.507812 353.71875 60.660156 C 353.308594 61.292969 352.921875 61.933594 352.539062 62.5625 C 351.921875 63.578125 351.304688 64.59375 350.6875 65.609375 C 350.472656 65.964844 349.472656 68.214844 348.859375 67.269531 C 348.714844 67.050781 348.753906 66.753906 348.871094 66.515625 C 348.984375 66.277344 349.164062 66.082031 349.3125 65.863281 C 349.988281 64.847656 349.839844 63.453125 349.25 62.386719 C 348.660156 61.320312 347.695312 60.519531 346.734375 59.769531 C 346.148438 59.316406 345.511719 58.859375 344.773438 58.816406 C 343.628906 58.757812 342.710938 59.699219 341.960938 60.566406 C 340.773438 61.941406 339.644531 63.390625 338.433594 64.734375 C 337.640625 65.617188 336.773438 66.539062 335.695312 67.074219 C 333.484375 68.171875 331.046875 66.800781 329.113281 65.71875 C 322.328125 61.90625 315.804688 57.648438 309.277344 53.425781 C 306.292969 51.492188 303.554688 49.160156 300.675781 47.367188 C 301.585938 49.136719 302.234375 50.933594 303.519531 51.902344 C 309.707031 56.582031 315.75 61.585938 322.453125 65.390625 C 325.292969 67 328.359375 68.171875 331.457031 69.195312 C 334.03125 70.046875 336.9375 70.589844 339.316406 71.925781 C 340.335938 72.5 341.25 73.324219 341.714844 74.398438 C 342.871094 77.0625 341.105469 79.246094 339.703125 81.34375 C 338.117188 83.714844 336.53125 86.082031 334.945312 88.453125 C 334.679688 88.847656 334.402344 89.304688 334.519531 89.765625 C 334.699219 90.503906 335.691406 90.675781 336.242188 90.265625 C 336.496094 90.078125 336.683594 89.8125 336.867188 89.550781 C 338.566406 87.117188 340.253906 84.679688 341.925781 82.230469 C 344.054688 79.113281 346.195312 75.949219 348.28125 72.839844 C 349.679688 70.75 351.078125 68.65625 352.46875 66.558594 C 353.316406 65.285156 354.226562 64.019531 355 62.707031 C 355.8125 61.332031 356.605469 59.949219 357.4375 58.585938 C 357.574219 58.359375 357.714844 58.125 357.761719 57.867188 C 357.835938 57.457031 357.605469 57.101562 357.253906 57.039062 Z M 357.253906 57.039062 " fill-opacity="1" fill-rule="nonzero"/><path fill="#000000" d="M 211.023438 144.34375 C 209.640625 143.855469 207.511719 144.628906 206.050781 145.421875 C 203.558594 146.773438 201.335938 148.628906 198.976562 150.226562 C 196.453125 151.929688 194.214844 153.328125 190.777344 151.390625 C 188.8125 150.273438 185.644531 150.59375 183.207031 151.144531 C 178.023438 152.3125 174.59375 155.925781 172.285156 160.777344 C 173.570312 160.390625 174.617188 159.542969 175.816406 159.097656 C 180.929688 157.210938 185.398438 152.734375 191.800781 156.300781 C 193.621094 157.308594 196.898438 155.707031 199.808594 155.078125 C 204.195312 152.304688 207.515625 147.796875 213.179688 149.097656 C 220.558594 150.792969 225.066406 146.71875 229.1875 141.554688 C 227.910156 141.53125 226.703125 141.730469 225.648438 142.25 C 220.996094 144.535156 216.378906 146.214844 211.023438 144.34375 Z M 211.023438 144.34375 " fill-opacity="1" fill-rule="nonzero"/><path fill="#000000" d="M 88.28125 155.011719 C 90.335938 153.269531 91.945312 151.007812 93.4375 149.339844 C 99.832031 154.125 100.414062 146.101562 104.15625 145.8125 C 106.96875 149.113281 107.886719 149.234375 111.003906 145.828125 C 112.804688 143.855469 114.890625 143.105469 117.382812 142.191406 C 123.664062 139.875 129.546875 136.460938 135.582031 133.488281 C 135.316406 132.921875 135.054688 132.363281 134.789062 131.796875 C 130.800781 133.511719 126.863281 135.359375 122.808594 136.878906 C 120.8125 137.628906 117.679688 138.867188 116.65625 138.003906 C 112.730469 134.695312 111.804688 137.734375 110.359375 140.226562 C 109.65625 141.433594 108.96875 142.65625 108 144.351562 C 105.945312 139.613281 103.773438 141.203125 101.605469 143.703125 C 100.289062 145.214844 98.992188 146.734375 97.480469 148.484375 C 96.378906 144.839844 95.355469 143.910156 92.878906 147.164062 C 90.898438 149.753906 88.1875 151.839844 85.628906 153.933594 C 83.078125 156.027344 81.5625 154.34375 80.546875 152.039062 C 80.105469 151.046875 80.121094 149.851562 79.707031 148.84375 C 78.070312 144.839844 75.789062 144.246094 72.425781 146.996094 C 71.324219 147.890625 70.300781 148.996094 69.582031 150.210938 C 66.359375 155.683594 63.25 161.222656 59.917969 167.058594 C 58.703125 170.375 57.390625 173.316406 56.785156 176.386719 C 56.554688 177.535156 57.960938 179 58.625 180.324219 C 59.621094 179.476562 61.027344 178.816406 61.515625 177.742188 C 62.898438 174.722656 63.59375 171.359375 65.121094 168.433594 C 68.292969 162.375 71.828125 156.507812 75.613281 149.867188 C 76.757812 151.761719 77.164062 152.429688 77.558594 153.09375 C 80.683594 158.304688 83.640625 158.929688 88.28125 155.011719 Z M 88.28125 155.011719 " fill-opacity="1" fill-rule="nonzero"/><path fill="#000000" d="M 153.132812 132.394531 C 153.574219 132.507812 154.324219 131.929688 154.753906 131.492188 C 156.914062 129.285156 159.175781 128.742188 162.347656 129.621094 C 164.066406 130.09375 166.816406 129.164062 168.230469 127.894531 C 170.972656 125.433594 173.683594 124.496094 177.132812 125.738281 C 177.605469 121.285156 177.007812 121.339844 173.15625 121.203125 C 168.816406 121.046875 168.078125 124.523438 165.53125 126.734375 C 164.410156 126.855469 163.371094 127.113281 162.898438 126.71875 C 160.054688 124.355469 157.21875 124.242188 154.179688 126.273438 C 153.683594 126.601562 152.773438 127.007812 152.4375 126.792969 C 149 124.59375 147.476562 127.398438 145.804688 129.367188 C 143.550781 132.027344 141.375 134.785156 139.472656 137.703125 C 138.730469 138.84375 138.828125 140.523438 138.546875 141.960938 C 139.945312 141.257812 141.601562 140.835938 142.6875 139.8125 C 145.835938 136.847656 146.675781 130.78125 153.132812 132.394531 Z M 153.132812 132.394531 " fill-opacity="1" fill-rule="nonzero"/><path fill="#000000" d="M 185.503906 125.6875 C 187.53125 124.515625 189.082031 123.140625 191.273438 125.441406 C 193.113281 127.367188 194.703125 128.910156 193.28125 132.027344 C 192.679688 133.355469 193.726562 135.441406 194.015625 137.183594 C 194.980469 135.625 195.964844 134.074219 196.890625 132.492188 C 197.035156 132.25 196.796875 131.789062 196.941406 131.554688 C 199.019531 128.125 200.375 123.117188 203.421875 121.652344 C 208.328125 119.285156 214.355469 119.253906 219.910156 118.230469 C 220.878906 118.054688 221.84375 117.855469 222.804688 117.671875 C 222.882812 117.226562 222.964844 116.785156 223.042969 116.34375 C 221.109375 115.675781 219.09375 114.285156 217.257812 114.5 C 213.570312 114.9375 209.984375 116.96875 206.339844 117.007812 C 201.253906 117.058594 199.042969 120 196.859375 123.667969 C 196.460938 124.324219 195.238281 124.496094 194.167969 124.640625 C 191.433594 122.789062 188.988281 121.078125 186.40625 119.65625 C 185.519531 119.167969 183.410156 119.03125 183.289062 119.328125 C 182.53125 121.140625 182.1875 123.117188 181.707031 125.042969 C 183 125.296875 184.640625 126.183594 185.503906 125.6875 Z M 185.503906 125.6875 " fill-opacity="1" fill-rule="nonzero"/><path fill="#000000" d="M 101.414062 186.445312 C 105.9375 187.46875 108.351562 184.960938 110.214844 181.523438 C 111.492188 179.167969 112.363281 177.289062 115.96875 178.445312 C 117.839844 179.039062 120.484375 177.238281 122.785156 176.519531 C 122.746094 176.144531 122.714844 175.769531 122.675781 175.394531 C 121.394531 174.945312 120.125 174.164062 118.828125 174.121094 C 116.617188 174.035156 115.296875 173.554688 114.816406 171.046875 C 114.609375 169.992188 112.738281 168.328125 112.003906 168.503906 C 110.820312 168.792969 109.648438 170.222656 109.007812 171.445312 C 107.625 174.089844 106.664062 176.960938 105.308594 179.628906 C 104.996094 180.253906 103.484375 180.988281 103.085938 180.742188 C 100.335938 179.0625 99.496094 180.621094 98.539062 182.851562 C 97.867188 184.433594 96.761719 185.902344 95.570312 187.144531 C 94.902344 187.839844 93.511719 188.460938 92.726562 188.222656 C 91.96875 187.996094 91.121094 186.613281 91.105469 185.726562 C 91.070312 183.523438 91.480469 181.324219 91.816406 178.71875 C 91.34375 177.222656 90.761719 176.136719 90.183594 175.042969 C 89.488281 176.035156 88.457031 176.945312 88.148438 178.054688 C 87.101562 181.859375 86.347656 185.742188 85.414062 189.582031 C 84.109375 194.960938 82.585938 200.304688 81.511719 205.734375 C 81.289062 206.859375 82.617188 208.289062 83.238281 209.578125 C 84.132812 208.835938 85.628906 208.234375 85.828125 207.339844 C 87.132812 201.5625 88.148438 195.71875 89.320312 189.597656 C 93.277344 192.648438 95.9375 190.402344 98.617188 187.894531 C 99.375 187.191406 100.621094 186.269531 101.414062 186.445312 Z M 101.414062 186.445312 " fill-opacity="1" fill-rule="nonzero"/><path fill="#000000" d="M 309.910156 31.449219 C 310.4375 31.722656 310.917969 32.152344 311.402344 32.496094 C 312.429688 33.230469 313.460938 33.96875 314.488281 34.703125 C 316.511719 36.148438 318.535156 37.59375 320.554688 39.042969 C 320.640625 39.101562 320.734375 39.164062 320.828125 39.222656 C 321.21875 39.464844 321.667969 39.644531 322.0625 39.441406 C 322.484375 39.226562 322.605469 38.644531 322.445312 38.195312 C 322.285156 37.746094 321.917969 37.410156 321.550781 37.105469 C 321.039062 36.679688 320.65625 36.152344 320.128906 35.753906 C 319.671875 35.410156 319.179688 35.109375 318.734375 34.75 C 317.917969 34.089844 317.097656 33.425781 316.277344 32.769531 C 314.621094 31.445312 312.894531 30.265625 310.867188 29.542969 C 310.574219 29.441406 310.269531 29.34375 309.960938 29.339844 C 309.648438 29.335938 309.324219 29.433594 309.117188 29.664062 C 308.832031 29.972656 308.824219 30.476562 309.035156 30.84375 C 309.253906 31.226562 309.5625 31.269531 309.910156 31.449219 Z M 309.910156 31.449219 " fill-opacity="1" fill-rule="nonzero"/><path fill="#000000" d="M 327.335938 99.300781 C 316.886719 111.296875 307.746094 124.359375 298.074219 136.976562 C 295.335938 140.550781 292.4375 144.042969 289.871094 147.746094 C 289.320312 148.539062 290.589844 149.53125 291.222656 148.785156 C 293.777344 145.773438 296.089844 142.546875 298.492188 139.410156 C 300.953125 136.191406 303.425781 132.980469 305.957031 129.816406 C 310.898438 123.636719 315.699219 117.351562 320.496094 111.058594 C 323.234375 107.46875 325.828125 103.824219 328.347656 100.082031 C 328.753906 99.480469 327.816406 98.75 327.335938 99.300781 Z M 327.335938 99.300781 " fill-opacity="1" fill-rule="nonzero"/><path fill="#ff6e40" d="M 281.160156 154.175781 C 280.722656 157.476562 277.46875 160.371094 275.367188 162.695312 C 268.777344 169.992188 262.066406 177.480469 255.269531 184.699219 C 251.828125 188.359375 248.339844 191.972656 244.78125 195.519531 C 241.628906 198.660156 238.347656 202.96875 233.574219 203.417969 C 227.003906 204.035156 220.214844 202.492188 214.640625 198.929688 C 209.511719 195.652344 204.730469 190.847656 204.894531 184.363281 C 205 180.15625 206.671875 176.164062 208.378906 172.316406 C 210.453125 167.636719 211.734375 162.777344 213.726562 158.132812 C 216.121094 152.554688 218.46875 146.984375 221.207031 141.558594 C 224.210938 135.609375 227.5 129.769531 231.246094 124.253906 C 232.6875 122.128906 234.636719 120.941406 237.246094 122.398438 C 239.242188 123.511719 239.667969 125.964844 240.992188 127.664062 C 242.882812 130.09375 244.984375 132.375 247.195312 134.507812 C 251.554688 138.714844 256.472656 142.355469 261.828125 145.191406 C 265.335938 147.050781 269.023438 148.570312 272.824219 149.714844 C 275.136719 150.414062 278.832031 149.96875 280.558594 151.972656 C 281.109375 152.609375 281.265625 153.367188 281.160156 154.175781 Z M 281.160156 154.175781 " fill-opacity="1" fill-rule="nonzero"/><path fill="#000000" d="M 271.3125 154.285156 C 270.007812 153.75 268.515625 153.578125 267.15625 153.195312 C 265.777344 152.808594 264.410156 152.371094 263.066406 151.867188 C 260.339844 150.84375 257.710938 149.554688 255.210938 148.054688 C 250.230469 145.070312 245.8125 141.289062 242.046875 136.867188 C 239.933594 134.386719 238.125 131.640625 236.503906 128.816406 C 236 127.9375 234.753906 128.710938 235.164062 129.601562 C 240.230469 140.546875 250.039062 149.039062 261.144531 153.484375 C 262.738281 154.121094 264.367188 154.679688 266.023438 155.144531 C 267.605469 155.589844 269.410156 156.179688 271.066406 156.121094 C 272.179688 156.082031 272.257812 154.671875 271.3125 154.285156 Z M 271.3125 154.285156 " fill-opacity="1" fill-rule="nonzero"/><path fill="#000000" d="M 222.21875 195.3125 C 221.464844 194.902344 220.625 194.664062 219.820312 194.363281 C 219.042969 194.074219 218.285156 193.75 217.539062 193.382812 C 216.027344 192.636719 214.566406 191.765625 213.207031 190.761719 C 212.484375 190.234375 211.5625 191.425781 212.246094 192.007812 C 213.609375 193.171875 215.070312 194.210938 216.652344 195.058594 C 217.441406 195.480469 218.25 195.851562 219.074219 196.195312 C 219.9375 196.558594 220.835938 196.890625 221.777344 196.953125 C 222.652344 197.007812 222.964844 195.71875 222.21875 195.3125 Z M 222.21875 195.3125 " fill-opacity="1" fill-rule="nonzero"/><path fill="#000000" d="M 329.394531 76.339844 C 315.679688 92.769531 302.664062 109.804688 289.425781 126.621094 C 287.578125 128.96875 285.742188 131.328125 283.898438 133.679688 C 282.0625 136.027344 280.0625 138.328125 278.433594 140.820312 C 277.9375 141.582031 279.070312 142.453125 279.691406 141.789062 C 281.503906 139.859375 283.078125 137.65625 284.722656 135.578125 C 286.378906 133.484375 288.035156 131.390625 289.691406 129.296875 C 293.003906 125.105469 296.289062 120.898438 299.589844 116.699219 C 306.226562 108.25 312.882812 99.8125 319.472656 91.324219 C 323.136719 86.601562 326.785156 81.875 330.34375 77.070312 C 330.75 76.523438 329.832031 75.8125 329.394531 76.339844 Z M 329.394531 76.339844 " fill-opacity="1" fill-rule="nonzero"/><path fill="#000000" d="M 208.1875 217.988281 C 207.90625 217.886719 207.578125 217.871094 207.28125 217.804688 C 206.996094 217.738281 206.710938 217.679688 206.429688 217.601562 C 205.859375 217.445312 205.308594 217.246094 204.777344 216.996094 C 203.660156 216.472656 202.660156 215.78125 201.632812 215.109375 C 201.335938 214.914062 200.90625 215.019531 200.699219 215.296875 C 200.464844 215.609375 200.527344 215.953125 200.757812 216.246094 C 201.609375 217.34375 202.878906 218.089844 204.164062 218.585938 C 204.761719 218.820312 205.382812 218.996094 206.011719 219.117188 C 206.691406 219.25 207.5 219.402344 208.1875 219.253906 C 208.867188 219.105469 208.753906 218.1875 208.1875 217.988281 Z M 208.1875 217.988281 " fill-opacity="1" fill-rule="nonzero"/><path fill="#ff6e40" d="M 294.898438 55.03125 C 293.613281 55.320312 292.21875 56.300781 291.40625 57.144531 C 283.996094 64.859375 278.160156 74.484375 271.996094 83.195312 C 264.050781 94.429688 256.292969 105.800781 248.496094 117.144531 C 247.441406 118.675781 246.351562 120.308594 246.222656 122.164062 C 245.800781 128.128906 252.933594 126.078125 255.65625 123.792969 C 260.222656 119.964844 263.433594 114.792969 266.535156 109.777344 C 272.683594 99.824219 278.835938 89.871094 284.988281 79.917969 C 288.0625 74.941406 291.140625 69.964844 294.214844 64.988281 C 295.042969 63.648438 301.25 53.605469 294.898438 55.03125 Z M 294.898438 55.03125 " fill-opacity="1" fill-rule="nonzero"/><path fill="#ff6e40" d="M 209.839844 202.082031 C 209.957031 201.039062 209.804688 200.179688 209.195312 199.914062 C 207.628906 199.238281 206.296875 202.878906 205.996094 203.917969 C 205.429688 205.886719 205.320312 208.515625 207.671875 207.125 C 208.457031 206.660156 209.621094 204.046875 209.839844 202.082031 Z M 209.839844 202.082031 " fill-opacity="1" fill-rule="nonzero"/><path stroke-linecap="butt" transform="matrix(0.19427, -0.724402, 0.724402, 0.19427, 201.213404, 212.855362)" fill="none" stroke-linejoin="miter" d="M -0.00128744 0.498431 L 25.543245 0.501607 " stroke="#000000" stroke-width="1" stroke-opacity="1" stroke-miterlimit="4"/><path stroke-linecap="butt" transform="matrix(0.419373, -0.621793, 0.621793, 0.419373, 209.491119, 218.435083)" fill="none" stroke-linejoin="miter" d="M -0.000656569 0.498458 L 25.544829 0.501299 " stroke="#000000" stroke-width="1" stroke-opacity="1" stroke-miterlimit="4"/></svg>