<svg xmlns="http://www.w3.org/2000/svg" xmlns:xlink="http://www.w3.org/1999/xlink" width="500" zoomAndPan="magnify" viewBox="0 0 375 374.999991" height="500" preserveAspectRatio="xMidYMid meet" version="1.0"><defs><clipPath id="f11e84b6fe"><path d="M 190.273438 58.613281 L 227.25 58.613281 L 227.25 92.421875 L 190.273438 92.421875 Z M 190.273438 58.613281 " clip-rule="nonzero"/></clipPath><clipPath id="0c67a551b8"><path d="M 208.699219 58.613281 C 198.523438 58.613281 190.273438 66.183594 190.273438 75.519531 C 190.273438 84.851562 198.523438 92.421875 208.699219 92.421875 C 218.871094 92.421875 227.121094 84.851562 227.121094 75.519531 C 227.121094 66.183594 218.871094 58.613281 208.699219 58.613281 Z M 208.699219 58.613281 " clip-rule="nonzero"/></clipPath><clipPath id="985339525a"><path d="M 7.234375 65 L 69 65 L 69 75 L 7.234375 75 Z M 7.234375 65 " clip-rule="nonzero"/></clipPath><clipPath id="777036ba00"><path d="M 52 0 L 86 0 L 86 57 L 52 57 Z M 52 0 " clip-rule="nonzero"/></clipPath><clipPath id="8301bfcb1a"><path d="M 52.621094 1.167969 L 58.769531 -1.75 L 85.015625 53.589844 L 78.867188 56.503906 Z M 52.621094 1.167969 " clip-rule="nonzero"/></clipPath><clipPath id="691eafdf7d"><path d="M 52.621094 1.167969 L 58.769531 -1.75 L 85.007812 53.574219 L 78.859375 56.488281 Z M 52.621094 1.167969 " clip-rule="nonzero"/></clipPath><clipPath id="17b4827f13"><path d="M 19 24 L 79 24 L 79 64 L 19 64 Z M 19 24 " clip-rule="nonzero"/></clipPath><clipPath id="2261b94895"><path d="M 19.179688 29.480469 L 22.179688 24.492188 L 78.085938 58.113281 L 75.085938 63.101562 Z M 19.179688 29.480469 " clip-rule="nonzero"/></clipPath><clipPath id="c4b2e66212"><path d="M 19.179688 29.480469 L 22.179688 24.492188 L 78.082031 58.109375 L 75.082031 63.097656 Z M 19.179688 29.480469 " clip-rule="nonzero"/></clipPath><clipPath id="3cf5de5a3d"><path d="M 7 65 L 73 65 L 73 78 L 7 78 Z M 7 65 " clip-rule="nonzero"/></clipPath><clipPath id="b219164930"><path d="M 7.238281 71.089844 L 7.863281 65.027344 L 72.753906 71.738281 L 72.125 77.804688 Z M 7.238281 71.089844 " clip-rule="nonzero"/></clipPath><clipPath id="a7ceb718e7"><path d="M 7.238281 71.089844 L 7.863281 65.027344 L 72.75 71.738281 L 72.121094 77.804688 Z M 7.238281 71.089844 " clip-rule="nonzero"/></clipPath></defs><g clip-path="url(#f11e84b6fe)"><g clip-path="url(#0c67a551b8)"><path fill="#ff6e40" d="M 190.273438 58.613281 L 227.117188 58.613281 L 227.117188 92.421875 L 190.273438 92.421875 Z M 190.273438 58.613281 " fill-opacity="1" fill-rule="nonzero"/></g></g><path fill="#ffffff" d="M 126.140625 295.058594 L 126.792969 317.695312 C 131.75 314.109375 141.113281 312.964844 148.230469 313.472656 C 152.722656 313.796875 156.34375 314.699219 158.976562 316.082031 L 158.171875 288.195312 C 158.0625 284.363281 156.589844 280.695312 154.015625 277.851562 L 152.085938 275.714844 C 137.847656 278.972656 123.757812 285.558594 119.453125 287.667969 Z M 126.140625 295.058594 " fill-opacity="1" fill-rule="nonzero"/><path fill="#ffffff" d="M 71.097656 295.085938 L 63.128906 312.324219 C 66.164062 311.984375 69.992188 312.5625 74.453125 314.097656 C 81.042969 316.367188 88.984375 320.925781 92.289062 326.023438 L 105.144531 298.207031 C 106.1875 295.953125 106.664062 293.519531 106.609375 291.089844 C 105.402344 291.863281 103.972656 292.324219 102.429688 292.324219 C 87.203125 292.324219 77.132812 293.769531 71.097656 295.085938 Z M 71.097656 295.085938 " fill-opacity="1" fill-rule="nonzero"/><path fill="#ffffff" d="M 203.785156 115.824219 L 202.15625 114.933594 L 173.058594 142.121094 L 145.796875 143.6875 C 145.980469 149.445312 142.375 154.886719 136.625 156.742188 L 109.710938 165.441406 L 98.523438 218.285156 C 108.855469 217.640625 117.015625 215.957031 122.472656 214.488281 L 135.511719 165.136719 L 135.433594 164.933594 L 177.964844 162.492188 C 180.371094 162.355469 182.652344 161.378906 184.410156 159.730469 L 223.355469 123.34375 C 227.515625 119.457031 227.734375 112.929688 223.847656 108.773438 C 223.429688 108.324219 222.972656 107.929688 222.5 107.570312 L 218.902344 113.984375 Z M 128.511719 182.730469 L 110.128906 178.953125 L 110.894531 175.222656 L 129.277344 179 Z M 128.511719 182.730469 " fill-opacity="1" fill-rule="nonzero"/><path fill="#ffffff" d="M 109.660156 89.617188 C 122.03125 86.601562 135.183594 86.453125 141.203125 91.664062 C 144.6875 89.390625 148.8125 88.109375 153.101562 88.109375 C 154.136719 88.109375 155.167969 88.191406 156.1875 88.339844 C 163.371094 84.691406 167.382812 81.320312 166.78125 78.859375 C 165.761719 74.675781 151.71875 74.273438 132.269531 77.226562 L 129.785156 69.789062 C 128.394531 65.621094 124.734375 62.640625 120.375 62.089844 C 115.875 61.515625 109.503906 61.449219 101.753906 63.335938 C 94.003906 65.226562 88.382812 68.21875 84.648438 70.796875 C 81.03125 73.296875 79.152344 77.625 79.835938 81.96875 L 81.097656 89.988281 C 64.042969 96.035156 53.023438 102.382812 53.992188 106.355469 C 54.894531 110.050781 65.949219 110.792969 81.910156 108.882812 C 82.511719 100.128906 95.691406 93.023438 109.660156 89.617188 Z M 109.660156 89.617188 " fill-opacity="1" fill-rule="nonzero"/><path fill="#ffffff" d="M 135.515625 122.683594 C 130.558594 115.910156 129.835938 106.652344 134.234375 99.015625 C 135.445312 96.90625 136.988281 95.050781 138.773438 93.492188 C 126.929688 84.503906 81.621094 97.027344 85.035156 111.03125 C 88.828125 126.589844 104.515625 136.128906 120.070312 132.335938 C 126.367188 130.800781 131.675781 127.316406 135.515625 122.683594 Z M 113.53125 115.667969 C 113.53125 110.378906 116.769531 106.09375 120.765625 106.09375 C 124.761719 106.09375 128.003906 110.378906 128.003906 115.667969 C 128.003906 120.957031 124.761719 125.246094 120.765625 125.246094 C 116.769531 125.246094 113.53125 120.957031 113.53125 115.667969 Z M 113.53125 115.667969 " fill-opacity="1" fill-rule="nonzero"/><path fill="#ffffff" d="M 164.953125 112.308594 L 166.273438 112.578125 C 166.691406 110.542969 166.640625 108.425781 166.085938 106.359375 C 165.148438 102.878906 162.917969 99.976562 159.804688 98.1875 C 158.695312 97.546875 157.503906 97.089844 156.273438 96.789062 L 155.957031 98.089844 C 157.066406 98.363281 158.132812 98.789062 159.128906 99.363281 C 163.664062 101.972656 166.003906 107.175781 164.953125 112.308594 Z M 164.953125 112.308594 " fill-opacity="1" fill-rule="nonzero"/><path fill="#ffffff" d="M 143.765625 130.238281 L 145.582031 127.082031 C 154.238281 130.867188 164.542969 127.613281 169.367188 119.234375 C 174.539062 110.242188 171.445312 98.757812 162.453125 93.582031 C 153.460938 88.40625 141.976562 91.5 136.800781 100.492188 C 131.980469 108.875 134.339844 119.417969 141.964844 125 L 140.9375 126.789062 L 138.667969 130.726562 L 137.941406 131.988281 C 139.226562 132.558594 140.40625 133.332031 141.445312 134.269531 L 142.289062 132.808594 Z M 138.835938 101.664062 C 143.359375 93.808594 153.425781 91.097656 161.28125 95.617188 C 169.136719 100.136719 171.851562 110.207031 167.328125 118.0625 C 162.808594 125.917969 152.742188 128.628906 144.886719 124.109375 C 137.027344 119.589844 134.316406 109.519531 138.835938 101.664062 Z M 138.835938 101.664062 " fill-opacity="1" fill-rule="nonzero"/><path fill="#ffffff" d="M 89.839844 226.285156 C 68.945312 226.285156 54.503906 222.023438 48.910156 220.039062 L 48.394531 221.984375 C 46.640625 225.957031 46.476562 230.617188 48.34375 234.914062 L 49.351562 237.222656 L 70.023438 238.933594 L 73.828125 264.152344 L 60.710938 272.554688 L 55.386719 270.988281 C 56.765625 277.695312 58.007812 283.199219 58.488281 286.46875 C 57.140625 287.601562 56.546875 289.476562 57.148438 291.246094 C 57.769531 293.078125 59.484375 294.234375 61.320312 294.234375 C 61.785156 294.234375 62.261719 294.160156 62.726562 294.003906 C 62.886719 293.949219 73.761719 288.949219 102.433594 288.949219 C 104.863281 288.949219 106.832031 286.980469 106.832031 284.550781 C 106.832031 283.027344 106.0625 281.6875 104.890625 280.898438 C 104.441406 274.496094 100.964844 260.523438 100.964844 260.523438 L 110.53125 279.65625 C 110.007812 280.835938 109.988281 282.226562 110.632812 283.460938 C 111.414062 284.96875 112.949219 285.832031 114.539062 285.832031 C 115.222656 285.832031 115.917969 285.671875 116.566406 285.335938 C 116.746094 285.242188 134.589844 276.027344 152.511719 272.160156 C 154.890625 271.648438 156.398438 269.308594 155.886719 266.929688 C 155.375 264.554688 153.03125 263.046875 150.65625 263.554688 C 150.203125 263.65625 149.746094 263.757812 149.292969 263.863281 L 131.460938 232.78125 L 125.160156 221.792969 C 117.777344 223.84375 105.65625 226.285156 89.839844 226.285156 Z M 89.839844 226.285156 " fill-opacity="1" fill-rule="nonzero"/><path fill="#ffffff" d="M 89.839844 218.550781 C 91.445312 218.550781 93.007812 218.523438 94.53125 218.472656 L 105.46875 166.8125 L 89.960938 171.824219 L 97.867188 173.449219 L 97.101562 177.179688 L 82.609375 174.203125 L 59.003906 181.832031 L 50.894531 212.527344 C 55.253906 214.113281 69.28125 218.550781 89.839844 218.550781 Z M 89.839844 218.550781 " fill-opacity="1" fill-rule="nonzero"/><path fill="#ffffff" d="M 60.25 269.328125 L 70.609375 262.691406 L 67.441406 241.695312 L 43.980469 239.753906 L 49.285156 266.105469 Z M 60.25 269.328125 " fill-opacity="1" fill-rule="nonzero"/><path fill="#ffffff" d="M 96.753906 220.40625 L 91.859375 220.40625 C 90.984375 220.40625 90.265625 221.121094 90.265625 222 C 90.265625 222.878906 90.984375 223.597656 91.859375 223.597656 L 96.753906 223.597656 C 97.632812 223.597656 98.351562 222.878906 98.351562 222 C 98.351562 221.121094 97.632812 220.40625 96.753906 220.40625 Z M 96.753906 220.40625 " fill-opacity="1" fill-rule="nonzero"/><path fill="#ffffff" d="M 59.027344 317.863281 L 44.851562 348.378906 C 40.804688 357.09375 44.585938 367.4375 53.300781 371.488281 C 53.855469 371.746094 54.417969 371.972656 54.984375 372.167969 C 63.308594 375.03125 72.617188 371.195312 76.40625 363.039062 L 90.582031 332.523438 C 94.628906 323.808594 63.074219 309.148438 59.027344 317.863281 Z M 72.332031 339.335938 C 72.652344 338.652344 73.472656 338.359375 74.152344 338.679688 L 78.960938 340.941406 C 79.644531 341.265625 79.9375 342.082031 79.617188 342.765625 C 79.296875 343.445312 78.476562 343.742188 77.796875 343.421875 L 72.988281 341.15625 C 72.304688 340.835938 72.011719 340.015625 72.332031 339.335938 Z M 69.71875 345.328125 C 70.039062 344.644531 70.859375 344.351562 71.542969 344.671875 L 76.351562 346.9375 C 77.03125 347.257812 77.328125 348.078125 77.007812 348.757812 C 76.6875 349.4375 75.867188 349.734375 75.183594 349.414062 L 70.375 347.148438 C 69.695312 346.828125 69.398438 346.007812 69.71875 345.328125 Z M 66.824219 351.691406 C 67.144531 351.011719 67.964844 350.714844 68.644531 351.035156 L 73.453125 353.300781 C 74.136719 353.621094 74.429688 354.441406 74.109375 355.121094 C 73.789062 355.804688 72.96875 356.097656 72.289062 355.777344 L 67.480469 353.511719 C 66.796875 353.191406 66.503906 352.371094 66.824219 351.691406 Z M 66.824219 351.691406 " fill-opacity="1" fill-rule="nonzero"/><path fill="#ffffff" d="M 126.167969 324.101562 L 127.246094 357.734375 C 127.535156 366.722656 134.59375 373.902344 143.375 374.527344 C 143.972656 374.570312 144.578125 374.582031 145.191406 374.5625 C 154.796875 374.257812 162.332031 366.222656 162.023438 356.617188 L 160.945312 322.988281 C 160.636719 313.386719 125.863281 314.5 126.167969 324.101562 Z M 155.457031 352.304688 L 150.144531 352.503906 C 149.390625 352.53125 148.753906 351.9375 148.726562 351.1875 C 148.695312 350.433594 149.289062 349.796875 150.042969 349.765625 L 155.355469 349.570312 C 156.105469 349.542969 156.746094 350.132812 156.773438 350.886719 C 156.800781 351.640625 156.207031 352.277344 155.457031 352.304688 Z M 155.285156 345.316406 L 149.976562 345.511719 C 149.222656 345.542969 148.582031 344.949219 148.554688 344.195312 C 148.527344 343.445312 149.121094 342.804688 149.871094 342.777344 L 155.183594 342.578125 C 155.9375 342.550781 156.574219 343.144531 156.605469 343.894531 C 156.632812 344.648438 156.039062 345.289062 155.285156 345.316406 Z M 149.820312 336.238281 L 155.132812 336.042969 C 155.882812 336.015625 156.523438 336.605469 156.550781 337.359375 C 156.578125 338.113281 155.988281 338.75 155.234375 338.777344 L 149.921875 338.976562 C 149.167969 339.003906 148.53125 338.410156 148.503906 337.660156 C 148.476562 336.90625 149.066406 336.269531 149.820312 336.238281 Z M 149.820312 336.238281 " fill-opacity="1" fill-rule="nonzero"/><path fill="#ffffff" d="M 135.710938 153.921875 C 141.128906 152.171875 144.101562 146.359375 142.351562 140.941406 C 140.601562 135.527344 134.789062 132.554688 129.371094 134.304688 L 66.390625 154.660156 L 67.550781 151.171875 L 102.386719 139.910156 L 75.921875 133.925781 C 75.910156 133.929688 75.898438 133.9375 75.890625 133.941406 C 72.171875 133.121094 68.140625 134.390625 65.605469 137.570312 L 45.035156 163.363281 C 45.027344 163.375 45.019531 163.382812 45.011719 163.394531 C 44.863281 163.582031 44.730469 163.777344 44.59375 163.976562 C 43.992188 164.855469 43.542969 165.792969 43.246094 166.769531 C 43.226562 166.828125 43.203125 166.890625 43.183594 166.949219 C 43.125 167.15625 43.082031 167.363281 43.035156 167.570312 C 43.007812 167.695312 42.976562 167.816406 42.953125 167.9375 C 42.925781 168.09375 42.910156 168.25 42.886719 168.40625 C 42.863281 168.585938 42.835938 168.765625 42.820312 168.945312 C 42.8125 169.050781 42.8125 169.15625 42.808594 169.261719 C 42.796875 169.492188 42.78125 169.722656 42.785156 169.953125 C 42.785156 170.003906 42.792969 170.054688 42.796875 170.101562 C 42.808594 170.519531 42.851562 170.941406 42.917969 171.359375 C 42.945312 171.550781 42.96875 171.742188 43.007812 171.929688 C 43.023438 171.996094 43.042969 172.058594 43.058594 172.125 C 43.121094 172.398438 43.191406 172.667969 43.277344 172.9375 C 43.28125 172.945312 43.28125 172.953125 43.285156 172.960938 C 43.289062 172.980469 43.300781 172.996094 43.308594 173.015625 C 43.460938 173.492188 43.65625 173.953125 43.882812 174.402344 C 43.910156 174.460938 43.9375 174.523438 43.96875 174.578125 C 44.191406 175.003906 44.445312 175.410156 44.730469 175.804688 C 44.789062 175.890625 44.851562 175.96875 44.914062 176.054688 C 45.191406 176.414062 45.488281 176.765625 45.820312 177.09375 C 45.835938 177.113281 45.851562 177.132812 45.871094 177.148438 C 46.121094 177.394531 46.386719 177.628906 46.667969 177.851562 C 46.730469 177.902344 46.800781 177.9375 46.867188 177.984375 C 47.140625 178.195312 47.429688 178.375 47.722656 178.554688 C 47.917969 178.675781 48.109375 178.808594 48.3125 178.914062 C 48.597656 179.0625 48.898438 179.183594 49.199219 179.304688 C 49.414062 179.394531 49.625 179.496094 49.847656 179.570312 C 50.199219 179.6875 50.5625 179.765625 50.925781 179.84375 C 51.097656 179.878906 51.265625 179.9375 51.4375 179.964844 C 51.980469 180.054688 52.535156 180.105469 53.089844 180.105469 C 53.128906 180.105469 53.164062 180.097656 53.199219 180.097656 C 53.632812 180.089844 54.0625 180.054688 54.488281 179.996094 C 54.628906 179.976562 54.765625 179.953125 54.902344 179.925781 C 55.304688 179.855469 55.699219 179.761719 56.089844 179.644531 C 56.148438 179.625 56.207031 179.621094 56.265625 179.601562 L 58.332031 178.933594 Z M 135.710938 153.921875 " fill-opacity="1" fill-rule="nonzero"/><path fill="#ffffff" d="M 215.734375 50.992188 C 207.753906 48.816406 191.710938 53.96875 188.179688 66.929688 C 184.644531 79.894531 184.613281 81.3125 184.613281 81.3125 L 195.464844 87.367188 L 194.40625 90.695312 L 192.925781 95.363281 L 193.683594 95.570312 L 194.339844 95.75 L 193.570312 98.574219 L 196.0625 99.253906 L 196.832031 96.429688 L 199.160156 97.0625 L 198.390625 99.886719 L 200.882812 100.566406 L 201.652344 97.742188 L 204.144531 98.421875 L 203.375 101.246094 L 205.867188 101.925781 L 206.636719 99.101562 L 208.964844 99.734375 L 208.195312 102.558594 L 210.6875 103.238281 L 211.457031 100.414062 L 212.113281 100.59375 L 212.871094 100.796875 L 213.964844 96.019531 L 214.742188 92.621094 L 227.160156 92.910156 C 227.160156 92.910156 227.855469 91.671875 231.390625 78.707031 C 234.921875 65.742188 223.710938 53.164062 215.734375 50.992188 Z M 197.257812 78.316406 C 193.910156 77.40625 192.015625 73.679688 193.019531 69.996094 C 194.023438 66.308594 197.550781 64.0625 200.894531 64.972656 C 204.238281 65.882812 206.136719 69.609375 205.132812 73.296875 C 204.128906 76.980469 200.601562 79.230469 197.257812 78.316406 Z M 201.945312 85.984375 C 202.699219 83.214844 205.515625 79.871094 207.699219 80.464844 C 209.886719 81.0625 210.613281 85.371094 209.859375 88.140625 C 209.105469 90.910156 207.152344 91.085938 204.96875 90.492188 C 202.78125 89.894531 201.191406 88.75 201.945312 85.984375 Z M 225.664062 78.890625 C 224.660156 82.578125 221.132812 84.824219 217.789062 83.914062 C 214.445312 83 212.546875 79.273438 213.550781 75.589844 C 214.554688 71.90625 218.082031 69.65625 221.425781 70.566406 C 224.769531 71.480469 226.667969 75.207031 225.664062 78.890625 Z M 225.664062 78.890625 " fill-opacity="1" fill-rule="nonzero"/><path fill="#ffffff" d="M 202.515625 104.40625 L 201.714844 107.335938 L 200.390625 107.277344 L 199.222656 106.65625 L 200.023438 103.726562 L 200.082031 103.496094 L 199.074219 103.222656 L 197.589844 102.816406 L 196.882812 105.414062 L 194.699219 104.257812 L 195.480469 101.386719 L 192.988281 100.707031 L 192.359375 103.015625 L 189.785156 101.648438 L 191.636719 89.179688 L 184.394531 85.183594 L 184.035156 102.222656 L 194.179688 109.988281 L 199.605469 110.160156 L 204.371094 112.765625 L 217.050781 111.222656 L 225.390625 96.355469 L 217.121094 96.125 L 212.386719 107.808594 L 209.476562 107.679688 L 210.105469 105.371094 L 207.613281 104.691406 L 206.832031 107.5625 L 204.363281 107.453125 L 205.070312 104.855469 L 203.585938 104.453125 L 202.578125 104.175781 Z M 202.515625 104.40625 " fill-opacity="1" fill-rule="nonzero"/><path fill="#ffffff" d="M 75.539062 59.398438 L 25.433594 26.714844 L 21.230469 30.800781 L 73.664062 61.390625 Z M 75.539062 59.398438 " fill-opacity="1" fill-rule="nonzero"/><path fill="#ffffff" d="M 85.164062 53.894531 L 59.1875 0 L 53.476562 1.324219 L 82.527344 54.628906 Z M 85.164062 53.894531 " fill-opacity="1" fill-rule="nonzero"/><g clip-path="url(#985339525a)"><path fill="#ffffff" d="M 68.722656 71.996094 L 9.253906 65.484375 L 7.351562 71.03125 L 67.949219 74.621094 Z M 68.722656 71.996094 " fill-opacity="1" fill-rule="nonzero"/></g><path fill="#ff6e40" d="M 267.664062 339.054688 C 249.785156 338.222656 247.296875 348.460938 236.65625 355.882812 C 233.765625 357.902344 227.136719 361.699219 230.382812 366.257812 C 232.726562 369.554688 239.273438 369.410156 242.78125 369.796875 C 249.21875 370.511719 255.6875 370.457031 262.085938 371.5625 C 268.640625 372.699219 275.316406 375.003906 282.054688 374.238281 C 286.609375 373.71875 290.589844 371.140625 295.105469 370.40625 C 301.515625 369.363281 308.082031 370.105469 314.507812 368.902344 C 317.597656 368.320312 323.445312 367.152344 325.109375 363.933594 C 327.480469 359.34375 315.121094 353.210938 312.128906 351.691406 C 307.773438 349.480469 306.144531 344.308594 301.925781 341.890625 C 292.398438 336.449219 278.1875 337.585938 267.664062 339.054688 Z M 267.664062 339.054688 " fill-opacity="1" fill-rule="evenodd"/><path fill="#ffffff" d="M 254.554688 336.113281 C 254.695312 336.574219 254.640625 337.496094 254.632812 337.550781 C 254.53125 338.648438 254.429688 339.75 254.328125 340.847656 C 254.21875 342.027344 253.171875 348.296875 253.800781 349.054688 C 254.1875 349.519531 257.445312 350.808594 257.886719 350.289062 C 258.363281 349.730469 258.699219 347.59375 260.210938 348.066406 C 261.863281 348.585938 260.671875 351.144531 261.285156 351.414062 C 261.824219 351.644531 262.929688 351.9375 263.488281 352.039062 C 265.414062 352.382812 265.386719 349.515625 267.269531 349.347656 C 268.714844 349.21875 269.203125 351.597656 269.203125 351.597656 C 269.203125 351.597656 270.808594 350.65625 271.28125 350.308594 C 273.539062 348.605469 275.996094 347.636719 278.769531 347.15625 C 280.90625 346.789062 283.007812 346.910156 285.136719 347.371094 C 286.355469 347.632812 289.460938 348.371094 289.460938 348.371094 C 289.460938 348.371094 291.335938 345.824219 292.726562 344.96875 C 295.148438 343.488281 298.707031 342.925781 301 341.066406 C 306.546875 336.5625 306.925781 326.710938 304.355469 319.230469 C 300.292969 307.402344 282.761719 298.660156 269.753906 300.808594 C 258.425781 302.683594 251.5 313.335938 251.523438 324.199219 C 251.539062 330.332031 253.867188 333.882812 254.554688 336.113281 Z M 254.554688 336.113281 " fill-opacity="1" fill-rule="evenodd"/><path fill="#ff6e40" d="M 282.714844 326.304688 C 282.980469 326.835938 283.296875 327.601562 283.410156 328.027344 C 283.914062 329.851562 283.808594 331.984375 282.949219 333.453125 C 281.917969 335.21875 280.183594 336.285156 277.839844 335.980469 C 275.375 335.664062 273.339844 333.253906 272.402344 331.113281 C 271.882812 329.933594 271.628906 328.109375 271.800781 326.800781 C 272.597656 320.851562 280.136719 321.109375 282.714844 326.304688 Z M 260.652344 321.566406 C 261.089844 321.628906 261.542969 321.761719 261.804688 321.949219 C 263.035156 322.828125 263.136719 324.035156 263.132812 325.339844 C 263.117188 328.273438 261.9375 331.847656 258.734375 332.65625 C 258.007812 332.839844 257.140625 332.886719 256.445312 332.574219 C 255.257812 332.046875 254.765625 330.753906 254.65625 329.539062 C 254.433594 327.152344 255.441406 324.621094 257.160156 322.96875 C 257.910156 322.25 259.363281 321.378906 260.652344 321.566406 Z M 266.652344 333.332031 C 267.976562 333.792969 268.359375 337.570312 268.226562 339.105469 C 268.171875 339.691406 268.039062 340.730469 267.386719 340.972656 C 266.523438 341.289062 265.871094 340.058594 265.070312 339.960938 C 264.367188 339.867188 263.347656 340.753906 262.757812 340.050781 C 262.292969 339.488281 262.570312 338.585938 262.746094 337.964844 C 263.128906 336.570312 263.769531 335.035156 264.796875 333.984375 C 265.28125 333.484375 265.941406 333.089844 266.652344 333.332031 Z M 266.652344 333.332031 " fill-opacity="1" fill-rule="evenodd"/><path fill="#ff6e40" d="M 301.757812 328.75 C 301.75 328.582031 301.882812 328.441406 302.050781 328.4375 C 302.214844 328.433594 302.355469 328.5625 302.359375 328.730469 C 302.359375 328.730469 302.480469 332.027344 300.765625 334.882812 C 299.523438 336.941406 297.183594 338.296875 295.382812 338.980469 C 293.6875 339.632812 292.824219 339.953125 292.089844 340.566406 C 291.960938 340.671875 291.769531 340.660156 291.664062 340.53125 C 291.558594 340.398438 291.570312 340.214844 291.703125 340.101562 C 292.476562 339.457031 293.378906 339.101562 295.167969 338.414062 C 296.859375 337.769531 299.074219 336.507812 300.246094 334.570312 C 301.871094 331.871094 301.757812 328.75 301.757812 328.75 Z M 278.414062 304.164062 C 278.277344 304.074219 278.238281 303.886719 278.328125 303.746094 C 278.417969 303.609375 278.605469 303.570312 278.746094 303.660156 C 278.746094 303.660156 280.371094 304.722656 281.789062 306.308594 C 282.664062 307.28125 283.042969 307.363281 283.636719 307.351562 C 283.929688 307.347656 284.269531 307.328125 284.710938 307.367188 C 286.210938 307.503906 286.816406 308.285156 288.09375 309.410156 C 289.230469 310.414062 289.753906 310.5 290.949219 310.464844 C 291.117188 310.460938 291.253906 310.589844 291.261719 310.757812 C 291.265625 310.925781 291.128906 311.066406 290.96875 311.070312 C 289.601562 311.109375 289 311.011719 287.699219 309.867188 C 286.539062 308.84375 286.015625 308.089844 284.65625 307.96875 C 284.242188 307.929688 283.925781 307.949219 283.652344 307.957031 C 283.324219 307.960938 283.046875 307.949219 282.75 307.832031 C 282.371094 307.6875 281.949219 307.386719 281.34375 306.710938 C 279.976562 305.1875 278.414062 304.164062 278.414062 304.164062 Z M 259.335938 310.589844 C 259.210938 310.699219 259.019531 310.691406 258.910156 310.566406 C 258.796875 310.441406 258.808594 310.25 258.933594 310.140625 C 258.933594 310.140625 260.496094 308.730469 262.652344 308.550781 C 262.820312 308.539062 262.964844 308.664062 262.980469 308.832031 C 262.992188 308.996094 262.871094 309.140625 262.703125 309.15625 C 260.75 309.316406 259.335938 310.589844 259.335938 310.589844 Z M 259.335938 310.589844 " fill-opacity="1" fill-rule="evenodd"/><path fill="#ff6e40" d="M 289.742188 348.78125 C 289.582031 348.738281 289.484375 348.570312 289.527344 348.40625 C 289.574219 348.25 289.742188 348.152344 289.902344 348.195312 C 289.902344 348.195312 292.199219 348.84375 294.117188 349.621094 C 294.273438 349.683594 294.347656 349.859375 294.285156 350.015625 C 294.222656 350.167969 294.046875 350.246094 293.894531 350.183594 C 292.003906 349.417969 289.742188 348.78125 289.742188 348.78125 Z M 289.742188 348.78125 " fill-opacity="1" fill-rule="evenodd"/><path fill="#ff6e40" d="M 317.5 359.175781 C 317.492188 359.175781 317.488281 359.175781 317.488281 359.175781 C 317.332031 359.089844 317.226562 358.976562 317.261719 358.8125 C 317.289062 358.710938 317.351562 358.636719 317.460938 358.59375 C 317.5 358.578125 317.566406 358.5625 317.667969 358.59375 C 317.777344 358.625 318.292969 358.945312 318.332031 358.972656 C 318.472656 359.0625 318.511719 359.25 318.417969 359.386719 C 318.328125 359.527344 318.140625 359.566406 318 359.476562 C 317.96875 359.457031 317.574219 359.21875 317.5 359.175781 Z M 311.4375 360.222656 C 311.339844 360.089844 311.375 359.898438 311.507812 359.800781 C 311.644531 359.703125 311.835938 359.738281 311.929688 359.871094 C 311.960938 359.910156 312.023438 359.941406 312.089844 359.976562 C 312.265625 360.078125 312.484375 360.171875 312.589844 360.238281 C 312.726562 360.328125 312.769531 360.515625 312.679688 360.652344 C 312.589844 360.792969 312.402344 360.835938 312.261719 360.746094 C 312.140625 360.667969 311.882812 360.558594 311.703125 360.449219 C 311.582031 360.375 311.492188 360.292969 311.4375 360.222656 Z M 312.652344 356.015625 C 312.515625 355.917969 312.492188 355.726562 312.59375 355.59375 C 312.695312 355.460938 312.886719 355.4375 313.015625 355.539062 C 313.320312 355.773438 313.707031 355.941406 314.03125 356.152344 C 314.171875 356.242188 314.210938 356.429688 314.117188 356.570312 C 314.027344 356.707031 313.839844 356.746094 313.699219 356.65625 C 313.363281 356.433594 312.972656 356.257812 312.652344 356.015625 Z M 307.492188 353.925781 C 307.574219 353.992188 307.703125 354.105469 307.75 354.15625 C 307.957031 354.386719 308.136719 354.644531 308.324219 354.890625 C 308.425781 355.023438 308.398438 355.210938 308.269531 355.3125 C 308.132812 355.414062 307.945312 355.382812 307.847656 355.253906 C 307.667969 355.019531 307.5 354.78125 307.304688 354.558594 C 307.25 354.503906 307.109375 354.390625 307.039062 354.335938 C 306.992188 354.292969 306.960938 354.253906 306.949219 354.234375 C 306.859375 354.089844 306.90625 353.976562 306.945312 353.914062 C 306.96875 353.875 307.089844 353.6875 307.347656 353.792969 C 307.410156 353.820312 307.457031 353.871094 307.492188 353.925781 Z M 283.851562 356.433594 C 283.742188 356.308594 283.75 356.117188 283.875 356.007812 C 284 355.898438 284.191406 355.90625 284.304688 356.03125 C 284.609375 356.378906 284.878906 356.757812 285.140625 357.132812 C 285.238281 357.273438 285.203125 357.460938 285.066406 357.558594 C 284.925781 357.652344 284.738281 357.617188 284.644531 357.480469 C 284.394531 357.121094 284.140625 356.765625 283.851562 356.433594 Z M 289.207031 360.300781 C 289.15625 360.261719 289.117188 360.203125 289.097656 360.136719 C 289.054688 359.972656 289.152344 359.808594 289.3125 359.765625 C 289.378906 359.746094 289.46875 359.746094 289.5625 359.808594 C 289.589844 359.828125 289.628906 359.859375 289.664062 359.90625 C 289.714844 359.972656 289.789062 360.097656 289.800781 360.113281 C 289.96875 360.382812 290.101562 360.679688 290.234375 360.964844 C 290.304688 361.113281 290.238281 361.296875 290.089844 361.367188 C 289.941406 361.441406 289.757812 361.375 289.6875 361.226562 C 289.5625 360.960938 289.449219 360.6875 289.292969 360.4375 C 289.285156 360.425781 289.230469 360.335938 289.207031 360.300781 Z M 281.503906 363.148438 C 281.480469 362.984375 281.589844 362.828125 281.75 362.800781 C 281.914062 362.777344 282.074219 362.890625 282.097656 363.050781 C 282.164062 363.464844 282.507812 363.953125 282.652344 364.355469 C 282.710938 364.515625 282.628906 364.6875 282.472656 364.746094 C 282.3125 364.800781 282.140625 364.71875 282.085938 364.5625 C 281.933594 364.125 281.574219 363.59375 281.503906 363.148438 Z M 276.6875 364.886719 C 276.605469 364.746094 276.660156 364.558594 276.804688 364.476562 C 276.949219 364.394531 277.132812 364.445312 277.214844 364.589844 C 277.34375 364.820312 277.371094 365.140625 277.417969 365.394531 C 277.449219 365.558594 277.339844 365.71875 277.175781 365.75 C 277.015625 365.785156 276.855469 365.675781 276.824219 365.511719 C 276.785156 365.316406 276.789062 365.066406 276.6875 364.886719 Z M 249.65625 362.148438 C 249.699219 362.074219 249.773438 362.019531 249.871094 362.007812 C 250.03125 361.984375 250.1875 362.097656 250.210938 362.261719 C 250.210938 362.273438 250.234375 362.367188 250.15625 362.476562 C 250.132812 362.515625 249.980469 362.726562 249.980469 362.726562 C 249.8125 363.011719 249.660156 363.304688 249.519531 363.601562 C 249.449219 363.75 249.269531 363.820312 249.117188 363.746094 C 248.96875 363.675781 248.902344 363.496094 248.972656 363.34375 C 249.121094 363.027344 249.285156 362.710938 249.460938 362.410156 C 249.476562 362.394531 249.636719 362.179688 249.65625 362.148438 Z M 242.855469 363.347656 C 242.917969 363.195312 243.09375 363.125 243.25 363.1875 C 243.402344 363.25 243.472656 363.425781 243.410156 363.578125 C 243.285156 363.875 243.152344 364.164062 243.046875 364.464844 C 242.988281 364.625 242.816406 364.707031 242.660156 364.648438 C 242.5 364.589844 242.417969 364.417969 242.476562 364.261719 C 242.585938 363.953125 242.726562 363.65625 242.855469 363.347656 Z M 244.964844 356.847656 C 245.035156 356.699219 245.21875 356.636719 245.367188 356.707031 C 245.515625 356.78125 245.578125 356.960938 245.507812 357.109375 C 245.339844 357.453125 245.125 357.777344 244.957031 358.117188 C 244.878906 358.265625 244.699219 358.328125 244.550781 358.253906 C 244.402344 358.175781 244.339844 357.996094 244.417969 357.847656 C 244.585938 357.507812 244.800781 357.1875 244.964844 356.847656 Z M 239.691406 362.121094 C 239.691406 362.121094 239.699219 362.105469 239.699219 362.105469 C 239.839844 361.886719 240.585938 361.824219 240.214844 362.429688 C 240.214844 362.429688 240.207031 362.4375 240.207031 362.4375 C 240.199219 362.457031 240.167969 362.5 240.160156 362.515625 C 240.125 362.585938 240.09375 362.664062 240.058594 362.734375 C 239.953125 362.964844 239.859375 363.199219 239.761719 363.441406 C 239.699219 363.59375 239.527344 363.675781 239.367188 363.613281 C 239.214844 363.550781 239.132812 363.378906 239.195312 363.21875 C 239.292969 362.96875 239.394531 362.726562 239.503906 362.484375 C 239.535156 362.410156 239.570312 362.332031 239.609375 362.253906 C 239.628906 362.222656 239.671875 362.15625 239.691406 362.121094 C 239.667969 362.164062 239.652344 362.203125 239.652344 362.230469 C 239.65625 362.195312 239.667969 362.15625 239.691406 362.121094 Z M 239.691406 362.121094 " fill-opacity="1" fill-rule="evenodd"/><g clip-path="url(#777036ba00)"><g clip-path="url(#8301bfcb1a)"><g clip-path="url(#691eafdf7d)"><path fill="#ff6e40" d="M 52.621094 1.167969 L 58.769531 -1.75 L 85.003906 53.566406 L 78.855469 56.480469 Z M 52.621094 1.167969 " fill-opacity="1" fill-rule="nonzero"/></g></g></g><g clip-path="url(#17b4827f13)"><g clip-path="url(#2261b94895)"><g clip-path="url(#c4b2e66212)"><path fill="#ff6e40" d="M 19.179688 29.480469 L 22.179688 24.492188 L 78.085938 58.113281 L 75.085938 63.101562 Z M 19.179688 29.480469 " fill-opacity="1" fill-rule="nonzero"/></g></g></g><g clip-path="url(#3cf5de5a3d)"><g clip-path="url(#b219164930)"><g clip-path="url(#a7ceb718e7)"><path fill="#ff6e40" d="M 7.238281 71.089844 L 7.863281 65.027344 L 72.753906 71.738281 L 72.125 77.804688 Z M 7.238281 71.089844 " fill-opacity="1" fill-rule="nonzero"/></g></g></g></svg>