<svg xmlns="http://www.w3.org/2000/svg" xmlns:xlink="http://www.w3.org/1999/xlink" width="500" zoomAndPan="magnify" viewBox="0 0 375 374.999991" height="500" preserveAspectRatio="xMidYMid meet" version="1.0"><defs><clipPath id="837f01accf"><path d="M 1 0 L 374 0 L 374 363.75 L 1 363.75 Z M 1 0 " clip-rule="nonzero"/></clipPath><clipPath id="b5be67e2ff"><path d="M 174 22.433594 L 182 22.433594 L 182 26 L 174 26 Z M 174 22.433594 " clip-rule="nonzero"/></clipPath></defs><path fill="#ffffff" d="M 356.109375 362.722656 L 18.816406 362.722656 C 7.757812 362.722656 0.0820312 357.003906 1.585938 350.082031 L 1.585938 340.601562 L 10.917969 301.628906 L 27.394531 226.539062 C 28.449219 221.800781 36.574219 217.964844 45.527344 217.964844 L 51.167969 217.210938 C 39.507812 217.210938 29.875 208.257812 28.824219 196.898438 C 28.296875 194.941406 27.996094 192.835938 27.996094 190.726562 L 27.996094 23.25 C 27.996094 10.457031 38.453125 0 51.246094 0 L 323.753906 0 C 336.546875 0 347.003906 10.457031 347.003906 23.25 L 347.003906 190.652344 C 347.003906 192.757812 346.703125 194.867188 346.175781 196.820312 C 345.125 208.257812 335.492188 217.136719 323.832031 217.136719 L 329.472656 217.886719 C 338.425781 217.886719 346.550781 221.726562 347.605469 226.464844 L 366.113281 310.882812 L 373.488281 342.03125 L 373.488281 350.007812 C 374.917969 357.003906 367.167969 362.722656 356.109375 362.722656 Z M 356.109375 362.722656 " fill-opacity="1" fill-rule="nonzero"/><path fill="#ff6e40" d="M 373.414062 350.082031 L 373.414062 342.105469 L 366.039062 310.957031 L 372.585938 340.75 C 373.035156 342.933594 372.507812 345.117188 371.003906 346.921875 C 368.222656 350.382812 362.652344 352.414062 356.03125 352.414062 L 18.816406 352.414062 C 12.195312 352.414062 6.628906 350.382812 3.84375 346.921875 C 2.339844 345.039062 1.8125 342.933594 2.265625 340.75 L 10.839844 301.628906 L 1.585938 340.601562 L 1.585938 350.082031 C 0.0820312 357.003906 7.757812 362.722656 18.816406 362.722656 L 356.109375 362.722656 C 367.167969 362.722656 374.917969 357.003906 373.414062 350.082031 Z M 373.414062 350.082031 " fill-opacity="1" fill-rule="nonzero"/><path fill="#ffffff" d="M 334.816406 202.917969 L 40.035156 202.917969 L 40.035156 19.035156 L 334.816406 19.035156 Z M 334.816406 202.917969 " fill-opacity="1" fill-rule="nonzero"/><path fill="#ff6e40" d="M 255.964844 340.828125 L 118.882812 340.828125 L 122.644531 294.554688 L 252.203125 294.554688 Z M 255.964844 340.828125 " fill-opacity="1" fill-rule="nonzero"/><g clip-path="url(#837f01accf)"><path fill="#000000" d="M 225.195312 289.140625 L 126.257812 289.140625 L 127.085938 278.003906 L 224.59375 278.003906 Z M 221.28125 262.277344 L 238.058594 262.277344 L 237.457031 252.800781 L 220.90625 252.800781 Z M 235.800781 240.6875 L 236.40625 249.863281 L 252.957031 249.863281 L 252.128906 240.6875 Z M 194.195312 240.6875 L 194.269531 249.863281 L 210.824219 249.863281 L 210.523438 240.6875 Z M 248.367188 265.136719 L 231.515625 265.136719 L 232.039062 274.917969 L 249.121094 274.917969 Z M 200.140625 262.277344 L 216.917969 262.277344 L 216.542969 252.800781 L 199.988281 252.800781 Z M 227 265.136719 L 210.148438 265.136719 L 210.449219 274.917969 L 227.527344 274.917969 Z M 214.960938 240.6875 L 215.339844 249.863281 L 231.890625 249.863281 L 231.363281 240.6875 Z M 205.632812 265.136719 L 188.777344 265.136719 L 188.777344 274.917969 L 205.859375 274.917969 Z M 146.121094 265.136719 L 145.59375 274.917969 L 162.671875 274.917969 L 162.972656 265.136719 Z M 167.488281 265.136719 L 167.261719 274.917969 L 184.339844 274.917969 L 184.414062 265.136719 Z M 91.496094 252.722656 L 74.945312 252.722656 L 73.515625 262.277344 L 90.292969 262.277344 Z M 179.074219 262.277344 L 195.851562 262.277344 L 195.777344 252.800781 L 179.222656 252.800781 Z M 60.800781 265.136719 L 59.21875 274.917969 L 76.222656 274.917969 L 77.652344 265.136719 Z M 85.777344 240.6875 L 69.453125 240.6875 L 68.023438 249.863281 L 84.574219 249.863281 Z M 335.566406 203.667969 L 39.28125 203.667969 L 39.28125 18.28125 L 335.566406 18.28125 Z M 334.0625 19.863281 L 40.785156 19.863281 L 40.785156 202.238281 L 334.0625 202.238281 Z M 284.632812 262.277344 L 301.410156 262.277344 L 299.980469 252.800781 L 283.429688 252.800781 Z M 53.050781 289.140625 L 72.160156 289.140625 L 73.816406 278.003906 L 55.007812 278.003906 Z M 229.40625 289.140625 L 251.828125 289.140625 L 250.925781 278.003906 L 228.804688 278.003906 Z M 256.566406 240.6875 L 257.394531 249.863281 L 273.949219 249.863281 L 272.894531 240.6875 Z M 253.632812 274.992188 L 270.714844 274.992188 L 269.660156 265.214844 L 252.804688 265.214844 Z M 242.347656 262.277344 L 259.125 262.277344 L 258.222656 252.800781 L 241.671875 252.800781 Z M 263.488281 262.277344 L 280.269531 262.277344 L 279.140625 252.800781 L 262.585938 252.800781 Z M 277.332031 240.6875 L 278.460938 249.863281 L 295.015625 249.863281 L 293.734375 240.6875 Z M 314.5 240.6875 L 298.175781 240.6875 L 299.527344 249.863281 L 316.082031 249.863281 Z M 141.605469 265.136719 L 124.75 265.136719 L 123.925781 274.917969 L 141.003906 274.917969 Z M 173.429688 240.6875 L 173.28125 249.863281 L 189.832031 249.863281 L 189.832031 240.6875 Z M 300.957031 278.003906 L 302.539062 289.140625 L 321.648438 289.140625 L 319.769531 278.003906 Z M 296.894531 274.992188 L 342.265625 274.992188 L 340.382812 265.4375 L 295.542969 265.4375 Z M 325.863281 289.140625 L 344.972656 289.140625 L 342.789062 278.003906 L 323.980469 278.003906 Z M 291.027344 265.136719 L 274.175781 265.136719 L 275.300781 274.917969 L 292.382812 274.917969 Z M 278.011719 278.003906 L 279.289062 289.140625 L 298.402344 289.140625 L 296.820312 278.003906 Z M 254.988281 278.003906 L 255.964844 289.140625 L 275.078125 289.140625 L 273.871094 278.003906 Z M 320.519531 249.941406 L 337.074219 249.941406 L 335.265625 240.761719 L 318.941406 240.761719 Z M 50.867188 278.003906 L 32.058594 278.003906 L 29.875 289.140625 L 48.988281 289.140625 Z M 70.582031 252.875 L 36.949219 252.875 L 35.144531 262.128906 L 69.152344 262.128906 Z M 56.210938 265.4375 L 34.464844 265.4375 L 32.585938 274.992188 L 54.554688 274.992188 Z M 65.011719 240.835938 L 39.355469 240.835938 L 37.550781 249.789062 L 63.507812 249.789062 Z M 333.3125 230.453125 L 41.464844 230.453125 L 39.957031 237.976562 L 334.816406 237.976562 Z M 305.699219 262.128906 L 339.707031 262.128906 L 337.898438 252.875 L 304.269531 252.875 Z M 131.148438 249.941406 L 147.699219 249.941406 L 148.152344 240.761719 L 131.824219 240.761719 Z M 115.722656 262.277344 L 132.5 262.277344 L 133.179688 252.800781 L 116.625 252.800781 Z M 136.789062 262.277344 L 153.566406 262.277344 L 154.019531 252.800781 L 137.46875 252.800781 Z M 102.40625 274.992188 L 119.484375 274.992188 L 120.3125 265.214844 L 103.460938 265.214844 Z M 152.214844 249.941406 L 168.765625 249.941406 L 168.992188 240.761719 L 152.664062 240.761719 Z M 157.929688 262.277344 L 174.710938 262.277344 L 174.859375 252.800781 L 158.308594 252.800781 Z M 80.738281 274.992188 L 97.816406 274.992188 L 98.945312 265.214844 L 82.09375 265.214844 Z M 252.882812 293.804688 L 256.71875 341.578125 L 118.054688 341.578125 L 121.894531 293.804688 Z M 255.140625 340.074219 L 251.527344 295.308594 L 123.320312 295.308594 L 119.710938 340.074219 Z M 122.945312 278.003906 L 100.824219 278.003906 L 99.621094 289.140625 L 122.042969 289.140625 Z M 110.082031 249.941406 L 126.632812 249.941406 L 127.386719 240.761719 L 111.058594 240.761719 Z M 76.375 289.140625 L 95.484375 289.140625 L 96.761719 278.003906 L 77.953125 278.003906 Z M 89.089844 249.941406 L 105.640625 249.941406 L 106.621094 240.761719 L 90.292969 240.761719 Z M 94.582031 262.277344 L 111.359375 262.277344 L 112.335938 252.800781 L 95.785156 252.800781 Z M 371.53125 357.304688 C 368.445312 361.140625 362.429688 363.398438 355.355469 363.398438 L 19.492188 363.398438 C 12.496094 363.398438 6.476562 361.140625 3.394531 357.304688 C 1.664062 355.121094 0.984375 352.5625 1.511719 349.929688 L 1.511719 343.835938 C 1.285156 342.785156 1.285156 341.65625 1.511719 340.527344 L 26.566406 226.316406 C 27.695312 221.199219 36.046875 217.136719 45.300781 217.136719 C 35.292969 214.578125 27.84375 205.472656 27.84375 194.640625 L 27.84375 23.25 C 27.84375 10.457031 38.304688 0 51.09375 0 L 323.753906 0 C 336.546875 0 347.003906 10.457031 347.003906 23.25 L 347.003906 194.714844 C 347.003906 205.550781 339.554688 214.652344 329.550781 217.210938 C 338.804688 217.210938 347.15625 221.347656 348.28125 226.390625 L 373.335938 340.601562 C 373.5625 341.578125 373.5625 342.558594 373.414062 343.460938 L 373.414062 350.007812 C 373.9375 352.5625 373.335938 355.121094 371.53125 357.304688 Z M 51.167969 216.382812 L 323.753906 216.382812 C 335.71875 216.382812 345.5 206.601562 345.5 194.640625 L 345.5 27.3125 C 345.5 15.347656 335.71875 5.566406 323.753906 5.566406 L 51.167969 5.566406 C 39.207031 5.566406 29.425781 15.347656 29.425781 27.3125 L 29.425781 194.714844 C 29.425781 206.679688 39.132812 216.382812 51.167969 216.382812 Z M 3.09375 340.828125 L 3.09375 343.835938 C 3.316406 344.738281 3.769531 345.640625 4.445312 346.46875 C 7.078125 349.707031 12.570312 351.738281 18.816406 351.738281 L 356.109375 351.738281 C 362.351562 351.738281 367.84375 349.707031 370.476562 346.46875 C 371.304688 345.417969 371.757812 344.289062 371.90625 343.160156 C 371.90625 343.160156 371.90625 341.355469 371.832031 340.902344 L 346.777344 226.691406 C 345.800781 222.328125 337.824219 218.640625 329.398438 218.640625 L 243.101562 218.640625 L 239.714844 223.078125 L 135.132812 223.078125 L 131.75 218.640625 L 45.527344 218.640625 C 37.023438 218.640625 29.125 222.328125 28.144531 226.691406 Z M 371.90625 350.230469 L 371.90625 347.070312 C 369.199219 350.757812 363.40625 353.316406 356.109375 353.316406 L 18.816406 353.316406 C 11.59375 353.316406 5.800781 350.832031 3.09375 347.222656 L 3.09375 350.308594 C 2.640625 352.488281 3.167969 354.59375 4.597656 356.476562 C 7.378906 359.9375 12.949219 361.96875 19.492188 361.96875 L 355.429688 361.96875 C 362.050781 361.96875 367.621094 359.863281 370.402344 356.402344 C 371.832031 354.519531 372.433594 352.414062 371.90625 350.230469 Z M 371.90625 350.230469 " fill-opacity="1" fill-rule="nonzero"/></g><path fill="#ff6e40" d="M 253.011719 115.058594 C 248.070312 111 242.28125 107.828125 236.785156 104.621094 C 233.9375 102.984375 231.058594 101.347656 228.144531 99.8125 C 231.582031 95.789062 234.753906 91.601562 237.699219 87.148438 C 244.242188 77.203125 251.769531 63.199219 243.066406 52.175781 C 239.039062 47.039062 232.726562 45.894531 226.707031 47.855469 C 220.226562 49.984375 214.109375 53.8125 208.222656 57.148438 C 205.277344 58.816406 202.363281 60.582031 199.453125 62.382812 C 199.453125 62.382812 199.453125 62.382812 199.417969 62.351562 C 197.390625 56.789062 195.003906 51.324219 192.1875 45.992188 C 186.757812 35.847656 178.511719 23.613281 165.261719 25.445312 C 156.820312 26.621094 153.878906 33.101562 152.832031 40.398438 C 151.816406 40.265625 150.769531 40.296875 149.789062 40.558594 C 146.515625 41.410156 145.011719 44.519531 144.652344 47.691406 C 144.324219 50.769531 146.582031 53.253906 149.101562 54.660156 C 150.082031 55.21875 151.160156 55.675781 152.273438 56.003906 C 152.273438 61.269531 152.40625 66.570312 152.699219 71.871094 C 148.773438 71.019531 144.878906 70.300781 140.953125 69.613281 C 134.28125 68.46875 127.050781 66.863281 120.210938 67.355469 C 114.386719 67.78125 108.234375 70.269531 105.292969 75.667969 C 102.117188 81.523438 104.210938 88.097656 107.875 93.171875 C 114.8125 102.722656 125.738281 109.726562 135.71875 115.746094 C 134.019531 117.644531 132.347656 119.574219 130.746094 121.503906 C 129.960938 122.417969 129.175781 123.367188 128.390625 124.316406 C 128.160156 124.1875 127.964844 124.089844 127.734375 123.988281 C 125.183594 122.910156 122.074219 122.648438 119.523438 123.828125 C 116.578125 125.136719 114.910156 128.863281 116.089844 131.90625 C 116.742188 133.574219 117.953125 135.046875 119.261719 136.355469 C 118.933594 136.878906 118.609375 137.402344 118.3125 137.925781 C 115.238281 143.425781 113.894531 150.492188 117.265625 156.214844 C 120.308594 161.320312 126.164062 163.152344 131.824219 162.957031 C 137.582031 162.761719 143.242188 160.992188 148.578125 158.898438 C 154.597656 156.542969 160.484375 153.761719 166.179688 150.71875 C 166.703125 150.425781 167.226562 150.164062 167.75 149.871094 C 169.089844 153.761719 170.53125 157.625 172.035156 161.417969 C 174.585938 167.863281 176.941406 175.027344 181.621094 180.265625 C 185.515625 184.617188 191.796875 187.429688 197.621094 185.628906 C 202.757812 184.058594 206.0625 179.542969 208.089844 174.800781 C 212.179688 165.34375 212.996094 154.1875 213.226562 143.785156 C 217.414062 144.4375 221.636719 144.929688 225.886719 145.125 C 226.804688 148.070312 229.128906 150.589844 232.039062 151.667969 C 236.195312 153.207031 241.332031 151.113281 243 146.925781 C 243.03125 146.925781 243.03125 146.925781 243.03125 146.890625 C 243.753906 145.910156 244.144531 144.832031 244.210938 143.71875 C 251.507812 141.789062 257.820312 137.632812 259.324219 129.355469 C 260.273438 123.566406 257.363281 118.589844 253.011719 115.058594 Z M 170.859375 141.855469 C 169.679688 138.222656 168.566406 134.558594 167.519531 130.894531 C 172.265625 132.660156 177.042969 134.328125 181.816406 135.867188 C 178.152344 137.828125 174.488281 139.859375 170.859375 141.855469 Z M 157.769531 78.644531 C 162.285156 79.691406 166.800781 80.867188 171.25 82.113281 C 167.191406 85.316406 163.203125 88.65625 159.308594 92.089844 C 158.652344 87.609375 158.164062 83.125 157.769531 78.644531 Z M 202.757812 84.238281 C 203.117188 85.515625 203.445312 86.789062 203.738281 88.097656 C 196.605469 85.054688 189.375 82.339844 182.046875 79.886719 C 187.152344 75.992188 192.386719 72.296875 197.785156 68.828125 C 199.714844 73.898438 201.351562 79.070312 202.757812 84.238281 Z M 205.144531 93.921875 C 206.324219 99.09375 207.371094 104.261719 208.382812 109.464844 C 208.417969 111.558594 208.382812 113.652344 208.320312 115.777344 C 208.320312 115.777344 208.320312 115.777344 208.320312 115.8125 C 202.824219 121.078125 197.0625 126.050781 191.242188 130.992188 C 189.34375 132.039062 187.414062 133.019531 185.480469 134 C 179.136719 132.167969 172.851562 130.042969 166.636719 127.851562 C 163.988281 118.132812 161.859375 108.316406 160.222656 98.40625 C 165.65625 93.332031 171.25 88.492188 177.042969 83.878906 C 186.59375 86.691406 195.984375 90.027344 205.144531 93.921875 Z M 160.324219 124.644531 C 154.925781 121.371094 149.65625 117.773438 144.226562 114.566406 C 144.191406 114.535156 144.160156 114.535156 144.128906 114.5 C 147.957031 110.378906 151.882812 106.355469 155.90625 102.460938 C 157.082031 109.953125 158.554688 117.347656 160.324219 124.644531 Z M 208.222656 119.898438 C 208.058594 124.089844 207.894531 128.242188 207.894531 132.398438 C 207.894531 134.589844 207.894531 136.78125 207.828125 138.972656 C 201.777344 138.027344 195.789062 136.71875 189.933594 135.179688 C 196.179688 130.273438 202.300781 125.234375 208.222656 119.898438 Z M 208.351562 95.296875 C 212.867188 97.257812 217.285156 99.355469 221.667969 101.609375 C 218.429688 105.472656 215.027344 109.167969 211.460938 112.734375 C 210.542969 106.878906 209.53125 101.054688 208.351562 95.296875 Z M 216.203125 57.867188 C 221.339844 55.054688 228.242188 50.210938 234.394531 51.519531 C 239.761719 52.699219 242.507812 58.71875 242.542969 63.757812 C 242.574219 70.167969 239.269531 76.089844 236.097656 81.425781 C 232.695312 87.148438 228.832031 92.679688 224.644531 97.945312 C 218.886719 94.9375 213.03125 92.125 207.109375 89.539062 C 206.78125 88.066406 206.421875 86.5625 206.0625 85.089844 C 204.589844 78.90625 202.921875 72.785156 200.925781 66.832031 C 205.929688 63.660156 211 60.714844 216.203125 57.867188 Z M 157.019531 67.75 C 156.855469 63.921875 156.789062 60.125 156.757812 56.332031 C 157.542969 56.101562 158.292969 55.742188 158.980469 55.183594 C 161.597656 54.039062 163.953125 51.554688 163.136719 48.476562 C 162.777344 47.136719 161.992188 45.925781 161.074219 44.910156 C 160.617188 44.421875 160.125 43.964844 159.601562 43.570312 C 159.4375 43.441406 159.242188 43.308594 159.046875 43.144531 L 158.914062 43.015625 C 158.851562 42.949219 158.753906 42.882812 158.6875 42.851562 C 158.390625 42.621094 158.097656 42.425781 157.769531 42.230469 C 157.542969 42.066406 157.3125 41.933594 157.050781 41.804688 C 157.3125 38.171875 158.128906 34.539062 160.746094 32.152344 C 164.738281 28.519531 171.152344 29.402344 175.40625 32.019531 C 178.382812 33.820312 180.769531 36.371094 182.765625 39.1875 C 182.800781 39.21875 182.800781 39.25 182.832031 39.25 C 180.671875 38.042969 178.414062 36.929688 176.125 35.980469 C 175.570312 35.75 175.175781 36.699219 175.734375 36.929688 C 178.449219 38.140625 181.097656 39.578125 183.585938 41.214844 C 184.011719 41.476562 184.402344 41.804688 184.828125 42.097656 C 185.480469 43.113281 186.105469 44.160156 186.691406 45.207031 C 188.886719 48.9375 190.914062 52.765625 192.746094 56.722656 C 192.746094 56.722656 192.746094 56.753906 192.777344 56.753906 C 192.289062 56.394531 191.828125 56.035156 191.339844 55.675781 C 187.476562 52.960938 183.386719 50.734375 178.972656 49.101562 C 178.742188 49 178.578125 49.394531 178.808594 49.523438 C 182.800781 51.617188 186.726562 53.972656 190.390625 56.65625 C 191.699219 57.605469 192.941406 58.621094 194.152344 59.667969 C 194.871094 61.238281 195.527344 62.839844 196.179688 64.445312 C 189.472656 68.699219 182.898438 73.277344 176.550781 78.085938 C 171.480469 76.515625 166.34375 75.109375 161.207031 73.835938 C 159.960938 73.507812 158.6875 73.210938 157.445312 72.917969 C 157.214844 71.183594 157.117188 69.449219 157.019531 67.75 Z M 134.28125 108.480469 C 134.246094 108.480469 134.246094 108.449219 134.214844 108.449219 C 134.019531 108.21875 133.789062 108.023438 133.59375 107.792969 C 132.871094 107.007812 132.152344 106.222656 131.5 105.40625 C 130.089844 103.671875 128.78125 101.871094 127.574219 99.976562 C 125.28125 96.34375 123.382812 92.449219 121.488281 88.621094 C 121.421875 88.492188 121.257812 88.589844 121.289062 88.71875 C 122.074219 93.136719 123.84375 97.195312 126.199219 101.023438 C 126.984375 102.296875 127.835938 103.507812 128.683594 104.71875 C 125.578125 102.558594 122.566406 100.238281 119.71875 97.785156 C 119 97.160156 118.3125 96.539062 117.59375 95.886719 C 117.003906 94.347656 116.480469 92.808594 115.992188 91.238281 C 114.976562 87.96875 114.289062 84.53125 113.667969 81.164062 C 113.601562 80.804688 113.046875 80.902344 113.046875 81.261719 C 112.882812 84.828125 113.371094 88.261719 114.222656 91.730469 C 114.320312 92.125 114.453125 92.484375 114.550781 92.84375 C 112.816406 90.914062 111.3125 88.851562 110.230469 86.527344 C 107.679688 80.902344 110.296875 75.699219 116.023438 73.703125 C 122.011719 71.640625 129.144531 73.34375 135.226562 74.257812 C 141.214844 75.175781 147.171875 76.289062 153.058594 77.597656 C 153.515625 83.746094 154.140625 89.929688 154.988281 96.050781 C 151.359375 99.355469 147.855469 102.757812 144.453125 106.257812 C 142.71875 108.023438 141.019531 109.824219 139.382812 111.65625 C 137.648438 110.609375 135.949219 109.5625 134.28125 108.480469 Z M 141.410156 155.53125 C 137.125 156.871094 132.285156 158.046875 127.800781 157.164062 C 121.714844 155.953125 119.621094 150.132812 121.257812 144.570312 C 121.78125 142.867188 122.5 141.230469 123.417969 139.660156 C 124.5625 140.21875 125.804688 140.578125 127.148438 140.511719 C 132.121094 140.285156 133.65625 134.753906 132.773438 130.597656 C 132.773438 130.535156 132.773438 130.46875 132.742188 130.433594 C 132.609375 129.683594 132.414062 128.964844 132.121094 128.277344 C 134.835938 124.9375 137.582031 121.730469 140.429688 118.527344 C 142.558594 119.769531 144.683594 120.914062 146.875 121.996094 C 146.875 122.257812 147.007812 122.519531 147.300781 122.648438 C 151.914062 124.675781 156.59375 126.605469 161.304688 128.472656 C 162.351562 132.628906 163.527344 136.78125 164.773438 140.871094 C 165.132812 142.117188 165.523438 143.324219 165.949219 144.535156 C 158.097656 148.855469 149.949219 152.914062 141.410156 155.53125 Z M 189.375 179.445312 C 183.683594 176.4375 181.292969 169.664062 178.972656 164.070312 C 176.648438 158.441406 174.523438 152.75 172.558594 147.023438 C 174.488281 145.910156 176.386719 144.734375 178.285156 143.488281 C 178.511719 143.621094 178.808594 143.652344 179.035156 143.457031 C 181.6875 141.492188 184.371094 139.496094 186.988281 137.503906 C 187.117188 137.535156 187.214844 137.566406 187.347656 137.632812 C 194.085938 139.660156 200.890625 141.460938 207.761719 142.800781 C 207.730469 144.144531 207.699219 145.484375 207.597656 146.828125 C 207.597656 146.828125 207.597656 146.859375 207.597656 146.859375 C 206.878906 148.5625 206.027344 150.261719 205.046875 151.832031 C 204.523438 152.683594 203.933594 153.46875 203.3125 154.253906 C 203.3125 154.222656 203.28125 154.1875 203.246094 154.1875 C 203.148438 154.1875 203.148438 154.320312 203.214844 154.351562 C 201.515625 156.476562 199.582031 158.410156 197.816406 160.46875 C 197.71875 160.566406 197.816406 160.796875 197.980469 160.730469 C 201.613281 159.257812 204.359375 156.152344 206.550781 153.011719 C 206.8125 152.617188 207.042969 152.226562 207.273438 151.832031 C 207.273438 151.832031 207.273438 151.863281 207.273438 151.863281 C 207.304688 151.898438 207.273438 151.898438 207.273438 151.898438 C 207.011719 155.167969 206.585938 158.441406 205.996094 161.679688 C 205.210938 163.347656 204.261719 164.984375 203.183594 166.457031 C 200.925781 169.566406 197.949219 172.117188 195.035156 174.605469 C 194.90625 174.703125 195.035156 174.929688 195.199219 174.867188 C 199.058594 173.621094 202.136719 170.941406 204.65625 167.796875 C 202.460938 175.324219 197.949219 183.992188 189.375 179.445312 Z M 250.558594 135.734375 C 248.398438 137.699219 245.78125 138.910156 242.96875 139.660156 C 242.605469 139.105469 242.117188 138.582031 241.59375 138.125 C 239.171875 136.0625 235.835938 134.851562 232.628906 135.082031 C 231.089844 135.210938 229.550781 135.570312 228.242188 136.421875 C 226.671875 137.46875 225.757812 138.972656 225.464844 140.773438 C 221.375 140.609375 217.285156 140.285156 213.226562 139.792969 L 213.226562 139.660156 C 213.257812 135.308594 213.195312 130.992188 212.933594 126.640625 C 213.160156 126.476562 213.324219 126.28125 213.292969 125.953125 C 212.898438 122.78125 212.472656 119.574219 212.015625 116.398438 C 216.433594 112.308594 220.652344 108.121094 224.679688 103.707031 C 224.941406 103.933594 225.234375 104.164062 225.496094 104.390625 C 227 105.800781 228.40625 107.335938 229.75 108.90625 C 232.433594 111.984375 234.722656 115.484375 236.75 119.050781 C 236.945312 119.375 237.503906 119.148438 237.371094 118.789062 C 236.683594 116.792969 235.898438 114.828125 234.820312 112.996094 C 233.742188 111.132812 232.496094 109.363281 231.1875 107.695312 C 230.664062 107.007812 230.074219 106.355469 229.488281 105.699219 C 229.488281 105.699219 229.519531 105.699219 229.519531 105.699219 C 232.5625 107.335938 235.507812 109.070312 238.453125 110.835938 C 239.824219 112.308594 241.132812 113.878906 242.410156 115.484375 C 245.0625 118.851562 247.417969 122.519531 249.511719 126.246094 C 249.675781 126.507812 250.132812 126.34375 250 126.050781 C 248.398438 121.960938 246.335938 118.230469 243.753906 114.699219 C 243.425781 114.238281 243.066406 113.847656 242.738281 113.390625 C 242.738281 113.390625 242.769531 113.421875 242.769531 113.421875 C 246.46875 115.582031 250.328125 117.96875 252.914062 121.242188 C 256.644531 125.984375 254.710938 131.941406 250.558594 135.734375 Z M 250.558594 135.734375 " fill-opacity="1" fill-rule="nonzero"/><path fill="#ff6e40" d="M 185.742188 117.121094 C 186.628906 117.316406 187.542969 117.382812 188.425781 117.25 C 189.472656 117.085938 190.585938 116.269531 191.242188 115.484375 C 192.679688 113.847656 193.300781 111.882812 193.367188 109.726562 C 193.496094 105.601562 191.46875 101.382812 188.164062 98.929688 C 184.664062 96.34375 179.429688 96.34375 175.960938 98.992188 C 172.65625 101.546875 171.183594 105.960938 172.132812 109.988281 C 173.441406 115.679688 180.246094 119.964844 185.742188 117.121094 Z M 177.433594 102.363281 C 177.988281 101.808594 178.316406 101.609375 179.136719 101.152344 C 179.363281 101.023438 179.496094 100.988281 179.953125 100.859375 C 180.148438 100.792969 180.34375 100.761719 180.574219 100.695312 C 180.671875 100.664062 180.738281 100.664062 180.835938 100.628906 C 180.902344 100.628906 180.933594 100.597656 180.96875 100.597656 C 180.96875 100.597656 181 100.597656 181 100.597656 C 181.882812 100.5 182.800781 100.53125 183.550781 100.695312 C 183.910156 100.761719 184.273438 100.890625 184.632812 100.988281 C 184.894531 101.085938 184.597656 100.957031 184.925781 101.121094 C 185.121094 101.21875 185.320312 101.316406 185.515625 101.449219 C 186.234375 101.871094 186.429688 102.035156 187.085938 102.691406 C 187.214844 102.820312 187.347656 102.984375 187.476562 103.148438 C 187.707031 103.410156 187.511719 103.179688 187.675781 103.378906 C 187.902344 103.707031 188.132812 104.03125 188.296875 104.390625 C 188.394531 104.554688 188.492188 104.753906 188.558594 104.949219 C 188.722656 105.308594 188.589844 104.949219 188.6875 105.210938 C 188.820312 105.570312 188.949219 105.960938 189.082031 106.355469 C 189.179688 106.746094 189.277344 107.140625 189.34375 107.53125 C 189.34375 107.597656 189.34375 107.597656 189.375 107.632812 C 189.375 107.664062 189.375 107.664062 189.375 107.695312 C 189.410156 107.925781 189.410156 108.15625 189.441406 108.382812 C 189.472656 108.839844 189.441406 109.265625 189.410156 109.726562 C 189.410156 109.824219 189.375 109.890625 189.375 109.988281 C 189.375 109.988281 189.375 110.019531 189.375 110.019531 C 189.34375 110.214844 189.308594 110.378906 189.246094 110.574219 C 189.179688 110.773438 189.148438 111 189.082031 111.199219 C 189.046875 111.261719 188.984375 111.492188 188.917969 111.621094 C 188.851562 111.753906 188.722656 112.046875 188.753906 112.046875 C 188.753906 112.082031 188.722656 112.179688 188.6875 112.246094 C 188.65625 112.34375 188.523438 112.605469 188.492188 112.667969 C 188.296875 113.03125 188.066406 113.355469 187.835938 113.683594 C 187.804688 113.75 187.609375 114.011719 187.609375 114.042969 C 187.476562 114.207031 187.347656 114.339844 187.214844 114.46875 C 186.628906 115.15625 186.234375 115.875 185.582031 116.496094 C 183.09375 116.464844 180.574219 115.1875 178.644531 113.714844 C 178.023438 113.257812 177.171875 112.441406 176.84375 111.984375 C 176.617188 111.65625 176.386719 111.328125 176.191406 111 C 176.09375 110.804688 175.996094 110.640625 175.894531 110.445312 C 175.894531 110.445312 175.863281 110.378906 175.832031 110.3125 C 175.796875 110.25 175.730469 110.019531 175.730469 110.019531 C 174.816406 107.304688 175.4375 104.328125 177.433594 102.363281 Z M 177.433594 102.363281 " fill-opacity="1" fill-rule="nonzero"/><path fill="#ff6e40" d="M 247.121094 79.722656 C 246.402344 80.933594 245.585938 82.113281 244.699219 83.191406 C 243.882812 84.207031 242.902344 85.121094 242.148438 86.203125 C 241.527344 87.117188 242.738281 88.261719 243.652344 87.707031 C 245.945312 86.265625 247.742188 83.421875 249.050781 81.097656 C 250.492188 78.578125 251.570312 75.796875 252.257812 72.984375 C 253.632812 67.324219 253.402344 61.335938 251.507812 55.808594 C 251.144531 54.824219 249.609375 55.21875 249.902344 56.230469 C 251.539062 61.46875 251.636719 67.09375 250.199219 72.394531 C 249.476562 74.980469 248.464844 77.433594 247.121094 79.722656 Z M 247.121094 79.722656 " fill-opacity="1" fill-rule="nonzero"/><path fill="#ff6e40" d="M 240.382812 90.09375 C 240.21875 90.160156 240.054688 90.191406 239.890625 90.257812 C 239.5625 90.390625 239.402344 90.617188 239.203125 90.914062 C 238.976562 91.238281 238.746094 91.566406 238.550781 91.894531 C 238.125 92.582031 237.667969 93.234375 237.175781 93.855469 C 236.652344 94.511719 236.0625 95.066406 235.539062 95.6875 C 234.984375 96.3125 234.394531 96.933594 233.773438 97.488281 C 233.480469 97.75 233.871094 98.175781 234.199219 98.046875 C 234.984375 97.683594 235.734375 97.257812 236.457031 96.800781 C 237.207031 96.34375 237.863281 95.6875 238.484375 95.066406 C 239.140625 94.414062 239.726562 93.726562 240.25 93.007812 C 240.511719 92.679688 240.710938 92.320312 240.90625 91.960938 C 241.070312 91.699219 241.199219 91.4375 241.167969 91.109375 C 241.167969 90.878906 241.070312 90.683594 241.035156 90.453125 C 240.9375 90.191406 240.644531 90.027344 240.382812 90.09375 Z M 240.382812 90.09375 " fill-opacity="1" fill-rule="nonzero"/><path fill="#ff6e40" d="M 185.480469 30.648438 C 186.367188 31.269531 187.183594 31.957031 187.96875 32.675781 C 189.507812 34.082031 190.980469 35.621094 192.222656 37.320312 C 194.707031 40.722656 196.148438 44.648438 197.949219 48.414062 C 198.011719 48.542969 198.210938 48.476562 198.210938 48.347656 C 198.4375 43.964844 196.34375 39.710938 193.890625 36.175781 C 192.648438 34.34375 191.207031 32.609375 189.539062 31.136719 C 188.753906 30.417969 187.9375 29.761719 187.085938 29.140625 C 186.265625 28.519531 185.15625 27.539062 184.109375 27.375 C 183.386719 27.277344 182.441406 28.03125 183.027344 28.78125 C 183.648438 29.601562 184.664062 30.058594 185.480469 30.648438 Z M 185.480469 30.648438 " fill-opacity="1" fill-rule="nonzero"/><g clip-path="url(#b5be67e2ff)"><path fill="#ff6e40" d="M 174.914062 23.742188 C 175.4375 23.808594 175.929688 23.941406 176.417969 24.101562 C 176.941406 24.300781 177.464844 24.398438 177.988281 24.59375 C 178.21875 24.691406 178.25 24.691406 178.546875 24.855469 C 178.773438 24.988281 179.035156 25.117188 179.265625 25.25 C 179.363281 25.3125 179.496094 25.347656 179.59375 25.414062 C 179.660156 25.445312 179.691406 25.476562 179.625 25.414062 C 179.789062 25.476562 179.953125 25.574219 180.117188 25.640625 C 180.445312 25.738281 180.738281 25.640625 181.03125 25.542969 C 181.230469 25.476562 181.328125 25.3125 181.359375 25.117188 C 181.390625 24.824219 181.390625 24.496094 181.230469 24.234375 C 181.03125 23.941406 180.640625 23.613281 180.34375 23.449219 C 179.789062 23.15625 179.167969 22.925781 178.546875 22.792969 C 177.988281 22.664062 177.335938 22.5 176.746094 22.566406 C 176.125 22.632812 175.535156 22.761719 174.945312 22.957031 C 174.554688 23.054688 174.457031 23.679688 174.914062 23.742188 Z M 174.914062 23.742188 " fill-opacity="1" fill-rule="nonzero"/></g><path fill="#ff6e40" d="M 150.015625 160.894531 C 147.890625 161.289062 146.023438 162.300781 143.996094 162.988281 C 141.871094 163.707031 139.710938 164.199219 137.484375 164.558594 C 135.261719 164.917969 133.035156 165.148438 130.777344 165.378906 C 128.621094 165.574219 126.460938 165.703125 124.398438 166.390625 C 124.269531 166.425781 124.269531 166.621094 124.398438 166.652344 C 126.558594 167.242188 128.78125 167.242188 131.007812 167.175781 C 133.363281 167.113281 135.71875 166.949219 138.042969 166.589844 C 140.332031 166.261719 142.589844 165.738281 144.78125 165.019531 C 146.941406 164.296875 149.035156 163.546875 150.507812 161.714844 C 150.835938 161.351562 150.539062 160.796875 150.015625 160.894531 Z M 150.015625 160.894531 " fill-opacity="1" fill-rule="nonzero"/><path fill="#ff6e40" d="M 158.753906 157.589844 C 158.066406 158.082031 157.34375 158.539062 156.59375 158.898438 C 156.429688 158.996094 156.234375 159.0625 156.070312 159.160156 C 155.972656 159.195312 155.871094 159.257812 155.773438 159.292969 C 155.773438 159.292969 155.742188 159.292969 155.742188 159.292969 C 155.710938 159.292969 155.578125 159.359375 155.609375 159.359375 C 155.382812 159.457031 155.121094 159.519531 154.890625 159.652344 C 154.695312 159.75 154.53125 159.882812 154.367188 159.980469 C 154.039062 160.175781 153.515625 160.667969 153.582031 161.125 C 153.648438 161.613281 154.433594 161.777344 154.859375 161.746094 C 155.085938 161.714844 155.285156 161.679688 155.511719 161.648438 C 155.808594 161.582031 156.070312 161.484375 156.332031 161.351562 C 156.722656 161.15625 157.082031 160.960938 157.445312 160.765625 C 158.292969 160.273438 159.113281 159.683594 159.898438 159.03125 C 160.222656 158.734375 160.222656 158.179688 159.960938 157.851562 C 159.667969 157.523438 159.113281 157.328125 158.753906 157.589844 Z M 158.753906 157.589844 " fill-opacity="1" fill-rule="nonzero"/><path fill="#ff6e40" d="M 216.433594 156.414062 C 216.824219 160.765625 216.367188 165.179688 215.15625 169.367188 C 214.566406 171.496094 213.75 173.558594 212.734375 175.519531 C 211.917969 177.125 210.183594 178.957031 210.183594 180.789062 C 210.183594 181.050781 210.445312 181.246094 210.675781 181.148438 C 212.574219 180.558594 213.652344 177.910156 214.46875 176.273438 C 215.484375 174.210938 216.335938 172.050781 216.921875 169.828125 C 218.132812 165.378906 218.296875 160.765625 217.609375 156.214844 C 217.480469 155.59375 216.367188 155.757812 216.433594 156.414062 Z M 216.433594 156.414062 " fill-opacity="1" fill-rule="nonzero"/><path fill="#ff6e40" d="M 207.894531 182.816406 C 207.699219 182.816406 207.46875 182.816406 207.273438 182.816406 C 207.042969 182.816406 206.847656 182.882812 206.617188 182.945312 C 206.355469 183.011719 206.09375 183.078125 205.867188 183.207031 C 205.667969 183.308594 205.472656 183.40625 205.277344 183.503906 C 204.882812 183.699219 204.523438 183.894531 204.132812 184.09375 C 204.03125 184.125 203.933594 184.191406 203.871094 184.222656 C 203.707031 184.320312 203.574219 184.453125 203.445312 184.617188 C 203.3125 184.777344 203.214844 184.941406 203.085938 185.074219 C 202.855469 185.367188 203.148438 185.792969 203.507812 185.792969 C 203.707031 185.792969 203.933594 185.792969 204.132812 185.792969 C 204.425781 185.792969 204.65625 185.664062 204.949219 185.53125 C 205.339844 185.335938 205.734375 185.140625 206.160156 184.941406 C 206.355469 184.84375 206.550781 184.777344 206.75 184.648438 C 206.945312 184.550781 207.109375 184.386719 207.273438 184.253906 C 207.5 184.09375 207.699219 183.929688 207.859375 183.730469 C 207.992188 183.570312 208.089844 183.40625 208.222656 183.273438 C 208.320312 183.109375 208.121094 182.816406 207.894531 182.816406 Z M 207.894531 182.816406 " fill-opacity="1" fill-rule="nonzero"/><path fill="#ff6e40" d="M 235.441406 58.164062 C 235.671875 58.980469 236.03125 59.765625 236.257812 60.582031 C 236.683594 62.1875 236.945312 63.855469 236.914062 65.554688 C 236.914062 66.015625 237.175781 66.40625 237.535156 66.636719 C 237.960938 66.898438 238.386719 66.863281 238.8125 66.636719 C 239.203125 66.441406 239.433594 65.980469 239.433594 65.554688 C 239.433594 63.625 239.140625 61.695312 238.453125 59.894531 C 238.09375 58.980469 237.730469 58.03125 237.109375 57.277344 C 236.847656 56.917969 236.554688 56.59375 236.226562 56.265625 C 235.898438 55.9375 235.605469 55.742188 235.148438 55.609375 C 234.984375 55.546875 234.820312 55.707031 234.820312 55.839844 C 234.820312 56.296875 234.886719 56.625 235.050781 57.050781 C 235.210938 57.410156 235.34375 57.800781 235.441406 58.164062 Z M 235.441406 58.164062 " fill-opacity="1" fill-rule="nonzero"/><path fill="#ff6e40" d="M 185.21875 105.375 C 185.253906 105.667969 185.320312 105.898438 185.382812 106.160156 C 185.417969 106.257812 185.449219 106.386719 185.449219 106.484375 C 185.449219 106.550781 185.480469 106.585938 185.480469 106.648438 C 185.480469 106.683594 185.480469 106.683594 185.480469 106.683594 C 185.515625 107.140625 185.546875 107.597656 185.546875 108.054688 C 185.546875 108.1875 185.546875 108.285156 185.515625 108.382812 C 185.515625 108.449219 185.515625 108.480469 185.515625 108.546875 C 185.480469 108.777344 185.417969 109.003906 185.351562 109.234375 C 185.21875 109.757812 185.546875 110.414062 186.070312 110.542969 C 186.59375 110.675781 187.25 110.378906 187.378906 109.824219 C 187.378906 109.789062 187.378906 109.757812 187.414062 109.726562 C 187.414062 109.726562 187.414062 109.691406 187.414062 109.691406 C 187.675781 108.578125 187.707031 107.433594 187.347656 106.355469 C 187.152344 105.800781 186.953125 105.175781 186.527344 104.785156 C 186.167969 104.425781 185.742188 104.128906 185.320312 103.835938 C 185.058594 103.671875 184.828125 104 184.925781 104.230469 C 185.121094 104.589844 185.1875 104.980469 185.21875 105.375 Z M 187.019531 108.613281 C 186.988281 108.613281 186.988281 108.578125 186.953125 108.578125 C 187.085938 108.613281 187.085938 108.644531 187.019531 108.613281 Z M 186.726562 108.449219 C 186.691406 108.449219 186.660156 108.449219 186.628906 108.449219 C 186.527344 108.417969 186.527344 108.382812 186.726562 108.449219 Z M 186.726562 108.449219 " fill-opacity="1" fill-rule="nonzero"/></svg>