<svg xmlns="http://www.w3.org/2000/svg" xmlns:xlink="http://www.w3.org/1999/xlink" width="500" zoomAndPan="magnify" viewBox="0 0 375 374.999991" height="500" preserveAspectRatio="xMidYMid meet" version="1.0"><defs><clipPath id="ac02df1c40"><path d="M 1 0 L 374 0 L 374 363.75 L 1 363.75 Z M 1 0 " clip-rule="nonzero"/></clipPath><clipPath id="2e5d6500d9"><path d="M 83.761719 37.5 L 273.511719 37.5 L 273.511719 172.5 L 83.761719 172.5 Z M 83.761719 37.5 " clip-rule="nonzero"/></clipPath></defs><path fill="#ffffff" d="M 356.109375 362.722656 L 18.816406 362.722656 C 7.757812 362.722656 0.0820312 357.003906 1.585938 350.082031 L 1.585938 340.601562 L 10.917969 301.628906 L 27.394531 226.539062 C 28.449219 221.800781 36.574219 217.964844 45.527344 217.964844 L 51.167969 217.210938 C 39.507812 217.210938 29.875 208.257812 28.824219 196.898438 C 28.296875 194.941406 27.996094 192.835938 27.996094 190.726562 L 27.996094 23.25 C 27.996094 10.457031 38.453125 0 51.246094 0 L 323.753906 0 C 336.546875 0 347.003906 10.457031 347.003906 23.25 L 347.003906 190.652344 C 347.003906 192.757812 346.703125 194.867188 346.175781 196.820312 C 345.125 208.257812 335.492188 217.136719 323.832031 217.136719 L 329.472656 217.886719 C 338.425781 217.886719 346.550781 221.726562 347.605469 226.464844 L 366.113281 310.882812 L 373.488281 342.03125 L 373.488281 350.007812 C 374.917969 357.003906 367.167969 362.722656 356.109375 362.722656 Z M 356.109375 362.722656 " fill-opacity="1" fill-rule="nonzero"/><path fill="#ff6e40" d="M 373.414062 350.082031 L 373.414062 342.105469 L 366.039062 310.957031 L 372.585938 340.75 C 373.035156 342.933594 372.507812 345.117188 371.003906 346.921875 C 368.222656 350.382812 362.652344 352.414062 356.03125 352.414062 L 18.816406 352.414062 C 12.195312 352.414062 6.628906 350.382812 3.84375 346.921875 C 2.339844 345.039062 1.8125 342.933594 2.265625 340.75 L 10.839844 301.628906 L 1.585938 340.601562 L 1.585938 350.082031 C 0.0820312 357.003906 7.757812 362.722656 18.816406 362.722656 L 356.109375 362.722656 C 367.167969 362.722656 374.917969 357.003906 373.414062 350.082031 Z M 373.414062 350.082031 " fill-opacity="1" fill-rule="nonzero"/><path fill="#ffffff" d="M 334.816406 202.917969 L 40.035156 202.917969 L 40.035156 19.035156 L 334.816406 19.035156 Z M 334.816406 202.917969 " fill-opacity="1" fill-rule="nonzero"/><path fill="#ff6e40" d="M 255.964844 340.828125 L 118.882812 340.828125 L 122.644531 294.554688 L 252.203125 294.554688 Z M 255.964844 340.828125 " fill-opacity="1" fill-rule="nonzero"/><g clip-path="url(#ac02df1c40)"><path fill="#000000" d="M 225.195312 289.140625 L 126.257812 289.140625 L 127.085938 278.003906 L 224.59375 278.003906 Z M 221.28125 262.277344 L 238.058594 262.277344 L 237.457031 252.800781 L 220.90625 252.800781 Z M 235.800781 240.6875 L 236.40625 249.863281 L 252.957031 249.863281 L 252.128906 240.6875 Z M 194.195312 240.6875 L 194.269531 249.863281 L 210.824219 249.863281 L 210.523438 240.6875 Z M 248.367188 265.136719 L 231.515625 265.136719 L 232.039062 274.917969 L 249.121094 274.917969 Z M 200.140625 262.277344 L 216.917969 262.277344 L 216.542969 252.800781 L 199.988281 252.800781 Z M 227 265.136719 L 210.148438 265.136719 L 210.449219 274.917969 L 227.527344 274.917969 Z M 214.960938 240.6875 L 215.339844 249.863281 L 231.890625 249.863281 L 231.363281 240.6875 Z M 205.632812 265.136719 L 188.777344 265.136719 L 188.777344 274.917969 L 205.859375 274.917969 Z M 146.121094 265.136719 L 145.59375 274.917969 L 162.671875 274.917969 L 162.972656 265.136719 Z M 167.488281 265.136719 L 167.261719 274.917969 L 184.339844 274.917969 L 184.414062 265.136719 Z M 91.496094 252.722656 L 74.945312 252.722656 L 73.515625 262.277344 L 90.292969 262.277344 Z M 179.074219 262.277344 L 195.851562 262.277344 L 195.777344 252.800781 L 179.222656 252.800781 Z M 60.800781 265.136719 L 59.21875 274.917969 L 76.222656 274.917969 L 77.652344 265.136719 Z M 85.777344 240.6875 L 69.453125 240.6875 L 68.023438 249.863281 L 84.574219 249.863281 Z M 335.566406 203.667969 L 39.28125 203.667969 L 39.28125 18.28125 L 335.566406 18.28125 Z M 334.0625 19.863281 L 40.785156 19.863281 L 40.785156 202.238281 L 334.0625 202.238281 Z M 284.632812 262.277344 L 301.410156 262.277344 L 299.980469 252.800781 L 283.429688 252.800781 Z M 53.050781 289.140625 L 72.160156 289.140625 L 73.816406 278.003906 L 55.007812 278.003906 Z M 229.40625 289.140625 L 251.828125 289.140625 L 250.925781 278.003906 L 228.804688 278.003906 Z M 256.566406 240.6875 L 257.394531 249.863281 L 273.949219 249.863281 L 272.894531 240.6875 Z M 253.632812 274.992188 L 270.714844 274.992188 L 269.660156 265.214844 L 252.804688 265.214844 Z M 242.347656 262.277344 L 259.125 262.277344 L 258.222656 252.800781 L 241.671875 252.800781 Z M 263.488281 262.277344 L 280.269531 262.277344 L 279.140625 252.800781 L 262.585938 252.800781 Z M 277.332031 240.6875 L 278.460938 249.863281 L 295.015625 249.863281 L 293.734375 240.6875 Z M 314.5 240.6875 L 298.175781 240.6875 L 299.527344 249.863281 L 316.082031 249.863281 Z M 141.605469 265.136719 L 124.75 265.136719 L 123.925781 274.917969 L 141.003906 274.917969 Z M 173.429688 240.6875 L 173.28125 249.863281 L 189.832031 249.863281 L 189.832031 240.6875 Z M 300.957031 278.003906 L 302.539062 289.140625 L 321.648438 289.140625 L 319.769531 278.003906 Z M 296.894531 274.992188 L 342.265625 274.992188 L 340.382812 265.4375 L 295.542969 265.4375 Z M 325.863281 289.140625 L 344.972656 289.140625 L 342.789062 278.003906 L 323.980469 278.003906 Z M 291.027344 265.136719 L 274.175781 265.136719 L 275.300781 274.917969 L 292.382812 274.917969 Z M 278.011719 278.003906 L 279.289062 289.140625 L 298.402344 289.140625 L 296.820312 278.003906 Z M 254.988281 278.003906 L 255.964844 289.140625 L 275.078125 289.140625 L 273.871094 278.003906 Z M 320.519531 249.941406 L 337.074219 249.941406 L 335.265625 240.761719 L 318.941406 240.761719 Z M 50.867188 278.003906 L 32.058594 278.003906 L 29.875 289.140625 L 48.988281 289.140625 Z M 70.582031 252.875 L 36.949219 252.875 L 35.144531 262.128906 L 69.152344 262.128906 Z M 56.210938 265.4375 L 34.464844 265.4375 L 32.585938 274.992188 L 54.554688 274.992188 Z M 65.011719 240.835938 L 39.355469 240.835938 L 37.550781 249.789062 L 63.507812 249.789062 Z M 333.3125 230.453125 L 41.464844 230.453125 L 39.957031 237.976562 L 334.816406 237.976562 Z M 305.699219 262.128906 L 339.707031 262.128906 L 337.898438 252.875 L 304.269531 252.875 Z M 131.148438 249.941406 L 147.699219 249.941406 L 148.152344 240.761719 L 131.824219 240.761719 Z M 115.722656 262.277344 L 132.5 262.277344 L 133.179688 252.800781 L 116.625 252.800781 Z M 136.789062 262.277344 L 153.566406 262.277344 L 154.019531 252.800781 L 137.46875 252.800781 Z M 102.40625 274.992188 L 119.484375 274.992188 L 120.3125 265.214844 L 103.460938 265.214844 Z M 152.214844 249.941406 L 168.765625 249.941406 L 168.992188 240.761719 L 152.664062 240.761719 Z M 157.929688 262.277344 L 174.710938 262.277344 L 174.859375 252.800781 L 158.308594 252.800781 Z M 80.738281 274.992188 L 97.816406 274.992188 L 98.945312 265.214844 L 82.09375 265.214844 Z M 252.882812 293.804688 L 256.71875 341.578125 L 118.054688 341.578125 L 121.894531 293.804688 Z M 255.140625 340.074219 L 251.527344 295.308594 L 123.320312 295.308594 L 119.710938 340.074219 Z M 122.945312 278.003906 L 100.824219 278.003906 L 99.621094 289.140625 L 122.042969 289.140625 Z M 110.082031 249.941406 L 126.632812 249.941406 L 127.386719 240.761719 L 111.058594 240.761719 Z M 76.375 289.140625 L 95.484375 289.140625 L 96.761719 278.003906 L 77.953125 278.003906 Z M 89.089844 249.941406 L 105.640625 249.941406 L 106.621094 240.761719 L 90.292969 240.761719 Z M 94.582031 262.277344 L 111.359375 262.277344 L 112.335938 252.800781 L 95.785156 252.800781 Z M 371.53125 357.304688 C 368.445312 361.140625 362.429688 363.398438 355.355469 363.398438 L 19.492188 363.398438 C 12.496094 363.398438 6.476562 361.140625 3.394531 357.304688 C 1.664062 355.121094 0.984375 352.5625 1.511719 349.929688 L 1.511719 343.835938 C 1.285156 342.785156 1.285156 341.65625 1.511719 340.527344 L 26.566406 226.316406 C 27.695312 221.199219 36.046875 217.136719 45.300781 217.136719 C 35.292969 214.578125 27.84375 205.472656 27.84375 194.640625 L 27.84375 23.25 C 27.84375 10.457031 38.304688 0 51.09375 0 L 323.753906 0 C 336.546875 0 347.003906 10.457031 347.003906 23.25 L 347.003906 194.714844 C 347.003906 205.550781 339.554688 214.652344 329.550781 217.210938 C 338.804688 217.210938 347.15625 221.347656 348.28125 226.390625 L 373.335938 340.601562 C 373.5625 341.578125 373.5625 342.558594 373.414062 343.460938 L 373.414062 350.007812 C 373.9375 352.5625 373.335938 355.121094 371.53125 357.304688 Z M 51.167969 216.382812 L 323.753906 216.382812 C 335.71875 216.382812 345.5 206.601562 345.5 194.640625 L 345.5 27.3125 C 345.5 15.347656 335.71875 5.566406 323.753906 5.566406 L 51.167969 5.566406 C 39.207031 5.566406 29.425781 15.347656 29.425781 27.3125 L 29.425781 194.714844 C 29.425781 206.679688 39.132812 216.382812 51.167969 216.382812 Z M 3.09375 340.828125 L 3.09375 343.835938 C 3.316406 344.738281 3.769531 345.640625 4.445312 346.46875 C 7.078125 349.707031 12.570312 351.738281 18.816406 351.738281 L 356.109375 351.738281 C 362.351562 351.738281 367.84375 349.707031 370.476562 346.46875 C 371.304688 345.417969 371.757812 344.289062 371.90625 343.160156 C 371.90625 343.160156 371.90625 341.355469 371.832031 340.902344 L 346.777344 226.691406 C 345.800781 222.328125 337.824219 218.640625 329.398438 218.640625 L 243.101562 218.640625 L 239.714844 223.078125 L 135.132812 223.078125 L 131.75 218.640625 L 45.527344 218.640625 C 37.023438 218.640625 29.125 222.328125 28.144531 226.691406 Z M 371.90625 350.230469 L 371.90625 347.070312 C 369.199219 350.757812 363.40625 353.316406 356.109375 353.316406 L 18.816406 353.316406 C 11.59375 353.316406 5.800781 350.832031 3.09375 347.222656 L 3.09375 350.308594 C 2.640625 352.488281 3.167969 354.59375 4.597656 356.476562 C 7.378906 359.9375 12.949219 361.96875 19.492188 361.96875 L 355.429688 361.96875 C 362.050781 361.96875 367.621094 359.863281 370.402344 356.402344 C 371.832031 354.519531 372.433594 352.414062 371.90625 350.230469 Z M 371.90625 350.230469 " fill-opacity="1" fill-rule="nonzero"/></g><g clip-path="url(#2e5d6500d9)"><path fill="#ff6e40" d="M 262.332031 37.5 C 261.128906 37.5 259.925781 37.5 258.722656 37.5 L 95.6875 37.5 C 90.421875 37.5 85.460938 40.507812 84.257812 45.921875 C 83.957031 48.179688 83.804688 50.433594 83.957031 52.691406 L 83.957031 157.824219 C 83.804688 160.378906 83.957031 162.9375 84.558594 165.34375 C 86.210938 170.304688 90.875 172.863281 95.835938 172.863281 L 262.332031 172.863281 C 262.632812 172.863281 262.933594 172.710938 263.234375 172.5625 C 269.253906 171.960938 273.164062 166.996094 273.164062 160.832031 L 273.164062 49.230469 C 273.164062 42.914062 268.800781 37.652344 262.332031 37.5 Z M 87.714844 48.328125 C 87.867188 43.667969 91.476562 41.109375 95.835938 41.109375 L 246.691406 41.109375 C 251.804688 41.109375 257.070312 40.960938 262.183594 41.109375 C 266.695312 41.261719 269.554688 44.71875 269.554688 49.082031 L 269.554688 62.167969 L 108.621094 62.167969 C 101.550781 62.167969 94.632812 61.867188 87.714844 62.167969 C 87.566406 57.652344 87.566406 52.992188 87.714844 48.328125 Z M 269.402344 161.734375 C 269.402344 165.644531 266.246094 168.800781 262.183594 168.953125 C 262.03125 168.953125 261.882812 168.953125 261.882812 168.953125 L 96.589844 168.953125 C 93.429688 168.953125 90.273438 168.5 88.617188 165.34375 C 87.414062 163.085938 87.714844 160.53125 87.714844 157.972656 L 87.714844 67.582031 C 87.714844 67.128906 87.714844 66.527344 87.714844 66.078125 L 248.496094 66.078125 C 255.566406 66.078125 262.484375 66.378906 269.402344 66.078125 L 269.402344 160.230469 C 269.402344 160.679688 269.402344 161.28125 269.402344 161.734375 Z M 269.402344 161.734375 " fill-opacity="1" fill-rule="nonzero"/></g><path fill="#ff6e40" d="M 100.347656 53.441406 C 100.347656 53.292969 100.199219 53.292969 100.347656 53.441406 Z M 100.347656 53.441406 " fill-opacity="1" fill-rule="nonzero"/><path fill="#ff6e40" d="M 107.71875 56.902344 C 108.773438 55.699219 109.222656 54.34375 109.222656 52.691406 C 109.222656 52.390625 109.222656 52.238281 109.222656 51.9375 C 108.921875 49.53125 107.269531 47.578125 105.011719 46.675781 C 102.605469 45.773438 99.746094 46.523438 98.09375 48.480469 C 95.835938 51.1875 96.136719 55.097656 98.695312 57.503906 C 101.402344 59.757812 105.3125 59.457031 107.71875 56.902344 Z M 105.464844 52.238281 C 105.464844 52.238281 105.464844 52.390625 105.464844 52.238281 C 105.464844 52.390625 105.464844 52.390625 105.464844 52.390625 C 105.464844 52.390625 105.464844 52.390625 105.464844 52.238281 Z M 100.199219 52.238281 C 100.199219 52.089844 100.199219 52.089844 100.199219 51.9375 C 100.199219 51.789062 100.347656 51.636719 100.347656 51.335938 L 100.5 51.035156 L 100.648438 50.734375 C 100.800781 50.585938 100.949219 50.433594 101.101562 50.285156 L 101.25 50.285156 C 101.101562 50.433594 101.25 50.285156 101.402344 50.285156 C 101.550781 50.132812 101.851562 50.132812 102.003906 49.984375 C 102.003906 49.984375 101.550781 50.132812 101.851562 49.984375 L 102.152344 49.832031 L 102.453125 49.832031 C 102.453125 49.832031 102.453125 49.832031 102.605469 49.832031 C 102.605469 49.832031 102.753906 49.832031 102.753906 49.832031 L 103.207031 49.832031 L 103.957031 49.984375 C 104.257812 50.132812 104.257812 50.132812 104.257812 50.132812 L 104.558594 50.433594 C 104.410156 50.285156 104.257812 50.285156 104.410156 50.433594 L 104.859375 50.886719 C 104.859375 51.035156 105.011719 51.035156 105.011719 51.1875 L 105.160156 51.488281 C 105.160156 51.636719 105.160156 51.789062 105.3125 51.789062 C 105.3125 51.9375 105.160156 52.089844 105.160156 52.238281 C 105.160156 52.390625 105.160156 52.390625 105.160156 52.539062 C 105.160156 52.691406 105.011719 52.992188 105.011719 53.140625 C 105.011719 53.140625 105.011719 53.292969 105.011719 53.292969 C 105.011719 53.292969 105.011719 53.292969 105.011719 53.441406 C 104.859375 53.59375 104.710938 53.894531 104.710938 54.042969 C 104.710938 54.042969 104.558594 54.195312 104.558594 54.195312 C 104.558594 54.195312 104.410156 54.34375 104.410156 54.34375 L 104.257812 54.34375 C 104.109375 54.496094 104.109375 54.496094 104.257812 54.34375 C 104.109375 54.496094 103.957031 54.496094 103.957031 54.644531 L 103.808594 54.796875 L 103.054688 55.097656 C 102.90625 55.097656 102.90625 55.097656 102.753906 55.097656 L 102.152344 55.097656 C 102.003906 55.097656 101.851562 55.097656 101.851562 54.945312 L 101.550781 54.796875 C 101.25 54.644531 101.703125 54.796875 101.703125 54.796875 C 101.703125 54.796875 101.25 54.496094 101.25 54.496094 L 100.949219 54.34375 C 100.949219 54.34375 100.5 53.894531 100.5 53.894531 L 100.347656 53.742188 L 100.347656 53.441406 C 100.347656 53.441406 100.347656 53.59375 100.347656 53.59375 C 100.347656 53.59375 100.199219 53.140625 100.199219 52.992188 Z M 100.199219 52.238281 " fill-opacity="1" fill-rule="nonzero"/><path fill="#ff6e40" d="M 122.757812 56.601562 C 123.660156 55.546875 124.113281 54.195312 124.261719 52.839844 C 124.261719 52.691406 124.261719 52.691406 124.261719 52.539062 C 124.261719 52.539062 124.261719 52.390625 124.261719 52.390625 C 124.261719 49.683594 122.609375 47.277344 120.050781 46.375 C 117.644531 45.472656 114.789062 46.222656 113.132812 48.179688 C 110.878906 50.886719 111.179688 54.796875 113.734375 57.203125 C 116.441406 59.609375 120.351562 59.308594 122.757812 56.601562 Z M 115.390625 52.238281 C 115.390625 52.089844 115.390625 52.089844 115.390625 51.9375 C 115.390625 51.789062 115.539062 51.636719 115.539062 51.335938 L 115.691406 51.035156 L 115.839844 50.734375 C 115.992188 50.585938 116.140625 50.433594 116.292969 50.285156 L 116.441406 50.285156 C 116.441406 50.285156 116.441406 50.285156 116.59375 50.285156 C 116.742188 50.132812 117.042969 50.132812 117.195312 49.984375 C 117.195312 49.984375 116.742188 50.132812 117.042969 49.984375 L 117.34375 49.832031 L 117.644531 49.832031 C 117.644531 49.832031 117.644531 49.832031 117.796875 49.832031 C 117.796875 49.832031 117.945312 49.832031 117.945312 49.832031 L 118.246094 49.832031 L 119 49.984375 C 119.300781 50.132812 119.300781 50.132812 119.300781 50.132812 C 119.300781 50.132812 119.449219 50.132812 119.449219 50.285156 C 119.449219 50.285156 119.449219 50.285156 119.601562 50.433594 L 120.050781 50.886719 C 120.050781 51.035156 120.203125 51.035156 120.203125 51.1875 L 120.351562 51.488281 C 120.503906 51.789062 120.503906 51.9375 120.503906 52.089844 C 120.503906 52.089844 120.503906 52.089844 120.503906 52.238281 C 120.503906 52.238281 120.503906 52.238281 120.503906 52.390625 C 120.503906 52.539062 120.503906 52.539062 120.503906 52.691406 C 120.503906 52.839844 120.351562 53.140625 120.351562 53.292969 C 120.351562 53.292969 120.351562 53.441406 120.351562 53.441406 C 120.351562 53.441406 120.351562 53.441406 120.351562 53.59375 L 120.050781 54.195312 C 120.050781 54.195312 119.902344 54.34375 119.902344 54.34375 L 119.75 54.496094 C 119.601562 54.644531 119.601562 54.644531 119.75 54.496094 C 119.601562 54.644531 119.449219 54.644531 119.449219 54.796875 L 119.300781 54.945312 L 118.398438 55.097656 C 118.246094 55.097656 118.246094 55.097656 118.097656 55.097656 L 117.042969 55.097656 L 116.742188 54.945312 C 116.441406 54.796875 116.894531 54.945312 116.894531 54.945312 C 116.894531 54.945312 116.441406 54.644531 116.441406 54.644531 C 116.441406 54.644531 116.292969 54.496094 116.140625 54.496094 C 116.140625 54.496094 115.691406 54.042969 115.691406 54.042969 L 115.539062 53.894531 L 115.691406 53.742188 L 115.691406 53.59375 C 115.691406 53.441406 115.539062 53.441406 115.691406 53.59375 C 115.691406 53.441406 115.539062 53.292969 115.539062 53.140625 C 115.539062 53.140625 115.539062 52.992188 115.539062 52.839844 C 115.390625 52.691406 115.390625 52.390625 115.390625 52.238281 Z M 115.390625 52.238281 " fill-opacity="1" fill-rule="nonzero"/><path fill="#ff6e40" d="M 115.390625 52.238281 C 115.539062 51.789062 115.390625 52.089844 115.390625 52.238281 Z M 115.390625 52.238281 " fill-opacity="1" fill-rule="nonzero"/><path fill="#ff6e40" d="M 138.25 56.902344 C 139.304688 55.699219 139.753906 54.34375 139.753906 52.691406 C 139.753906 52.390625 139.753906 52.238281 139.753906 51.9375 C 139.304688 49.53125 137.800781 47.578125 135.542969 46.675781 C 133.136719 45.773438 130.28125 46.523438 128.625 48.480469 C 126.367188 51.1875 126.667969 55.097656 129.226562 57.503906 C 131.785156 59.910156 135.84375 59.457031 138.25 56.902344 Z M 135.996094 52.238281 C 135.996094 52.238281 135.996094 52.390625 135.996094 52.238281 C 135.996094 52.390625 135.996094 52.390625 135.996094 52.390625 C 135.996094 52.390625 135.996094 52.390625 135.996094 52.238281 Z M 130.730469 52.238281 C 130.730469 52.238281 130.730469 52.089844 130.730469 51.9375 C 130.730469 51.789062 130.882812 51.488281 130.882812 51.335938 L 131.03125 51.035156 L 131.183594 50.734375 C 131.332031 50.585938 131.484375 50.433594 131.632812 50.285156 L 131.785156 50.285156 C 131.632812 50.433594 131.785156 50.285156 131.933594 50.285156 C 132.085938 50.132812 132.386719 50.132812 132.535156 49.984375 C 132.535156 49.984375 132.085938 50.132812 132.386719 49.984375 L 132.6875 49.832031 L 132.988281 49.832031 C 132.988281 49.832031 132.988281 49.832031 133.136719 49.832031 C 133.136719 49.832031 133.289062 49.832031 133.289062 49.832031 L 133.890625 49.832031 L 134.640625 49.984375 C 134.941406 50.132812 134.941406 50.132812 134.941406 50.132812 L 135.09375 50.285156 C 135.09375 50.285156 135.09375 50.285156 135.242188 50.433594 L 135.695312 50.886719 C 135.695312 51.035156 135.84375 51.035156 135.84375 51.1875 C 135.84375 51.335938 135.996094 51.335938 135.996094 51.488281 C 135.996094 51.636719 136.144531 51.789062 136.144531 51.9375 C 136.144531 52.089844 135.996094 52.238281 135.996094 52.390625 C 135.996094 52.539062 135.996094 52.539062 135.996094 52.691406 C 135.996094 52.839844 135.84375 53.140625 135.84375 53.292969 C 135.84375 53.292969 135.84375 53.292969 135.84375 53.441406 C 135.695312 53.59375 135.542969 53.894531 135.542969 54.042969 C 135.542969 54.042969 135.394531 54.195312 135.394531 54.195312 C 135.394531 54.195312 135.242188 54.34375 135.242188 54.34375 C 135.09375 54.496094 135.09375 54.496094 135.242188 54.34375 C 135.09375 54.496094 134.941406 54.496094 134.941406 54.644531 L 134.792969 54.796875 L 133.589844 55.097656 C 133.4375 55.097656 133.4375 55.097656 133.289062 55.097656 L 132.6875 55.097656 L 132.386719 54.945312 L 132.085938 54.796875 C 131.785156 54.796875 132.234375 54.796875 132.234375 54.796875 C 132.234375 54.796875 131.785156 54.496094 131.785156 54.496094 L 131.484375 54.34375 C 131.484375 54.34375 131.183594 54.042969 131.03125 53.894531 L 130.882812 53.59375 L 131.03125 53.441406 C 131.03125 53.292969 130.882812 52.992188 130.882812 52.839844 L 130.882812 52.539062 C 130.730469 52.539062 130.730469 52.390625 130.730469 52.238281 Z M 130.730469 52.238281 " fill-opacity="1" fill-rule="nonzero"/><path fill="#ff6e40" d="M 133.589844 55.097656 C 133.589844 54.945312 133.289062 55.097656 133.589844 55.097656 Z M 133.589844 55.097656 " fill-opacity="1" fill-rule="nonzero"/><path fill="#ff6e40" d="M 130.730469 52.238281 C 130.882812 51.789062 130.730469 52.089844 130.730469 52.238281 Z M 130.730469 52.238281 " fill-opacity="1" fill-rule="nonzero"/><path fill="#ff6e40" d="M 200.667969 98.113281 C 199.164062 96.308594 196.457031 99.015625 197.960938 100.820312 L 212.550781 117.515625 L 197.960938 134.210938 C 196.308594 136.015625 199.015625 138.722656 200.667969 136.917969 L 216.460938 118.867188 C 217.210938 118.117188 217.210938 116.914062 216.460938 116.160156 Z M 200.667969 98.113281 " fill-opacity="1" fill-rule="nonzero"/><path fill="#ff6e40" d="M 156.449219 98.113281 L 140.808594 116.160156 C 140.054688 116.914062 140.054688 118.117188 140.808594 118.867188 L 156.449219 136.917969 C 158.105469 138.722656 160.660156 136.015625 159.15625 134.210938 L 144.566406 117.515625 L 159.15625 100.820312 C 160.8125 99.015625 158.105469 96.308594 156.449219 98.113281 Z M 156.449219 98.113281 " fill-opacity="1" fill-rule="nonzero"/><path fill="#ff6e40" d="M 185.929688 98.414062 L 170.285156 130 L 168.03125 134.511719 C 166.976562 136.617188 170.136719 138.570312 171.339844 136.464844 L 187.132812 104.878906 L 189.386719 100.367188 C 190.140625 98.261719 186.980469 96.308594 185.929688 98.414062 Z M 185.929688 98.414062 " fill-opacity="1" fill-rule="nonzero"/></svg>