<svg xmlns="http://www.w3.org/2000/svg" xmlns:xlink="http://www.w3.org/1999/xlink" width="500" zoomAndPan="magnify" viewBox="0 0 375 374.999991" height="500" preserveAspectRatio="xMidYMid meet" version="1.0"><defs><clipPath id="7171c23a2d"><path d="M 7.144531 313 L 153 313 L 153 375 L 7.144531 375 Z M 7.144531 313 " clip-rule="nonzero"/></clipPath><clipPath id="d9d7df11bc"><path d="M 7.144531 267 L 153 267 L 153 330 L 7.144531 330 Z M 7.144531 267 " clip-rule="nonzero"/></clipPath><clipPath id="070250674c"><path d="M 7.144531 221 L 153 221 L 153 284 L 7.144531 284 Z M 7.144531 221 " clip-rule="nonzero"/></clipPath><clipPath id="dffaeb3239"><path d="M 7.144531 175 L 153 175 L 153 238 L 7.144531 238 Z M 7.144531 175 " clip-rule="nonzero"/></clipPath><clipPath id="b720fe423d"><path d="M 7.144531 129 L 153 129 L 153 192 L 7.144531 192 Z M 7.144531 129 " clip-rule="nonzero"/></clipPath><clipPath id="5d2ff0f24f"><path d="M 7.144531 84 L 153 84 L 153 146 L 7.144531 146 Z M 7.144531 84 " clip-rule="nonzero"/></clipPath><clipPath id="ef8c640d86"><path d="M 275 0 L 367.894531 0 L 367.894531 138 L 275 138 Z M 275 0 " clip-rule="nonzero"/></clipPath><clipPath id="658e2ee95a"><path d="M 198 206 L 367.894531 206 L 367.894531 375 L 198 375 Z M 198 206 " clip-rule="nonzero"/></clipPath><clipPath id="fa577c4b3f"><path d="M 225 229.660156 L 345.265625 229.660156 L 345.265625 349.925781 L 225 349.925781 Z M 225 229.660156 " clip-rule="nonzero"/></clipPath><clipPath id="575396d6fd"><path d="M 285.132812 229.660156 C 251.921875 229.660156 225 256.582031 225 289.792969 C 225 323.003906 251.921875 349.925781 285.132812 349.925781 C 318.34375 349.925781 345.265625 323.003906 345.265625 289.792969 C 345.265625 256.582031 318.34375 229.660156 285.132812 229.660156 Z M 285.132812 229.660156 " clip-rule="nonzero"/></clipPath><clipPath id="e691164318"><path d="M 253.761719 232.941406 L 316.761719 232.941406 L 316.761719 349.941406 L 253.761719 349.941406 Z M 253.761719 232.941406 " clip-rule="nonzero"/></clipPath></defs><path fill="#ff6e40" d="M 321.308594 -7.878906 L 359.59375 57.210938 L 336.625 57.210938 L 336.625 129.957031 L 305.992188 129.957031 L 305.992188 57.210938 L 283.023438 57.210938 Z M 321.308594 -7.878906 " fill-opacity="1" fill-rule="nonzero"/><path fill="#ff6e40" d="M 275.363281 118.46875 L 237.078125 183.558594 L 198.789062 118.46875 L 221.761719 118.46875 L 221.761719 45.726562 L 252.390625 45.726562 L 252.390625 118.46875 Z M 275.363281 118.46875 " fill-opacity="1" fill-rule="nonzero"/><path fill="#ffffff" d="M 283.023438 214.1875 C 325.3125 214.1875 359.59375 248.46875 359.59375 290.761719 C 359.59375 333.054688 325.3125 367.335938 283.023438 367.335938 C 234.667969 367.335938 198.332031 323.019531 207.980469 275.445312 C 215.085938 240.421875 246.074219 214.1875 283.023438 214.1875 Z M 283.023438 214.1875 " fill-opacity="1" fill-rule="nonzero"/><path fill="#ffffff" d="M 145.1875 275.445312 L 207.980469 275.445312 C 204.957031 290.355469 206.316406 306.515625 212.828125 321.390625 L 145.1875 321.390625 Z M 145.1875 275.445312 " fill-opacity="1" fill-rule="nonzero"/><path fill="#ffffff" d="M 15.011719 321.390625 L 145.1875 321.390625 L 145.1875 367.335938 L 15.011719 367.335938 Z M 15.011719 321.390625 " fill-opacity="1" fill-rule="nonzero"/><path fill="#ffffff" d="M 15.011719 229.503906 L 145.1875 229.503906 L 145.1875 275.445312 L 15.011719 275.445312 Z M 15.011719 229.503906 " fill-opacity="1" fill-rule="nonzero"/><path fill="#ffffff" d="M 15.011719 137.613281 L 145.1875 137.613281 L 145.1875 183.558594 L 15.011719 183.558594 Z M 15.011719 137.613281 " fill-opacity="1" fill-rule="nonzero"/><path fill="#ffffff" d="M 212.828125 321.390625 C 224.632812 348.4375 251.617188 367.335938 283.023438 367.335938 L 145.1875 367.335938 L 145.1875 321.390625 Z M 212.828125 321.390625 " fill-opacity="1" fill-rule="nonzero"/><path fill="#ffffff" d="M 145.1875 229.503906 L 237.078125 229.503906 C 222.375 240.542969 211.769531 256.761719 207.980469 275.445312 L 145.1875 275.445312 Z M 145.1875 229.503906 " fill-opacity="1" fill-rule="nonzero"/><path fill="#ffffff" d="M 15.011719 275.445312 L 145.1875 275.445312 L 145.1875 321.390625 L 15.011719 321.390625 Z M 15.011719 275.445312 " fill-opacity="1" fill-rule="nonzero"/><path fill="#ffffff" d="M 15.011719 183.558594 L 145.1875 183.558594 L 145.1875 229.503906 L 15.011719 229.503906 Z M 15.011719 183.558594 " fill-opacity="1" fill-rule="nonzero"/><path fill="#ffffff" d="M 15.011719 91.667969 L 145.1875 91.667969 L 145.1875 137.613281 L 15.011719 137.613281 Z M 15.011719 91.667969 " fill-opacity="1" fill-rule="nonzero"/><g clip-path="url(#7171c23a2d)"><path fill="#000000" d="M 145.1875 374.992188 L 15.011719 374.992188 C 10.785156 374.992188 7.355469 371.566406 7.355469 367.335938 L 7.355469 321.390625 C 7.355469 317.160156 10.785156 313.734375 15.011719 313.734375 C 19.242188 313.734375 22.671875 317.160156 22.671875 321.390625 L 22.671875 359.679688 L 145.1875 359.679688 C 149.417969 359.679688 152.847656 363.105469 152.847656 367.335938 C 152.847656 371.566406 149.417969 374.992188 145.1875 374.992188 Z M 145.1875 374.992188 " fill-opacity="1" fill-rule="nonzero"/></g><g clip-path="url(#d9d7df11bc)"><path fill="#000000" d="M 145.1875 329.046875 L 15.011719 329.046875 C 10.785156 329.046875 7.355469 325.621094 7.355469 321.390625 L 7.355469 275.445312 C 7.355469 271.21875 10.785156 267.789062 15.011719 267.789062 C 19.242188 267.789062 22.671875 271.21875 22.671875 275.445312 L 22.671875 313.734375 L 145.1875 313.734375 C 149.417969 313.734375 152.847656 317.160156 152.847656 321.390625 C 152.847656 325.621094 149.417969 329.046875 145.1875 329.046875 Z M 145.1875 329.046875 " fill-opacity="1" fill-rule="nonzero"/></g><g clip-path="url(#070250674c)"><path fill="#000000" d="M 145.1875 283.105469 L 15.011719 283.105469 C 10.785156 283.105469 7.355469 279.675781 7.355469 275.445312 L 7.355469 229.503906 C 7.355469 225.273438 10.785156 221.84375 15.011719 221.84375 C 19.242188 221.84375 22.671875 225.273438 22.671875 229.503906 L 22.671875 267.789062 L 145.1875 267.789062 C 149.417969 267.789062 152.847656 271.21875 152.847656 275.445312 C 152.847656 279.675781 149.417969 283.105469 145.1875 283.105469 Z M 145.1875 283.105469 " fill-opacity="1" fill-rule="nonzero"/></g><g clip-path="url(#dffaeb3239)"><path fill="#000000" d="M 145.1875 237.160156 L 15.011719 237.160156 C 10.785156 237.160156 7.355469 233.730469 7.355469 229.503906 L 7.355469 183.558594 C 7.355469 179.328125 10.785156 175.902344 15.011719 175.902344 C 19.242188 175.902344 22.671875 179.328125 22.671875 183.558594 L 22.671875 221.84375 L 137.53125 221.84375 L 137.53125 183.558594 C 137.53125 179.328125 140.960938 175.902344 145.1875 175.902344 C 149.417969 175.902344 152.847656 179.328125 152.847656 183.558594 L 152.847656 229.503906 C 152.847656 233.730469 149.417969 237.160156 145.1875 237.160156 Z M 145.1875 237.160156 " fill-opacity="1" fill-rule="nonzero"/></g><g clip-path="url(#b720fe423d)"><path fill="#000000" d="M 145.1875 191.214844 L 15.011719 191.214844 C 10.785156 191.214844 7.355469 187.785156 7.355469 183.558594 L 7.355469 137.613281 C 7.355469 133.382812 10.785156 129.957031 15.011719 129.957031 C 19.242188 129.957031 22.671875 133.382812 22.671875 137.613281 L 22.671875 175.902344 L 137.53125 175.902344 L 137.53125 137.613281 C 137.53125 133.382812 140.960938 129.957031 145.1875 129.957031 C 149.417969 129.957031 152.847656 133.382812 152.847656 137.613281 L 152.847656 183.558594 C 152.847656 187.785156 149.417969 191.214844 145.1875 191.214844 Z M 145.1875 191.214844 " fill-opacity="1" fill-rule="nonzero"/></g><g clip-path="url(#5d2ff0f24f)"><path fill="#000000" d="M 145.1875 145.269531 L 15.011719 145.269531 C 10.785156 145.269531 7.355469 141.84375 7.355469 137.613281 L 7.355469 91.667969 C 7.355469 87.441406 10.785156 84.011719 15.011719 84.011719 L 145.1875 84.011719 C 149.417969 84.011719 152.847656 87.441406 152.847656 91.667969 L 152.847656 137.613281 C 152.847656 141.84375 149.417969 145.269531 145.1875 145.269531 Z M 22.671875 129.957031 L 137.53125 129.957031 L 137.53125 99.328125 L 22.671875 99.328125 Z M 22.671875 129.957031 " fill-opacity="1" fill-rule="nonzero"/></g><path fill="#000000" d="M 237.078125 191.214844 C 234.363281 191.214844 231.851562 189.78125 230.476562 187.441406 L 192.191406 122.351562 C 190.796875 119.984375 190.78125 117.050781 192.144531 114.667969 C 193.507812 112.285156 196.042969 110.8125 198.789062 110.8125 L 214.105469 110.8125 L 214.105469 45.726562 C 214.105469 41.496094 217.535156 38.066406 221.761719 38.066406 L 252.390625 38.066406 C 256.621094 38.066406 260.050781 41.496094 260.050781 45.726562 L 260.050781 110.8125 L 275.363281 110.8125 C 278.109375 110.8125 280.648438 112.285156 282.011719 114.667969 C 283.375 117.050781 283.355469 119.984375 281.964844 122.351562 L 243.675781 187.441406 C 242.300781 189.78125 239.789062 191.214844 237.078125 191.214844 Z M 212.179688 126.128906 L 237.078125 168.457031 L 261.976562 126.128906 L 252.390625 126.128906 C 248.164062 126.128906 244.734375 122.699219 244.734375 118.46875 L 244.734375 53.382812 L 229.417969 53.382812 L 229.417969 118.46875 C 229.417969 122.699219 225.992188 126.128906 221.761719 126.128906 Z M 212.179688 126.128906 " fill-opacity="1" fill-rule="nonzero"/><g clip-path="url(#ef8c640d86)"><path fill="#000000" d="M 336.625 137.613281 L 305.992188 137.613281 C 301.765625 137.613281 298.335938 134.183594 298.335938 129.957031 L 298.335938 64.867188 L 283.023438 64.867188 C 280.273438 64.867188 277.738281 63.398438 276.375 61.011719 C 275.011719 58.628906 275.027344 55.695312 276.421875 53.328125 L 314.707031 -11.757812 C 316.085938 -14.097656 318.59375 -15.535156 321.308594 -15.535156 C 324.023438 -15.535156 326.535156 -14.097656 327.910156 -11.757812 L 366.195312 53.328125 C 367.589844 55.695312 367.605469 58.628906 366.242188 61.011719 C 364.878906 63.398438 362.34375 64.867188 359.59375 64.867188 L 344.28125 64.867188 L 344.28125 129.957031 C 344.28125 134.183594 340.851562 137.613281 336.625 137.613281 Z M 313.652344 122.296875 L 328.964844 122.296875 L 328.964844 57.210938 C 328.964844 52.980469 332.394531 49.554688 336.625 49.554688 L 346.207031 49.554688 L 321.308594 7.226562 L 296.410156 49.554688 L 305.992188 49.554688 C 310.222656 49.554688 313.652344 52.980469 313.652344 57.210938 Z M 313.652344 122.296875 " fill-opacity="1" fill-rule="nonzero"/></g><path fill="#000000" d="M 206.457031 282.949219 C 202.3125 282.109375 199.632812 278.070312 200.476562 273.921875 C 203.234375 260.320312 209.300781 247.730469 218.039062 237.160156 L 152.847656 237.160156 L 152.847656 275.445312 C 152.847656 279.675781 149.417969 283.101562 145.1875 283.101562 C 140.960938 283.101562 137.53125 279.675781 137.53125 275.445312 L 137.53125 229.5 C 137.53125 225.273438 140.960938 221.84375 145.1875 221.84375 L 237.078125 221.84375 C 240.371094 221.84375 243.296875 223.953125 244.339844 227.078125 C 245.382812 230.203125 244.308594 233.644531 241.675781 235.625 C 228.132812 245.796875 218.828125 260.480469 215.484375 276.96875 C 214.644531 281.117188 210.597656 283.792969 206.457031 282.949219 Z M 206.457031 282.949219 " fill-opacity="1" fill-rule="nonzero"/><path fill="#000000" d="M 145.1875 329.046875 C 140.960938 329.046875 137.53125 325.621094 137.53125 321.390625 L 137.53125 275.445312 C 137.53125 271.21875 140.960938 267.789062 145.1875 267.789062 L 207.980469 267.789062 C 212.207031 267.789062 215.636719 271.21875 215.636719 275.445312 C 215.636719 279.675781 212.207031 283.105469 207.980469 283.105469 L 152.847656 283.105469 L 152.847656 321.390625 C 152.847656 325.621094 149.417969 329.046875 145.1875 329.046875 Z M 145.1875 329.046875 " fill-opacity="1" fill-rule="nonzero"/><path fill="#000000" d="M 283.023438 374.992188 L 145.1875 374.992188 C 140.960938 374.992188 137.53125 371.566406 137.53125 367.335938 L 137.53125 321.390625 C 137.53125 317.160156 140.960938 313.734375 145.1875 313.734375 L 212.828125 313.734375 C 217.054688 313.734375 220.484375 317.160156 220.484375 321.390625 C 220.484375 325.621094 217.054688 329.046875 212.828125 329.046875 L 152.847656 329.046875 L 152.847656 359.679688 L 283.023438 359.679688 C 287.25 359.679688 290.679688 363.105469 290.679688 367.335938 C 290.679688 371.566406 287.25 374.992188 283.023438 374.992188 Z M 283.023438 374.992188 " fill-opacity="1" fill-rule="nonzero"/><g clip-path="url(#658e2ee95a)"><path fill="#000000" d="M 283.023438 374.992188 C 236.578125 374.992188 198.789062 337.359375 198.789062 290.761719 C 198.789062 285.101562 199.355469 279.4375 200.476562 273.925781 C 201.316406 269.78125 205.355469 267.101562 209.5 267.941406 C 213.644531 268.78125 216.324219 272.824219 215.484375 276.96875 C 206.75 320.046875 239.75 359.679688 283.023438 359.679688 C 321.023438 359.679688 351.9375 328.761719 351.9375 290.761719 C 351.9375 252.761719 321.023438 221.84375 283.023438 221.84375 C 267.964844 221.84375 253.671875 226.609375 241.679688 235.625 C 238.296875 238.164062 233.496094 237.484375 230.957031 234.105469 C 228.414062 230.722656 229.09375 225.921875 232.476562 223.382812 C 247.144531 212.355469 264.621094 206.53125 283.023438 206.53125 C 329.46875 206.53125 367.253906 244.316406 367.253906 290.761719 C 367.253906 337.207031 329.46875 374.992188 283.023438 374.992188 Z M 283.023438 374.992188 " fill-opacity="1" fill-rule="nonzero"/></g><path fill="#000000" d="M 283.023438 329.046875 L 267.707031 329.046875 C 263.476562 329.046875 260.050781 325.621094 260.050781 321.390625 C 260.050781 317.160156 263.476562 313.734375 267.707031 313.734375 L 283.023438 313.734375 C 287.25 313.734375 290.679688 310.304688 290.679688 306.078125 C 290.679688 301.847656 287.25 298.417969 283.023438 298.417969 C 270.328125 298.417969 260.050781 288.140625 260.050781 275.445312 C 260.050781 262.78125 270.355469 252.472656 283.023438 252.472656 L 298.335938 252.472656 C 302.566406 252.472656 305.992188 255.902344 305.992188 260.132812 C 305.992188 264.359375 302.566406 267.789062 298.335938 267.789062 L 283.023438 267.789062 C 278.800781 267.789062 275.363281 271.222656 275.363281 275.445312 C 275.363281 279.675781 278.792969 283.105469 283.023438 283.105469 C 295.714844 283.105469 305.992188 293.382812 305.992188 306.078125 C 305.992188 318.769531 295.714844 329.046875 283.023438 329.046875 Z M 283.023438 329.046875 " fill-opacity="1" fill-rule="nonzero"/><path fill="#000000" d="M 283.023438 267.789062 C 278.792969 267.789062 275.363281 264.359375 275.363281 260.132812 L 275.363281 244.816406 C 275.363281 240.585938 278.792969 237.160156 283.023438 237.160156 C 287.25 237.160156 290.679688 240.585938 290.679688 244.816406 L 290.679688 260.132812 C 290.679688 264.359375 287.25 267.789062 283.023438 267.789062 Z M 283.023438 267.789062 " fill-opacity="1" fill-rule="nonzero"/><path fill="#000000" d="M 283.023438 344.363281 C 278.792969 344.363281 275.363281 340.933594 275.363281 336.707031 L 275.363281 321.390625 C 275.363281 317.160156 278.792969 313.734375 283.023438 313.734375 C 287.25 313.734375 290.679688 317.160156 290.679688 321.390625 L 290.679688 336.707031 C 290.679688 340.933594 287.25 344.363281 283.023438 344.363281 Z M 283.023438 344.363281 " fill-opacity="1" fill-rule="nonzero"/><g clip-path="url(#fa577c4b3f)"><g clip-path="url(#575396d6fd)"><path fill="#ffffff" d="M 225 229.660156 L 345.265625 229.660156 L 345.265625 349.925781 L 225 349.925781 Z M 225 229.660156 " fill-opacity="1" fill-rule="nonzero"/></g></g><g clip-path="url(#e691164318)"><path fill="#ff6e40" d="M 304.75 287.707031 C 300.996094 285.566406 295.710938 283.246094 289.046875 280.8125 C 282.582031 278.433594 278.429688 276.453125 276.355469 274.761719 C 274 272.839844 272.800781 270.097656 272.800781 266.613281 C 272.800781 263.128906 273.980469 260.367188 276.308594 258.011719 C 278.644531 255.648438 281.730469 254.449219 285.484375 254.449219 C 292.324219 254.449219 297.503906 258.71875 300.902344 267.144531 L 313.128906 262.128906 C 309.472656 251.261719 302.328125 245.195312 291.335938 243.613281 L 289.648438 243.367188 L 289.648438 232.941406 L 280.207031 232.941406 L 280.207031 243.367188 L 278.554688 243.636719 C 271.140625 244.851562 265.632812 247.839844 262.183594 252.527344 C 258.511719 257.511719 256.648438 263.203125 256.648438 269.441406 C 256.648438 274.179688 257.675781 278.367188 259.699219 281.890625 C 261.726562 285.425781 264.398438 288.203125 267.636719 290.152344 C 271.050781 292.203125 275.894531 294.324219 282.050781 296.457031 C 289.316406 299.035156 293.933594 301.144531 296.160156 302.90625 C 298.679688 304.90625 299.957031 307.816406 299.957031 311.554688 C 299.957031 315.089844 298.746094 318.152344 296.359375 320.652344 C 293.949219 323.179688 290.265625 324.460938 285.410156 324.460938 C 275.945312 324.460938 269.820312 319.464844 267.59375 309.96875 L 253.777344 313.570312 C 257.355469 327.144531 265.457031 334.554688 278.484375 336.199219 L 280.207031 336.417969 L 280.207031 349.917969 L 289.648438 349.917969 L 289.648438 336.34375 L 291.375 336.128906 C 299.382812 335.136719 305.59375 332.222656 309.835938 327.472656 C 314.246094 322.535156 316.480469 316.253906 316.480469 308.804688 C 316.480469 303.976562 315.40625 299.71875 313.296875 296.152344 C 311.175781 292.574219 308.300781 289.734375 304.75 287.707031 Z M 304.75 287.707031 " fill-opacity="1" fill-rule="nonzero"/></g></svg>