<svg xmlns="http://www.w3.org/2000/svg" xmlns:xlink="http://www.w3.org/1999/xlink" width="500" zoomAndPan="magnify" viewBox="0 0 375 374.999991" height="500" preserveAspectRatio="xMidYMid meet" version="1.0"><defs><clipPath id="c403f35b7b"><path d="M 37 194 L 164 194 L 164 337.21875 L 37 337.21875 Z M 37 194 " clip-rule="nonzero"/></clipPath><clipPath id="9064185881"><path d="M 211 194 L 337 194 L 337 337.21875 L 211 337.21875 Z M 211 194 " clip-rule="nonzero"/></clipPath></defs><path fill="#ffffff" d="M 187.558594 35.816406 C 288.847656 35.816406 371.363281 111.191406 374.949219 205.441406 C 375.027344 203.320312 375.085938 201.195312 375.085938 199.054688 C 375.085938 101.847656 291.128906 23.042969 187.558594 23.042969 C 83.992188 23.042969 0.0351562 101.84375 0.0351562 199.054688 C 0.0351562 201.195312 0.0898438 203.320312 0.171875 205.441406 C 3.757812 111.191406 86.273438 35.816406 187.558594 35.816406 Z M 187.558594 35.816406 " fill-opacity="1" fill-rule="nonzero"/><path fill="#ffffff" d="M 187.523438 180.339844 C 149.785156 100.910156 94.765625 86.015625 94.765625 86.015625 C 162.847656 137.078125 187.523438 310.832031 187.523438 310.832031 C 187.523438 310.832031 212.195312 137.078125 280.277344 86.015625 C 280.277344 86.015625 225.257812 100.910156 187.523438 180.339844 Z M 187.523438 180.339844 " fill-opacity="1" fill-rule="nonzero"/><path fill="#ffffff" d="M 223.605469 116.277344 L 195.710938 97.601562 L 151.503906 97.601562 L 171.75 108.945312 C 168.414062 112.683594 166.367188 117.605469 166.367188 123.011719 C 166.367188 134.699219 175.835938 144.171875 187.523438 144.171875 C 199.207031 144.171875 208.679688 134.699219 208.679688 123.011719 C 208.679688 120.65625 208.277344 118.394531 207.566406 116.277344 L 214.058594 116.277344 L 212.730469 140.625 L 218.167969 137.316406 L 216.632812 116.277344 Z M 223.605469 116.277344 " fill-opacity="1" fill-rule="nonzero"/><path fill="#ff6e40" d="M 136.84375 153.390625 L 129.28125 140.152344 C 129.28125 140.152344 111.3125 133.058594 87.203125 137.789062 L 87.203125 273.480469 C 87.203125 273.480469 134.953125 265.917969 181.289062 305.632812 C 181.289062 305.632812 158.59375 268.753906 102.804688 262.609375 L 102.804688 148.191406 C 102.804688 148.1875 119.351562 146.769531 136.84375 153.390625 Z M 136.84375 153.390625 " fill-opacity="1" fill-rule="nonzero"/><path fill="#ff6e40" d="M 76.679688 159.0625 L 61.433594 165.800781 L 61.433594 301.257812 C 61.433594 301.257812 124.90625 278.445312 176.324219 305.632812 C 176.324219 305.632812 146.894531 277.144531 77.746094 284.949219 Z M 76.679688 159.0625 " fill-opacity="1" fill-rule="nonzero"/><g clip-path="url(#c403f35b7b)"><path fill="#ffffff" d="M 53.632812 316.859375 L 52.921875 194.167969 L 37.675781 201.261719 L 37.675781 337.429688 C 37.675781 337.429688 92.285156 298.066406 163.203125 303.386719 C 163.203125 303.386719 111.433594 286.363281 53.632812 316.859375 Z M 53.632812 316.859375 " fill-opacity="1" fill-rule="nonzero"/></g><path fill="#ff6e40" d="M 237.78125 153.390625 L 245.347656 140.152344 C 245.347656 140.152344 263.3125 133.058594 287.425781 137.789062 L 287.425781 273.480469 C 287.425781 273.480469 239.671875 265.917969 193.339844 305.632812 C 193.339844 305.632812 216.035156 268.753906 271.824219 262.609375 L 271.824219 148.191406 C 271.824219 148.1875 255.273438 146.769531 237.78125 153.390625 Z M 237.78125 153.390625 " fill-opacity="1" fill-rule="nonzero"/><path fill="#ff6e40" d="M 297.945312 159.0625 L 313.191406 165.800781 L 313.191406 301.257812 C 313.191406 301.257812 249.71875 278.445312 198.300781 305.632812 C 198.300781 305.632812 227.734375 277.144531 296.878906 284.949219 Z M 297.945312 159.0625 " fill-opacity="1" fill-rule="nonzero"/><g clip-path="url(#9064185881)"><path fill="#ffffff" d="M 320.996094 316.859375 L 321.703125 194.167969 L 336.949219 201.261719 L 336.949219 337.429688 C 336.949219 337.429688 282.34375 298.066406 211.421875 303.386719 C 211.421875 303.386719 263.195312 286.363281 320.996094 316.859375 Z M 320.996094 316.859375 " fill-opacity="1" fill-rule="nonzero"/></g></svg>