<svg xmlns="http://www.w3.org/2000/svg" xmlns:xlink="http://www.w3.org/1999/xlink" width="500" zoomAndPan="magnify" viewBox="0 0 375 374.999991" height="500" preserveAspectRatio="xMidYMid meet" version="1.0"><defs><clipPath id="ec93172fb5"><path d="M 0 45.453125 L 375 45.453125 L 375 329.703125 L 0 329.703125 Z M 0 45.453125 " clip-rule="nonzero"/></clipPath></defs><g clip-path="url(#ec93172fb5)"><path fill="#000000" d="M 371.058594 226.726562 C 365.839844 228.027344 360.480469 228.121094 355.152344 228.425781 C 346.929688 228.898438 338.726562 229.511719 330.609375 231.019531 C 329.300781 231.261719 328.492188 231.804688 327.648438 232.824219 C 317.269531 245.378906 309.019531 259.433594 299.558594 272.640625 C 288.476562 288.117188 277.320312 303.53125 265.796875 318.675781 C 263.382812 321.847656 261.738281 325.640625 258.058594 327.734375 C 255.972656 328.917969 253.964844 329.460938 251.429688 329.046875 C 221.753906 324.210938 192.21875 318.496094 162.367188 314.738281 C 145.234375 312.582031 128.40625 308.566406 111.363281 305.835938 C 98.0625 303.707031 84.609375 302.421875 71.480469 299.363281 C 60.011719 296.691406 48.792969 292.921875 37.289062 290.453125 C 27.894531 288.4375 18.90625 285.292969 9.78125 282.492188 C 7.898438 281.914062 6.484375 280.710938 6.378906 278.78125 C 6.019531 272.199219 2.886719 266.394531 1.359375 260.144531 C 0.0117188 254.640625 0.222656 249.488281 4.53125 245.292969 C 12.019531 238.003906 17.777344 229.398438 23.59375 220.820312 C 24.964844 218.796875 26.453125 216.804688 28.152344 215.054688 C 41.765625 201.039062 52.128906 184.332031 65.472656 170.078125 C 68.257812 167.105469 70.203125 163.347656 72.585938 159.992188 C 73.863281 158.191406 74.007812 156.53125 73.007812 154.445312 C 70.941406 150.136719 69.378906 145.609375 68.136719 140.988281 C 66.957031 136.601562 68.1875 134.605469 72.5625 133.757812 C 80.382812 132.242188 80.242188 132.226562 81.207031 123.539062 C 81.691406 119.183594 81.398438 114.632812 83.976562 110.636719 C 84.730469 109.46875 85.472656 108.566406 86.636719 107.851562 C 97.652344 101.070312 109.839844 97.855469 122.46875 95.902344 C 129.539062 94.808594 136.617188 94.128906 142.394531 94.472656 C 157.644531 94.347656 171.355469 95.421875 184.515625 100.234375 C 185.871094 100.730469 186.34375 100.351562 186.726562 99.265625 C 188.027344 95.542969 190.808594 92.976562 193.535156 90.320312 C 195.769531 88.148438 197.878906 85.839844 199.945312 83.507812 C 204.472656 78.402344 209.25 73.71875 215.261719 70.214844 C 222.648438 65.902344 229.363281 60.550781 237.082031 56.652344 C 246.53125 51.875 256.667969 50.191406 266.847656 48.382812 C 274.308594 47.054688 281.832031 46.140625 289.390625 45.867188 C 297.777344 45.5625 299.765625 46.933594 302.894531 53.972656 C 305.464844 59.761719 307.488281 65.792969 310.035156 71.59375 C 318.949219 91.898438 329.441406 111.398438 340.804688 130.421875 C 345.507812 138.289062 348.570312 146.921875 352.84375 154.992188 C 356.070312 161.09375 359.269531 167.1875 362.695312 173.183594 C 366.476562 179.804688 366.390625 179.578125 359.445312 183.226562 C 357.191406 184.414062 356.640625 184.933594 358.472656 186.976562 C 361.21875 190.046875 363.617188 193.421875 366.289062 196.554688 C 368.808594 199.503906 369.328125 202.878906 368.726562 206.503906 C 368.230469 209.507812 368.554688 212.140625 370.605469 214.617188 C 372.226562 216.578125 373.410156 218.917969 374.164062 221.382812 C 375.035156 224.21875 373.960938 226.003906 371.058594 226.726562 Z M 371.058594 226.726562 " fill-opacity="1" fill-rule="nonzero"/></g><path fill="#000000" d="M 367.96875 217.484375 C 370.722656 222.386719 372.148438 223.367188 365.648438 224.117188 C 362.003906 224.539062 358.328125 224.917969 354.667969 224.949219 C 335.765625 225.117188 317.726562 229.445312 299.878906 235.335938 C 285.617188 240.042969 271.59375 245.230469 258.089844 251.777344 C 252.953125 254.265625 247.574219 252.765625 241.617188 253.382812 C 227.945312 252.035156 213.589844 253.046875 199.265625 254.003906 C 186.296875 254.875 173.457031 257.027344 160.574219 258.761719 C 150.40625 260.128906 140.507812 262.457031 130.570312 264.792969 C 124.996094 266.101562 124.355469 265.515625 122.746094 260.234375 C 120.480469 252.78125 117.640625 245.519531 113.886719 238.703125 C 107.683594 227.460938 104.621094 214.886719 98.8125 203.535156 C 89.6875 185.695312 83.824219 166.464844 74.824219 148.585938 C 73.484375 145.921875 72.765625 142.953125 71.570312 140.207031 C 70.867188 138.59375 71.359375 137.953125 72.898438 137.683594 C 74.539062 137.394531 76.175781 137.09375 77.816406 136.804688 C 78.933594 136.605469 79.492188 136.832031 79.929688 138.148438 C 81.535156 142.988281 83.484375 147.710938 85.144531 152.527344 C 89.136719 164.09375 94.8125 174.902344 100.121094 185.871094 C 102.449219 190.683594 103.164062 196.015625 105.542969 200.84375 C 110.835938 211.582031 115.847656 222.449219 119.90625 233.757812 C 122.003906 239.605469 123.289062 245.714844 125.9375 251.382812 C 127.691406 255.128906 128.617188 255.839844 132.996094 255.066406 C 137.808594 254.21875 142.59375 253.214844 147.386719 252.25 C 169.667969 247.75 192.019531 243.890625 214.871094 243.996094 C 224.992188 244.042969 234.738281 246.335938 244.476562 248.65625 C 248.0625 249.507812 251.277344 249.289062 254.335938 247.203125 C 267.386719 238.308594 281.714844 232.039062 296.550781 226.886719 C 308.96875 222.574219 321.691406 219.398438 334.796875 218.035156 C 339.554688 217.539062 344.359375 217.480469 349.140625 217.230469 C 354.796875 216.933594 360.503906 217.914062 366.109375 216.570312 C 367.128906 216.328125 367.566406 216.769531 367.96875 217.484375 Z M 367.96875 217.484375 " fill-opacity="1" fill-rule="nonzero"/><path fill="#ff6e40" d="M 26.269531 253.398438 C 19.855469 251.761719 13.21875 251 6.582031 249.851562 C 30.113281 220.246094 53.386719 190.957031 76.625 161.722656 C 79.277344 166.796875 81.210938 172.714844 83.597656 178.4375 C 83.960938 179.304688 83.628906 179.871094 83.179688 180.566406 C 67.878906 204.15625 51.777344 227.1875 35.082031 249.8125 C 32.722656 253.003906 30.53125 254.484375 26.269531 253.398438 Z M 277.84375 247.09375 C 271.125 249.675781 264.417969 252.300781 257.679688 254.828125 C 253.71875 256.3125 249.613281 257.660156 245.371094 257.046875 C 242.824219 256.675781 241.808594 257.683594 240.726562 259.574219 C 234.871094 269.785156 226.054688 274.449219 214.300781 273.308594 C 208.894531 272.785156 204.140625 270.222656 199.21875 268.191406 C 195.65625 266.71875 192.902344 264.1875 191.320312 260.832031 C 190.253906 258.574219 188.925781 258.363281 186.929688 258.578125 C 173.558594 260.011719 160.335938 262.453125 147.046875 264.441406 C 140.589844 265.410156 134.53125 268.378906 127.808594 268.140625 C 122.078125 267.9375 121.101562 267.320312 119.527344 262 C 117.921875 256.5625 115.792969 251.320312 113.53125 246.132812 C 109.09375 235.96875 103.769531 226.226562 100.167969 215.652344 C 97.941406 209.113281 95.105469 202.679688 91.683594 196.632812 C 76.742188 216.097656 67.777344 239.304688 51.144531 257.636719 C 58.628906 259.28125 65.691406 260.699219 72.6875 262.402344 C 85.171875 265.441406 97.40625 269.445312 110.027344 271.980469 C 123.769531 274.746094 137.710938 275.886719 151.613281 277.453125 C 166.726562 279.15625 181.917969 280.199219 196.953125 282.636719 C 206.921875 284.253906 217.101562 284.453125 226.972656 286.746094 C 232.835938 288.109375 238.726562 289.011719 244.730469 289.394531 C 246.382812 289.5 247.078125 289.054688 247.867188 287.796875 C 249.636719 284.972656 251.410156 282.121094 253.472656 279.511719 C 261.824219 268.941406 270.285156 258.457031 278.703125 247.945312 C 279.464844 247.527344 280.066406 246.957031 280.460938 246.0625 C 279.390625 246.039062 278.550781 246.386719 277.84375 247.09375 Z M 277.84375 247.09375 " fill-opacity="1" fill-rule="nonzero"/><path fill="#ff6e40" d="M 314.710938 236.566406 C 308.398438 245.992188 302.066406 255.417969 295.28125 264.5 C 290.222656 271.273438 284.085938 277.242188 279.09375 284.058594 C 273.957031 291.070312 267.761719 297.222656 263.054688 304.570312 C 260.71875 308.214844 257.929688 311.574219 255.277344 315.015625 C 254.460938 316.074219 253.4375 317.109375 251.898438 316.730469 C 250.359375 316.347656 250.058594 315 249.785156 313.644531 C 248.570312 307.660156 247.203125 301.707031 246.136719 295.699219 C 245.667969 293.070312 244.769531 291.761719 241.839844 292.109375 C 239.765625 292.355469 237.546875 292.324219 235.515625 291.867188 C 223.671875 289.191406 211.597656 288.171875 199.625 286.414062 C 179.476562 283.449219 159.226562 281.558594 139 279.476562 C 119.914062 277.511719 101.253906 273.828125 82.945312 268.242188 C 72.359375 265.011719 61.53125 262.96875 50.554688 260.785156 C 51.929688 270.148438 53.242188 279.210938 54.601562 288.261719 C 54.859375 290.003906 55.609375 291.117188 57.667969 291.527344 C 61.910156 292.371094 66.039062 293.785156 70.269531 294.691406 C 83.558594 297.539062 97.0625 299.035156 110.476562 301.105469 C 129.0625 303.972656 147.410156 308.304688 166.089844 310.566406 C 194.621094 314.019531 222.832031 319.4375 251.132812 324.289062 C 255.839844 325.097656 258.171875 323.535156 260.417969 320.128906 C 264.34375 314.179688 268.332031 308.28125 273.039062 302.890625 C 279.433594 295.574219 284.265625 287.132812 289.835938 279.21875 C 300.285156 264.386719 310.925781 249.683594 321.484375 234.925781 C 321.804688 234.480469 322.210938 234.0625 321.910156 233.253906 C 318.960938 233.082031 316.609375 233.730469 314.710938 236.566406 Z M 234.683594 309.304688 C 233.65625 310.804688 234.003906 313.511719 231.351562 313.222656 C 227.773438 312.730469 224.375 312.570312 221.222656 311.882812 C 217.960938 311.167969 215.785156 307.945312 213.53125 305.378906 C 213.316406 305.136719 213.375 304.527344 213.492188 304.144531 C 213.988281 302.535156 219.457031 299.175781 221.183594 299.273438 C 224.058594 299.4375 226.851562 300.296875 229.773438 300.097656 C 232.453125 299.910156 233.183594 302.644531 234.910156 303.902344 C 237.332031 305.660156 235.925781 307.484375 234.683594 309.304688 Z M 38.09375 280.859375 C 38.6875 282.601562 39.003906 284.4375 39.519531 286.5 C 31.585938 285.09375 24.226562 282.996094 16.902344 280.285156 C 12.234375 278.558594 9.910156 276.589844 9.371094 271.574219 C 8.960938 267.78125 7.171875 264.140625 6.007812 260.425781 C 5.742188 259.578125 5.507812 258.71875 5.304688 257.851562 C 3.964844 252.101562 4.316406 251.804688 9.878906 252.976562 C 16.058594 254.277344 22.277344 255.421875 28.496094 256.539062 C 29.722656 256.757812 30.5625 257.078125 30.902344 258.390625 C 32.878906 266.015625 35.550781 273.414062 38.09375 280.859375 Z M 193.3125 257.949219 C 207.980469 257.15625 222.296875 256.265625 237.007812 256.773438 C 231.746094 267.25 220.960938 271.507812 209.363281 267.640625 C 205.292969 266.28125 200.960938 265.363281 197.40625 262.71875 C 195.894531 261.59375 194.535156 260.28125 193.3125 257.949219 Z M 163.230469 168.488281 C 167.546875 179.867188 171.925781 191.21875 176.3125 202.652344 C 172.59375 204.164062 168.851562 203.238281 165.28125 203.871094 C 159.5625 204.882812 154.089844 206.628906 148.960938 209.335938 C 147.058594 210.339844 146.242188 210.058594 145.546875 207.921875 C 142.277344 197.910156 138.757812 187.984375 134.722656 178.253906 C 133.546875 175.425781 132 172.75 130.660156 170.074219 C 140.046875 167.070312 149.40625 165.609375 159.023438 165.664062 C 161.328125 165.675781 162.460938 166.457031 163.230469 168.488281 Z M 163.230469 168.488281 " fill-opacity="1" fill-rule="nonzero"/><path fill="#ffffff" d="M 89.621094 124.550781 C 94.34375 137.832031 100.90625 150.359375 105.75 163.589844 C 109 172.472656 112.492188 181.246094 117.332031 189.402344 C 120.070312 194.019531 122.132812 198.898438 123.746094 203.996094 C 126.523438 212.769531 130.378906 221.175781 132.503906 230.171875 C 132.957031 232.074219 134.046875 233.828125 134.679688 235.269531 C 170.800781 218.554688 207.382812 215.734375 245.3125 228.8125 C 243.675781 223.496094 241.617188 218.382812 239.042969 213.472656 C 231.558594 199.191406 224.296875 184.792969 216.535156 170.664062 C 208.628906 156.28125 204.070312 140.5 197.125 125.726562 C 194.519531 120.1875 191.195312 115.011719 188.863281 109.394531 C 187.359375 105.769531 185.082031 104.0625 181.527344 103.152344 C 160.941406 97.863281 140.21875 97.070312 119.316406 100.957031 C 108.3125 103 97.71875 106.140625 88.003906 111.910156 C 86.054688 113.066406 85.640625 114.0625 86.570312 116.132812 C 87.789062 118.847656 88.617188 121.738281 89.621094 124.550781 Z M 177.589844 206.492188 C 167.960938 206.757812 158.703125 208.644531 149.753906 212.316406 C 145.128906 214.210938 144.632812 213.644531 142.628906 208.972656 C 137.425781 196.847656 133.902344 184.066406 128.101562 172.167969 C 126.363281 168.609375 127.117188 167.675781 131.058594 166.859375 C 135.816406 165.878906 140.273438 163.726562 145.183594 163.289062 C 148.601562 162.984375 152.003906 162.492188 155.414062 162.082031 C 155.417969 162.203125 155.425781 162.320312 155.429688 162.441406 C 157.539062 162.441406 159.648438 162.457031 161.753906 162.4375 C 164.378906 162.410156 165.390625 164.191406 166.152344 166.28125 C 169.515625 175.539062 172.875 184.804688 176.253906 194.0625 C 177.390625 197.175781 178.5 200.308594 179.773438 203.371094 C 180.753906 205.730469 179.707031 206.433594 177.589844 206.492188 Z M 225.714844 205.296875 C 225.34375 207.09375 223.6875 206.554688 222.683594 206.304688 C 218.367188 205.238281 214.019531 204.613281 209.589844 204.125 C 205.074219 203.628906 200.726562 204.175781 196.34375 204.742188 C 194.5625 204.972656 192.808594 204.980469 191.035156 205.03125 C 190.109375 205.058594 189.121094 204.875 189.113281 203.726562 C 189.109375 202.84375 189.9375 202.488281 190.75 202.355469 C 195.554688 201.585938 200.363281 200.828125 204.492188 200.171875 C 211.390625 200.921875 217.589844 201.398438 223.535156 203.375 C 224.523438 203.703125 226.050781 203.675781 225.714844 205.296875 Z M 217.152344 192.269531 C 218.417969 192.699219 220.074219 193.035156 219.570312 194.78125 C 219.121094 196.339844 217.4375 195.820312 216.367188 195.558594 C 210.410156 194.09375 204.285156 193.890625 198.347656 192.890625 C 194.386719 193.378906 190.53125 193.992188 186.632812 193.746094 C 185.761719 193.691406 184.375 194.1875 184.320312 192.625 C 184.269531 191.210938 185.71875 191.183594 186.519531 191.125 C 192.894531 190.664062 199.210938 188.859375 205.6875 190.359375 C 209.460938 191.230469 213.429688 191.011719 217.152344 192.269531 Z M 210.503906 177.117188 C 210.5 178.171875 209.710938 178.320312 208.890625 178.339844 C 208.113281 178.363281 207.332031 178.347656 205.789062 178.347656 C 199.28125 176.566406 192.207031 178.105469 185.109375 179.507812 C 183.96875 179.730469 182.382812 179.992188 182.085938 178.328125 C 181.75 176.449219 183.308594 176.332031 184.679688 176.140625 C 188.953125 175.554688 193.207031 174.78125 197.496094 174.347656 C 201.402344 173.949219 205.183594 175.359375 209.0625 175.585938 C 209.945312 175.636719 210.507812 176.195312 210.503906 177.117188 Z M 200.925781 162.269531 C 202.683594 162.339844 204.464844 162.8125 205.886719 164 C 206.480469 164.496094 207.011719 165.136719 206.523438 166.019531 C 206.152344 166.6875 205.507812 166.976562 204.824219 166.75 C 196.03125 163.859375 186.941406 165.242188 177.976562 164.867188 C 177.644531 164.855469 177.308594 164.867188 176.976562 164.847656 C 176.03125 164.789062 175.105469 164.53125 174.988281 163.460938 C 174.84375 162.15625 175.941406 161.652344 176.90625 161.613281 C 179.910156 161.496094 182.921875 161.570312 184.96875 161.570312 C 190.96875 161.007812 195.921875 162.0625 200.925781 162.269531 Z M 192.878906 146.570312 C 194.125 146.925781 195.367188 147.4375 194.921875 149.039062 C 194.519531 150.484375 193.148438 150.296875 192.109375 150.039062 C 182.132812 147.5625 171.949219 147.726562 161.875 148.394531 C 148.726562 149.265625 135.425781 149.257812 122.578125 152.851562 C 120.023438 153.566406 117.574219 154.667969 115.027344 155.410156 C 114.148438 155.667969 112.765625 155.929688 112.339844 154.785156 C 111.84375 153.445312 113.347656 153.324219 114.113281 152.921875 C 120.886719 149.339844 128.191406 147.535156 135.757812 146.890625 C 147.378906 145.894531 158.96875 144.359375 171.898438 144.753906 C 177.46875 144.652344 184.257812 144.660156 190.949219 146.089844 C 191.597656 146.230469 192.242188 146.386719 192.878906 146.570312 Z M 189.460938 130.574219 C 189.039062 132.691406 187.117188 131.921875 185.578125 131.648438 C 170.808594 129.011719 156.125 130.460938 141.410156 132.355469 C 131.378906 133.652344 121.453125 135.316406 111.757812 138.226562 C 111.234375 138.386719 110.632812 138.660156 110.15625 138.53125 C 109.386719 138.328125 108.140625 138.484375 108.109375 137.320312 C 108.085938 136.433594 109.0625 136.347656 109.800781 136.058594 C 120.207031 131.976562 131.140625 130.277344 142.113281 128.652344 C 150.488281 127.414062 158.871094 126.511719 167.660156 126.65625 C 173.71875 126.261719 180.019531 126.960938 186.28125 128.0625 C 187.769531 128.324219 189.878906 128.488281 189.460938 130.574219 Z M 105.175781 118.613281 C 112.1875 114.132812 120.234375 112.757812 128.195312 111.394531 C 134.085938 110.382812 140.074219 109.726562 146.097656 109.871094 C 158.15625 109.949219 169.957031 111.960938 181.683594 114.566406 C 183.148438 114.894531 184.996094 115.265625 184.664062 116.996094 C 184.257812 119.09375 182.394531 118.421875 180.824219 118.066406 C 168.445312 115.261719 155.953125 112.882812 143.214844 113.558594 C 130.671875 114.21875 118.238281 115.921875 106.648438 121.351562 C 105.613281 121.835938 104.269531 122.828125 103.4375 121.308594 C 102.585938 119.75 104.21875 119.226562 105.175781 118.613281 Z M 362.492188 202.261719 C 363.636719 202.476562 365.074219 202.292969 364.941406 204.21875 C 364.804688 206.242188 363.316406 205.683594 362.226562 205.675781 C 357.546875 205.640625 352.878906 205.621094 348.222656 206.289062 C 326.0625 209.460938 303.816406 212.375 283.199219 221.8125 C 274.882812 225.617188 265.84375 228.175781 258.949219 234.71875 C 257.878906 235.738281 256.484375 236.441406 255.648438 238.671875 C 289.4375 218.113281 325.859375 209.628906 364.621094 208.5625 C 363.730469 213.734375 363.730469 213.789062 358.460938 213.554688 C 330.902344 212.328125 304.886719 218.363281 279.738281 229.421875 C 270.925781 233.296875 262.355469 237.460938 254.652344 243.117188 C 249.835938 246.65625 245.085938 245.660156 240.496094 244.097656 C 222.847656 238.089844 204.964844 239.574219 186.957031 241.476562 C 168.660156 243.414062 150.835938 247.703125 132.945312 251.699219 C 132.539062 251.789062 132.089844 251.710938 131.605469 251.710938 C 131.699219 249.019531 132.917969 247.757812 135.4375 246.707031 C 148.515625 241.269531 161.949219 237.175781 176.011719 235.398438 C 187.828125 233.90625 199.691406 232.085938 211.613281 233.296875 C 220.425781 234.195312 229.023438 236.542969 237.617188 238.765625 C 240.875 239.609375 244.125 241.066406 247.765625 239.871094 C 235.796875 235 223.4375 231.675781 210.511719 230.367188 C 197.421875 229.042969 184.515625 230.96875 171.644531 232.648438 C 158.601562 234.351562 146.253906 238.710938 134.21875 244.582031 C 133.953125 242.011719 135.316406 240.585938 137.066406 239.320312 C 143.519531 234.652344 151.09375 232.84375 158.53125 230.515625 C 175.050781 225.332031 191.929688 223.90625 209.046875 225.34375 C 221.6875 226.40625 234.339844 227.820312 245.726562 234.261719 C 247.542969 235.289062 249.441406 235.316406 251.519531 234.671875 C 256.886719 233.011719 261.554688 229.996094 266.457031 227.417969 C 286.886719 216.679688 307.976562 207.652344 330.941406 203.960938 C 340.386719 202.441406 349.929688 201.5 359.539062 201.824219 C 360.527344 201.855469 361.511719 202.078125 362.492188 202.261719 Z M 254.113281 290.277344 C 253.695312 290.910156 252.625 291.75 253.851562 292.511719 C 254.851562 293.132812 255.578125 292.214844 256.046875 291.519531 C 259.609375 286.226562 264.199219 281.804688 268.285156 276.957031 C 276.171875 267.597656 284.214844 258.359375 290.957031 248.085938 C 292.773438 245.316406 295.71875 243.425781 297.550781 240.558594 C 298.261719 239.453125 299.730469 239.238281 301.742188 239.1875 C 298.121094 244.195312 295.292969 248.976562 291.734375 253.277344 C 280.734375 266.5625 269.140625 279.347656 258.679688 293.074219 C 257.535156 294.578125 256.542969 296.195312 255.523438 297.789062 C 255.082031 298.480469 254.855469 299.425781 255.585938 299.910156 C 256.328125 300.402344 257.074219 299.730469 257.582031 299.128906 C 259.378906 297 261.324219 294.964844 262.878906 292.667969 C 267.261719 286.195312 272.59375 280.484375 277.402344 274.355469 C 283.4375 266.664062 290.113281 259.476562 296.335938 251.929688 C 299.800781 247.722656 302.992188 243.285156 306.148438 238.835938 C 307.578125 236.816406 309.414062 236.054688 311.53125 235.890625 C 293.875 262.425781 271.699219 285.476562 253.109375 312.089844 C 251.753906 305.757812 250.570312 300.148438 249.347656 294.546875 C 248.976562 292.855469 249.722656 291.597656 250.613281 290.25 C 256.523438 281.308594 263.429688 273.132812 270.179688 264.851562 C 275.382812 258.472656 279.671875 251.398438 285.410156 245.402344 C 287.472656 243.25 289.757812 242.660156 292.46875 241.765625 C 282.546875 255.097656 272.460938 267.890625 261.582031 280.042969 C 258.742188 283.214844 256.445312 286.753906 254.113281 290.277344 Z M 84.550781 125.703125 C 83.984375 123.78125 84.617188 121.820312 85.164062 119.898438 C 89.035156 133.941406 95.964844 146.691406 100.804688 160.234375 C 105.148438 172.375 110.40625 184.054688 116.363281 195.527344 C 121.5 205.417969 124.878906 216.226562 127.898438 227.019531 C 128.894531 230.578125 130.125 233.972656 131.808594 237.242188 C 132.351562 238.292969 133.417969 239.464844 131.878906 241.246094 C 129.023438 233.660156 124.652344 227.117188 122.097656 219.707031 C 120.222656 214.265625 118.128906 208.886719 115.367188 203.855469 C 109.972656 194.023438 106 183.605469 102.222656 173.105469 C 99.527344 165.617188 96.09375 158.445312 93.007812 151.128906 C 89.519531 142.859375 87.09375 134.269531 84.550781 125.703125 Z M 84.234375 140.453125 C 83.269531 137.234375 82.9375 134.195312 83.734375 130.773438 C 84.367188 132.847656 85.085938 134.898438 85.621094 136.996094 C 87.496094 144.320312 90.234375 151.355469 93.625 158.058594 C 98.9375 168.5625 102.355469 179.789062 106.515625 190.722656 C 109.292969 198.019531 113.542969 204.53125 116.523438 211.695312 C 117.195312 213.3125 117.871094 214.957031 118.359375 216.601562 C 120.980469 225.496094 125.996094 233.316406 129.511719 241.808594 C 130.632812 244.523438 130.832031 246.835938 128.980469 249.453125 C 126.144531 243.214844 124.542969 236.667969 122.179688 230.410156 C 118.050781 219.484375 112.480469 209.25 107.917969 198.550781 C 104.753906 191.125 102.03125 183.519531 98.511719 176.230469 C 92.914062 164.652344 87.925781 152.824219 84.234375 140.453125 Z M 363.875 198.925781 C 357.945312 198.425781 352.605469 198.480469 347.230469 198.800781 C 328.535156 199.925781 310.617188 204.027344 293.316406 211.277344 C 282.855469 215.660156 272.371094 219.921875 262.640625 225.820312 C 262.066406 226.523438 261.328125 226.933594 260.4375 227.121094 C 260.183594 226.0625 260.945312 225.929688 261.617188 225.71875 C 264.835938 222.597656 268.410156 219.941406 272.414062 217.925781 C 283.738281 212.222656 294.957031 206.28125 306.484375 201.019531 C 316.792969 196.308594 327.925781 193.804688 338.699219 190.339844 C 342.925781 188.976562 347.1875 187.710938 351.378906 186.242188 C 352.894531 185.710938 353.503906 185.96875 354.496094 187.328125 C 357.304688 191.175781 360.46875 194.765625 363.875 198.925781 Z M 358.949219 174.957031 C 355.316406 169.339844 352.394531 163.335938 349.167969 157.496094 C 344.480469 149.015625 340.953125 139.992188 336.066406 131.585938 C 323.316406 109.660156 310.621094 87.675781 301.871094 63.714844 C 300.351562 59.546875 299.066406 55.261719 296.714844 51.429688 C 295.917969 50.125 295.222656 49.441406 293.324219 49.714844 C 286.9375 50.636719 280.445312 50.851562 274.085938 51.894531 C 263.464844 53.628906 252.707031 54.789062 242.640625 59.171875 C 234.195312 62.847656 226.707031 68.003906 219.175781 73.167969 C 215.695312 75.550781 211.839844 77.363281 208.8125 80.433594 C 203.570312 85.746094 198.746094 91.441406 193.117188 96.40625 C 188.65625 100.347656 188.597656 102.460938 191.160156 107.691406 C 191.695312 108.785156 192.300781 109.855469 192.953125 110.886719 C 198.589844 119.734375 203.375 129.09375 206.773438 138.949219 C 213.085938 157.261719 222.945312 173.835938 231.625 190.957031 C 238.195312 203.917969 245.792969 216.34375 250.261719 230.480469 C 250.78125 230.191406 251.191406 230.039062 251.515625 229.773438 C 255.8125 226.234375 260.015625 222.578125 264.402344 219.152344 C 271.214844 213.835938 279.335938 210.859375 286.933594 206.964844 C 295.332031 202.664062 303.277344 197.316406 312.34375 194.488281 C 321.460938 191.644531 330.433594 188.335938 339.699219 185.933594 C 345.59375 184.402344 351.335938 182.242188 357.101562 180.234375 C 361.15625 178.824219 361.234375 178.492188 358.949219 174.957031 Z M 205.863281 105.4375 C 205.234375 104.550781 206.117188 103.773438 206.785156 103.191406 C 216.992188 94.269531 226.367188 84.082031 239.015625 78.5625 C 250.6875 73.46875 262.835938 69.5 275.273438 66.589844 C 277.070312 66.171875 279.046875 66.53125 280.941406 66.53125 C 280.941406 66.445312 280.941406 66.359375 280.9375 66.277344 C 282.386719 66.277344 283.84375 66.1875 285.28125 66.304688 C 286.398438 66.394531 288.039062 66.011719 288.046875 67.875 C 288.054688 69.683594 286.378906 69.398438 285.292969 69.578125 C 283.988281 69.796875 282.625 69.785156 281.289062 69.730469 C 275.859375 69.523438 270.722656 70.828125 265.648438 72.582031 C 259.148438 74.824219 252.625 76.996094 246.105469 79.1875 C 236.984375 82.253906 229.171875 87.476562 222.140625 93.910156 C 217.777344 97.90625 213.085938 101.472656 208.410156 105.066406 C 207.660156 105.644531 206.71875 106.636719 205.863281 105.4375 Z M 214.90625 123.898438 C 214.183594 124.191406 213.027344 124.46875 212.550781 123.429688 C 212.101562 122.441406 213.128906 122.1875 213.742188 121.753906 C 216.476562 119.816406 218.789062 117.417969 221.191406 115.09375 C 232.046875 104.582031 244.53125 96.648438 258.960938 91.945312 C 262.65625 90.742188 266.34375 89.558594 269.863281 87.863281 C 277.210938 84.328125 286.125 82.355469 295.671875 82.050781 C 296.453125 82.09375 297.714844 82.101562 297.992188 83.476562 C 298.328125 85.167969 296.898438 85.582031 295.726562 85.757812 C 292.4375 86.246094 289.125 86.660156 285.808594 86.921875 C 277.484375 87.582031 270.695312 92.609375 262.933594 94.867188 C 246.910156 99.523438 233.03125 107.8125 221.199219 119.582031 C 219.386719 121.386719 217.300781 122.929688 214.90625 123.898438 Z M 227.171875 141.351562 C 226.398438 142.507812 225.320312 144.1875 223.757812 143.074219 C 221.933594 141.773438 223.53125 140.453125 224.371094 139.140625 C 233.472656 124.9375 247.730469 117.226562 261.910156 109.523438 C 272.84375 103.582031 284.5 99.324219 296.5625 96.265625 C 299.441406 95.535156 302.464844 95.339844 305.035156 94.503906 C 306.230469 94.578125 307.21875 94.441406 307.433594 95.671875 C 307.609375 96.6875 307.152344 97.425781 306.265625 97.847656 C 305.566406 98.179688 304.820312 98.578125 304.074219 98.621094 C 297.550781 98.988281 291.6875 101.902344 285.46875 103.453125 C 277.453125 105.453125 270.300781 109.707031 262.90625 113.238281 C 248.929688 119.910156 236.011719 128.070312 227.171875 141.351562 Z M 232.117188 158.992188 C 230.878906 157.972656 232.949219 156.363281 233.726562 155.113281 C 239.304688 146.171875 247.804688 140.25 256.148438 134.398438 C 263.136719 129.5 270.75 125.4375 278.328125 121.457031 C 287.941406 116.402344 298.714844 115.578125 309.203125 113.84375 C 310.5625 113.574219 312.203125 113.1875 312.46875 115.019531 C 312.738281 116.890625 311.066406 117.183594 309.566406 117.4375 C 299.71875 119.109375 289.441406 119.785156 280.660156 124.824219 C 269.503906 131.226562 257.75 136.765625 248.101562 145.628906 C 244.246094 149.167969 240.019531 152.289062 236.910156 156.578125 C 236.777344 156.757812 236.628906 156.925781 236.46875 157.082031 C 235.210938 158.292969 233.429688 160.074219 232.117188 158.992188 Z M 237.296875 176.898438 C 236.566406 176.785156 236.027344 176.425781 235.835938 175.726562 C 235.652344 175.046875 235.8125 174.535156 236.539062 174.09375 C 251.109375 165.292969 264.269531 154.371094 279.132812 145.996094 C 286.246094 141.992188 293.835938 139.132812 301.375 136.175781 C 306.148438 134.304688 311.472656 134.980469 316.492188 134.078125 C 318.238281 133.765625 320 133.550781 321.664062 133.300781 C 322.933594 133.40625 324.519531 133.023438 324.675781 134.730469 C 324.8125 136.234375 323.492188 136.671875 322.199219 136.871094 C 318.46875 137.445312 314.761719 138.339844 311.015625 138.554688 C 300.425781 139.152344 291.355469 144.105469 282.457031 148.9375 C 271.921875 154.65625 261.675781 160.988281 252.234375 168.519531 C 248.6875 171.347656 244.605469 173.503906 240.761719 175.957031 C 239.710938 176.625 238.601562 177.09375 237.296875 176.898438 Z M 247.523438 191.570312 C 246.789062 192.070312 246.078125 192.609375 245.363281 193.136719 C 244.789062 193.558594 244.199219 193.839844 243.597656 193.210938 C 243.027344 192.613281 243.144531 192.023438 243.667969 191.453125 C 244.421875 190.636719 245.132812 189.773438 245.925781 188.996094 C 257.863281 177.277344 271.742188 168.777344 287.582031 163.304688 C 297.113281 160.011719 306.089844 155.242188 315.816406 152.390625 C 319.660156 151.261719 323.425781 149.945312 327.5 150.003906 C 328.722656 150.0625 329.949219 150.109375 331.171875 150.179688 C 332.207031 150.238281 332.871094 150.800781 332.925781 151.824219 C 332.984375 152.898438 332.304688 153.386719 331.269531 153.503906 C 307.714844 156.160156 287.386719 167.652344 266.441406 177.367188 C 259.230469 180.710938 254.046875 187.113281 247.523438 191.570312 Z M 342.859375 163.535156 C 342.53125 165.175781 340.992188 165.199219 339.945312 165.242188 C 332.390625 165.539062 325.464844 168.445312 318.28125 170.265625 C 315.804688 170.894531 313.28125 171.511719 311.113281 172.894531 C 298.300781 181.085938 283.859375 185.910156 270.359375 192.679688 C 264.542969 195.59375 258.851562 198.515625 254.457031 203.453125 C 254.089844 203.863281 253.648438 204.222656 253.191406 204.535156 C 252.414062 205.0625 251.480469 205.429688 250.796875 204.574219 C 250.195312 203.820312 250.410156 203.035156 251.148438 202.234375 C 255.003906 198.035156 259.007812 194.109375 264.21875 191.496094 C 274.652344 186.261719 285.417969 181.78125 296.0625 177.019531 C 297.683594 176.292969 299.425781 175.722656 300.867188 174.726562 C 312.183594 166.925781 325.269531 164.515625 338.414062 162.285156 C 339.496094 162.101562 340.632812 162.164062 341.746094 162.199219 C 342.53125 162.226562 342.941406 162.710938 342.859375 163.535156 Z M 342.859375 163.535156 " fill-opacity="1" fill-rule="nonzero"/></svg>