<svg xmlns="http://www.w3.org/2000/svg" xmlns:xlink="http://www.w3.org/1999/xlink" width="500" zoomAndPan="magnify" viewBox="0 0 375 374.999991" height="500" preserveAspectRatio="xMidYMid meet" version="1.0"><defs><clipPath id="b011eec34b"><path d="M 11 73 L 371 73 L 371 337.226562 L 11 337.226562 Z M 11 73 " clip-rule="nonzero"/></clipPath></defs><g clip-path="url(#b011eec34b)"><path fill="#ffffff" d="M 135.757812 78.25 C 156.792969 68.761719 196.355469 73.148438 215.925781 84.488281 C 255.367188 107.332031 316.03125 144.011719 347.070312 164.527344 C 358.398438 172.011719 347.652344 219.132812 370.550781 240.3125 C 369.746094 245.644531 368.507812 249.871094 366.746094 252.125 C 358.492188 262.6875 216.5625 337.503906 206 337.503906 C 195.433594 337.503906 18.820312 229.191406 13.144531 216.03125 C 9.183594 206.84375 13.125 155.179688 16.675781 147.917969 C 21.617188 137.832031 88.859375 99.390625 135.757812 78.25 Z M 135.757812 78.25 " fill-opacity="1" fill-rule="nonzero"/></g><path fill="#ff6e40" d="M 241.289062 187.425781 C 238.640625 190.039062 235.839844 192.351562 232.933594 194.402344 C 233.867188 195.851562 234.867188 197.257812 235.917969 198.621094 C 236.128906 198.472656 236.339844 198.328125 236.554688 198.199219 C 238.460938 197.0625 240.851562 196.582031 242.945312 197.335938 C 245.136719 198.121094 246.664062 200.070312 248.0625 201.921875 C 245.699219 203.785156 236.664062 211.871094 234.105469 211.464844 C 233.492188 211.363281 233.070312 210.792969 232.78125 210.234375 C 231.730469 208.167969 231.570312 205.691406 232.289062 203.488281 C 232.546875 202.691406 232.925781 201.929688 233.390625 201.226562 C 232.230469 199.625 231.0625 198.023438 229.902344 196.421875 C 203.789062 212.871094 171.371094 209.5625 172.914062 209.410156 C 172.914062 209.410156 171.355469 204.765625 172.914062 203.316406 C 173.738281 203.054688 177.433594 203.328125 182.929688 203.175781 C 182.175781 200.367188 182.667969 196.511719 182.882812 194.902344 C 182.933594 194.519531 183.035156 194.074219 183.382812 193.902344 C 183.574219 193.808594 183.789062 193.816406 184 193.828125 C 185.066406 193.886719 186.128906 193.9375 187.195312 193.996094 C 186.933594 196.988281 186.890625 199.996094 187.035156 202.996094 C 195.796875 202.429688 207.578125 200.589844 219.476562 194.84375 C 241.875 184.011719 257.070312 159.054688 246.671875 139.296875 C 237.621094 122.09375 217.222656 108.289062 194.820312 104.3125 C 194.441406 108.246094 193.746094 114.042969 192.238281 113.8125 C 189.023438 113.328125 189.6875 106.363281 190.652344 103.695312 C 188.6875 103.457031 186.710938 103.289062 184.730469 103.210938 C 182.101562 103.339844 184.679688 99.421875 186.042969 98.734375 C 187.40625 98.042969 222.746094 97.746094 241.289062 120.71875 C 259.828125 143.664062 261.589844 167.316406 241.289062 187.425781 Z M 347.078125 164.535156 C 346.515625 175.773438 343.90625 187.582031 344.3125 198.472656 C 344.398438 200.808594 344.609375 203.410156 346.339844 204.96875 C 347.722656 206.214844 349.71875 206.445312 351.570312 206.5625 C 354.730469 206.765625 357.96875 206.777344 361.136719 206.429688 C 363.347656 193.742188 367.222656 182.859375 368.128906 179.183594 C 367.15625 177.460938 358.40625 172.011719 347.078125 164.535156 Z M 179.117188 64.359375 C 173.734375 62.761719 156.792969 68.769531 135.757812 78.25 C 162.429688 80.964844 189.160156 83.046875 215.925781 84.488281 C 196.355469 73.15625 182.007812 65.21875 179.117188 64.359375 Z M 179.117188 64.359375 " fill-opacity="1" fill-rule="nonzero"/><path fill="#fff6e1" d="M 211.714844 260.871094 C 223.367188 251.542969 368.128906 179.179688 368.128906 179.179688 C 372.019531 186.097656 374.898438 220.785156 371.933594 240.421875 C 338.898438 265.210938 212.152344 328.054688 207.832031 323.019531 C 203.171875 317.59375 204.722656 266.3125 211.714844 260.871094 Z M 211.714844 260.871094 " fill-opacity="1" fill-rule="nonzero"/><path fill="#000000" d="M 110.300781 164.484375 C 104.003906 146.652344 142.640625 113.226562 148.3125 111.328125 C 182.109375 100.023438 217 116.523438 232.316406 128.042969 C 244.34375 137.09375 249.925781 157.902344 237.171875 174.800781 C 234.875 177.84375 225.027344 169.953125 228.433594 183.460938 C 222.367188 188.070312 214.359375 192.03125 204.078125 194.910156 C 154.335938 208.816406 121.546875 184.382812 114.375 172.84375 C 112.621094 170.027344 111.273438 167.238281 110.300781 164.484375 Z M 246.945312 257.746094 L 214.382812 275.136719 C 225.257812 290.050781 233.308594 307.011719 237.996094 324.867188 C 242.113281 313.839844 246.085938 302.355469 249.65625 291.136719 C 257.351562 295.308594 264.410156 300.859375 271.277344 306.296875 C 271.707031 306.628906 272.148438 307.011719 272.4375 307.460938 C 266.714844 290.109375 257.300781 272.738281 246.945312 257.746094 Z M 272.445312 307.453125 C 272.554688 307.773438 272.664062 308.09375 272.765625 308.410156 C 272.757812 308.054688 272.632812 307.746094 272.445312 307.453125 Z M 272.445312 307.453125 " fill-opacity="1" fill-rule="nonzero"/><path fill="#ff6e40" d="M 197.441406 260.253906 C 210.296875 276.820312 0.148438 140.714844 29.414062 152.601562 C 31.175781 153.308594 194.203125 256.074219 197.441406 260.253906 Z M 154.625 158.882812 C 153.226562 158.273438 151.769531 157.476562 151.101562 156.105469 C 149.929688 153.679688 151.726562 150.933594 153.429688 148.847656 C 155.742188 146.011719 158.042969 143.179688 160.355469 140.355469 C 161.191406 139.332031 162.058594 138.230469 162.246094 136.925781 C 162.625 134.3125 160.253906 132.230469 158.515625 130.238281 C 153.796875 124.824219 152.699219 116.957031 148.304688 111.347656 C 142.632812 113.246094 136.988281 115.921875 131.472656 119.542969 C 113.605469 130.621094 104.011719 146.671875 110.300781 164.496094 C 112.792969 165.882812 115.410156 167.085938 117.75 168.5625 C 123.054688 171.902344 126.691406 180.242188 133.199219 181.191406 C 133.582031 179.621094 132.496094 178.089844 132.320312 176.484375 C 131.988281 173.34375 135.328125 170.867188 138.480469 170.671875 C 141.632812 170.484375 144.640625 171.816406 147.683594 172.664062 C 155.660156 174.894531 164.539062 173.722656 171.660156 169.496094 C 175.339844 167.308594 178.777344 163.941406 179.1875 159.679688 C 171.304688 162.496094 162.328125 162.214844 154.625 158.882812 Z M 237.171875 174.808594 C 237.265625 173.410156 237.351562 172.003906 237.445312 170.605469 C 237.75 165.851562 238.0625 161.054688 237.316406 156.351562 C 236.503906 151.222656 234.476562 146.375 232.460938 141.59375 C 230.695312 137.382812 227.738281 132.417969 223.195312 132.839844 C 219.898438 133.144531 217.664062 136.246094 214.78125 137.867188 C 207.714844 141.832031 197.417969 136.636719 191.375 142.019531 C 187.855469 145.15625 186.882812 151.308594 185.890625 155.707031 C 184.726562 160.882812 187.789062 162.128906 190.789062 166.882812 C 193.203125 170.707031 197.355469 173.386719 201.832031 174.011719 C 204.222656 174.34375 206.652344 174.121094 209.0625 174.214844 C 216.417969 174.503906 223.519531 178.011719 228.433594 183.46875 C 231.984375 180.765625 234.875 177.851562 237.171875 174.808594 Z M 237.171875 174.808594 " fill-opacity="1" fill-rule="nonzero"/><path fill="#ff6e40" d="M 41.730469 201.917969 C 42.769531 203.046875 42.863281 216.617188 41.636719 218.414062 C 40.414062 220.207031 32.679688 216.863281 29.855469 211.25 C 27.03125 205.632812 21.839844 190.605469 27.5 181.554688 C 31.363281 176.273438 39.660156 183.25 39.660156 186.453125 C 39.660156 189.65625 36.363281 186.171875 34.28125 184.945312 C 32.210938 183.722656 26.644531 183.628906 28.625 198.328125 C 29.882812 207.699219 35.703125 212.921875 38.8125 214.148438 C 39.339844 213.664062 38.617188 204.835938 38.332031 203.980469 C 38.050781 203.132812 34.472656 202.378906 34.28125 200.214844 C 34.09375 198.046875 40.695312 200.777344 41.730469 201.917969 Z M 57.230469 227.226562 C 56 226.445312 50.417969 222.757812 50.417969 222.757812 C 50.417969 222.757812 49.855469 217.148438 49.3125 211.039062 C 50.957031 211.921875 53.804688 213.34375 55.109375 213.261719 C 57.007812 213.15625 56.78125 211.335938 55.109375 210.34375 C 53.847656 209.597656 50.484375 207.394531 48.90625 206.359375 C 48.46875 201.0625 48.171875 196.367188 48.40625 195.722656 C 48.964844 194.15625 54.660156 198.625 56.113281 198.511719 C 57.5625 198.402344 57.679688 195.828125 54.324219 193.597656 C 50.96875 191.367188 47.171875 189.019531 45.722656 189.578125 C 44.273438 190.132812 46.28125 222.53125 48.40625 225.210938 C 49.3125 226.355469 55.664062 230.574219 57.789062 231.132812 C 59.910156 231.691406 58.460938 228.007812 57.230469 227.226562 Z M 79.164062 224.386719 C 81.511719 242.144531 72.1875 243.246094 67.882812 236.898438 C 57.265625 221.261719 61.289062 202.714844 65.984375 202.421875 C 70.679688 202.140625 76.824219 206.625 79.164062 224.386719 Z M 70.003906 206.546875 C 66.316406 204.613281 62.519531 210.421875 64.644531 220.8125 C 66.765625 231.203125 68.257812 233.683594 70.382812 235.199219 C 72.6875 236.84375 76.375 237.683594 76.707031 228.964844 C 77.042969 220.257812 73.695312 208.480469 70.003906 206.546875 Z M 90.257812 231.015625 C 88.027344 230.90625 88.136719 233.03125 89.589844 233.726562 C 91.039062 234.421875 92.722656 235.710938 93.835938 236.601562 C 94.953125 237.496094 94.503906 247.21875 93.835938 247.328125 C 89.257812 246.210938 81.882812 235.039062 82.890625 223.980469 C 83.894531 212.921875 91.738281 219.589844 93.054688 220.515625 C 94.699219 221.675781 95.734375 220.515625 94.730469 218.683594 C 93.722656 216.851562 91.003906 213.054688 87.097656 213.074219 C 78.164062 213.410156 78.847656 225.183594 82.105469 237.898438 C 85.367188 250.617188 95.285156 253.132812 96.742188 251.457031 C 98.191406 249.785156 97.078125 236.710938 96.078125 235.148438 C 95.0625 233.589844 92.488281 231.132812 90.257812 231.015625 Z M 113.929688 262.535156 C 114.722656 265.40625 112.640625 264.710938 111.460938 263.429688 C 110.589844 262.484375 106.316406 251.914062 104.097656 246.339844 C 104.503906 252.441406 104.773438 257.882812 104.4375 258.675781 C 103.648438 260.550781 102.5625 258.972656 101.96875 257.683594 C 101.375 256.390625 98.78125 224.039062 100.285156 222.757812 C 100.980469 222.160156 105.046875 223.582031 108.003906 226.402344 C 110.960938 229.21875 113.4375 233.046875 112.554688 239.675781 C 111.714844 246.007812 108.097656 245.835938 108.097656 245.835938 C 108.097656 245.835938 113.140625 259.667969 113.929688 262.535156 Z M 109.578125 234.039062 C 108.488281 230.175781 103.046875 226.617188 102.84375 227.804688 C 102.757812 228.34375 103.222656 234.234375 103.699219 240.742188 C 109.976562 244.5 110.625 237.769531 109.578125 234.039062 Z M 125.046875 236.039062 C 129.132812 254.726562 134.15625 276.519531 132.210938 275.832031 C 130.988281 275.144531 129.074219 267.40625 127.378906 259.320312 L 121.792969 256.253906 C 121.089844 261.628906 120.378906 266.5 120.019531 267.355469 C 119.148438 269.414062 118.257812 267.472656 117.910156 266.210938 C 117.570312 264.949219 121.816406 236.203125 122.140625 234.804688 C 122.726562 232.285156 124.199219 233.710938 125.046875 236.039062 Z M 126.648438 255.785156 C 125.015625 247.683594 123.742188 240.210938 123.742188 240.210938 C 123.742188 240.210938 122.988281 246.839844 122.132812 253.558594 C 123.351562 254.183594 125.359375 255.160156 126.648438 255.785156 Z M 150.234375 265.71875 C 148.632812 273.398438 142.914062 271.660156 140.539062 270.558594 C 140.785156 276.78125 140.9375 282.390625 140.742188 283.117188 C 140.285156 284.832031 139.363281 284.714844 138.792969 283.117188 C 138.21875 281.515625 135.472656 248.320312 137.074219 247.304688 C 139.597656 245.777344 152.734375 253.695312 150.234375 265.71875 Z M 139.707031 252.441406 C 139.707031 252.441406 140.054688 259.238281 140.363281 266.441406 C 141.835938 267.296875 144.804688 268.3125 146.574219 264.117188 C 149.667969 256.789062 139.707031 252.441406 139.707031 252.441406 Z M 165.625 262.601562 C 165.109375 263.261719 165.167969 270.175781 165.464844 277.746094 L 158.183594 273.71875 C 157.746094 265.160156 157.160156 256.5 156.8125 255.507812 C 156.125 253.558594 154.742188 252.53125 154.050781 255.625 C 153.894531 256.339844 155.4375 289.160156 156.242188 291.214844 C 157.046875 293.273438 158.191406 293.621094 158.644531 291.214844 C 158.835938 290.214844 158.667969 284.210938 158.363281 277.398438 C 160.140625 278.542969 163.863281 280.992188 165.652344 281.992188 C 166.042969 290.011719 166.625 297.613281 167 298.316406 C 167.804688 299.804688 169.175781 300.839844 169.632812 299.007812 C 170.085938 297.171875 168.007812 264.898438 168.03125 263.753906 C 168.042969 262.601562 166.421875 261.574219 165.625 262.601562 Z M 185.269531 274.59375 C 183.566406 277.585938 180.933594 286.367188 180.933594 286.367188 C 180.933594 286.367188 175.644531 269.753906 174.847656 268.609375 C 174.042969 267.464844 173.5 266.59375 172.015625 268.21875 C 171.269531 269.035156 178.820312 290.324219 178.820312 290.324219 C 178.820312 290.324219 179.277344 305.550781 179.964844 306.917969 C 180.652344 308.296875 182.136719 309.207031 182.59375 307.605469 C 183.050781 306.003906 182.59375 292.160156 182.59375 292.160156 C 182.59375 292.160156 187.875 277.304688 188.261719 276.21875 C 188.976562 274.160156 186.433594 272.542969 185.269531 274.59375 Z M 314.601562 264.167969 C 314.601562 266.679688 364.070312 235.5 372.933594 229.902344 C 373 228.648438 373.050781 227.371094 373.085938 226.074219 C 367.019531 229.742188 314.601562 261.558594 314.601562 264.167969 Z M 351.917969 225.609375 C 353.957031 220.464844 294.292969 255.441406 287.308594 258.863281 C 280.320312 262.277344 273.019531 266.160156 273.472656 267.144531 C 273.902344 269.042969 351.230469 227.34375 351.917969 225.609375 Z M 206.753906 276.820312 L 206.304688 280.449219 C 206.304688 280.449219 270.921875 250.1875 268.597656 248 C 266.265625 245.8125 206.753906 276.820312 206.753906 276.820312 Z M 206.753906 276.820312 " fill-opacity="1" fill-rule="nonzero"/></svg>