<svg xmlns="http://www.w3.org/2000/svg" xmlns:xlink="http://www.w3.org/1999/xlink" width="500" zoomAndPan="magnify" viewBox="0 0 375 374.999991" height="500" preserveAspectRatio="xMidYMid meet" version="1.0"><defs><clipPath id="e7275b2f46"><path d="M 169 67.125 L 180 67.125 L 180 73 L 169 73 Z M 169 67.125 " clip-rule="nonzero"/></clipPath></defs><path fill="#ffffff" d="M 13.867188 171.773438 L 36.425781 152.441406 L 36.425781 305.316406 C 36.425781 306.890625 36.503906 308.457031 36.660156 310.023438 C 36.816406 311.585938 37.046875 313.136719 37.355469 314.679688 C 37.664062 316.222656 38.046875 317.742188 38.503906 319.246094 C 38.960938 320.753906 39.492188 322.230469 40.09375 323.683594 C 40.695312 325.132812 41.367188 326.550781 42.109375 327.9375 C 42.851562 329.324219 43.660156 330.671875 44.53125 331.976562 C 45.40625 333.285156 46.34375 334.546875 47.339844 335.761719 C 48.335938 336.976562 49.390625 338.136719 50.503906 339.25 C 51.613281 340.363281 52.777344 341.417969 53.992188 342.414062 C 55.207031 343.410156 56.46875 344.347656 57.773438 345.21875 C 59.082031 346.09375 60.429688 346.902344 61.8125 347.644531 C 63.199219 348.382812 64.621094 349.054688 66.070312 349.660156 C 67.523438 350.261719 69 350.792969 70.503906 351.25 C 72.007812 351.707031 73.53125 352.089844 75.074219 352.398438 C 76.613281 352.703125 78.167969 352.9375 79.730469 353.09375 C 81.296875 353.25 82.863281 353.328125 84.4375 353.328125 L 289.285156 353.328125 C 290.855469 353.328125 292.425781 353.25 293.988281 353.09375 C 295.550781 352.9375 297.105469 352.703125 298.648438 352.398438 C 300.1875 352.089844 301.710938 351.707031 303.214844 351.25 C 304.71875 350.792969 306.195312 350.261719 307.648438 349.660156 C 309.101562 349.054688 310.519531 348.382812 311.90625 347.644531 C 313.292969 346.902344 314.636719 346.09375 315.945312 345.21875 C 317.25 344.347656 318.511719 343.410156 319.726562 342.414062 C 320.941406 341.417969 322.105469 340.363281 323.214844 339.25 C 324.328125 338.136719 325.382812 336.976562 326.378906 335.761719 C 327.378906 334.546875 328.3125 333.285156 329.1875 331.976562 C 330.058594 330.671875 330.867188 329.324219 331.609375 327.9375 C 332.351562 326.550781 333.023438 325.132812 333.625 323.683594 C 334.226562 322.230469 334.757812 320.753906 335.214844 319.25 C 335.671875 317.746094 336.054688 316.222656 336.363281 314.679688 C 336.671875 313.136719 336.902344 311.585938 337.058594 310.023438 C 337.214844 308.457031 337.292969 306.890625 337.296875 305.316406 L 337.296875 152.441406 L 359.851562 171.773438 C 360.328125 172.183594 360.84375 172.542969 361.390625 172.851562 C 361.941406 173.160156 362.515625 173.414062 363.117188 173.609375 C 363.714844 173.804688 364.328125 173.941406 364.953125 174.019531 C 365.578125 174.09375 366.207031 174.105469 366.835938 174.058594 C 367.464844 174.011719 368.082031 173.902344 368.6875 173.730469 C 369.296875 173.5625 369.882812 173.335938 370.445312 173.050781 C 371.007812 172.765625 371.535156 172.425781 372.03125 172.039062 C 372.527344 171.648438 372.980469 171.214844 373.390625 170.734375 C 373.800781 170.257812 374.160156 169.742188 374.46875 169.195312 C 374.78125 168.644531 375.03125 168.070312 375.230469 167.46875 C 375.425781 166.871094 375.558594 166.257812 375.636719 165.632812 C 375.710938 165.007812 375.726562 164.378906 375.675781 163.75 C 375.628906 163.121094 375.519531 162.503906 375.351562 161.898438 C 375.179688 161.289062 374.953125 160.703125 374.667969 160.144531 C 374.382812 159.582031 374.046875 159.050781 373.65625 158.554688 C 373.265625 158.058594 372.832031 157.605469 372.355469 157.195312 L 193.113281 3.558594 C 192.679688 3.1875 192.21875 2.859375 191.730469 2.570312 C 191.238281 2.28125 190.726562 2.039062 190.191406 1.84375 C 189.660156 1.644531 189.113281 1.496094 188.554688 1.394531 C 187.992188 1.296875 187.429688 1.246094 186.859375 1.246094 C 186.292969 1.246094 185.726562 1.296875 185.167969 1.394531 C 184.605469 1.496094 184.058594 1.644531 183.527344 1.84375 C 182.992188 2.039062 182.480469 2.28125 181.992188 2.570312 C 181.5 2.859375 181.039062 3.1875 180.609375 3.558594 L 1.367188 157.195312 C 0.886719 157.605469 0.453125 158.058594 0.0664062 158.554688 C -0.324219 159.050781 -0.660156 159.582031 -0.945312 160.144531 C -1.230469 160.703125 -1.457031 161.289062 -1.625 161.898438 C -1.796875 162.503906 -1.90625 163.121094 -1.953125 163.75 C -2 164.378906 -1.988281 165.003906 -1.910156 165.632812 C -1.835938 166.257812 -1.699219 166.871094 -1.503906 167.46875 C -1.308594 168.066406 -1.054688 168.640625 -0.746094 169.191406 C -0.4375 169.738281 -0.078125 170.253906 0.332031 170.730469 C 0.742188 171.210938 1.195312 171.644531 1.691406 172.035156 C 2.1875 172.421875 2.71875 172.761719 3.277344 173.042969 C 3.839844 173.328125 4.425781 173.558594 5.03125 173.726562 C 5.640625 173.898438 6.257812 174.007812 6.886719 174.054688 C 7.515625 174.101562 8.140625 174.089844 8.765625 174.015625 C 9.394531 173.9375 10.003906 173.804688 10.605469 173.609375 C 11.203125 173.414062 11.777344 173.160156 12.328125 172.851562 C 12.875 172.542969 13.390625 172.183594 13.867188 171.773438 Z M 186.859375 23.496094 L 318.089844 135.980469 L 318.089844 305.316406 C 318.089844 306.261719 318.042969 307.203125 317.949219 308.140625 C 317.855469 309.078125 317.714844 310.011719 317.53125 310.933594 C 317.347656 311.859375 317.117188 312.773438 316.84375 313.675781 C 316.566406 314.578125 316.25 315.464844 315.886719 316.335938 C 315.527344 317.207031 315.125 318.058594 314.679688 318.890625 C 314.234375 319.722656 313.75 320.527344 313.226562 321.3125 C 312.699219 322.097656 312.140625 322.855469 311.539062 323.582031 C 310.941406 324.3125 310.308594 325.007812 309.644531 325.675781 C 308.976562 326.34375 308.277344 326.976562 307.550781 327.574219 C 306.820312 328.171875 306.0625 328.734375 305.28125 329.257812 C 304.496094 329.78125 303.6875 330.265625 302.855469 330.710938 C 302.023438 331.15625 301.171875 331.558594 300.300781 331.921875 C 299.429688 332.285156 298.542969 332.601562 297.640625 332.875 C 296.738281 333.148438 295.828125 333.378906 294.902344 333.566406 C 293.976562 333.75 293.042969 333.890625 292.105469 333.980469 C 291.167969 334.074219 290.226562 334.121094 289.285156 334.125 L 84.4375 334.125 C 83.492188 334.121094 82.550781 334.074219 81.613281 333.980469 C 80.675781 333.890625 79.742188 333.75 78.816406 333.566406 C 77.894531 333.378906 76.980469 333.148438 76.078125 332.875 C 75.175781 332.601562 74.289062 332.285156 73.417969 331.921875 C 72.546875 331.558594 71.695312 331.15625 70.863281 330.710938 C 70.03125 330.265625 69.222656 329.78125 68.441406 329.257812 C 67.65625 328.734375 66.898438 328.171875 66.171875 327.574219 C 65.441406 326.976562 64.742188 326.34375 64.078125 325.675781 C 63.410156 325.007812 62.777344 324.3125 62.179688 323.582031 C 61.582031 322.855469 61.019531 322.097656 60.496094 321.3125 C 59.96875 320.527344 59.484375 319.722656 59.039062 318.890625 C 58.597656 318.058594 58.191406 317.207031 57.832031 316.335938 C 57.46875 315.464844 57.152344 314.578125 56.878906 313.675781 C 56.601562 312.773438 56.375 311.859375 56.1875 310.933594 C 56.003906 310.011719 55.863281 309.078125 55.769531 308.140625 C 55.675781 307.203125 55.628906 306.261719 55.628906 305.316406 L 55.628906 135.980469 Z M 186.859375 23.496094 " fill-opacity="1" fill-rule="nonzero"/><path fill="#ff6e40" d="M 291.507812 211.609375 C 283.800781 205.28125 274.765625 200.332031 266.191406 195.328125 C 261.75 192.777344 257.261719 190.226562 252.71875 187.828125 C 258.078125 181.550781 263.027344 175.015625 267.621094 168.074219 C 277.828125 152.5625 289.566406 130.714844 275.992188 113.515625 C 269.714844 105.503906 259.863281 103.71875 250.472656 106.78125 C 240.367188 110.097656 230.824219 116.070312 221.636719 121.273438 C 217.042969 123.878906 212.5 126.632812 207.957031 129.441406 C 207.957031 129.441406 207.957031 129.441406 207.90625 129.390625 C 204.742188 120.714844 201.015625 112.191406 196.628906 103.871094 C 188.15625 88.050781 175.292969 68.960938 154.625 71.820312 C 141.457031 73.65625 136.863281 83.761719 135.230469 95.144531 C 133.648438 94.9375 132.015625 94.992188 130.484375 95.398438 C 125.378906 96.726562 123.03125 101.574219 122.46875 106.523438 C 121.960938 111.324219 125.480469 115.203125 129.410156 117.394531 C 130.941406 118.261719 132.625 118.976562 134.363281 119.488281 C 134.363281 127.707031 134.566406 135.972656 135.027344 144.242188 C 128.902344 142.914062 122.828125 141.792969 116.703125 140.71875 C 106.292969 138.933594 95.011719 136.433594 84.34375 137.199219 C 75.261719 137.863281 65.664062 141.742188 61.074219 150.160156 C 56.121094 159.296875 59.386719 169.554688 65.105469 177.46875 C 75.925781 192.371094 92.96875 203.292969 108.539062 212.683594 C 105.882812 215.644531 103.28125 218.652344 100.78125 221.664062 C 99.554688 223.09375 98.328125 224.574219 97.105469 226.054688 C 96.746094 225.851562 96.441406 225.695312 96.085938 225.542969 C 92.101562 223.859375 87.253906 223.453125 83.273438 225.289062 C 78.679688 227.332031 76.078125 233.148438 77.914062 237.894531 C 78.933594 240.5 80.824219 242.792969 82.867188 244.835938 C 82.355469 245.652344 81.84375 246.46875 81.386719 247.285156 C 76.585938 255.859375 74.496094 266.882812 79.753906 275.816406 C 84.5 283.777344 93.632812 286.636719 102.464844 286.328125 C 111.445312 286.023438 120.277344 283.265625 128.59375 280 C 137.984375 276.328125 147.171875 271.988281 156.054688 267.242188 C 156.871094 266.78125 157.6875 266.375 158.503906 265.914062 C 160.59375 271.988281 162.839844 278.011719 165.1875 283.929688 C 169.167969 293.984375 172.84375 305.164062 180.144531 313.328125 C 186.214844 320.117188 196.015625 324.503906 205.101562 321.699219 C 213.113281 319.25 218.265625 312.207031 221.433594 304.804688 C 227.8125 290.054688 229.085938 272.652344 229.445312 256.421875 C 235.976562 257.441406 242.5625 258.207031 249.195312 258.515625 C 250.625 263.109375 254.25 267.039062 258.792969 268.722656 C 265.273438 271.121094 273.285156 267.855469 275.890625 261.320312 C 275.941406 261.320312 275.941406 261.320312 275.941406 261.269531 C 277.0625 259.738281 277.675781 258.054688 277.777344 256.320312 C 289.160156 253.308594 299.007812 246.828125 301.355469 233.914062 C 302.835938 224.878906 298.292969 217.121094 291.507812 211.609375 Z M 163.351562 253.410156 C 161.515625 247.746094 159.777344 242.027344 158.144531 236.3125 C 165.546875 239.070312 172.996094 241.671875 180.449219 244.070312 C 174.734375 247.132812 169.015625 250.296875 163.351562 253.410156 Z M 142.9375 154.804688 C 149.980469 156.441406 157.023438 158.277344 163.964844 160.214844 C 157.636719 165.21875 151.410156 170.421875 145.335938 175.78125 C 144.3125 168.789062 143.546875 161.796875 142.9375 154.804688 Z M 213.113281 163.535156 C 213.675781 165.523438 214.183594 167.515625 214.644531 169.554688 C 203.519531 164.808594 192.238281 160.574219 180.804688 156.746094 C 188.769531 150.671875 196.933594 144.90625 205.355469 139.496094 C 208.367188 147.40625 210.917969 155.46875 213.113281 163.535156 Z M 216.839844 178.640625 C 218.675781 186.703125 220.308594 194.769531 221.890625 202.882812 C 221.941406 206.148438 221.890625 209.417969 221.789062 212.734375 C 221.789062 212.734375 221.789062 212.734375 221.789062 212.785156 C 213.214844 221 204.230469 228.757812 195.148438 236.464844 C 192.1875 238.097656 189.175781 239.628906 186.164062 241.160156 C 176.265625 238.304688 166.464844 234.984375 156.765625 231.566406 C 152.632812 216.410156 149.316406 201.097656 146.765625 185.632812 C 155.234375 177.722656 163.964844 170.167969 172.996094 162.972656 C 187.898438 167.363281 202.546875 172.566406 216.839844 178.640625 Z M 146.917969 226.566406 C 138.496094 221.460938 130.277344 215.847656 121.808594 210.84375 C 121.753906 210.792969 121.703125 210.792969 121.652344 210.742188 C 127.625 204.3125 133.75 198.035156 140.027344 191.960938 C 141.863281 203.648438 144.160156 215.183594 146.917969 226.566406 Z M 221.636719 219.164062 C 221.378906 225.695312 221.125 232.179688 221.125 238.660156 C 221.125 242.082031 221.125 245.5 221.023438 248.917969 C 211.582031 247.4375 202.242188 245.398438 193.105469 243 C 202.855469 235.34375 212.398438 227.484375 221.636719 219.164062 Z M 221.839844 180.785156 C 228.882812 183.847656 235.773438 187.113281 242.613281 190.632812 C 237.558594 196.65625 232.25 202.425781 226.6875 207.988281 C 225.257812 198.851562 223.675781 189.765625 221.839844 180.785156 Z M 234.089844 122.398438 C 242.101562 118.007812 252.871094 110.453125 262.464844 112.496094 C 270.835938 114.332031 275.125 123.722656 275.175781 131.585938 C 275.226562 141.585938 270.070312 150.824219 265.121094 159.144531 C 259.8125 168.074219 253.789062 176.703125 247.257812 184.917969 C 238.273438 180.222656 229.136719 175.832031 219.902344 171.800781 C 219.390625 169.503906 218.828125 167.15625 218.265625 164.859375 C 215.972656 155.214844 213.367188 145.671875 210.253906 136.382812 C 218.0625 131.429688 225.972656 126.835938 234.089844 122.398438 Z M 141.761719 137.8125 C 141.507812 131.839844 141.40625 125.917969 141.355469 120 C 142.578125 119.640625 143.753906 119.082031 144.824219 118.210938 C 148.90625 116.425781 152.582031 112.546875 151.304688 107.75 C 150.746094 105.65625 149.519531 103.769531 148.089844 102.1875 C 147.375 101.421875 146.609375 100.707031 145.792969 100.09375 C 145.539062 99.890625 145.234375 99.6875 144.925781 99.429688 L 144.722656 99.226562 C 144.621094 99.125 144.46875 99.023438 144.367188 98.972656 C 143.90625 98.613281 143.445312 98.308594 142.9375 98 C 142.578125 97.746094 142.222656 97.542969 141.8125 97.339844 C 142.222656 91.671875 143.496094 86.007812 147.582031 82.28125 C 153.808594 76.617188 163.8125 77.996094 170.445312 82.078125 C 175.089844 84.886719 178.816406 88.867188 181.929688 93.253906 C 181.980469 93.304688 181.980469 93.355469 182.03125 93.355469 C 178.664062 91.46875 175.140625 89.734375 171.566406 88.253906 C 170.699219 87.894531 170.089844 89.375 170.957031 89.734375 C 175.191406 91.621094 179.324219 93.867188 183.203125 96.417969 C 183.867188 96.828125 184.480469 97.339844 185.144531 97.796875 C 186.164062 99.378906 187.132812 101.011719 188.054688 102.644531 C 191.472656 108.464844 194.636719 114.4375 197.496094 120.609375 C 197.496094 120.609375 197.496094 120.664062 197.546875 120.664062 C 196.78125 120.101562 196.066406 119.539062 195.300781 118.976562 C 189.277344 114.742188 182.898438 111.269531 176.007812 108.71875 C 175.652344 108.566406 175.394531 109.179688 175.753906 109.382812 C 181.980469 112.648438 188.105469 116.324219 193.820312 120.507812 C 195.863281 121.988281 197.800781 123.570312 199.691406 125.203125 C 200.8125 127.65625 201.832031 130.15625 202.855469 132.65625 C 192.390625 139.289062 182.132812 146.4375 172.230469 153.9375 C 164.320312 151.488281 156.308594 149.292969 148.296875 147.304688 C 146.355469 146.792969 144.367188 146.335938 142.425781 145.875 C 142.070312 143.167969 141.914062 140.464844 141.761719 137.8125 Z M 106.292969 201.351562 C 106.242188 201.351562 106.242188 201.300781 106.1875 201.300781 C 105.882812 200.945312 105.527344 200.636719 105.21875 200.28125 C 104.097656 199.054688 102.972656 197.832031 101.953125 196.554688 C 99.757812 193.851562 97.71875 191.042969 95.828125 188.082031 C 92.257812 182.417969 89.296875 176.34375 86.335938 170.371094 C 86.234375 170.167969 85.980469 170.320312 86.03125 170.527344 C 87.253906 177.414062 90.011719 183.746094 93.683594 189.714844 C 94.910156 191.707031 96.238281 193.59375 97.5625 195.484375 C 92.714844 192.113281 88.019531 188.492188 83.578125 184.664062 C 82.457031 183.695312 81.386719 182.722656 80.261719 181.703125 C 79.34375 179.304688 78.527344 176.90625 77.761719 174.457031 C 76.179688 169.351562 75.109375 163.992188 74.136719 158.734375 C 74.035156 158.175781 73.167969 158.328125 73.167969 158.890625 C 72.914062 164.453125 73.679688 169.8125 75.003906 175.222656 C 75.160156 175.832031 75.363281 176.394531 75.515625 176.957031 C 72.8125 173.945312 70.464844 170.730469 68.777344 167.105469 C 64.796875 158.328125 68.882812 150.214844 77.8125 147.101562 C 87.152344 143.882812 98.277344 146.539062 107.773438 147.96875 C 117.113281 149.394531 126.398438 151.132812 135.585938 153.171875 C 136.300781 162.769531 137.269531 172.414062 138.597656 181.957031 C 132.933594 187.113281 127.472656 192.421875 122.164062 197.882812 C 119.460938 200.636719 116.804688 203.445312 114.253906 206.304688 C 111.546875 204.667969 108.894531 203.035156 106.292969 201.351562 Z M 117.417969 274.746094 C 110.730469 276.835938 103.179688 278.675781 96.1875 277.296875 C 86.691406 275.40625 83.425781 266.324219 85.980469 257.648438 C 86.796875 254.992188 87.917969 252.441406 89.347656 249.992188 C 91.132812 250.859375 93.074219 251.421875 95.164062 251.316406 C 102.921875 250.960938 105.320312 242.335938 103.945312 235.855469 C 103.945312 235.75 103.945312 235.648438 103.894531 235.597656 C 103.6875 234.425781 103.382812 233.300781 102.921875 232.230469 C 107.160156 227.023438 111.445312 222.023438 115.886719 217.019531 C 119.203125 218.960938 122.519531 220.746094 125.941406 222.429688 C 125.941406 222.839844 126.144531 223.246094 126.605469 223.453125 C 133.800781 226.617188 141.097656 229.628906 148.449219 232.535156 C 150.082031 239.019531 151.917969 245.5 153.859375 251.878906 C 154.417969 253.820312 155.03125 255.707031 155.695312 257.59375 C 143.445312 264.332031 130.738281 270.660156 117.417969 274.746094 Z M 192.238281 312.050781 C 183.359375 307.355469 179.632812 296.792969 176.007812 288.066406 C 172.386719 279.285156 169.066406 270.40625 166.003906 261.472656 C 169.015625 259.738281 171.976562 257.902344 174.9375 255.960938 C 175.292969 256.167969 175.753906 256.21875 176.109375 255.910156 C 180.246094 252.847656 184.429688 249.734375 188.511719 246.621094 C 188.71875 246.671875 188.871094 246.726562 189.074219 246.828125 C 199.585938 249.992188 210.203125 252.796875 220.921875 254.890625 C 220.871094 256.984375 220.820312 259.074219 220.667969 261.167969 C 220.667969 261.167969 220.667969 261.21875 220.667969 261.21875 C 219.542969 263.875 218.214844 266.527344 216.683594 268.976562 C 215.867188 270.304688 214.949219 271.527344 213.980469 272.753906 C 213.980469 272.703125 213.929688 272.652344 213.878906 272.652344 C 213.726562 272.652344 213.726562 272.855469 213.828125 272.90625 C 211.171875 276.222656 208.164062 279.234375 205.40625 282.449219 C 205.253906 282.605469 205.40625 282.960938 205.660156 282.859375 C 211.328125 280.5625 215.613281 275.714844 219.03125 270.8125 C 219.441406 270.203125 219.796875 269.589844 220.15625 268.976562 C 220.15625 268.976562 220.15625 269.027344 220.15625 269.027344 C 220.207031 269.078125 220.15625 269.078125 220.15625 269.078125 C 219.746094 274.183594 219.085938 279.285156 218.164062 284.339844 C 216.941406 286.941406 215.460938 289.492188 213.777344 291.789062 C 210.253906 296.640625 205.609375 300.621094 201.066406 304.5 C 200.863281 304.652344 201.066406 305.007812 201.324219 304.90625 C 207.34375 302.96875 212.144531 298.78125 216.074219 293.882812 C 212.652344 305.621094 205.609375 319.148438 192.238281 312.050781 Z M 287.679688 243.867188 C 284.308594 246.929688 280.226562 248.816406 275.835938 249.992188 C 275.277344 249.125 274.511719 248.308594 273.695312 247.59375 C 269.917969 244.375 264.710938 242.488281 259.710938 242.847656 C 257.3125 243.050781 254.914062 243.613281 252.871094 244.9375 C 250.421875 246.570312 248.992188 248.917969 248.53125 251.726562 C 242.152344 251.472656 235.773438 250.960938 229.445312 250.195312 L 229.445312 249.992188 C 229.496094 243.203125 229.394531 236.464844 228.984375 229.679688 C 229.34375 229.421875 229.597656 229.117188 229.546875 228.605469 C 228.933594 223.65625 228.269531 218.652344 227.554688 213.703125 C 234.445312 207.324219 241.03125 200.789062 247.308594 193.902344 C 247.714844 194.257812 248.175781 194.617188 248.582031 194.972656 C 250.929688 197.167969 253.125 199.566406 255.21875 202.015625 C 259.402344 206.8125 262.976562 212.273438 266.140625 217.835938 C 266.445312 218.347656 267.316406 217.992188 267.109375 217.429688 C 266.039062 214.316406 264.8125 211.253906 263.128906 208.394531 C 261.445312 205.488281 259.503906 202.730469 257.464844 200.128906 C 256.648438 199.054688 255.730469 198.035156 254.808594 197.015625 C 254.808594 197.015625 254.863281 197.015625 254.863281 197.015625 C 259.609375 199.566406 264.203125 202.269531 268.792969 205.027344 C 270.9375 207.324219 272.980469 209.773438 274.96875 212.273438 C 279.105469 217.53125 282.777344 223.246094 286.046875 229.066406 C 286.300781 229.472656 287.015625 229.21875 286.8125 228.757812 C 284.308594 222.378906 281.09375 216.5625 277.0625 211.050781 C 276.550781 210.335938 275.992188 209.722656 275.480469 209.007812 C 275.480469 209.007812 275.53125 209.058594 275.53125 209.058594 C 281.296875 212.425781 287.320312 216.152344 291.351562 221.257812 C 297.171875 228.65625 294.160156 237.945312 287.679688 243.867188 Z M 287.679688 243.867188 " fill-opacity="1" fill-rule="nonzero"/><path fill="#ff6e40" d="M 186.574219 214.828125 C 187.953125 215.132812 189.378906 215.234375 190.757812 215.03125 C 192.390625 214.773438 194.125 213.5 195.148438 212.273438 C 197.394531 209.722656 198.363281 206.660156 198.464844 203.292969 C 198.667969 196.859375 195.503906 190.277344 190.351562 186.449219 C 184.890625 182.417969 176.722656 182.417969 171.3125 186.550781 C 166.160156 190.53125 163.863281 197.421875 165.339844 203.699219 C 167.382812 212.582031 178 219.265625 186.574219 214.828125 Z M 173.609375 191.808594 C 174.476562 190.941406 174.988281 190.632812 176.265625 189.921875 C 176.621094 189.714844 176.824219 189.664062 177.539062 189.460938 C 177.847656 189.359375 178.152344 189.308594 178.507812 189.207031 C 178.664062 189.15625 178.765625 189.15625 178.917969 189.101562 C 179.019531 189.101562 179.070312 189.050781 179.121094 189.050781 C 179.121094 189.050781 179.171875 189.050781 179.171875 189.050781 C 180.550781 188.898438 181.980469 188.949219 183.152344 189.207031 C 183.714844 189.308594 184.277344 189.511719 184.839844 189.664062 C 185.246094 189.816406 184.785156 189.613281 185.296875 189.867188 C 185.605469 190.023438 185.910156 190.175781 186.214844 190.378906 C 187.339844 191.042969 187.644531 191.296875 188.664062 192.320312 C 188.871094 192.523438 189.074219 192.777344 189.277344 193.035156 C 189.636719 193.441406 189.328125 193.085938 189.585938 193.390625 C 189.941406 193.902344 190.300781 194.410156 190.554688 194.972656 C 190.707031 195.226562 190.859375 195.535156 190.960938 195.839844 C 191.21875 196.402344 191.011719 195.839844 191.167969 196.25 C 191.371094 196.808594 191.574219 197.421875 191.777344 198.035156 C 191.933594 198.648438 192.085938 199.261719 192.1875 199.871094 C 192.1875 199.972656 192.1875 199.972656 192.238281 200.027344 C 192.238281 200.078125 192.238281 200.078125 192.238281 200.128906 C 192.289062 200.484375 192.289062 200.84375 192.339844 201.199219 C 192.390625 201.914062 192.339844 202.578125 192.289062 203.292969 C 192.289062 203.445312 192.238281 203.546875 192.238281 203.699219 C 192.238281 203.699219 192.238281 203.75 192.238281 203.75 C 192.1875 204.058594 192.136719 204.3125 192.035156 204.617188 C 191.933594 204.925781 191.882812 205.28125 191.777344 205.589844 C 191.726562 205.691406 191.625 206.046875 191.523438 206.253906 C 191.421875 206.457031 191.21875 206.914062 191.269531 206.914062 C 191.269531 206.964844 191.21875 207.121094 191.167969 207.222656 C 191.117188 207.375 190.910156 207.78125 190.859375 207.886719 C 190.554688 208.445312 190.195312 208.957031 189.839844 209.46875 C 189.789062 209.570312 189.480469 209.976562 189.480469 210.027344 C 189.277344 210.285156 189.074219 210.488281 188.871094 210.691406 C 187.953125 211.765625 187.339844 212.886719 186.316406 213.855469 C 182.4375 213.804688 178.507812 211.816406 175.5 209.519531 C 174.527344 208.804688 173.203125 207.527344 172.691406 206.8125 C 172.332031 206.304688 171.976562 205.792969 171.671875 205.28125 C 171.515625 204.976562 171.363281 204.722656 171.210938 204.414062 C 171.210938 204.414062 171.160156 204.3125 171.109375 204.210938 C 171.058594 204.109375 170.957031 203.75 170.957031 203.75 C 169.527344 199.515625 170.496094 194.871094 173.609375 191.808594 Z M 173.609375 191.808594 " fill-opacity="1" fill-rule="nonzero"/><path fill="#ff6e40" d="M 282.320312 156.492188 C 281.195312 158.378906 279.921875 160.214844 278.542969 161.902344 C 277.265625 163.484375 275.734375 164.910156 274.5625 166.597656 C 273.59375 168.023438 275.480469 169.8125 276.910156 168.945312 C 280.480469 166.699219 283.289062 162.257812 285.332031 158.632812 C 287.578125 154.703125 289.261719 150.367188 290.332031 145.976562 C 292.476562 137.148438 292.117188 127.808594 289.160156 119.183594 C 288.597656 117.652344 286.199219 118.261719 286.65625 119.84375 C 289.210938 128.011719 289.363281 136.789062 287.117188 145.058594 C 285.996094 149.089844 284.410156 152.917969 282.320312 156.492188 Z M 282.320312 156.492188 " fill-opacity="1" fill-rule="nonzero"/><path fill="#ff6e40" d="M 271.804688 172.667969 C 271.550781 172.769531 271.296875 172.824219 271.039062 172.925781 C 270.53125 173.128906 270.273438 173.484375 269.96875 173.945312 C 269.609375 174.457031 269.253906 174.964844 268.949219 175.476562 C 268.285156 176.546875 267.570312 177.570312 266.804688 178.539062 C 265.988281 179.558594 265.070312 180.425781 264.253906 181.398438 C 263.382812 182.367188 262.464844 183.335938 261.496094 184.203125 C 261.035156 184.613281 261.648438 185.277344 262.160156 185.070312 C 263.382812 184.511719 264.558594 183.847656 265.679688 183.132812 C 266.855469 182.417969 267.875 181.398438 268.84375 180.425781 C 269.867188 179.40625 270.785156 178.335938 271.601562 177.210938 C 272.011719 176.703125 272.316406 176.140625 272.621094 175.578125 C 272.878906 175.171875 273.082031 174.761719 273.03125 174.25 C 273.03125 173.894531 272.878906 173.589844 272.828125 173.230469 C 272.671875 172.824219 272.214844 172.566406 271.804688 172.667969 Z M 271.804688 172.667969 " fill-opacity="1" fill-rule="nonzero"/><path fill="#ff6e40" d="M 186.164062 79.933594 C 187.542969 80.902344 188.820312 81.976562 190.042969 83.097656 C 192.441406 85.292969 194.738281 87.691406 196.679688 90.347656 C 200.558594 95.652344 202.804688 101.777344 205.609375 107.648438 C 205.710938 107.851562 206.019531 107.75 206.019531 107.546875 C 206.375 100.707031 203.109375 94.070312 199.28125 88.558594 C 197.34375 85.703125 195.097656 82.996094 192.492188 80.699219 C 191.269531 79.578125 189.992188 78.554688 188.664062 77.585938 C 187.390625 76.617188 185.65625 75.085938 184.019531 74.832031 C 182.898438 74.675781 181.417969 75.851562 182.335938 77.023438 C 183.308594 78.300781 184.890625 79.015625 186.164062 79.933594 Z M 186.164062 79.933594 " fill-opacity="1" fill-rule="nonzero"/><g clip-path="url(#e7275b2f46)"><path fill="#ff6e40" d="M 169.679688 69.164062 C 170.496094 69.269531 171.261719 69.472656 172.027344 69.726562 C 172.84375 70.03125 173.660156 70.1875 174.476562 70.492188 C 174.835938 70.644531 174.886719 70.644531 175.34375 70.902344 C 175.703125 71.105469 176.109375 71.308594 176.46875 71.511719 C 176.621094 71.617188 176.824219 71.667969 176.976562 71.769531 C 177.082031 71.820312 177.132812 71.871094 177.03125 71.769531 C 177.285156 71.871094 177.539062 72.023438 177.792969 72.125 C 178.304688 72.277344 178.765625 72.125 179.222656 71.972656 C 179.53125 71.871094 179.683594 71.617188 179.734375 71.308594 C 179.785156 70.851562 179.785156 70.339844 179.53125 69.929688 C 179.222656 69.472656 178.613281 68.960938 178.152344 68.707031 C 177.285156 68.246094 176.316406 67.890625 175.34375 67.683594 C 174.476562 67.480469 173.457031 67.226562 172.539062 67.328125 C 171.566406 67.429688 170.648438 67.632812 169.730469 67.941406 C 169.117188 68.09375 168.964844 69.0625 169.679688 69.164062 Z M 169.679688 69.164062 " fill-opacity="1" fill-rule="nonzero"/></g><path fill="#ff6e40" d="M 130.839844 283.113281 C 127.523438 283.726562 124.613281 285.308594 121.449219 286.378906 C 118.132812 287.503906 114.765625 288.269531 111.292969 288.832031 C 107.824219 289.390625 104.351562 289.75 100.832031 290.105469 C 97.460938 290.414062 94.09375 290.617188 90.878906 291.6875 C 90.675781 291.738281 90.675781 292.046875 90.878906 292.097656 C 94.246094 293.015625 97.71875 293.015625 101.1875 292.914062 C 104.863281 292.8125 108.539062 292.554688 112.160156 291.996094 C 115.734375 291.484375 119.253906 290.667969 122.675781 289.546875 C 126.042969 288.421875 129.308594 287.25 131.605469 284.390625 C 132.117188 283.828125 131.65625 282.960938 130.839844 283.113281 Z M 130.839844 283.113281 " fill-opacity="1" fill-rule="nonzero"/><path fill="#ff6e40" d="M 144.46875 277.960938 C 143.394531 278.726562 142.273438 279.441406 141.097656 280 C 140.84375 280.152344 140.539062 280.257812 140.28125 280.410156 C 140.128906 280.460938 139.976562 280.5625 139.824219 280.613281 C 139.824219 280.613281 139.773438 280.613281 139.773438 280.613281 C 139.722656 280.613281 139.515625 280.714844 139.566406 280.714844 C 139.210938 280.867188 138.800781 280.972656 138.445312 281.175781 C 138.140625 281.328125 137.882812 281.53125 137.628906 281.683594 C 137.117188 281.992188 136.300781 282.757812 136.402344 283.472656 C 136.503906 284.238281 137.730469 284.492188 138.394531 284.441406 C 138.75 284.390625 139.058594 284.339844 139.414062 284.289062 C 139.875 284.1875 140.28125 284.03125 140.691406 283.828125 C 141.304688 283.523438 141.863281 283.214844 142.425781 282.910156 C 143.753906 282.144531 145.027344 281.226562 146.253906 280.207031 C 146.765625 279.746094 146.765625 278.878906 146.355469 278.367188 C 145.898438 277.859375 145.027344 277.550781 144.46875 277.960938 Z M 144.46875 277.960938 " fill-opacity="1" fill-rule="nonzero"/><path fill="#ff6e40" d="M 234.445312 276.121094 C 235.058594 282.910156 234.34375 289.800781 232.457031 296.332031 C 231.539062 299.652344 230.261719 302.867188 228.679688 305.929688 C 227.402344 308.429688 224.699219 311.285156 224.699219 314.144531 C 224.699219 314.554688 225.105469 314.859375 225.464844 314.707031 C 228.425781 313.789062 230.109375 309.652344 231.382812 307.101562 C 232.964844 303.886719 234.292969 300.519531 235.210938 297.046875 C 237.101562 290.105469 237.355469 282.910156 236.285156 275.816406 C 236.078125 274.847656 234.34375 275.101562 234.445312 276.121094 Z M 234.445312 276.121094 " fill-opacity="1" fill-rule="nonzero"/><path fill="#ff6e40" d="M 221.125 317.308594 C 220.820312 317.308594 220.460938 317.308594 220.15625 317.308594 C 219.796875 317.308594 219.492188 317.410156 219.136719 317.511719 C 218.726562 317.617188 218.320312 317.71875 217.960938 317.921875 C 217.65625 318.074219 217.347656 318.226562 217.042969 318.382812 C 216.429688 318.6875 215.867188 318.992188 215.257812 319.300781 C 215.101562 319.351562 214.949219 319.453125 214.847656 319.503906 C 214.59375 319.65625 214.390625 319.859375 214.183594 320.117188 C 213.980469 320.371094 213.828125 320.625 213.625 320.832031 C 213.265625 321.289062 213.726562 321.953125 214.285156 321.953125 C 214.59375 321.953125 214.949219 321.953125 215.257812 321.953125 C 215.714844 321.953125 216.074219 321.75 216.53125 321.546875 C 217.144531 321.238281 217.757812 320.933594 218.421875 320.625 C 218.726562 320.472656 219.03125 320.371094 219.339844 320.167969 C 219.644531 320.015625 219.902344 319.757812 220.15625 319.554688 C 220.511719 319.300781 220.820312 319.042969 221.074219 318.738281 C 221.277344 318.484375 221.433594 318.226562 221.636719 318.023438 C 221.789062 317.769531 221.484375 317.308594 221.125 317.308594 Z M 221.125 317.308594 " fill-opacity="1" fill-rule="nonzero"/><path fill="#ff6e40" d="M 264.097656 122.855469 C 264.457031 124.132812 265.019531 125.359375 265.375 126.632812 C 266.039062 129.132812 266.445312 131.738281 266.394531 134.390625 C 266.394531 135.105469 266.804688 135.71875 267.367188 136.074219 C 268.027344 136.484375 268.691406 136.433594 269.355469 136.074219 C 269.96875 135.769531 270.324219 135.054688 270.324219 134.390625 C 270.324219 131.378906 269.867188 128.367188 268.792969 125.5625 C 268.234375 124.132812 267.671875 122.652344 266.703125 121.480469 C 266.292969 120.917969 265.835938 120.40625 265.324219 119.898438 C 264.8125 119.386719 264.355469 119.082031 263.640625 118.875 C 263.382812 118.773438 263.128906 119.027344 263.128906 119.234375 C 263.128906 119.949219 263.230469 120.457031 263.488281 121.121094 C 263.742188 121.683594 263.945312 122.296875 264.097656 122.855469 Z M 264.097656 122.855469 " fill-opacity="1" fill-rule="nonzero"/><path fill="#ff6e40" d="M 185.757812 196.503906 C 185.808594 196.964844 185.910156 197.320312 186.011719 197.730469 C 186.0625 197.882812 186.113281 198.085938 186.113281 198.238281 C 186.113281 198.339844 186.164062 198.390625 186.164062 198.496094 C 186.164062 198.546875 186.164062 198.546875 186.164062 198.546875 C 186.214844 199.261719 186.265625 199.972656 186.265625 200.6875 C 186.265625 200.894531 186.265625 201.046875 186.214844 201.199219 C 186.214844 201.300781 186.214844 201.351562 186.214844 201.453125 C 186.164062 201.8125 186.0625 202.167969 185.960938 202.527344 C 185.757812 203.34375 186.265625 204.363281 187.082031 204.566406 C 187.898438 204.773438 188.921875 204.3125 189.125 203.445312 C 189.125 203.394531 189.125 203.34375 189.175781 203.292969 C 189.175781 203.292969 189.175781 203.242188 189.175781 203.242188 C 189.585938 201.503906 189.636719 199.71875 189.074219 198.035156 C 188.769531 197.167969 188.460938 196.199219 187.796875 195.585938 C 187.238281 195.023438 186.574219 194.5625 185.910156 194.105469 C 185.5 193.851562 185.144531 194.359375 185.296875 194.71875 C 185.605469 195.277344 185.707031 195.890625 185.757812 196.503906 Z M 188.5625 201.554688 C 188.511719 201.554688 188.511719 201.503906 188.460938 201.503906 C 188.664062 201.554688 188.664062 201.609375 188.5625 201.554688 Z M 188.105469 201.300781 C 188.054688 201.300781 188.003906 201.300781 187.953125 201.300781 C 187.796875 201.25 187.796875 201.199219 188.105469 201.300781 Z M 188.105469 201.300781 " fill-opacity="1" fill-rule="nonzero"/></svg>