<svg xmlns="http://www.w3.org/2000/svg" xmlns:xlink="http://www.w3.org/1999/xlink" width="500" zoomAndPan="magnify" viewBox="0 0 375 374.999991" height="500" preserveAspectRatio="xMidYMid meet" version="1.0"><path fill="#ffffff" d="M 82.492188 47.46875 C 138.085938 -8.128906 228.222656 -8.128906 283.816406 47.46875 C 288.1875 51.835938 288.1875 58.917969 283.816406 63.285156 L 191.066406 156.042969 C 186.695312 160.40625 179.613281 160.40625 175.246094 156.042969 L 82.492188 63.285156 C 78.125 58.917969 78.125 51.835938 82.492188 47.46875 " fill-opacity="1" fill-rule="nonzero"/><path fill="#ffffff" d="M 205.789062 170.765625 L 298.542969 78.007812 C 302.914062 73.644531 309.996094 73.644531 314.359375 78.007812 C 369.957031 133.605469 369.957031 223.742188 314.359375 279.335938 C 309.996094 283.707031 302.914062 283.707031 298.542969 279.335938 L 205.789062 186.582031 C 201.421875 182.214844 201.421875 175.132812 205.789062 170.765625 " fill-opacity="1" fill-rule="nonzero"/><path fill="#ffffff" d="M 55.589844 87.246094 C -0.0078125 142.839844 -0.0078125 232.976562 55.589844 288.574219 C 59.957031 292.941406 67.039062 292.941406 71.40625 288.574219 L 164.160156 195.816406 C 168.527344 191.453125 168.527344 184.371094 164.160156 180 L 71.40625 87.246094 C 67.039062 82.878906 59.957031 82.878906 55.589844 87.246094 " fill-opacity="1" fill-rule="nonzero"/><path fill="#ffffff" d="M 178.886719 210.542969 L 86.132812 303.296875 C 81.761719 307.664062 81.761719 314.746094 86.132812 319.117188 C 141.726562 374.710938 231.859375 374.710938 287.457031 319.117188 C 291.828125 314.746094 291.828125 307.664062 287.457031 303.296875 L 194.703125 210.542969 C 190.335938 206.175781 183.253906 206.175781 178.886719 210.542969 " fill-opacity="1" fill-rule="nonzero"/><path fill="#ff6e40" d="M 179.078125 48.355469 L 193.070312 48.355469 L 193.070312 65.992188 L 210.902344 65.992188 L 210.902344 79.683594 L 193.070312 79.683594 L 193.070312 97.421875 L 179.078125 97.421875 L 179.078125 79.683594 L 161.246094 79.683594 L 161.246094 65.992188 L 179.078125 65.992188 L 179.078125 48.355469 " fill-opacity="1" fill-rule="nonzero"/><path fill="#ff6e40" d="M 302.285156 154.363281 L 312.175781 164.253906 L 299.707031 176.726562 L 312.316406 189.335938 L 302.632812 199.019531 L 290.023438 186.410156 L 277.484375 198.949219 L 267.589844 189.058594 L 280.128906 176.519531 L 267.519531 163.910156 L 277.203125 154.222656 L 289.816406 166.835938 L 302.285156 154.363281 " fill-opacity="1" fill-rule="nonzero"/><path fill="#ff6e40" d="M 57.632812 191.042969 L 57.632812 176.660156 L 97.25 176.660156 L 97.25 191.042969 L 57.632812 191.042969 " fill-opacity="1" fill-rule="nonzero"/><path fill="#ff6e40" d="M 164.027344 282.058594 L 164.027344 296.449219 L 203.644531 296.449219 L 203.644531 282.058594 L 164.027344 282.058594 " fill-opacity="1" fill-rule="nonzero"/><path fill="#ff6e40" d="M 183.835938 271.074219 C 189.800781 271.074219 194.632812 266.242188 194.632812 260.28125 C 194.632812 254.3125 189.800781 249.480469 183.835938 249.480469 C 177.871094 249.480469 173.039062 254.3125 173.039062 260.28125 C 173.039062 266.242188 177.871094 271.074219 183.835938 271.074219 " fill-opacity="1" fill-rule="nonzero"/><path fill="#ff6e40" d="M 183.835938 307.429688 C 177.871094 307.429688 173.039062 312.265625 173.039062 318.226562 C 173.039062 324.195312 177.871094 329.027344 183.835938 329.027344 C 189.800781 329.027344 194.632812 324.195312 194.632812 318.226562 C 194.632812 312.265625 189.800781 307.429688 183.835938 307.429688 " fill-opacity="1" fill-rule="nonzero"/></svg>