<svg xmlns="http://www.w3.org/2000/svg" xmlns:xlink="http://www.w3.org/1999/xlink" width="500" zoomAndPan="magnify" viewBox="0 0 375 374.999991" height="500" preserveAspectRatio="xMidYMid meet" version="1.0"><defs><clipPath id="628af6bf58"><path d="M 89.851562 26.851562 L 307.351562 26.851562 L 307.351562 244.351562 L 89.851562 244.351562 Z M 89.851562 26.851562 " clip-rule="nonzero"/></clipPath><clipPath id="91da34edb9"><path d="M 198.601562 26.851562 C 138.539062 26.851562 89.851562 75.539062 89.851562 135.601562 C 89.851562 195.660156 138.539062 244.351562 198.601562 244.351562 C 258.660156 244.351562 307.351562 195.660156 307.351562 135.601562 C 307.351562 75.539062 258.660156 26.851562 198.601562 26.851562 Z M 198.601562 26.851562 " clip-rule="nonzero"/></clipPath><clipPath id="be1cf35a77"><path d="M 41.453125 19 L 324 19 L 324 374.699219 L 41.453125 374.699219 Z M 41.453125 19 " clip-rule="nonzero"/></clipPath></defs><g clip-path="url(#628af6bf58)"><g clip-path="url(#91da34edb9)"><path fill="#ff6e40" d="M 89.851562 26.851562 L 307.351562 26.851562 L 307.351562 244.351562 L 89.851562 244.351562 Z M 89.851562 26.851562 " fill-opacity="1" fill-rule="nonzero"/></g></g><g clip-path="url(#be1cf35a77)"><path fill="#ffffff" d="M 63.503906 191.605469 L 42.460938 227.304688 C 41.519531 228.839844 41.867188 230.886719 43.230469 232.078125 L 69.480469 254.65625 L 69.566406 254.746094 C 70.421875 255.511719 71.699219 256.789062 72.714844 258.328125 C 78 266.335938 75.78125 277.160156 67.695312 282.53125 L 67.433594 282.703125 L 67.011719 282.964844 L 66.925781 283.050781 C 66.839844 283.136719 66.664062 283.222656 66.589844 283.308594 C 66.589844 283.308594 66.589844 283.308594 66.503906 283.398438 C 65.90625 284.078125 65.996094 285.183594 66.589844 285.777344 L 76.222656 294.382812 C 77.585938 295.574219 78.269531 297.371094 78.097656 299.15625 C 76.820312 315.597656 80.226562 322.839844 83.292969 326 C 86.105469 328.988281 89.679688 329.238281 91.476562 329.152344 C 92.753906 329.066406 94.203125 329.066406 95.738281 329.066406 C 96.335938 329.066406 97.015625 329.066406 97.699219 329.066406 L 139.957031 330.515625 C 143.019531 330.601562 145.5 333.15625 145.5 336.21875 L 145.671875 374.992188 L 272.039062 374.570312 L 271.703125 286.804688 C 271.703125 281.4375 273.402344 276.15625 276.476562 271.890625 C 304.597656 232.011719 310.808594 213.265625 312.261719 207.128906 C 313.277344 202.699219 314.480469 198.4375 315.671875 194.257812 C 333.476562 134.613281 315.496094 97.714844 309.535156 87.832031 C 307.660156 84.679688 305.875 81.445312 304.25 78.371094 C 280.816406 33.71875 237.789062 21.878906 205.835938 19.746094 C 176.78125 17.699219 147.210938 25.113281 122.585938 40.703125 C 57.105469 82.375 63.246094 155.570312 66.742188 177.035156 C 67.597656 182.070312 66.394531 187.351562 63.503906 191.605469 Z M 149.050781 196.292969 C 133.453125 196.292969 122.207031 191.433594 116.835938 182.144531 C 110.449219 171.15625 113.6875 155.894531 125.789062 139.367188 C 126.644531 138.175781 127.574219 136.984375 128.515625 135.785156 C 127.574219 134.59375 126.644531 133.402344 125.789062 132.199219 C 113.6875 115.671875 110.449219 100.507812 116.835938 89.421875 C 123.222656 78.4375 137.964844 73.574219 158.335938 75.785156 C 160.125 75.957031 161.996094 76.207031 163.878906 76.550781 C 164.5625 74.765625 165.242188 73.054688 166.011719 71.355469 C 174.28125 52.523438 185.863281 42.21875 198.5625 42.21875 C 211.257812 42.21875 222.839844 52.53125 231.109375 71.355469 C 231.707031 72.71875 232.300781 74.085938 232.808594 75.535156 C 234.347656 75.273438 235.796875 75.113281 237.238281 74.941406 C 257.597656 72.71875 272.339844 77.582031 278.738281 88.578125 C 285.136719 99.574219 281.886719 114.828125 269.785156 131.355469 C 268.683594 132.808594 267.566406 134.34375 266.375 135.785156 C 267.566406 137.234375 268.683594 138.683594 269.785156 140.210938 C 281.886719 156.738281 285.125 171.90625 278.738281 182.988281 C 273.367188 192.277344 262.121094 197.136719 246.523438 197.136719 C 243.535156 197.136719 240.472656 196.964844 237.238281 196.628906 C 235.785156 196.453125 234.25 196.292969 232.808594 196.03125 C 232.300781 197.484375 231.707031 198.847656 231.109375 200.210938 C 222.839844 219.046875 211.257812 229.351562 198.5625 229.351562 C 185.863281 229.351562 174.28125 219.035156 166.011719 200.210938 C 165.242188 198.511719 164.5625 196.800781 163.878906 195.101562 C 162.007812 195.4375 160.132812 195.695312 158.335938 195.871094 C 155.101562 196.128906 151.949219 196.292969 149.050781 196.292969 Z M 149.050781 196.292969 " fill-opacity="1" fill-rule="evenodd"/></g><path fill="#ffffff" d="M 196.851562 185.21875 C 189.523438 188.28125 182.28125 190.761719 175.289062 192.546875 C 181.675781 208.480469 190.367188 217.769531 198.550781 217.769531 C 206.558594 217.769531 214.992188 208.816406 221.390625 193.566406 C 213.378906 191.605469 205.121094 188.800781 196.851562 185.21875 Z M 196.851562 185.21875 " fill-opacity="1" fill-rule="evenodd"/><path fill="#ffffff" d="M 241.5 159.488281 C 240.398438 168.441406 238.773438 177.046875 236.480469 184.882812 C 252.835938 187.015625 264.761719 184.113281 268.769531 177.21875 C 272.859375 170.152344 269.105469 157.964844 258.539062 144.496094 C 253.515625 149.597656 247.8125 154.628906 241.5 159.488281 Z M 241.5 159.488281 " fill-opacity="1" fill-rule="evenodd"/><path fill="#ffffff" d="M 219.949219 173.800781 C 217.050781 175.5 214.074219 177.121094 211.171875 178.574219 C 216.03125 180.273438 220.71875 181.636719 225.144531 182.75 C 226.421875 178.324219 227.613281 173.636719 228.554688 168.515625 C 225.742188 170.304688 222.925781 172.101562 219.949219 173.800781 Z M 219.949219 173.800781 " fill-opacity="1" fill-rule="evenodd"/><path fill="#ffffff" d="M 166.605469 155.222656 C 171.207031 158.460938 176.066406 161.609375 181.351562 164.597656 C 186.632812 167.660156 191.828125 170.304688 196.949219 172.695312 C 202.578125 170.140625 208.453125 167.238281 214.332031 163.828125 C 220.210938 160.421875 225.664062 156.847656 230.6875 153.265625 C 231.195312 147.722656 231.457031 141.84375 231.457031 135.792969 C 231.457031 129.742188 231.195312 123.867188 230.6875 118.324219 C 225.664062 114.664062 220.210938 111.167969 214.246094 107.757812 C 208.367188 104.347656 202.578125 101.371094 196.949219 98.894531 C 191.839844 101.277344 186.632812 103.917969 181.4375 106.992188 C 176.15625 110.054688 171.292969 113.214844 166.695312 116.453125 C 166.097656 122.589844 165.753906 129.148438 165.753906 135.882812 C 165.664062 142.613281 166.011719 149.085938 166.605469 155.222656 Z M 197.792969 156.242188 C 186.460938 156.242188 177.34375 147.042969 177.34375 135.707031 C 177.34375 124.375 186.546875 115.175781 197.792969 115.175781 C 209.125 115.175781 218.328125 124.375 218.328125 135.707031 C 218.328125 147.042969 209.125 156.242188 197.792969 156.242188 Z M 197.792969 156.242188 " fill-opacity="1" fill-rule="evenodd"/><path fill="#ffffff" d="M 168.902344 170.5625 C 169.671875 174.480469 170.601562 178.152344 171.542969 181.636719 C 175.039062 180.78125 178.699219 179.675781 182.53125 178.398438 C 180.222656 177.207031 177.929688 175.929688 175.625 174.566406 C 173.339844 173.289062 171.121094 171.925781 168.902344 170.5625 Z M 168.902344 170.5625 " fill-opacity="1" fill-rule="evenodd"/><path fill="#ffffff" d="M 136.265625 144.574219 C 126.210938 157.691406 122.714844 169.457031 126.71875 176.441406 C 130.8125 183.507812 143.25 186.410156 160.210938 183.941406 C 158.25 176.960938 156.800781 169.457031 155.78125 161.621094 C 148.542969 156.167969 141.980469 150.449219 136.265625 144.574219 Z M 136.265625 144.574219 " fill-opacity="1" fill-rule="evenodd"/><path fill="#ffffff" d="M 143.769531 135.792969 C 146.917969 139.117188 150.5 142.441406 154.417969 145.851562 C 154.246094 142.527344 154.160156 139.203125 154.160156 135.792969 C 154.160156 132.472656 154.246094 129.0625 154.417969 125.824219 C 150.5 129.0625 146.917969 132.472656 143.769531 135.792969 Z M 143.769531 135.792969 " fill-opacity="1" fill-rule="evenodd"/><path fill="#ffffff" d="M 188.753906 135.792969 C 188.753906 140.742188 192.847656 144.820312 197.78125 144.820312 C 202.726562 144.820312 206.808594 140.730469 206.808594 135.792969 C 206.808594 130.847656 202.804688 126.765625 197.78125 126.765625 C 192.847656 126.765625 188.753906 130.773438 188.753906 135.792969 Z M 188.753906 135.792969 " fill-opacity="1" fill-rule="evenodd"/><path fill="#ffffff" d="M 242.691406 127.957031 C 242.777344 130.511719 242.867188 133.152344 242.867188 135.792969 C 242.867188 138.4375 242.777344 141.078125 242.691406 143.632812 C 245.679688 140.992188 248.484375 138.347656 250.960938 135.792969 C 248.496094 133.152344 245.679688 130.511719 242.691406 127.957031 Z M 242.691406 127.957031 " fill-opacity="1" fill-rule="evenodd"/><path fill="#ffffff" d="M 236.480469 86.628906 C 238.699219 94.46875 240.398438 103.074219 241.5 112.023438 C 247.8125 116.796875 253.515625 121.90625 258.625 127.015625 C 269.191406 113.550781 272.9375 101.371094 268.855469 94.207031 C 265.703125 88.75 257.695312 85.863281 246.535156 85.863281 C 243.375 85.949219 240.050781 86.207031 236.480469 86.628906 Z M 236.480469 86.628906 " fill-opacity="1" fill-rule="evenodd"/><path fill="#ffffff" d="M 175.300781 78.964844 C 182.28125 80.753906 189.535156 83.230469 196.863281 86.292969 C 205.207031 82.710938 213.476562 79.90625 221.402344 77.863281 C 215.089844 62.609375 206.570312 53.660156 198.5625 53.660156 C 190.292969 53.746094 181.6875 63.109375 175.300781 78.964844 Z M 175.300781 78.964844 " fill-opacity="1" fill-rule="evenodd"/><path fill="#ffffff" d="M 225.144531 88.761719 C 220.71875 89.867188 216.03125 91.230469 211.171875 92.941406 C 214.074219 94.476562 217.050781 96.003906 219.949219 97.714844 C 222.851562 99.414062 225.742188 101.125 228.554688 102.910156 C 227.613281 97.964844 226.511719 93.191406 225.144531 88.761719 Z M 225.144531 88.761719 " fill-opacity="1" fill-rule="evenodd"/><path fill="#ffffff" d="M 171.542969 89.867188 C 170.527344 93.363281 169.671875 97.109375 168.902344 101.027344 C 171.121094 99.664062 173.328125 98.296875 175.636719 96.933594 C 177.941406 95.65625 180.234375 94.378906 182.539062 93.101562 C 178.710938 91.824219 175.039062 90.808594 171.542969 89.867188 Z M 171.542969 89.867188 " fill-opacity="1" fill-rule="evenodd"/><path fill="#ffffff" d="M 149.050781 86.804688 C 137.890625 86.804688 129.878906 89.789062 126.730469 95.148438 C 122.726562 102.054688 126.222656 113.898438 136.277344 127.015625 C 141.980469 121.136719 148.550781 115.421875 155.792969 109.976562 C 156.8125 102.140625 158.347656 94.640625 160.222656 87.660156 C 156.292969 87.0625 152.546875 86.804688 149.050781 86.804688 Z M 149.050781 86.804688 " fill-opacity="1" fill-rule="evenodd"/></svg>