<svg xmlns="http://www.w3.org/2000/svg" xmlns:xlink="http://www.w3.org/1999/xlink" width="500" zoomAndPan="magnify" viewBox="0 0 375 374.999991" height="500" preserveAspectRatio="xMidYMid meet" version="1.0"><defs><clipPath id="9b418bcfef"><path d="M 132.660156 20.398438 L 242.160156 20.398438 L 242.160156 75.148438 L 132.660156 75.148438 Z M 132.660156 20.398438 " clip-rule="nonzero"/></clipPath><clipPath id="f0a7bba378"><path d="M 174.449219 151.5 L 200.699219 151.5 L 200.699219 177.75 L 174.449219 177.75 Z M 174.449219 151.5 " clip-rule="nonzero"/></clipPath><clipPath id="2928065b58"><path d="M 293.851562 282.898438 L 325.351562 282.898438 L 325.351562 314.398438 L 293.851562 314.398438 Z M 293.851562 282.898438 " clip-rule="nonzero"/></clipPath><clipPath id="14a3436053"><path d="M 210.839844 282.898438 L 242.339844 282.898438 L 242.339844 314.398438 L 210.839844 314.398438 Z M 210.839844 282.898438 " clip-rule="nonzero"/></clipPath><clipPath id="66f9f17cae"><path d="M 132.660156 282.898438 L 164.160156 282.898438 L 164.160156 314.398438 L 132.660156 314.398438 Z M 132.660156 282.898438 " clip-rule="nonzero"/></clipPath><clipPath id="6cd44dd653"><path d="M 54.660156 282.898438 L 86.160156 282.898438 L 86.160156 314.398438 L 54.660156 314.398438 Z M 54.660156 282.898438 " clip-rule="nonzero"/></clipPath><clipPath id="6d059c1846"><path d="M 21 273 L 354 273 L 354 370.351562 L 21 370.351562 Z M 21 273 " clip-rule="nonzero"/></clipPath><clipPath id="e29f8160db"><path d="M 4.351562 4.351562 L 370.351562 4.351562 L 370.351562 268 L 4.351562 268 Z M 4.351562 4.351562 " clip-rule="nonzero"/></clipPath></defs><g clip-path="url(#9b418bcfef)"><path fill="#ff6e40" d="M 187.496094 20.398438 C 217.773438 20.398438 242.328125 44.648438 242.328125 75.230469 L 132.664062 75.230469 C 132.664062 44.648438 157.222656 20.398438 187.496094 20.398438 Z M 187.496094 20.398438 " fill-opacity="1" fill-rule="nonzero"/></g><g clip-path="url(#f0a7bba378)"><path fill="#ff6e40" d="M 200.546875 164.546875 C 200.546875 165.40625 200.464844 166.253906 200.296875 167.09375 C 200.128906 167.933594 199.882812 168.75 199.554688 169.542969 C 199.226562 170.332031 198.824219 171.085938 198.347656 171.796875 C 197.871094 172.511719 197.332031 173.167969 196.726562 173.777344 C 196.121094 174.382812 195.460938 174.921875 194.75 175.398438 C 194.035156 175.875 193.285156 176.277344 192.492188 176.605469 C 191.699219 176.933594 190.886719 177.179688 190.042969 177.347656 C 189.203125 177.515625 188.355469 177.597656 187.5 177.597656 C 186.640625 177.597656 185.792969 177.515625 184.953125 177.347656 C 184.113281 177.179688 183.296875 176.933594 182.503906 176.605469 C 181.714844 176.277344 180.960938 175.875 180.25 175.398438 C 179.535156 174.921875 178.878906 174.382812 178.273438 173.777344 C 177.667969 173.167969 177.125 172.511719 176.648438 171.796875 C 176.171875 171.085938 175.769531 170.332031 175.441406 169.542969 C 175.117188 168.75 174.867188 167.933594 174.699219 167.09375 C 174.535156 166.253906 174.449219 165.40625 174.449219 164.546875 C 174.449219 163.691406 174.535156 162.84375 174.699219 162.003906 C 174.867188 161.164062 175.117188 160.347656 175.441406 159.554688 C 175.769531 158.761719 176.171875 158.011719 176.648438 157.300781 C 177.125 156.585938 177.667969 155.929688 178.273438 155.320312 C 178.878906 154.714844 179.535156 154.175781 180.25 153.699219 C 180.960938 153.222656 181.714844 152.820312 182.503906 152.492188 C 183.296875 152.164062 184.113281 151.917969 184.953125 151.75 C 185.792969 151.582031 186.640625 151.5 187.5 151.5 C 188.355469 151.5 189.203125 151.582031 190.042969 151.75 C 190.886719 151.917969 191.699219 152.164062 192.492188 152.492188 C 193.285156 152.820312 194.035156 153.222656 194.75 153.699219 C 195.460938 154.175781 196.121094 154.714844 196.726562 155.320312 C 197.332031 155.929688 197.871094 156.585938 198.347656 157.300781 C 198.824219 158.011719 199.226562 158.761719 199.554688 159.554688 C 199.882812 160.347656 200.128906 161.164062 200.296875 162.003906 C 200.464844 162.84375 200.546875 163.691406 200.546875 164.546875 Z M 200.546875 164.546875 " fill-opacity="1" fill-rule="nonzero"/></g><g clip-path="url(#2928065b58)"><path fill="#ff6e40" d="M 325.351562 298.648438 C 325.351562 299.683594 325.25 300.707031 325.046875 301.722656 C 324.84375 302.738281 324.546875 303.722656 324.152344 304.675781 C 323.753906 305.632812 323.269531 306.539062 322.695312 307.398438 C 322.121094 308.261719 321.46875 309.054688 320.738281 309.785156 C 320.003906 310.519531 319.210938 311.171875 318.351562 311.746094 C 317.492188 312.320312 316.582031 312.804688 315.628906 313.199219 C 314.671875 313.597656 313.6875 313.894531 312.671875 314.097656 C 311.660156 314.300781 310.632812 314.398438 309.601562 314.398438 C 308.566406 314.398438 307.542969 314.300781 306.527344 314.097656 C 305.511719 313.894531 304.527344 313.597656 303.574219 313.199219 C 302.617188 312.804688 301.710938 312.320312 300.851562 311.746094 C 299.988281 311.171875 299.195312 310.519531 298.464844 309.785156 C 297.730469 309.054688 297.078125 308.261719 296.503906 307.398438 C 295.929688 306.539062 295.445312 305.632812 295.050781 304.675781 C 294.652344 303.722656 294.355469 302.738281 294.152344 301.722656 C 293.949219 300.707031 293.851562 299.683594 293.851562 298.648438 C 293.851562 297.617188 293.949219 296.589844 294.152344 295.578125 C 294.355469 294.5625 294.652344 293.578125 295.050781 292.621094 C 295.445312 291.667969 295.929688 290.757812 296.503906 289.898438 C 297.078125 289.039062 297.730469 288.246094 298.464844 287.511719 C 299.195312 286.78125 299.988281 286.128906 300.851562 285.554688 C 301.710938 284.980469 302.617188 284.496094 303.574219 284.097656 C 304.527344 283.703125 305.511719 283.40625 306.527344 283.203125 C 307.542969 283 308.566406 282.898438 309.601562 282.898438 C 310.632812 282.898438 311.660156 283 312.671875 283.203125 C 313.6875 283.40625 314.671875 283.703125 315.628906 284.097656 C 316.582031 284.496094 317.492188 284.980469 318.351562 285.554688 C 319.210938 286.128906 320.003906 286.78125 320.738281 287.511719 C 321.46875 288.246094 322.121094 289.039062 322.695312 289.898438 C 323.269531 290.757812 323.753906 291.667969 324.152344 292.621094 C 324.546875 293.578125 324.84375 294.5625 325.046875 295.578125 C 325.25 296.589844 325.351562 297.617188 325.351562 298.648438 Z M 325.351562 298.648438 " fill-opacity="1" fill-rule="nonzero"/></g><g clip-path="url(#14a3436053)"><path fill="#ff6e40" d="M 242.339844 298.648438 C 242.339844 299.683594 242.238281 300.707031 242.039062 301.722656 C 241.835938 302.738281 241.535156 303.722656 241.140625 304.675781 C 240.746094 305.632812 240.261719 306.539062 239.6875 307.398438 C 239.109375 308.261719 238.457031 309.054688 237.726562 309.785156 C 236.996094 310.519531 236.199219 311.171875 235.339844 311.746094 C 234.480469 312.320312 233.574219 312.804688 232.617188 313.199219 C 231.660156 313.597656 230.675781 313.894531 229.664062 314.097656 C 228.648438 314.300781 227.625 314.398438 226.589844 314.398438 C 225.554688 314.398438 224.53125 314.300781 223.515625 314.097656 C 222.503906 313.894531 221.519531 313.597656 220.5625 313.199219 C 219.605469 312.804688 218.699219 312.320312 217.839844 311.746094 C 216.980469 311.171875 216.183594 310.519531 215.453125 309.785156 C 214.722656 309.054688 214.070312 308.261719 213.496094 307.398438 C 212.917969 306.539062 212.433594 305.632812 212.039062 304.675781 C 211.644531 303.722656 211.34375 302.738281 211.144531 301.722656 C 210.941406 300.707031 210.839844 299.683594 210.839844 298.648438 C 210.839844 297.617188 210.941406 296.589844 211.144531 295.578125 C 211.34375 294.5625 211.644531 293.578125 212.039062 292.621094 C 212.433594 291.667969 212.917969 290.757812 213.496094 289.898438 C 214.070312 289.039062 214.722656 288.246094 215.453125 287.511719 C 216.183594 286.78125 216.980469 286.128906 217.839844 285.554688 C 218.699219 284.980469 219.605469 284.496094 220.5625 284.097656 C 221.519531 283.703125 222.503906 283.40625 223.515625 283.203125 C 224.53125 283 225.554688 282.898438 226.589844 282.898438 C 227.625 282.898438 228.648438 283 229.664062 283.203125 C 230.675781 283.40625 231.660156 283.703125 232.617188 284.097656 C 233.574219 284.496094 234.480469 284.980469 235.339844 285.554688 C 236.199219 286.128906 236.996094 286.78125 237.726562 287.511719 C 238.457031 288.246094 239.109375 289.039062 239.6875 289.898438 C 240.261719 290.757812 240.746094 291.667969 241.140625 292.621094 C 241.535156 293.578125 241.835938 294.5625 242.039062 295.578125 C 242.238281 296.589844 242.339844 297.617188 242.339844 298.648438 Z M 242.339844 298.648438 " fill-opacity="1" fill-rule="nonzero"/></g><g clip-path="url(#66f9f17cae)"><path fill="#ff6e40" d="M 164.160156 298.648438 C 164.160156 299.683594 164.058594 300.707031 163.855469 301.722656 C 163.65625 302.738281 163.355469 303.722656 162.960938 304.675781 C 162.566406 305.632812 162.082031 306.539062 161.503906 307.398438 C 160.929688 308.261719 160.277344 309.054688 159.546875 309.785156 C 158.816406 310.519531 158.019531 311.171875 157.160156 311.746094 C 156.300781 312.320312 155.394531 312.804688 154.4375 313.199219 C 153.480469 313.597656 152.496094 313.894531 151.484375 314.097656 C 150.46875 314.300781 149.445312 314.398438 148.410156 314.398438 C 147.375 314.398438 146.351562 314.300781 145.335938 314.097656 C 144.324219 313.894531 143.339844 313.597656 142.382812 313.199219 C 141.425781 312.804688 140.519531 312.320312 139.660156 311.746094 C 138.800781 311.171875 138.003906 310.519531 137.273438 309.785156 C 136.542969 309.054688 135.890625 308.261719 135.3125 307.398438 C 134.738281 306.539062 134.253906 305.632812 133.859375 304.675781 C 133.464844 303.722656 133.164062 302.738281 132.960938 301.722656 C 132.761719 300.707031 132.660156 299.683594 132.660156 298.648438 C 132.660156 297.617188 132.761719 296.589844 132.960938 295.578125 C 133.164062 294.5625 133.464844 293.578125 133.859375 292.621094 C 134.253906 291.667969 134.738281 290.757812 135.3125 289.898438 C 135.890625 289.039062 136.542969 288.246094 137.273438 287.511719 C 138.003906 286.78125 138.800781 286.128906 139.660156 285.554688 C 140.519531 284.980469 141.425781 284.496094 142.382812 284.097656 C 143.339844 283.703125 144.324219 283.40625 145.335938 283.203125 C 146.351562 283 147.375 282.898438 148.410156 282.898438 C 149.445312 282.898438 150.46875 283 151.484375 283.203125 C 152.496094 283.40625 153.480469 283.703125 154.4375 284.097656 C 155.394531 284.496094 156.300781 284.980469 157.160156 285.554688 C 158.019531 286.128906 158.816406 286.78125 159.546875 287.511719 C 160.277344 288.246094 160.929688 289.039062 161.503906 289.898438 C 162.082031 290.757812 162.566406 291.667969 162.960938 292.621094 C 163.355469 293.578125 163.65625 294.5625 163.855469 295.578125 C 164.058594 296.589844 164.160156 297.617188 164.160156 298.648438 Z M 164.160156 298.648438 " fill-opacity="1" fill-rule="nonzero"/></g><g clip-path="url(#6cd44dd653)"><path fill="#ff6e40" d="M 86.160156 298.648438 C 86.160156 299.683594 86.058594 300.707031 85.855469 301.722656 C 85.65625 302.738281 85.355469 303.722656 84.960938 304.675781 C 84.566406 305.632812 84.082031 306.539062 83.503906 307.398438 C 82.929688 308.261719 82.277344 309.054688 81.546875 309.785156 C 80.816406 310.519531 80.019531 311.171875 79.160156 311.746094 C 78.300781 312.320312 77.394531 312.804688 76.4375 313.199219 C 75.480469 313.597656 74.496094 313.894531 73.484375 314.097656 C 72.46875 314.300781 71.445312 314.398438 70.410156 314.398438 C 69.375 314.398438 68.351562 314.300781 67.335938 314.097656 C 66.324219 313.894531 65.339844 313.597656 64.382812 313.199219 C 63.425781 312.804688 62.519531 312.320312 61.660156 311.746094 C 60.800781 311.171875 60.003906 310.519531 59.273438 309.785156 C 58.542969 309.054688 57.890625 308.261719 57.3125 307.398438 C 56.738281 306.539062 56.253906 305.632812 55.859375 304.675781 C 55.464844 303.722656 55.164062 302.738281 54.960938 301.722656 C 54.761719 300.707031 54.660156 299.683594 54.660156 298.648438 C 54.660156 297.617188 54.761719 296.589844 54.960938 295.578125 C 55.164062 294.5625 55.464844 293.578125 55.859375 292.621094 C 56.253906 291.667969 56.738281 290.757812 57.3125 289.898438 C 57.890625 289.039062 58.542969 288.246094 59.273438 287.511719 C 60.003906 286.78125 60.800781 286.128906 61.660156 285.554688 C 62.519531 284.980469 63.425781 284.496094 64.382812 284.097656 C 65.339844 283.703125 66.324219 283.40625 67.335938 283.203125 C 68.351562 283 69.375 282.898438 70.410156 282.898438 C 71.445312 282.898438 72.46875 283 73.484375 283.203125 C 74.496094 283.40625 75.480469 283.703125 76.4375 284.097656 C 77.394531 284.496094 78.300781 284.980469 79.160156 285.554688 C 80.019531 286.128906 80.816406 286.78125 81.546875 287.511719 C 82.277344 288.246094 82.929688 289.039062 83.503906 289.898438 C 84.082031 290.757812 84.566406 291.667969 84.960938 292.621094 C 85.355469 293.578125 85.65625 294.5625 85.855469 295.578125 C 86.058594 296.589844 86.160156 297.617188 86.160156 298.648438 Z M 86.160156 298.648438 " fill-opacity="1" fill-rule="nonzero"/></g><path fill="#ffffff" d="M 187.496094 141.710938 C 176.335938 141.710938 167.464844 150.582031 167.464844 161.742188 L 167.464844 167.464844 C 167.464844 178.625 176.335938 187.496094 187.496094 187.496094 C 198.65625 187.496094 207.527344 178.625 207.527344 167.464844 L 207.527344 161.742188 C 207.527344 150.582031 198.65625 141.710938 187.496094 141.710938 Z M 196.082031 167.464844 C 196.082031 172.328125 192.359375 176.050781 187.496094 176.050781 C 182.632812 176.050781 178.910156 172.328125 178.910156 167.464844 L 178.910156 161.742188 C 178.910156 156.875 182.632812 153.15625 187.496094 153.15625 C 192.359375 153.15625 196.082031 156.875 196.082031 161.742188 Z M 196.082031 167.464844 " fill-opacity="1" fill-rule="nonzero"/><g clip-path="url(#6d059c1846)"><path fill="#ffffff" d="M 21.519531 343.457031 L 21.519531 353.472656 C 21.519531 362.917969 29.246094 370.644531 38.691406 370.644531 L 95.921875 370.644531 C 100.214844 370.644531 104.222656 368.925781 107.371094 366.351562 C 110.519531 369.210938 114.523438 370.644531 118.816406 370.644531 L 176.050781 370.644531 C 180.34375 370.644531 184.347656 368.925781 187.496094 366.351562 C 190.644531 369.210938 194.652344 370.644531 198.941406 370.644531 L 256.175781 370.644531 C 260.46875 370.644531 264.476562 368.925781 267.625 366.351562 C 270.769531 369.210938 274.777344 370.644531 279.070312 370.644531 L 336.304688 370.644531 C 345.746094 370.644531 353.472656 362.917969 353.472656 353.472656 L 353.472656 343.457031 C 353.472656 327.144531 342.597656 315.125 327.144531 313.410156 C 329.148438 309.976562 330.007812 305.96875 330.007812 301.675781 L 330.007812 295.953125 C 330.007812 283.074219 320.5625 273.058594 308.257812 273.058594 L 306.828125 273.058594 C 294.523438 273.058594 285.078125 283.074219 285.078125 295.953125 L 285.078125 301.675781 C 285.078125 305.96875 286.222656 309.976562 287.941406 313.410156 C 279.355469 314.269531 271.914062 318.5625 267.335938 324.855469 C 262.757812 318.5625 255.316406 314.269531 246.734375 313.410156 C 248.734375 309.976562 249.59375 305.96875 249.59375 301.675781 L 249.59375 295.953125 C 249.59375 283.074219 240.152344 273.058594 227.847656 273.058594 L 226.414062 273.058594 C 214.109375 273.058594 204.667969 283.074219 204.667969 295.953125 L 204.667969 301.675781 C 204.667969 305.96875 205.8125 309.976562 207.527344 313.410156 C 198.941406 314.269531 191.503906 318.5625 186.925781 324.855469 C 182.34375 318.5625 174.90625 314.269531 166.320312 313.410156 C 168.324219 309.976562 169.183594 305.96875 169.183594 301.675781 L 169.183594 295.953125 C 169.183594 283.074219 159.738281 273.058594 147.433594 273.058594 L 146.003906 273.058594 C 133.695312 273.058594 124.253906 283.074219 124.253906 295.953125 L 124.253906 301.675781 C 124.253906 305.96875 125.398438 309.976562 127.117188 313.410156 C 118.53125 314.269531 111.089844 318.5625 106.511719 324.855469 C 101.933594 318.5625 94.492188 314.269531 85.90625 313.410156 C 87.910156 309.976562 88.769531 305.96875 88.769531 301.675781 L 88.769531 295.953125 C 88.769531 283.074219 79.324219 273.058594 67.019531 273.058594 L 65.589844 273.058594 C 53.285156 273.058594 43.839844 283.074219 43.839844 295.953125 L 43.839844 301.675781 C 43.839844 305.96875 44.984375 309.976562 46.703125 313.410156 C 32.394531 315.125 21.519531 327.433594 21.519531 343.457031 Z M 296.8125 296.238281 C 296.8125 289.945312 301.390625 284.792969 307.113281 284.792969 L 308.542969 284.792969 C 314.269531 284.792969 318.847656 289.945312 318.847656 296.238281 L 318.847656 301.964844 C 318.847656 308.257812 314.269531 313.410156 308.542969 313.410156 L 307.113281 313.410156 C 301.390625 313.410156 296.8125 308.257812 296.8125 301.964844 Z M 273.347656 343.457031 C 273.347656 330.578125 282.503906 324.855469 291.660156 324.855469 L 323.996094 324.855469 C 333.15625 324.855469 342.3125 330.578125 342.3125 343.457031 L 342.3125 353.472656 C 342.3125 356.621094 339.738281 359.195312 336.589844 359.195312 L 279.070312 359.195312 C 275.921875 359.195312 273.347656 356.621094 273.347656 353.472656 Z M 216.683594 296.238281 C 216.683594 289.945312 221.265625 284.792969 226.988281 284.792969 L 228.417969 284.792969 C 234.140625 284.792969 238.71875 289.945312 238.71875 296.238281 L 238.71875 301.964844 C 238.71875 308.257812 234.140625 313.410156 228.417969 313.410156 L 226.988281 313.410156 C 221.265625 313.410156 216.683594 308.257812 216.683594 301.964844 Z M 193.21875 343.457031 C 193.21875 330.578125 202.378906 324.855469 211.535156 324.855469 L 243.871094 324.855469 C 253.027344 324.855469 262.1875 330.578125 262.1875 343.457031 L 262.1875 353.472656 C 262.1875 356.621094 259.609375 359.195312 256.460938 359.195312 L 198.941406 359.195312 C 195.796875 359.195312 193.21875 356.621094 193.21875 353.472656 Z M 136.558594 296.238281 C 136.558594 289.945312 141.136719 284.792969 146.859375 284.792969 L 148.292969 284.792969 C 154.015625 284.792969 158.59375 289.945312 158.59375 296.238281 L 158.59375 301.964844 C 158.59375 308.257812 154.015625 313.410156 148.292969 313.410156 L 146.859375 313.410156 C 141.136719 313.410156 136.558594 308.257812 136.558594 301.964844 Z M 113.09375 343.457031 C 113.09375 330.578125 122.25 324.855469 131.40625 324.855469 L 163.746094 324.855469 C 172.902344 324.855469 182.058594 330.578125 182.058594 343.457031 L 182.058594 353.472656 C 182.058594 356.621094 179.484375 359.195312 176.335938 359.195312 L 118.816406 359.195312 C 115.667969 359.195312 113.09375 356.621094 113.09375 353.472656 Z M 56.433594 296.238281 C 56.433594 289.945312 61.011719 284.792969 66.734375 284.792969 L 68.164062 284.792969 C 73.886719 284.792969 78.46875 289.945312 78.46875 296.238281 L 78.46875 301.964844 C 78.46875 308.257812 73.886719 313.410156 68.164062 313.410156 L 66.734375 313.410156 C 61.011719 313.410156 56.433594 308.257812 56.433594 301.964844 Z M 32.964844 343.457031 C 32.964844 330.578125 42.125 324.855469 51.28125 324.855469 L 83.617188 324.855469 C 92.777344 324.855469 101.933594 330.578125 101.933594 343.457031 L 101.933594 353.472656 C 101.933594 356.621094 99.355469 359.195312 96.210938 359.195312 L 38.691406 359.195312 C 35.542969 359.195312 32.964844 356.621094 32.964844 353.472656 Z M 32.964844 343.457031 " fill-opacity="1" fill-rule="nonzero"/></g><g clip-path="url(#e29f8160db)"><path fill="#ffffff" d="M 364.917969 95.921875 L 267.625 95.921875 L 267.625 78.753906 C 267.625 75.605469 265.046875 73.03125 261.898438 73.03125 L 249.878906 73.03125 C 245.875 44.128906 222.410156 21.519531 193.21875 18.945312 L 193.21875 10.074219 C 193.21875 6.925781 190.644531 4.351562 187.496094 4.351562 C 184.347656 4.351562 181.773438 6.925781 181.773438 10.074219 L 181.773438 18.945312 C 152.585938 21.519531 129.117188 44.128906 125.113281 73.03125 L 113.09375 73.03125 C 109.945312 73.03125 107.371094 75.605469 107.371094 78.753906 L 107.371094 95.921875 L 10.074219 95.921875 C 6.925781 95.921875 4.351562 98.5 4.351562 101.648438 L 4.351562 124.539062 C 4.351562 127.6875 6.925781 130.261719 10.074219 130.261719 L 21.519531 130.261719 L 21.519531 233.28125 L 10.074219 233.28125 C 6.925781 233.28125 4.351562 235.859375 4.351562 239.007812 L 4.351562 261.898438 C 4.351562 265.046875 6.925781 267.625 10.074219 267.625 L 48.417969 267.625 C 53.570312 263.902344 59.867188 261.898438 66.734375 261.898438 L 68.164062 261.898438 C 75.03125 261.898438 81.328125 263.902344 86.480469 267.625 L 128.546875 267.625 C 133.125 264.476562 138.847656 262.472656 144.570312 261.898438 L 144.570312 227.558594 L 230.421875 227.558594 L 230.421875 261.898438 C 236.429688 262.1875 241.867188 264.1875 246.445312 267.625 L 288.511719 267.625 C 293.664062 263.902344 299.960938 261.898438 306.828125 261.898438 L 308.257812 261.898438 C 315.125 261.898438 321.421875 263.902344 326.574219 267.625 L 364.917969 267.625 C 368.066406 267.625 370.644531 265.046875 370.644531 261.898438 L 370.644531 239.007812 C 370.644531 235.859375 368.066406 233.28125 364.917969 233.28125 L 353.472656 233.28125 L 353.472656 130.261719 L 364.917969 130.261719 C 368.066406 130.261719 370.644531 127.6875 370.644531 124.539062 L 370.644531 101.648438 C 370.644531 98.5 368.066406 95.921875 364.917969 95.921875 Z M 187.496094 30.105469 C 212.964844 30.105469 234.140625 48.707031 238.148438 73.03125 L 136.84375 73.03125 C 140.851562 48.707031 162.027344 30.105469 187.496094 30.105469 Z M 118.816406 84.476562 L 256.175781 84.476562 L 256.175781 95.921875 L 118.816406 95.921875 Z M 133.125 256.175781 L 15.796875 256.175781 L 15.796875 244.730469 L 133.125 244.730469 Z M 32.964844 233.28125 L 32.964844 130.261719 L 44.414062 130.261719 L 44.414062 233.28125 Z M 55.859375 233.28125 L 55.859375 130.261719 L 78.753906 130.261719 L 78.753906 233.28125 Z M 90.199219 233.28125 L 90.199219 130.261719 L 101.648438 130.261719 L 101.648438 233.28125 Z M 236.144531 216.113281 L 227.558594 216.113281 L 227.558594 203.808594 C 227.558594 194.078125 222.980469 186.066406 215.539062 182.058594 C 213.824219 185.492188 211.25 188.640625 208.386719 191.214844 C 213.25 192.933594 216.398438 197.511719 216.398438 203.808594 L 216.398438 216.113281 L 210.675781 216.113281 L 210.675781 207.242188 C 210.675781 205.8125 210.105469 204.09375 208.957031 203.234375 L 203.234375 197.796875 C 200.945312 195.507812 197.226562 195.796875 195.222656 197.796875 C 192.933594 200.085938 193.21875 203.808594 195.222656 205.8125 L 199.230469 209.53125 L 199.230469 216.113281 L 176.335938 216.113281 L 176.335938 209.816406 L 180.34375 206.097656 C 182.632812 203.808594 182.632812 200.375 180.34375 198.085938 C 178.054688 195.796875 174.617188 195.796875 172.328125 198.085938 L 166.605469 203.523438 C 165.460938 204.667969 164.890625 206.097656 164.890625 207.527344 L 164.890625 216.113281 L 159.167969 216.113281 L 159.167969 203.808594 C 159.167969 197.511719 162.3125 192.933594 167.179688 191.214844 C 164.316406 188.640625 161.742188 185.492188 160.023438 182.058594 C 152.585938 186.066406 148.003906 194.078125 148.003906 203.808594 L 148.003906 216.113281 L 139.421875 216.113281 C 136.273438 216.113281 133.695312 218.6875 133.695312 221.835938 L 133.695312 233.28125 L 113.664062 233.28125 L 113.664062 130.261719 L 262.472656 130.261719 L 262.472656 233.28125 L 242.441406 233.28125 L 242.441406 221.835938 C 241.867188 218.6875 239.292969 216.113281 236.144531 216.113281 Z M 359.195312 244.730469 L 359.195312 256.175781 L 241.867188 256.175781 L 241.867188 244.730469 Z M 273.347656 233.28125 L 273.347656 130.261719 L 284.792969 130.261719 L 284.792969 233.28125 Z M 296.238281 233.28125 L 296.238281 130.261719 L 319.132812 130.261719 L 319.132812 233.28125 Z M 330.578125 233.28125 L 330.578125 130.261719 L 342.027344 130.261719 L 342.027344 233.28125 Z M 359.195312 118.816406 L 15.796875 118.816406 L 15.796875 107.371094 L 359.195312 107.371094 Z M 359.195312 118.816406 " fill-opacity="1" fill-rule="nonzero"/></g></svg>