<svg xmlns="http://www.w3.org/2000/svg" xmlns:xlink="http://www.w3.org/1999/xlink" width="500" zoomAndPan="magnify" viewBox="0 0 375 374.999991" height="500" preserveAspectRatio="xMidYMid meet" version="1.0"><defs><clipPath id="86f6a39040"><path d="M 7 0 L 366.601562 0 L 366.601562 359.25 L 7 359.25 Z M 7 0 " clip-rule="nonzero"/></clipPath><clipPath id="4dc3f00814"><path d="M 199.300781 266.179688 L 330.550781 266.179688 L 330.550781 330.679688 L 199.300781 330.679688 Z M 199.300781 266.179688 " clip-rule="nonzero"/></clipPath><clipPath id="f80d5f6eda"><path d="M 199.070312 199.527344 L 263.570312 199.527344 L 263.570312 330.777344 L 199.070312 330.777344 Z M 199.070312 199.527344 " clip-rule="nonzero"/></clipPath><clipPath id="cfbd5443ed"><path d="M 271.492188 183.433594 L 347.992188 183.433594 L 347.992188 259.933594 L 271.492188 259.933594 Z M 271.492188 183.433594 " clip-rule="nonzero"/></clipPath><clipPath id="c9d7ef6be6"><path d="M 250.746094 77.144531 L 276.402344 77.144531 L 276.402344 152.539062 L 250.746094 152.539062 Z M 250.746094 77.144531 " clip-rule="nonzero"/></clipPath><clipPath id="f2cb34b403"><path d="M 145.859375 33.523438 L 216.90625 33.523438 L 216.90625 41.480469 L 145.859375 41.480469 Z M 145.859375 33.523438 " clip-rule="nonzero"/></clipPath></defs><g clip-path="url(#86f6a39040)"><path fill="#ffffff" d="M 113.332031 0 L 366.390625 0 L 366.390625 359.0625 L 105.289062 359.0625 L 105.289062 236.101562 C 110.621094 236.554688 116.011719 236.523438 121.375 235.910156 L 121.375 342.976562 L 350.308594 342.976562 L 350.308594 16.085938 L 121.375 16.085938 L 121.375 74.382812 C 116.046875 73.800781 110.652344 73.738281 105.289062 74.222656 L 105.289062 0 Z M 55.390625 217.402344 L 62.398438 221.761719 L 70.503906 208.777344 C 57.910156 198.957031 49.574219 185.359375 46.152344 170.601562 C 42.179688 153.644531 44.699219 135.167969 54.644531 119.214844 C 64.5625 103.257812 80.03125 92.824219 96.988281 88.886719 C 113.945312 84.914062 132.421875 87.433594 148.375 97.378906 C 164.332031 107.296875 174.765625 122.765625 178.738281 139.722656 C 182.675781 156.679688 180.160156 175.15625 170.210938 191.109375 C 160.292969 207.066406 144.824219 217.5 127.867188 221.472656 C 113.140625 224.894531 97.25 223.441406 82.875 216.496094 L 74.800781 229.480469 L 81.808594 233.839844 L 36.074219 307.351562 C 31.554688 314.621094 21.929688 316.847656 14.660156 312.328125 C 7.394531 307.835938 5.132812 298.179688 9.65625 290.914062 Z M 166.820312 142.5 C 163.558594 128.582031 154.996094 115.917969 141.917969 107.746094 C 128.835938 99.609375 113.6875 97.542969 99.765625 100.804688 C 85.847656 104.035156 73.1875 112.59375 65.015625 125.671875 C 56.875 138.753906 54.808594 153.902344 58.070312 167.824219 C 61.300781 181.742188 69.859375 194.4375 82.941406 202.578125 C 96.019531 210.714844 111.199219 212.78125 125.089844 209.550781 C 139.011719 206.289062 151.703125 197.730469 159.84375 184.652344 C 167.980469 171.570312 170.050781 156.421875 166.820312 142.5 Z M 330.089844 265.914062 C 330.089844 302.507812 300.40625 332.191406 263.8125 332.191406 C 227.21875 332.191406 197.535156 302.507812 197.535156 265.914062 C 197.535156 229.320312 227.21875 199.636719 263.8125 199.636719 L 263.8125 265.914062 Z M 272.5625 200.21875 C 302.183594 204.125 325.597656 227.542969 329.507812 257.128906 L 272.5625 257.128906 Z M 212.78125 113.367188 L 236.292969 113.367188 L 236.292969 152.289062 L 212.78125 152.289062 Z M 252.054688 80.421875 L 275.566406 80.421875 L 275.566406 152.289062 L 252.054688 152.289062 Z M 291.328125 39.792969 L 314.84375 39.792969 L 314.84375 152.289062 L 291.328125 152.289062 Z M 146.339844 33.621094 L 216.492188 33.621094 L 216.492188 41.664062 L 146.339844 41.664062 Z M 146.339844 52.550781 L 187.394531 52.550781 L 187.394531 60.625 L 146.339844 60.625 Z M 146.339844 52.550781 " fill-opacity="1" fill-rule="nonzero"/></g><g clip-path="url(#4dc3f00814)"><path fill="#ffffff" d="M 330.203125 266.179688 C 329.582031 301.773438 300.53125 330.421875 264.757812 330.421875 C 229.019531 330.421875 199.96875 301.773438 199.351562 266.179688 Z M 330.203125 266.179688 " fill-opacity="1" fill-rule="nonzero"/></g><g clip-path="url(#f80d5f6eda)"><path fill="#ffffff" d="M 263.570312 330.425781 C 227.976562 329.808594 199.328125 300.757812 199.328125 264.980469 C 199.328125 229.246094 227.976562 200.195312 263.570312 199.574219 Z M 263.570312 330.425781 " fill-opacity="1" fill-rule="nonzero"/></g><g clip-path="url(#cfbd5443ed)"><path fill="#ff6e40" d="M 271.375 260.050781 L 271.375 183.433594 C 313.691406 183.433594 347.992188 217.734375 347.992188 260.050781 Z M 271.375 260.050781 " fill-opacity="1" fill-rule="nonzero"/></g><g clip-path="url(#c9d7ef6be6)"><path fill="#ff6e40" d="M 250.746094 77.144531 L 276.402344 77.144531 L 276.402344 152.507812 L 250.746094 152.507812 Z M 250.746094 77.144531 " fill-opacity="1" fill-rule="nonzero"/></g><g clip-path="url(#f2cb34b403)"><path fill="#ff6e40" d="M 216.90625 33.523438 L 216.90625 41.480469 L 145.867188 41.480469 L 145.867188 33.523438 Z M 216.90625 33.523438 " fill-opacity="1" fill-rule="nonzero"/></g></svg>