<svg xmlns="http://www.w3.org/2000/svg" xmlns:xlink="http://www.w3.org/1999/xlink" width="500" zoomAndPan="magnify" viewBox="0 0 375 374.999991" height="500" preserveAspectRatio="xMidYMid meet" version="1.0"><defs><clipPath id="d9b51b341b"><path d="M 21.796875 38 L 252 38 L 252 375 L 21.796875 375 Z M 21.796875 38 " clip-rule="nonzero"/></clipPath></defs><g clip-path="url(#d9b51b341b)"><path fill="#bdbdbd" d="M 246.90625 117.53125 L 179.28125 44.273438 C 178.40625 43.328125 177.445312 42.484375 176.394531 41.738281 C 175.347656 40.992188 174.234375 40.359375 173.054688 39.84375 C 171.875 39.328125 170.65625 38.9375 169.394531 38.671875 C 168.136719 38.410156 166.863281 38.277344 165.578125 38.273438 L 40.449219 38.273438 C 39.839844 38.273438 39.230469 38.304688 38.621094 38.367188 C 38.015625 38.425781 37.410156 38.515625 36.8125 38.636719 C 36.214844 38.753906 35.621094 38.902344 35.039062 39.082031 C 34.453125 39.257812 33.878906 39.464844 33.316406 39.699219 C 32.75 39.933594 32.199219 40.195312 31.660156 40.484375 C 31.121094 40.769531 30.597656 41.085938 30.089844 41.421875 C 29.585938 41.761719 29.09375 42.125 28.621094 42.515625 C 28.148438 42.902344 27.699219 43.3125 27.265625 43.742188 C 26.835938 44.175781 26.425781 44.628906 26.039062 45.097656 C 25.648438 45.570312 25.285156 46.0625 24.945312 46.570312 C 24.605469 47.078125 24.292969 47.601562 24.003906 48.136719 C 23.71875 48.675781 23.457031 49.226562 23.222656 49.792969 C 22.988281 50.355469 22.78125 50.929688 22.605469 51.515625 C 22.425781 52.097656 22.277344 52.691406 22.160156 53.289062 C 22.039062 53.886719 21.949219 54.492188 21.886719 55.097656 C 21.828125 55.707031 21.796875 56.316406 21.796875 56.925781 L 21.796875 355.378906 C 21.796875 355.988281 21.828125 356.597656 21.886719 357.207031 C 21.949219 357.816406 22.039062 358.417969 22.160156 359.015625 C 22.277344 359.617188 22.425781 360.207031 22.605469 360.792969 C 22.78125 361.375 22.988281 361.949219 23.222656 362.515625 C 23.457031 363.078125 23.71875 363.628906 24.003906 364.167969 C 24.292969 364.707031 24.605469 365.230469 24.945312 365.738281 C 25.285156 366.246094 25.648438 366.734375 26.039062 367.207031 C 26.425781 367.679688 26.835938 368.132812 27.265625 368.5625 C 27.699219 368.996094 28.148438 369.40625 28.621094 369.792969 C 29.09375 370.179688 29.585938 370.542969 30.089844 370.882812 C 30.597656 371.222656 31.121094 371.535156 31.660156 371.824219 C 32.199219 372.113281 32.75 372.375 33.316406 372.605469 C 33.878906 372.839844 34.453125 373.046875 35.039062 373.226562 C 35.621094 373.402344 36.214844 373.550781 36.8125 373.671875 C 37.410156 373.789062 38.015625 373.878906 38.621094 373.941406 C 39.230469 374 39.839844 374.03125 40.449219 374.03125 L 233.199219 374.03125 C 233.8125 374.03125 234.421875 374 235.027344 373.941406 C 235.636719 373.878906 236.238281 373.789062 236.839844 373.671875 C 237.4375 373.550781 238.027344 373.402344 238.613281 373.226562 C 239.195312 373.046875 239.769531 372.839844 240.335938 372.605469 C 240.898438 372.375 241.449219 372.113281 241.988281 371.824219 C 242.527344 371.535156 243.050781 371.222656 243.558594 370.882812 C 244.066406 370.542969 244.554688 370.179688 245.027344 369.792969 C 245.5 369.40625 245.953125 368.996094 246.382812 368.5625 C 246.816406 368.132812 247.226562 367.679688 247.613281 367.207031 C 248 366.734375 248.363281 366.246094 248.703125 365.738281 C 249.042969 365.230469 249.355469 364.707031 249.644531 364.167969 C 249.933594 363.628906 250.195312 363.078125 250.429688 362.515625 C 250.664062 361.949219 250.867188 361.375 251.046875 360.792969 C 251.222656 360.207031 251.371094 359.617188 251.492188 359.015625 C 251.613281 358.417969 251.703125 357.816406 251.761719 357.207031 C 251.824219 356.597656 251.851562 355.988281 251.855469 355.378906 L 251.855469 130.183594 C 251.855469 127.839844 251.429688 125.574219 250.574219 123.390625 C 249.722656 121.207031 248.496094 119.253906 246.90625 117.53125 Z M 246.90625 117.53125 " fill-opacity="1" fill-rule="nonzero"/></g><path fill="#ffffff" d="M 289.160156 92.867188 L 289.160156 318.074219 C 289.160156 318.683594 289.125 319.292969 289.066406 319.898438 C 289.003906 320.507812 288.914062 321.109375 288.792969 321.707031 C 288.671875 322.304688 288.523438 322.898438 288.34375 323.480469 C 288.167969 324.066406 287.960938 324.640625 287.726562 325.203125 C 287.492188 325.765625 287.230469 326.316406 286.941406 326.855469 C 286.652344 327.394531 286.339844 327.914062 286 328.421875 C 285.660156 328.929688 285.296875 329.417969 284.910156 329.890625 C 284.523438 330.363281 284.113281 330.816406 283.679688 331.246094 C 283.25 331.679688 282.796875 332.085938 282.324219 332.476562 C 281.855469 332.863281 281.363281 333.226562 280.855469 333.566406 C 280.351562 333.90625 279.828125 334.21875 279.289062 334.507812 C 278.75 334.796875 278.199219 335.058594 277.636719 335.292969 C 277.074219 335.527344 276.5 335.730469 275.914062 335.910156 C 275.332031 336.089844 274.742188 336.238281 274.140625 336.359375 C 273.542969 336.480469 272.941406 336.570312 272.332031 336.632812 C 271.726562 336.691406 271.117188 336.722656 270.507812 336.726562 L 77.757812 336.726562 C 77.144531 336.722656 76.539062 336.691406 75.929688 336.632812 C 75.324219 336.570312 74.71875 336.480469 74.121094 336.359375 C 73.523438 336.238281 72.933594 336.089844 72.347656 335.910156 C 71.765625 335.730469 71.191406 335.527344 70.625 335.292969 C 70.0625 335.058594 69.511719 334.796875 68.972656 334.507812 C 68.4375 334.21875 67.914062 333.90625 67.40625 333.566406 C 66.898438 333.226562 66.410156 332.863281 65.9375 332.476562 C 65.464844 332.085938 65.015625 331.679688 64.582031 331.246094 C 64.152344 330.816406 63.742188 330.363281 63.355469 329.890625 C 62.964844 329.417969 62.601562 328.929688 62.265625 328.421875 C 61.925781 327.914062 61.609375 327.394531 61.320312 326.855469 C 61.035156 326.316406 60.773438 325.765625 60.539062 325.203125 C 60.304688 324.640625 60.097656 324.066406 59.917969 323.480469 C 59.742188 322.898438 59.589844 322.304688 59.472656 321.707031 C 59.351562 321.109375 59.257812 320.507812 59.199219 319.898438 C 59.136719 319.292969 59.105469 318.683594 59.101562 318.074219 L 59.101562 19.621094 C 59.105469 19.011719 59.136719 18.402344 59.199219 17.792969 C 59.257812 17.1875 59.351562 16.582031 59.472656 15.984375 C 59.589844 15.386719 59.742188 14.796875 59.917969 14.210938 C 60.097656 13.628906 60.304688 13.054688 60.539062 12.492188 C 60.773438 11.925781 61.035156 11.375 61.320312 10.839844 C 61.609375 10.300781 61.925781 9.777344 62.265625 9.269531 C 62.601562 8.761719 62.964844 8.273438 63.355469 7.800781 C 63.742188 7.328125 64.152344 6.878906 64.582031 6.445312 C 65.015625 6.015625 65.464844 5.605469 65.9375 5.21875 C 66.410156 4.832031 66.898438 4.46875 67.40625 4.128906 C 67.914062 3.789062 68.4375 3.472656 68.972656 3.1875 C 69.511719 2.898438 70.0625 2.636719 70.625 2.402344 C 71.191406 2.167969 71.765625 1.960938 72.347656 1.78125 C 72.933594 1.605469 73.523438 1.457031 74.121094 1.335938 C 74.71875 1.214844 75.324219 1.125 75.929688 1.0625 C 76.539062 1 77.144531 0.96875 77.757812 0.96875 L 202.859375 0.96875 C 204.144531 0.96875 205.421875 1.097656 206.683594 1.363281 C 207.945312 1.625 209.167969 2.011719 210.347656 2.523438 C 211.53125 3.039062 212.648438 3.667969 213.699219 4.410156 C 214.753906 5.152344 215.71875 5.996094 216.597656 6.9375 L 284.1875 80.242188 C 285.789062 81.953125 287.023438 83.898438 287.882812 86.078125 C 288.742188 88.257812 289.167969 90.523438 289.160156 92.867188 Z M 289.160156 92.867188 " fill-opacity="1" fill-rule="nonzero"/><path fill="#ff6e40" d="M 208.328125 38.273438 L 127.5 38.273438 C 126.886719 38.273438 126.277344 38.304688 125.671875 38.367188 C 125.0625 38.425781 124.460938 38.515625 123.859375 38.636719 C 123.261719 38.753906 122.671875 38.902344 122.085938 39.082031 C 121.5 39.257812 120.925781 39.464844 120.363281 39.699219 C 119.800781 39.933594 119.25 40.195312 118.710938 40.484375 C 118.171875 40.769531 117.648438 41.085938 117.140625 41.421875 C 116.632812 41.761719 116.144531 42.125 115.671875 42.515625 C 115.199219 42.902344 114.746094 43.3125 114.316406 43.742188 C 113.882812 44.175781 113.472656 44.628906 113.085938 45.097656 C 112.699219 45.570312 112.335938 46.0625 111.996094 46.570312 C 111.65625 47.078125 111.34375 47.601562 111.054688 48.136719 C 110.765625 48.675781 110.503906 49.226562 110.269531 49.792969 C 110.035156 50.355469 109.832031 50.929688 109.652344 51.515625 C 109.476562 52.097656 109.328125 52.691406 109.207031 53.289062 C 109.085938 53.886719 108.996094 54.492188 108.9375 55.097656 C 108.875 55.707031 108.847656 56.316406 108.84375 56.925781 L 108.84375 63.144531 C 108.847656 63.753906 108.875 64.363281 108.9375 64.972656 C 108.996094 65.582031 109.085938 66.183594 109.207031 66.78125 C 109.328125 67.382812 109.476562 67.972656 109.652344 68.558594 C 109.832031 69.140625 110.035156 69.714844 110.269531 70.28125 C 110.503906 70.84375 110.765625 71.394531 111.054688 71.933594 C 111.34375 72.472656 111.65625 72.996094 111.996094 73.503906 C 112.335938 74.011719 112.699219 74.5 113.085938 74.972656 C 113.472656 75.445312 113.882812 75.898438 114.316406 76.328125 C 114.746094 76.761719 115.199219 77.171875 115.671875 77.558594 C 116.144531 77.945312 116.632812 78.308594 117.140625 78.648438 C 117.648438 78.988281 118.171875 79.300781 118.710938 79.589844 C 119.25 79.878906 119.800781 80.140625 120.363281 80.371094 C 120.925781 80.605469 121.5 80.8125 122.085938 80.992188 C 122.671875 81.167969 123.261719 81.316406 123.859375 81.4375 C 124.460938 81.554688 125.0625 81.644531 125.671875 81.707031 C 126.277344 81.765625 126.886719 81.796875 127.5 81.796875 L 208.328125 81.796875 C 208.738281 81.796875 209.140625 81.757812 209.542969 81.679688 C 209.941406 81.597656 210.332031 81.480469 210.710938 81.324219 C 211.085938 81.167969 211.445312 80.976562 211.785156 80.75 C 212.125 80.523438 212.4375 80.265625 212.726562 79.976562 C 213.015625 79.6875 213.273438 79.375 213.5 79.035156 C 213.726562 78.695312 213.917969 78.335938 214.074219 77.960938 C 214.230469 77.582031 214.347656 77.195312 214.429688 76.792969 C 214.507812 76.394531 214.546875 75.988281 214.546875 75.582031 L 214.546875 44.492188 C 214.546875 44.082031 214.507812 43.679688 214.429688 43.277344 C 214.347656 42.878906 214.230469 42.488281 214.074219 42.113281 C 213.917969 41.734375 213.726562 41.375 213.5 41.035156 C 213.273438 40.699219 213.015625 40.382812 212.726562 40.09375 C 212.4375 39.804688 212.125 39.546875 211.785156 39.320312 C 211.445312 39.09375 211.085938 38.902344 210.710938 38.746094 C 210.332031 38.589844 209.941406 38.472656 209.542969 38.394531 C 209.140625 38.3125 208.738281 38.273438 208.328125 38.273438 Z M 208.328125 38.273438 " fill-opacity="1" fill-rule="nonzero"/><path fill="#424242" d="M 258.070312 125.324219 L 139.933594 125.324219 C 139.527344 125.324219 139.121094 125.28125 138.722656 125.203125 C 138.320312 125.125 137.933594 125.003906 137.554688 124.847656 C 137.175781 124.691406 136.820312 124.5 136.480469 124.273438 C 136.140625 124.046875 135.828125 123.789062 135.539062 123.5 C 135.25 123.210938 134.992188 122.898438 134.765625 122.558594 C 134.539062 122.21875 134.347656 121.859375 134.191406 121.484375 C 134.035156 121.105469 133.914062 120.71875 133.835938 120.316406 C 133.757812 119.917969 133.714844 119.511719 133.714844 119.105469 C 133.714844 118.695312 133.757812 118.292969 133.835938 117.890625 C 133.914062 117.492188 134.035156 117.101562 134.191406 116.726562 C 134.347656 116.347656 134.539062 115.988281 134.765625 115.648438 C 134.992188 115.3125 135.25 114.996094 135.539062 114.707031 C 135.828125 114.417969 136.140625 114.160156 136.480469 113.933594 C 136.820312 113.707031 137.175781 113.515625 137.554688 113.359375 C 137.933594 113.203125 138.320312 113.085938 138.722656 113.007812 C 139.121094 112.925781 139.527344 112.886719 139.933594 112.886719 L 258.070312 112.886719 C 258.480469 112.886719 258.882812 112.925781 259.285156 113.007812 C 259.683594 113.085938 260.074219 113.203125 260.449219 113.359375 C 260.828125 113.515625 261.1875 113.707031 261.527344 113.933594 C 261.867188 114.160156 262.179688 114.417969 262.46875 114.707031 C 262.757812 114.996094 263.015625 115.3125 263.242188 115.648438 C 263.46875 115.988281 263.660156 116.347656 263.816406 116.726562 C 263.972656 117.101562 264.089844 117.492188 264.167969 117.890625 C 264.25 118.292969 264.289062 118.695312 264.289062 119.105469 C 264.289062 119.511719 264.25 119.917969 264.167969 120.316406 C 264.089844 120.71875 263.972656 121.105469 263.816406 121.484375 C 263.660156 121.859375 263.46875 122.21875 263.242188 122.558594 C 263.015625 122.898438 262.757812 123.210938 262.46875 123.5 C 262.179688 123.789062 261.867188 124.046875 261.527344 124.273438 C 261.1875 124.5 260.828125 124.691406 260.449219 124.847656 C 260.074219 125.003906 259.683594 125.125 259.285156 125.203125 C 258.882812 125.28125 258.480469 125.324219 258.070312 125.324219 Z M 258.070312 125.324219 " fill-opacity="1" fill-rule="nonzero"/><path fill="#424242" d="M 258.070312 175.066406 L 139.933594 175.066406 C 139.527344 175.066406 139.121094 175.023438 138.722656 174.945312 C 138.320312 174.867188 137.933594 174.746094 137.554688 174.589844 C 137.175781 174.433594 136.820312 174.242188 136.480469 174.015625 C 136.140625 173.789062 135.828125 173.53125 135.539062 173.242188 C 135.25 172.953125 134.992188 172.640625 134.765625 172.300781 C 134.539062 171.960938 134.347656 171.601562 134.191406 171.226562 C 134.035156 170.847656 133.914062 170.460938 133.835938 170.058594 C 133.757812 169.660156 133.714844 169.253906 133.714844 168.847656 C 133.714844 168.4375 133.757812 168.035156 133.835938 167.632812 C 133.914062 167.234375 134.035156 166.84375 134.191406 166.46875 C 134.347656 166.089844 134.539062 165.730469 134.765625 165.390625 C 134.992188 165.054688 135.25 164.738281 135.539062 164.449219 C 135.828125 164.160156 136.140625 163.902344 136.480469 163.675781 C 136.820312 163.449219 137.175781 163.257812 137.554688 163.101562 C 137.933594 162.945312 138.320312 162.828125 138.722656 162.75 C 139.121094 162.667969 139.527344 162.628906 139.933594 162.628906 L 258.070312 162.628906 C 258.480469 162.628906 258.882812 162.667969 259.285156 162.75 C 259.683594 162.828125 260.074219 162.945312 260.449219 163.101562 C 260.828125 163.257812 261.1875 163.449219 261.527344 163.675781 C 261.867188 163.902344 262.179688 164.160156 262.46875 164.449219 C 262.757812 164.738281 263.015625 165.054688 263.242188 165.390625 C 263.46875 165.730469 263.660156 166.089844 263.816406 166.46875 C 263.972656 166.84375 264.089844 167.234375 264.167969 167.632812 C 264.25 168.035156 264.289062 168.4375 264.289062 168.847656 C 264.289062 169.253906 264.25 169.660156 264.167969 170.058594 C 264.089844 170.460938 263.972656 170.847656 263.816406 171.226562 C 263.660156 171.601562 263.46875 171.960938 263.242188 172.300781 C 263.015625 172.640625 262.757812 172.953125 262.46875 173.242188 C 262.179688 173.53125 261.867188 173.789062 261.527344 174.015625 C 261.1875 174.242188 260.828125 174.433594 260.449219 174.589844 C 260.074219 174.746094 259.683594 174.867188 259.285156 174.945312 C 258.882812 175.023438 258.480469 175.066406 258.070312 175.066406 Z M 258.070312 175.066406 " fill-opacity="1" fill-rule="nonzero"/><path fill="#424242" d="M 220.765625 224.804688 L 139.933594 224.804688 C 139.527344 224.804688 139.121094 224.765625 138.722656 224.6875 C 138.320312 224.605469 137.933594 224.488281 137.554688 224.332031 C 137.175781 224.175781 136.820312 223.984375 136.480469 223.757812 C 136.140625 223.53125 135.828125 223.273438 135.539062 222.984375 C 135.25 222.695312 134.992188 222.382812 134.765625 222.042969 C 134.539062 221.703125 134.347656 221.34375 134.191406 220.96875 C 134.035156 220.589844 133.914062 220.203125 133.835938 219.800781 C 133.757812 219.402344 133.714844 218.996094 133.714844 218.589844 C 133.714844 218.179688 133.757812 217.777344 133.835938 217.375 C 133.914062 216.976562 134.035156 216.585938 134.191406 216.210938 C 134.347656 215.832031 134.539062 215.472656 134.765625 215.132812 C 134.992188 214.792969 135.25 214.480469 135.539062 214.191406 C 135.828125 213.902344 136.140625 213.644531 136.480469 213.417969 C 136.820312 213.191406 137.175781 213 137.554688 212.84375 C 137.933594 212.6875 138.320312 212.570312 138.722656 212.492188 C 139.121094 212.410156 139.527344 212.371094 139.933594 212.371094 L 220.765625 212.371094 C 221.171875 212.371094 221.578125 212.410156 221.976562 212.492188 C 222.378906 212.570312 222.765625 212.6875 223.144531 212.84375 C 223.523438 213 223.878906 213.191406 224.21875 213.417969 C 224.558594 213.644531 224.871094 213.902344 225.160156 214.191406 C 225.449219 214.480469 225.707031 214.792969 225.933594 215.132812 C 226.160156 215.472656 226.351562 215.832031 226.507812 216.210938 C 226.664062 216.585938 226.785156 216.976562 226.863281 217.375 C 226.941406 217.777344 226.984375 218.179688 226.984375 218.589844 C 226.984375 218.996094 226.941406 219.402344 226.863281 219.800781 C 226.785156 220.203125 226.664062 220.589844 226.507812 220.96875 C 226.351562 221.34375 226.160156 221.703125 225.933594 222.042969 C 225.707031 222.382812 225.449219 222.695312 225.160156 222.984375 C 224.871094 223.273438 224.558594 223.53125 224.21875 223.757812 C 223.878906 223.984375 223.523438 224.175781 223.144531 224.332031 C 222.765625 224.488281 222.378906 224.605469 221.976562 224.6875 C 221.578125 224.765625 221.171875 224.804688 220.765625 224.804688 Z M 220.765625 224.804688 " fill-opacity="1" fill-rule="nonzero"/><path fill="#ff6e40" d="M 96.410156 100.453125 L 108.84375 100.453125 C 109.660156 100.453125 110.46875 100.53125 111.269531 100.691406 C 112.074219 100.851562 112.851562 101.085938 113.605469 101.398438 C 114.359375 101.710938 115.074219 102.09375 115.753906 102.546875 C 116.433594 103 117.0625 103.515625 117.636719 104.09375 C 118.214844 104.671875 118.730469 105.300781 119.183594 105.976562 C 119.640625 106.65625 120.023438 107.375 120.335938 108.128906 C 120.648438 108.882812 120.882812 109.660156 121.042969 110.460938 C 121.203125 111.261719 121.28125 112.070312 121.28125 112.886719 L 121.28125 125.324219 C 121.28125 126.140625 121.203125 126.949219 121.042969 127.75 C 120.882812 128.550781 120.648438 129.328125 120.335938 130.082031 C 120.023438 130.835938 119.640625 131.550781 119.183594 132.230469 C 118.730469 132.910156 118.214844 133.539062 117.636719 134.117188 C 117.0625 134.691406 116.433594 135.207031 115.753906 135.664062 C 115.074219 136.117188 114.359375 136.5 113.605469 136.8125 C 112.851562 137.125 112.074219 137.359375 111.269531 137.519531 C 110.46875 137.679688 109.660156 137.757812 108.84375 137.757812 L 96.410156 137.757812 C 95.59375 137.757812 94.785156 137.679688 93.984375 137.519531 C 93.183594 137.359375 92.40625 137.125 91.652344 136.8125 C 90.898438 136.5 90.179688 136.117188 89.5 135.664062 C 88.820312 135.207031 88.195312 134.691406 87.617188 134.117188 C 87.039062 133.539062 86.523438 132.910156 86.070312 132.230469 C 85.617188 131.550781 85.234375 130.835938 84.921875 130.082031 C 84.609375 129.328125 84.371094 128.550781 84.214844 127.75 C 84.054688 126.949219 83.972656 126.140625 83.972656 125.324219 L 83.972656 112.886719 C 83.972656 112.070312 84.054688 111.261719 84.214844 110.460938 C 84.371094 109.660156 84.609375 108.882812 84.921875 108.128906 C 85.234375 107.375 85.617188 106.65625 86.070312 105.976562 C 86.523438 105.300781 87.039062 104.671875 87.617188 104.09375 C 88.195312 103.515625 88.820312 103 89.5 102.546875 C 90.179688 102.09375 90.898438 101.710938 91.652344 101.398438 C 92.40625 101.085938 93.183594 100.851562 93.984375 100.691406 C 94.785156 100.53125 95.59375 100.453125 96.410156 100.453125 Z M 96.410156 100.453125 " fill-opacity="1" fill-rule="nonzero"/><path fill="#ff6e40" d="M 96.410156 150.195312 L 108.84375 150.195312 C 109.660156 150.195312 110.46875 150.273438 111.269531 150.433594 C 112.074219 150.589844 112.851562 150.828125 113.605469 151.140625 C 114.359375 151.453125 115.074219 151.835938 115.753906 152.289062 C 116.433594 152.742188 117.0625 153.257812 117.636719 153.835938 C 118.214844 154.414062 118.730469 155.042969 119.183594 155.71875 C 119.640625 156.398438 120.023438 157.117188 120.335938 157.871094 C 120.648438 158.625 120.882812 159.402344 121.042969 160.203125 C 121.203125 161.003906 121.28125 161.8125 121.28125 162.628906 L 121.28125 175.066406 C 121.28125 175.882812 121.203125 176.691406 121.042969 177.492188 C 120.882812 178.292969 120.648438 179.070312 120.335938 179.824219 C 120.023438 180.578125 119.640625 181.292969 119.183594 181.972656 C 118.730469 182.652344 118.214844 183.28125 117.636719 183.859375 C 117.0625 184.433594 116.433594 184.949219 115.753906 185.402344 C 115.074219 185.859375 114.359375 186.242188 113.605469 186.554688 C 112.851562 186.867188 112.074219 187.101562 111.269531 187.261719 C 110.46875 187.421875 109.660156 187.5 108.84375 187.5 L 96.410156 187.5 C 95.59375 187.5 94.785156 187.421875 93.984375 187.261719 C 93.183594 187.101562 92.40625 186.867188 91.652344 186.554688 C 90.898438 186.242188 90.179688 185.859375 89.5 185.402344 C 88.820312 184.949219 88.195312 184.433594 87.617188 183.859375 C 87.039062 183.28125 86.523438 182.652344 86.070312 181.972656 C 85.617188 181.292969 85.234375 180.578125 84.921875 179.824219 C 84.609375 179.070312 84.371094 178.292969 84.214844 177.492188 C 84.054688 176.691406 83.972656 175.882812 83.972656 175.066406 L 83.972656 162.628906 C 83.972656 161.8125 84.054688 161.003906 84.214844 160.203125 C 84.371094 159.402344 84.609375 158.625 84.921875 157.871094 C 85.234375 157.117188 85.617188 156.398438 86.070312 155.71875 C 86.523438 155.042969 87.039062 154.414062 87.617188 153.835938 C 88.195312 153.257812 88.820312 152.742188 89.5 152.289062 C 90.179688 151.835938 90.898438 151.453125 91.652344 151.140625 C 92.40625 150.828125 93.183594 150.589844 93.984375 150.433594 C 94.785156 150.273438 95.59375 150.195312 96.410156 150.195312 Z M 96.410156 150.195312 " fill-opacity="1" fill-rule="nonzero"/><path fill="#ff6e40" d="M 96.410156 199.933594 L 108.84375 199.933594 C 109.660156 199.933594 110.46875 200.015625 111.269531 200.175781 C 112.074219 200.332031 112.851562 200.570312 113.605469 200.882812 C 114.359375 201.195312 115.074219 201.578125 115.753906 202.03125 C 116.433594 202.484375 117.0625 203 117.636719 203.578125 C 118.214844 204.15625 118.730469 204.785156 119.183594 205.460938 C 119.640625 206.140625 120.023438 206.859375 120.335938 207.613281 C 120.648438 208.367188 120.882812 209.144531 121.042969 209.945312 C 121.203125 210.746094 121.28125 211.554688 121.28125 212.371094 L 121.28125 224.804688 C 121.28125 225.621094 121.203125 226.433594 121.042969 227.234375 C 120.882812 228.035156 120.648438 228.8125 120.335938 229.566406 C 120.023438 230.320312 119.640625 231.035156 119.183594 231.714844 C 118.730469 232.394531 118.214844 233.023438 117.636719 233.601562 C 117.0625 234.175781 116.433594 234.691406 115.753906 235.144531 C 115.074219 235.601562 114.359375 235.984375 113.605469 236.296875 C 112.851562 236.609375 112.074219 236.84375 111.269531 237.003906 C 110.46875 237.164062 109.660156 237.242188 108.84375 237.242188 L 96.410156 237.242188 C 95.59375 237.242188 94.785156 237.164062 93.984375 237.003906 C 93.183594 236.84375 92.40625 236.609375 91.652344 236.296875 C 90.898438 235.984375 90.179688 235.601562 89.5 235.144531 C 88.820312 234.691406 88.195312 234.175781 87.617188 233.601562 C 87.039062 233.023438 86.523438 232.394531 86.070312 231.714844 C 85.617188 231.035156 85.234375 230.320312 84.921875 229.566406 C 84.609375 228.8125 84.371094 228.035156 84.214844 227.234375 C 84.054688 226.433594 83.972656 225.621094 83.972656 224.804688 L 83.972656 212.371094 C 83.972656 211.554688 84.054688 210.746094 84.214844 209.945312 C 84.371094 209.144531 84.609375 208.367188 84.921875 207.613281 C 85.234375 206.859375 85.617188 206.140625 86.070312 205.460938 C 86.523438 204.785156 87.039062 204.15625 87.617188 203.578125 C 88.195312 203 88.820312 202.484375 89.5 202.03125 C 90.179688 201.578125 90.898438 201.195312 91.652344 200.882812 C 92.40625 200.570312 93.183594 200.332031 93.984375 200.175781 C 94.785156 200.015625 95.59375 199.933594 96.410156 199.933594 Z M 96.410156 199.933594 " fill-opacity="1" fill-rule="nonzero"/><path fill="#ff6e40" d="M 96.410156 249.675781 L 108.84375 249.675781 C 109.660156 249.675781 110.46875 249.757812 111.269531 249.917969 C 112.074219 250.074219 112.851562 250.3125 113.605469 250.625 C 114.359375 250.9375 115.074219 251.320312 115.753906 251.773438 C 116.433594 252.226562 117.0625 252.742188 117.636719 253.320312 C 118.214844 253.898438 118.730469 254.523438 119.183594 255.203125 C 119.640625 255.882812 120.023438 256.601562 120.335938 257.355469 C 120.648438 258.109375 120.882812 258.886719 121.042969 259.6875 C 121.203125 260.488281 121.28125 261.296875 121.28125 262.113281 L 121.28125 274.546875 C 121.28125 275.363281 121.203125 276.171875 121.042969 276.972656 C 120.882812 277.773438 120.648438 278.554688 120.335938 279.308594 C 120.023438 280.0625 119.640625 280.777344 119.183594 281.457031 C 118.730469 282.136719 118.214844 282.765625 117.636719 283.339844 C 117.0625 283.917969 116.433594 284.433594 115.753906 284.886719 C 115.074219 285.34375 114.359375 285.726562 113.605469 286.039062 C 112.851562 286.351562 112.074219 286.585938 111.269531 286.746094 C 110.46875 286.90625 109.660156 286.984375 108.84375 286.984375 L 96.410156 286.984375 C 95.59375 286.984375 94.785156 286.90625 93.984375 286.746094 C 93.183594 286.585938 92.40625 286.351562 91.652344 286.039062 C 90.898438 285.726562 90.179688 285.34375 89.5 284.886719 C 88.820312 284.433594 88.195312 283.917969 87.617188 283.339844 C 87.039062 282.765625 86.523438 282.136719 86.070312 281.457031 C 85.617188 280.777344 85.234375 280.0625 84.921875 279.308594 C 84.609375 278.554688 84.371094 277.773438 84.214844 276.972656 C 84.054688 276.171875 83.972656 275.363281 83.972656 274.546875 L 83.972656 262.113281 C 83.972656 261.296875 84.054688 260.488281 84.214844 259.6875 C 84.371094 258.886719 84.609375 258.109375 84.921875 257.355469 C 85.234375 256.601562 85.617188 255.882812 86.070312 255.203125 C 86.523438 254.523438 87.039062 253.898438 87.617188 253.320312 C 88.195312 252.742188 88.820312 252.226562 89.5 251.773438 C 90.179688 251.320312 90.898438 250.9375 91.652344 250.625 C 92.40625 250.3125 93.183594 250.074219 93.984375 249.917969 C 94.785156 249.757812 95.59375 249.675781 96.410156 249.675781 Z M 96.410156 249.675781 " fill-opacity="1" fill-rule="nonzero"/><path fill="#424242" d="M 226.984375 274.546875 L 139.933594 274.546875 C 139.527344 274.546875 139.121094 274.507812 138.722656 274.429688 C 138.320312 274.347656 137.933594 274.230469 137.554688 274.074219 C 137.175781 273.917969 136.820312 273.726562 136.480469 273.5 C 136.140625 273.273438 135.828125 273.015625 135.539062 272.726562 C 135.25 272.4375 134.992188 272.125 134.765625 271.785156 C 134.539062 271.445312 134.347656 271.085938 134.191406 270.710938 C 134.035156 270.332031 133.914062 269.945312 133.835938 269.542969 C 133.757812 269.144531 133.714844 268.738281 133.714844 268.332031 C 133.714844 267.921875 133.757812 267.519531 133.835938 267.117188 C 133.914062 266.71875 134.035156 266.328125 134.191406 265.953125 C 134.347656 265.574219 134.539062 265.214844 134.765625 264.875 C 134.992188 264.535156 135.25 264.222656 135.539062 263.933594 C 135.828125 263.644531 136.140625 263.386719 136.480469 263.160156 C 136.820312 262.933594 137.175781 262.742188 137.554688 262.585938 C 137.933594 262.429688 138.320312 262.3125 138.722656 262.234375 C 139.121094 262.152344 139.527344 262.113281 139.933594 262.113281 L 226.984375 262.113281 C 227.390625 262.113281 227.796875 262.152344 228.195312 262.234375 C 228.597656 262.3125 228.984375 262.429688 229.363281 262.585938 C 229.738281 262.742188 230.097656 262.933594 230.4375 263.160156 C 230.777344 263.386719 231.089844 263.644531 231.378906 263.933594 C 231.667969 264.222656 231.925781 264.535156 232.152344 264.875 C 232.378906 265.214844 232.570312 265.574219 232.726562 265.953125 C 232.882812 266.328125 233 266.71875 233.082031 267.117188 C 233.160156 267.519531 233.199219 267.921875 233.199219 268.332031 C 233.199219 268.738281 233.160156 269.144531 233.082031 269.542969 C 233 269.945312 232.882812 270.332031 232.726562 270.710938 C 232.570312 271.085938 232.378906 271.445312 232.152344 271.785156 C 231.925781 272.125 231.667969 272.4375 231.378906 272.726562 C 231.089844 273.015625 230.777344 273.273438 230.4375 273.5 C 230.097656 273.726562 229.738281 273.917969 229.363281 274.074219 C 228.984375 274.230469 228.597656 274.347656 228.195312 274.429688 C 227.796875 274.507812 227.390625 274.546875 226.984375 274.546875 Z M 226.984375 274.546875 " fill-opacity="1" fill-rule="nonzero"/><path fill="#bdbdbd" d="M 289.160156 92.867188 L 289.160156 94.234375 L 220.765625 94.234375 C 220.15625 94.230469 219.546875 94.199219 218.9375 94.140625 C 218.332031 94.078125 217.726562 93.988281 217.128906 93.867188 C 216.53125 93.746094 215.941406 93.597656 215.355469 93.417969 C 214.773438 93.238281 214.199219 93.035156 213.636719 92.800781 C 213.070312 92.566406 212.519531 92.304688 211.984375 92.015625 C 211.445312 91.726562 210.921875 91.414062 210.414062 91.074219 C 209.90625 90.734375 209.417969 90.371094 208.945312 89.984375 C 208.472656 89.59375 208.023438 89.1875 207.589844 88.753906 C 207.160156 88.324219 206.75 87.871094 206.363281 87.398438 C 205.976562 86.925781 205.613281 86.4375 205.273438 85.929688 C 204.933594 85.421875 204.617188 84.902344 204.332031 84.363281 C 204.042969 83.824219 203.78125 83.273438 203.546875 82.710938 C 203.3125 82.148438 203.105469 81.574219 202.925781 80.988281 C 202.75 80.40625 202.597656 79.8125 202.480469 79.214844 C 202.359375 78.617188 202.269531 78.015625 202.207031 77.40625 C 202.144531 76.800781 202.113281 76.191406 202.113281 75.582031 L 202.113281 0.96875 L 202.859375 0.96875 C 204.144531 0.96875 205.421875 1.097656 206.683594 1.363281 C 207.945312 1.625 209.167969 2.011719 210.347656 2.523438 C 211.53125 3.039062 212.648438 3.667969 213.699219 4.410156 C 214.753906 5.152344 215.71875 5.996094 216.597656 6.9375 L 284.1875 80.242188 C 285.789062 81.953125 287.023438 83.898438 287.882812 86.078125 C 288.742188 88.257812 289.167969 90.523438 289.160156 92.867188 Z M 289.160156 92.867188 " fill-opacity="1" fill-rule="nonzero"/><path fill="#ff6e40" d="M 326.265625 176.292969 C 324.777344 174.808594 323.21875 173.398438 321.601562 172.058594 C 319.980469 170.714844 318.300781 169.453125 316.5625 168.265625 C 314.828125 167.082031 313.039062 165.976562 311.199219 164.957031 C 309.359375 163.933594 307.480469 163 305.554688 162.152344 C 303.628906 161.304688 301.667969 160.546875 299.675781 159.882812 C 297.679688 159.214844 295.660156 158.640625 293.613281 158.160156 C 291.5625 157.679688 289.5 157.292969 287.414062 157.003906 C 285.332031 156.710938 283.238281 156.519531 281.140625 156.421875 C 279.039062 156.324219 276.9375 156.320312 274.835938 156.417969 C 272.734375 156.511719 270.644531 156.707031 268.558594 156.996094 C 266.476562 157.285156 264.410156 157.667969 262.363281 158.148438 C 260.3125 158.625 258.292969 159.199219 256.296875 159.863281 C 254.300781 160.53125 252.34375 161.285156 250.417969 162.132812 C 248.492188 162.976562 246.609375 163.910156 244.769531 164.929688 C 242.929688 165.949219 241.140625 167.050781 239.402344 168.238281 C 237.664062 169.421875 235.984375 170.683594 234.363281 172.023438 C 232.742188 173.363281 231.183594 174.773438 229.695312 176.257812 C 228.203125 177.738281 226.78125 179.289062 225.433594 180.902344 C 224.082031 182.515625 222.8125 184.1875 221.617188 185.917969 C 220.421875 187.648438 219.308594 189.433594 218.28125 191.265625 C 217.25 193.097656 216.304688 194.976562 215.449219 196.898438 C 214.589844 198.816406 213.824219 200.773438 213.144531 202.765625 C 212.46875 204.757812 211.882812 206.773438 211.394531 208.820312 C 210.902344 210.863281 210.503906 212.929688 210.203125 215.007812 C 209.902344 217.089844 209.699219 219.183594 209.589844 221.28125 C 209.484375 223.382812 209.472656 225.484375 209.554688 227.585938 C 209.640625 229.6875 209.824219 231.78125 210.101562 233.863281 C 210.378906 235.949219 210.753906 238.015625 211.222656 240.066406 C 211.691406 242.117188 212.253906 244.144531 212.910156 246.140625 C 213.5625 248.140625 214.308594 250.105469 215.148438 252.035156 C 215.984375 253.964844 216.90625 255.851562 217.917969 257.695312 C 218.925781 259.539062 220.019531 261.335938 221.195312 263.078125 L 214.199219 282.304688 C 213.785156 283.445312 213.542969 284.621094 213.472656 285.832031 C 213.402344 287.042969 213.507812 288.238281 213.789062 289.417969 C 214.066406 290.597656 214.511719 291.710938 215.117188 292.761719 C 215.722656 293.8125 216.464844 294.753906 217.347656 295.585938 C 218.226562 296.421875 219.210938 297.109375 220.292969 297.65625 C 221.375 298.199219 222.511719 298.582031 223.707031 298.792969 C 224.902344 299.003906 226.101562 299.042969 227.304688 298.902344 C 228.507812 298.765625 229.667969 298.457031 230.785156 297.980469 L 252.765625 288.570312 C 254.582031 289.292969 256.425781 289.9375 258.296875 290.5 C 260.167969 291.066406 262.0625 291.546875 263.976562 291.949219 C 265.886719 292.351562 267.816406 292.671875 269.757812 292.910156 C 271.695312 293.144531 273.644531 293.300781 275.597656 293.371094 C 277.550781 293.441406 279.503906 293.425781 281.457031 293.328125 C 283.410156 293.234375 285.355469 293.050781 287.292969 292.789062 C 289.230469 292.523438 291.152344 292.179688 293.058594 291.75 C 294.964844 291.324219 296.851562 290.8125 298.714844 290.222656 C 300.578125 289.632812 302.414062 288.964844 304.222656 288.21875 C 306.027344 287.472656 307.800781 286.648438 309.535156 285.75 C 311.273438 284.851562 312.96875 283.882812 314.621094 282.835938 C 316.273438 281.792969 317.878906 280.679688 319.4375 279.5 C 320.996094 278.316406 322.5 277.074219 323.949219 275.761719 C 325.402344 274.453125 326.792969 273.082031 328.128906 271.652344 C 329.460938 270.222656 330.730469 268.738281 331.9375 267.203125 C 333.144531 265.664062 334.285156 264.078125 335.355469 262.441406 C 336.425781 260.804688 337.425781 259.125 338.351562 257.40625 C 339.277344 255.683594 340.128906 253.925781 340.90625 252.132812 C 341.683594 250.339844 342.382812 248.515625 343 246.660156 C 343.621094 244.804688 344.160156 242.929688 344.621094 241.027344 C 345.082031 239.128906 345.457031 237.210938 345.753906 235.28125 C 346.050781 233.347656 346.261719 231.40625 346.390625 229.453125 C 346.519531 227.503906 346.566406 225.550781 346.527344 223.597656 C 346.488281 221.640625 346.367188 219.691406 346.160156 217.75 C 345.957031 215.804688 345.667969 213.871094 345.296875 211.953125 C 344.929688 210.03125 344.476562 208.132812 343.941406 206.25 C 343.410156 204.371094 342.796875 202.515625 342.105469 200.6875 C 341.414062 198.859375 340.644531 197.0625 339.796875 195.300781 C 338.953125 193.539062 338.03125 191.816406 337.039062 190.132812 C 336.042969 188.449219 334.980469 186.808594 333.847656 185.21875 C 332.714844 183.625 331.511719 182.082031 330.246094 180.59375 C 328.980469 179.101562 327.65625 177.671875 326.265625 176.292969 Z M 326.265625 176.292969 " fill-opacity="1" fill-rule="nonzero"/><path fill="#ffffff" d="M 277.847656 246.101562 C 277.3125 246.117188 276.785156 246.179688 276.261719 246.296875 C 275.738281 246.414062 275.234375 246.582031 274.742188 246.796875 C 274.253906 247.011719 273.789062 247.269531 273.347656 247.574219 C 272.90625 247.878906 272.5 248.226562 272.128906 248.609375 C 271.753906 248.992188 271.421875 249.40625 271.128906 249.855469 C 270.835938 250.304688 270.589844 250.777344 270.386719 251.273438 C 270.1875 251.765625 270.035156 252.277344 269.929688 252.804688 C 269.828125 253.328125 269.777344 253.859375 269.777344 254.394531 C 269.777344 254.929688 269.828125 255.460938 269.933594 255.984375 C 270.035156 256.511719 270.1875 257.019531 270.386719 257.515625 C 270.589844 258.011719 270.835938 258.484375 271.128906 258.933594 C 271.421875 259.378906 271.753906 259.796875 272.128906 260.179688 C 272.5 260.5625 272.910156 260.90625 273.347656 261.210938 C 273.789062 261.515625 274.253906 261.777344 274.742188 261.992188 C 275.234375 262.207031 275.738281 262.371094 276.261719 262.488281 C 276.785156 262.605469 277.3125 262.671875 277.847656 262.6875 C 278.382812 262.671875 278.914062 262.605469 279.433594 262.488281 C 279.957031 262.371094 280.464844 262.207031 280.953125 261.992188 C 281.445312 261.777344 281.910156 261.515625 282.347656 261.210938 C 282.789062 260.90625 283.195312 260.5625 283.566406 260.179688 C 283.941406 259.796875 284.273438 259.378906 284.566406 258.933594 C 284.859375 258.484375 285.105469 258.011719 285.308594 257.515625 C 285.511719 257.019531 285.664062 256.511719 285.765625 255.984375 C 285.867188 255.460938 285.917969 254.929688 285.917969 254.394531 C 285.917969 253.859375 285.867188 253.328125 285.765625 252.804688 C 285.664062 252.277344 285.511719 251.765625 285.308594 251.269531 C 285.105469 250.773438 284.859375 250.304688 284.566406 249.855469 C 284.273438 249.40625 283.941406 248.992188 283.566406 248.609375 C 283.195312 248.222656 282.789062 247.878906 282.347656 247.574219 C 281.910156 247.269531 281.441406 247.011719 280.953125 246.796875 C 280.460938 246.582031 279.957031 246.414062 279.433594 246.296875 C 278.910156 246.179688 278.382812 246.117188 277.847656 246.101562 Z M 277.847656 246.101562 " fill-opacity="1" fill-rule="nonzero"/><path fill="#ffffff" d="M 299.332031 191.992188 C 290.351562 178.984375 260.210938 180.042969 258.035156 197.753906 C 258.039062 198.3125 258.121094 198.863281 258.277344 199.398438 C 258.433594 199.9375 258.660156 200.445312 258.957031 200.921875 C 259.253906 201.398438 259.605469 201.824219 260.019531 202.203125 C 260.433594 202.582031 260.890625 202.894531 261.390625 203.148438 C 261.890625 203.402344 262.414062 203.582031 262.964844 203.691406 C 263.515625 203.796875 264.070312 203.832031 264.628906 203.785156 C 265.1875 203.742188 265.730469 203.625 266.253906 203.429688 C 266.78125 203.238281 267.273438 202.976562 267.726562 202.648438 C 270.441406 198.542969 272.832031 195.175781 278.921875 195.597656 C 285.636719 195.183594 291.039062 200.394531 287.648438 206.851562 C 285.824219 210.433594 281.867188 212.542969 279.03125 215.089844 C 278.25 215.738281 277.519531 216.441406 276.84375 217.203125 C 276.167969 217.964844 275.558594 218.773438 275.007812 219.632812 C 274.457031 220.488281 273.976562 221.382812 273.566406 222.3125 C 273.15625 223.242188 272.816406 224.199219 272.554688 225.183594 C 272.289062 226.164062 272.101562 227.164062 271.992188 228.175781 C 271.882812 229.183594 271.855469 230.199219 271.902344 231.214844 C 271.949219 232.234375 272.074219 233.238281 272.277344 234.238281 C 272.480469 235.234375 272.757812 236.210938 273.113281 237.164062 C 273.835938 237.648438 274.613281 238.023438 275.445312 238.28125 C 276.277344 238.535156 277.128906 238.667969 278 238.671875 C 278.871094 238.675781 279.726562 238.554688 280.5625 238.308594 C 281.394531 238.058594 282.179688 237.695312 282.90625 237.21875 C 285.515625 233.40625 282.988281 228.792969 285.925781 225.105469 C 288.59375 221.125 294.066406 218.394531 297.230469 213.902344 C 297.902344 213.179688 298.511719 212.40625 299.058594 211.582031 C 299.605469 210.761719 300.082031 209.898438 300.488281 208.996094 C 300.894531 208.09375 301.222656 207.167969 301.476562 206.210938 C 301.730469 205.257812 301.902344 204.289062 301.996094 203.304688 C 302.09375 202.320312 302.105469 201.335938 302.039062 200.347656 C 301.972656 199.363281 301.824219 198.390625 301.597656 197.425781 C 301.371094 196.464844 301.066406 195.527344 300.6875 194.617188 C 300.308594 193.703125 299.855469 192.828125 299.332031 191.992188 Z M 299.332031 191.992188 " fill-opacity="1" fill-rule="nonzero"/></svg>